<?xml version="1.0" encoding="utf-8"?>
<!-- Generator: Adobe Illustrator 19.1.0, SVG Export Plug-In . SVG Version: 6.00 Build 0)  -->
<svg version="1.1" id="Layer_1" xmlns="http://www.w3.org/2000/svg" xmlns:xlink="http://www.w3.org/1999/xlink" x="0px" y="0px"
	 viewBox="0 0 206.1 60.8" style="enable-background:new 0 0 206.1 60.8;" xml:space="preserve">
<style type="text/css">
	.st0{fill:#EF4135;}
	.st1{fill:#071D26;}
	.st2{fill:#232020;}
	.st3{fill:#FFDF54;}
	.st4{fill:none;stroke:#FFDF54;stroke-width:0.142;}
	.st5{fill:#0066AF;}
	.st6{fill:none;}
</style>
<path class="st0" d="M190.8,6.3c1.7,0.4,5.4,1.2,5.4,1.2c-2.1,11-1.3,23,3.9,32.7c2.6,6.2,5.3,13.2,5.6,20.2
	c-5.6-3.9-12.6-4.2-16.8-4.3c-4,0.1-7.8-3.4-12.7-2.6c-4.7,1.2-7.9,2.2-12.8,0.8c-1.6-0.4-3-0.9-4.5-1.4c-3.3-1.7-7.5-3-12.7-1
	c-4.5,1.6-9.4,0.9-13.8-0.5c0.1-7-0.3-13.3-1.1-19.8c-0.2-0.5-0.2-1.1-0.3-1.7c-1.3-8.6-3.4-16.9-6.8-24.7c0,0-0.2-0.4-0.3-0.7
	c0.9-0.5,2.1,0.2,3,0.3c4.3,0.9,8.9,0.4,12.5-1.6c5.8-2.7,12.6-0.4,18.4,0.6l0.3,0c3.6,0.2,6.9-0.4,9.8-1.9c5-2.2,10.6-0.7,14.9,1.4
	C184.8,4.5,189,6,190.8,6.3"/>
<path class="st1" d="M0,4.2l13.6,0c5.5,0,9.6,2.4,9.6,7.5c0,3.7-1.9,5.8-5.2,6.9l0,0.1c3.9,0.8,6,2.9,6,6.6c0,7.1-6.2,8.6-11.5,8.6
	L0,34L0,4.2z M7.9,28.3l2.3,0c2.9,0,5.9-0.4,5.9-3.4c0-3.2-3.1-3.5-5.8-3.5H7.9L7.9,28.3z M7.9,16h2.2c2.6,0,5.2-0.7,5.2-3.2
	c0-2.7-2.5-3-5.2-3l-2.3,0V16z"/>
<polygon class="st1" points="26.1,4.2 33.9,4.2 33.9,33.9 26.1,33.9 "/>
<path class="st1" d="M37.2,4.2l13.6,0c5.5,0,9.6,2.4,9.6,7.5c0,3.7-1.9,5.8-5.2,7l0,0.1c3.9,0.8,6,2.9,6,6.6c0,7.1-6.2,8.6-11.5,8.6
	l-12.4,0L37.2,4.2z M45.1,28.3h2.3c2.9,0,5.9-0.4,5.9-3.5c0-3.2-3.1-3.5-5.8-3.5h-2.4V28.3z M45.1,16h2.2c2.6,0,5.2-0.7,5.2-3.2
	c0-2.7-2.5-3-5.1-3l-2.3,0L45.1,16z"/>
<path class="st1" d="M63.4,4.2l13.5,0c5.5,0,9.6,2.4,9.6,7.5c0,3.8-1.9,5.8-5.2,7v0.1c3.9,0.8,6,2.9,6,6.6c0,7.1-6.2,8.6-11.5,8.6
	l-12.4,0L63.4,4.2z M71.3,28.3h2.3c2.9,0,5.9-0.4,5.9-3.5c0-3.2-3.1-3.5-5.8-3.5h-2.4V28.3z M71.3,15.9h2.2c2.6,0,5.2-0.7,5.2-3.1
	c0-2.7-2.5-3-5.2-3h-2.3L71.3,15.9z"/>
<polygon class="st1" points="115.6,4.2 106.6,4.2 100.4,15.1 95.1,4.2 86,4.2 96.5,21.9 89.6,33.9 98.2,33.9 104.7,22.8 104.8,22.7 
	"/>
<path class="st2" d="M182.5,10.6c0,0.6-0.6,0.6-0.8,1.1c-0.7,0.9-9.9,10.7-13,14.1c0.6,0.8,1.3,2,0.8,3.2c-0.4,1-1.4,1.2-2.4,1.3
	l-0.2,0.3c0.3,2.5-0.2,5-1.8,6.7c-0.1,0.7,0.7,0.9,0.8,1.5c0.3,0.6,0.5,1.3,0.5,2.1c1.3,0.2,2.8,0.6,3.3,2c0.3,1.2,0.2,2.8-0.8,3.5
	c-1.9,1.3-4.4,1.3-6.9,1.3c-2.5-1.3-6-0.6-8.8-1c-0.6-0.5-1.2-0.9-1.6-1.7c0.1-1-0.3-2.1,0.6-2.9c0.9-1.1,2.5-0.9,3.8-0.8l0.2-0.2
	l0-3.8h0.1c-0.2-0.6-0.8-1.2-1.4-1.4c-0.8,1.1-2.2,1.3-3.5,1c-0.7-0.3-1.7-1-1.8-1.9c0-1-0.2-2,0.6-2.9c0.7-0.2,0.7-1,1.6-0.8
	c0-1.2,0.2-2.4,1.1-3c0.4,0,0.7,0,0.9-0.4c0-0.7,0.5-1.1,1.1-1.4c0.4,0.1,0.6,0,0.8-0.3c-0.1-0.8,0.5-1.2,1.1-1.6
	c0.6,0,1-0.2,1.2-0.7c0.1-0.4,0.6-0.7,0.8-1.1c0.4,0.1,0.8-0.1,1.1-0.3c0-1-0.2-2,0.7-2.7c0.7-0.8,1.9-0.7,2.8-0.4
	c0.6,0.1,0.9,0.9,1.7,0.7c3.7-2.1,15.4-8.6,17.6-9.4L182.5,10.6z"/>
<path class="st3" d="M168.6,19.8l-3.4,2.5c-0.3,0.1-0.6-0.1-0.8-0.4l0.3-0.5c1.2-0.8,2.4-1.2,3.5-2.1h0.5L168.6,19.8z"/>
<path class="st4" d="M168.6,19.8l-3.4,2.5c-0.3,0.1-0.6-0.1-0.8-0.4l0.3-0.5c1.2-0.8,2.4-1.2,3.5-2.1h0.5L168.6,19.8z"/>
<path class="st3" d="M171.5,19.4c0,0.1,0,0.1,0.1,0.2c-1,1.2-2.2,2.2-3.1,3c-0.4,0.7-1,1.3-1.7,1.7c-0.4,0.1-0.4-0.2-0.6-0.4
	c0-0.7,0.9-0.6,1-1.3l2.3-1.6v-0.2C170.1,20.4,170.6,19.8,171.5,19.4"/>
<path class="st4" d="M171.5,19.4c0,0.1,0,0.1,0.1,0.2c-1,1.2-2.2,2.2-3.1,3c-0.4,0.7-1,1.3-1.7,1.7c-0.4,0.1-0.4-0.2-0.6-0.4
	c0-0.7,0.9-0.6,1-1.3l2.3-1.6v-0.2C170.1,20.4,170.6,19.8,171.5,19.4z"/>
<path class="st3" d="M163.3,23.2c1.2,0.4,1.7,1.8,2.1,2.9c0.4,1,3,0.9,1.7,2.2c-0.8,0.2-1.3-0.5-2.1-0.7c-2.2-1.6-4.1-3.8-3.7-6.7
	c0.3-0.2,0.7-0.2,1,0C162.8,21.6,162.5,22.8,163.3,23.2"/>
<path class="st4" d="M163.3,23.2c1.2,0.4,1.7,1.8,2.1,2.9c0.4,1,3,0.9,1.7,2.2c-0.8,0.2-1.3-0.5-2.1-0.7c-2.2-1.6-4.1-3.8-3.7-6.7
	c0.3-0.2,0.7-0.2,1,0C162.8,21.6,162.5,22.8,163.3,23.2z"/>
<path class="st3" d="M162.7,26.6c1.5,1.9,3.1,5,1.7,7.8c-0.4,1.2-1.4,1.8-1.9,3c0.3,0.9,1.2,1.5,1.5,2.4c0.4,1.2-0.5,1.9-1.2,2.5
	c-1.4,0.3-2.9-0.2-4.4-0.2c-1-0.6-0.8-2.1-0.9-3c0.3-0.6,1.4-0.1,1.8-0.7c-0.2-1.4-2-1.9-2.5-3c-0.2-0.4-0.7-0.6-0.5-1.2
	c0.1,0,0.2-0.1,0.2-0.2c0-0.4,0.2-0.7,0.2-1.1c0.7,0,1.3-0.4,1.8-0.8l0.5-1c0.8-0.1,0.5,0.8,0.8,1.2c-0.1,0.5-0.2,1-0.2,1.6
	c0.2,0.4,0.8,0.4,1.1,0.2c0.2-0.2,0.3-0.5,0.3-0.8c0.3-1.5,2.1-2.1,1.7-3.8c-0.4-0.8-0.7-1.4-1.5-1.8c-0.6-0.2-1.4,0.1-1.9-0.2
	c0-0.3,0-0.5,0.2-0.7c0.6-0.1,1.3,0.1,1.4-0.6c-0.1-0.3-0.2-0.9-0.7-0.9c-0.4-0.2-0.9,0.1-1.2-0.3c-0.2-0.3-0.1-0.8,0.2-1
	C160.9,24.3,161.5,25.6,162.7,26.6"/>
<path class="st4" d="M162.7,26.6c1.5,1.9,3.1,5,1.7,7.8c-0.4,1.2-1.4,1.8-1.9,3c0.3,0.9,1.2,1.5,1.5,2.4c0.4,1.2-0.5,1.9-1.2,2.5
	c-1.4,0.3-2.9-0.2-4.4-0.2c-1-0.6-0.8-2.1-0.9-3c0.3-0.6,1.4-0.1,1.8-0.7c-0.2-1.4-2-1.9-2.5-3c-0.2-0.4-0.7-0.6-0.5-1.2
	c0.1,0,0.2-0.1,0.2-0.2c0-0.4,0.2-0.7,0.2-1.1c0.7,0,1.3-0.4,1.8-0.8l0.5-1c0.8-0.1,0.5,0.8,0.8,1.2c-0.1,0.5-0.2,1-0.2,1.6
	c0.2,0.4,0.8,0.4,1.1,0.2c0.2-0.2,0.3-0.5,0.3-0.8c0.3-1.5,2.1-2.1,1.7-3.8c-0.4-0.8-0.7-1.4-1.5-1.8c-0.6-0.2-1.4,0.1-1.9-0.2
	c0-0.3,0-0.5,0.2-0.7c0.6-0.1,1.3,0.1,1.4-0.6c-0.1-0.3-0.2-0.9-0.7-0.9c-0.4-0.2-0.9,0.1-1.2-0.3c-0.2-0.3-0.1-0.8,0.2-1
	C160.9,24.3,161.5,25.6,162.7,26.6z"/>
<path class="st3" d="M157.4,26.1c0.1,0.2-0.2,0.2-0.3,0.3c-0.1-0.1-0.2-0.2-0.4-0.3C157,26.1,157.3,25.6,157.4,26.1"/>
<path class="st4" d="M157.4,26.1c0.1,0.2-0.2,0.2-0.3,0.3c-0.1-0.1-0.2-0.2-0.4-0.3C157,26.1,157.3,25.6,157.4,26.1z"/>
<path class="st3" d="M157.4,30.5c0.2,0.4-0.3,0.3-0.3,0.5c-0.7,0.4-1.1-0.3-1.6-0.5c-0.2-0.6-0.9-1.1-0.7-1.9c0.3-0.7,1.1-0.2,1.6,0
	C157,29,157.2,29.9,157.4,30.5"/>
<path class="st4" d="M157.4,30.5c0.2,0.4-0.3,0.3-0.3,0.5c-0.7,0.4-1.1-0.3-1.6-0.5c-0.2-0.6-0.9-1.1-0.7-1.9c0.3-0.7,1.1-0.2,1.6,0
	C157,29,157.2,29.9,157.4,30.5z"/>
<path class="st3" d="M159.6,29.2c-0.1,0.3-0.3,0.4-0.6,0.4V29C159.3,28.9,159.5,29,159.6,29.2"/>
<path class="st4" d="M159.6,29.2c-0.1,0.3-0.3,0.4-0.6,0.4V29C159.3,28.9,159.5,29,159.6,29.2z"/>
<path class="st3" d="M155,33.1c-0.8,0.4-1.1-1-1.7-1.4v-0.8C154.5,30.9,154.6,32.3,155,33.1"/>
<path class="st4" d="M155,33.1c-0.8,0.4-1.1-1-1.7-1.4v-0.8C154.5,30.9,154.6,32.3,155,33.1z"/>
<path class="st3" d="M153.5,33.8c0.1,0.5-0.2,0.9-0.4,1.3c-0.5,0.3-1.1,0.6-1.7,0.2c-0.4-0.3-0.6-0.6-0.7-1.1c0-0.4,0.2-1,0.6-1.3
	c0.4-0.2,0.8-0.4,1.2-0.2C152.9,32.9,153.3,33.3,153.5,33.8"/>
<path class="st4" d="M153.5,33.8c0.1,0.5-0.2,0.9-0.4,1.3c-0.5,0.3-1.1,0.6-1.7,0.2c-0.4-0.3-0.6-0.6-0.7-1.1c0-0.4,0.2-1,0.6-1.3
	c0.4-0.2,0.8-0.4,1.2-0.2C152.9,32.9,153.3,33.3,153.5,33.8z"/>
<path class="st3" d="M167.3,43.3c0.2,0.4,0.6,0.9,0.3,1.3c-0.2,0.4-0.7,0.9-1.2,1.1c-0.4,0-0.8-0.2-1.1-0.5
	c-0.3-0.4-0.5-0.9-0.4-1.4c0.3-0.4,0.6-0.8,1.1-1C166.5,42.6,166.9,42.9,167.3,43.3"/>
<path class="st4" d="M167.3,43.3c0.2,0.4,0.6,0.9,0.3,1.3c-0.2,0.4-0.7,0.9-1.2,1.1c-0.4,0-0.8-0.2-1.1-0.5
	c-0.3-0.4-0.5-0.9-0.4-1.4c0.3-0.4,0.6-0.8,1.1-1C166.5,42.6,166.9,42.9,167.3,43.3z"/>
<path class="st3" d="M155.1,43.8c0.1,0.5-0.1,0.8-0.4,1.1c-0.2,0.4-0.8,0.2-1.1,0.2c-0.5-0.3-0.7-1-0.5-1.6
	C153.4,42.6,155,42.8,155.1,43.8"/>
<path class="st4" d="M155.1,43.8c0.1,0.5-0.1,0.8-0.4,1.1c-0.2,0.4-0.8,0.2-1.1,0.2c-0.5-0.3-0.7-1-0.5-1.6
	C153.4,42.6,155,42.8,155.1,43.8z"/>
<path class="st3" d="M162.8,45.1c0,0.3,0.4,0.7,0,0.9c-1.3,0.6-3.1-0.1-4-1c-0.2-0.4-0.7-0.7-0.5-1.3c1.3-0.2,3-0.2,4.1,0.7
	L162.8,45.1z"/>
<path class="st4" d="M162.8,45.1c0,0.3,0.4,0.7,0,0.9c-1.3,0.6-3.1-0.1-4-1c-0.2-0.4-0.7-0.7-0.5-1.3c1.3-0.2,3-0.2,4.1,0.7
	L162.8,45.1z"/>
<polygon class="st5" points="0.9,43.6 4.3,43.6 4.3,44.6 2,44.6 2,46.3 4.3,46.3 4.3,47.3 2,47.3 2,50 0.8,50 "/>
<polygon class="st5" points="5.8,43.6 6.9,43.6 6.9,50 5.7,50 "/>
<polygon class="st5" points="8.8,43.8 9.9,43.5 12.8,48.3 12.8,48.3 12.7,43.6 13.9,43.6 13.8,49.8 12.7,50.1 9.8,45.3 9.8,45.3 
	9.9,50 8.7,50 "/>
<path class="st5" d="M18.8,47.3l-1.5,0l0.8-2.5h0L18.8,47.3z M17,48.3l2.2,0l0.6,1.8l1.1-0.3l-2.2-6.1l-1.1,0l-2.4,6.1l1.1,0.3
	L17,48.3z"/>
<polygon class="st5" points="22.2,43.8 23.3,43.5 26.3,48.3 26.3,48.3 26.2,43.6 27.4,43.6 27.3,49.8 26.1,50.1 23.3,45.3 
	23.3,45.3 23.4,50 22.2,50 "/>
<path class="st5" d="M34.4,49.5c-0.6,0.4-1.3,0.6-2,0.6c-1.9,0-3.2-1.4-3.3-3.3c0-1.9,1.3-3.3,3.2-3.3c0.8,0,1.5,0.2,2.1,0.7
	l-0.5,0.8c-0.4-0.3-1-0.6-1.5-0.6c-1.2,0-2,1-2,2.3c0,1.2,0.8,2.3,2,2.3c0.8,0,1.2-0.2,1.6-0.4L34.4,49.5z"/>
<polygon class="st5" points="35.7,43.6 36.8,43.6 36.8,50 35.6,50 "/>
<path class="st5" d="M41.8,47.3l-1.5,0l0.8-2.5h0L41.8,47.3z M39.9,48.3h2.2l0.6,1.8l1.1-0.3l-2.2-6.1h-1.1l-2.4,6.1l1.1,0.3
	L39.9,48.3z"/>
<polygon class="st5" points="45.2,43.6 46.4,43.6 46.4,48.9 48.8,48.9 48.8,49.9 45.2,50 "/>
<path class="st5" d="M53.2,48.7c0.3,0.2,0.8,0.4,1.1,0.4c0.6,0,1-0.4,1-0.9c0-1.3-2.6-0.7-2.6-2.9c0-1,0.8-1.8,2.1-1.8
	c0.6,0,1.2,0.2,1.8,0.5l-0.5,0.8c-0.4-0.2-0.7-0.4-1.2-0.4c-0.5,0-1,0.3-1,0.8c0,1.3,2.6,0.9,2.6,2.9c0,1.1-0.9,1.9-2.1,1.9
	c-0.6,0-1.2-0.2-1.7-0.5L53.2,48.7z"/>
<polygon class="st5" points="58.1,43.6 61.5,43.6 61.5,44.6 59.3,44.6 59.3,46.2 61.4,46.2 61.4,47.2 59.3,47.2 59.2,48.9 
	61.5,48.9 61.5,49.9 58.1,49.9 "/>
<path class="st5" d="M64.2,46.5l0-1.9l0.7,0c0.6,0,1,0.3,1,0.9c0,0.8-0.7,1-1,1L64.2,46.5z M63,49.9h1.2l0-2.5h0.4
	c0.2,0,0.3,0.1,0.4,0.2l1.7,2.4l1-0.6L66,47.1c0.7-0.3,1.2-0.8,1.2-1.6c0-1-0.6-1.8-2.1-1.8h-2L63,49.9z"/>
<polygon class="st5" points="68.3,43.9 69.5,43.5 71.1,48.5 71.1,48.5 72.9,43.5 74,43.9 71.6,49.9 70.5,49.9 "/>
<polygon class="st5" points="75.4,43.6 76.5,43.6 76.5,49.9 75.3,49.9 "/>
<path class="st5" d="M83.5,49.4c-0.6,0.4-1.3,0.6-2,0.6c-1.9,0-3.2-1.4-3.2-3.3c0-1.9,1.3-3.3,3.2-3.3c0.7,0,1.5,0.2,2,0.7L83,45
	c-0.4-0.3-1-0.6-1.5-0.5c-1.2,0-2,1-2,2.2c0,1.2,0.8,2.3,2,2.3c0.8,0,1.2-0.2,1.6-0.4L83.5,49.4z"/>
<polygon class="st5" points="84.8,43.6 88.2,43.6 88.2,44.6 86,44.6 86,46.2 88.2,46.2 88.2,47.2 86,47.2 86,48.9 88.2,48.9 
	88.2,49.9 84.8,49.9 "/>
<path class="st5" d="M89.9,48.7c0.3,0.2,0.8,0.4,1.1,0.4c0.6,0,1-0.4,1-0.9c0-1.3-2.6-0.7-2.6-2.9c0-1,0.8-1.8,2.1-1.8
	c0.6,0,1.2,0.2,1.8,0.5l-0.5,0.8c-0.4-0.2-0.7-0.4-1.2-0.4c-0.5,0-1,0.3-1,0.8c0,1.3,2.6,0.9,2.6,2.9c0,1.1-0.9,1.9-2.1,1.9
	c-0.6,0-1.2-0.2-1.7-0.5L89.9,48.7z"/>
<rect x="0" class="st6" width="206.1" height="60.8"/>
</svg>
