<svg xmlns="http://www.w3.org/2000/svg" width="640" height="480" xmlns:xlink="http://www.w3.org/1999/xlink" version="1"><path fill="#cc0001" d="M0-.05h640v480.1H0z"/><path id="a" fill="#fff" d="M0 445.76h640v34.3H0z"/><use width="100%" height="100%" transform="translate(0 -68.586)" xlink:href="#a"/><use width="100%" height="100%" transform="translate(0 -137.17)" xlink:href="#a"/><use width="100%" height="100%" transform="translate(0 -205.757)" xlink:href="#a"/><use width="100%" height="100%" transform="translate(0 -274.343)" xlink:href="#a"/><use width="100%" height="100%" transform="translate(0 -342.93)" xlink:href="#a"/><use width="100%" height="100%" transform="translate(0 -411.514)" xlink:href="#a"/><path fill="#010066" d="M0-.05h480.1V274.3H0z"/><path fill="#fc0" d="M197.53 34.24c-56.98 0-103.23 46.1-103.23 102.88S140.56 240 197.53 240c20.58 0 39.76-6.02 55.87-16.4a91.57 91.57 0 0 1-29.93 5.02c-50.52 0-91.53-40.86-91.53-91.22 0-50.35 41-91.22 91.53-91.22 11.17 0 21.86 2 31.76 5.65-16.48-11.1-36.34-17.58-57.7-17.58zM368.7 190.68l-43.47-22.7 12.85 46.44L309 175.58l-9.07 47.27-8.93-47.3-29.2 38.75 13-46.4-43.55 22.57 32.35-36.3-49.27 1.9 45.3-19-45.24-19.16 49.26 2.05-32.24-36.4 43.48 22.7-12.86-46.43 29.08 38.84 9.08-47.27 8.92 47.3 29.2-38.76-13 46.4 43.56-22.57-32.36 36.3 49.28-1.9-45.3 19 45.23 19.16-49.26-2.04z"/></svg>