<?xml version="1.0" encoding="utf-8"?>
<!-- Generator: Adobe Illustrator 23.0.2, SVG Export Plug-In . SVG Version: 6.00 Build 0)  -->
<svg version="1.1" xmlns="http://www.w3.org/2000/svg" xmlns:xlink="http://www.w3.org/1999/xlink" x="0px" y="0px"
	 viewBox="0 0 80 80" style="enable-background:new 0 0 80 80;" xml:space="preserve">
<style type="text/css">
	.st0{fill:#DDEBB8;}
	.st1{fill:#838271;}
</style>
<g id="Layer_1">
	<title>General_Customer</title>
</g>
<g id="General_x5F_Customer_x5F_original">
	<g>
		<path class="st0" d="M31.6,72c0.3-0.6,0.4-1.3,0.2-1.9c-0.2-0.6-0.7-1.1-1.4-1.3C20.9,65.5,14,56.4,14,45.7
			c0-10.1,6.2-18.8,14.9-22.5c1.2-0.5,1.8-1.9,1.3-3.1L26,10.1c-0.2-0.6-0.7-1.1-1.3-1.3c-0.6-0.2-1.3-0.2-1.9,0
			C9.4,14.9,0,28.3,0,44c0,16.4,10.3,30.4,24.8,35.9c1,0.4,2.1,0,2.7-0.9L31.6,72z"/>
		<path class="st1" d="M38.4,80C18.5,80,2.4,63.8,2.4,44s16.2-36,36.1-36c19.9,0,36.1,16.2,36.1,36c0,10.7-4.9,19-13.7,24
			c0,1.3,0,2.6-0.1,3.8c0,0.4-0.2,0.7-0.5,0.9C53.9,77.4,46.4,80,38.4,80z M38.4,10.4c-18.5,0-33.6,15-33.6,33.5
			c0,18.5,15.1,33.5,33.6,33.5c7.2,0,14-2.2,19.8-6.5c0-0.6,0.1-1.2,0.1-1.8C52.8,71.7,46.1,73,38.4,73c-8,0-15.3-1.7-21.1-4.8
			c-0.4-0.2-0.6-0.6-0.7-1c-0.3-3.3-0.9-9.5,5.3-13.7c0.9-0.7,2.1-1.3,3.3-1.9c3.1-1.7,6.7-3.7,6.5-6.1c-0.2-3.3-1.6-6.2-2.9-9.1
			c-1.2-2.5-2.3-5-2.5-7.4c-0.3-6,3.5-10.2,10-11c2.9-0.3,5.5,0.7,7.7,3c4.2,4.5,5.7,12.8,5.3,15.3c-0.6,3.4-4.1,4.7-6,5.2
			c0.6,4.6,3.6,6.2,8.3,7.4c4.8,1.2,7.4,4.2,8.4,9.9c0.4,2,0.6,4.1,0.7,6.2C68,60.6,72,53.3,72,44C72,25.5,56.9,10.4,38.4,10.4z
			 M19.1,66.4c5.4,2.7,12,4.2,19.3,4.2c7.9,0,14.6-1.4,19.9-4c-0.1-2.4-0.3-4.8-0.7-7.1c-1-5.5-3.2-7.1-6.5-7.9
			c-4.9-1.2-9.9-3.4-10.3-10.7c0-0.6,0.4-1.2,1.1-1.3c0,0,4.5-0.7,5-3.5c0.3-1.5-0.9-9.2-4.7-13.2c-1.6-1.7-3.5-2.5-5.6-2.2
			c-5.2,0.6-8.1,3.7-7.8,8.3c0.1,1.9,1.1,4.1,2.2,6.4c1.4,2.9,2.9,6.2,3.2,10c0.3,4-4,6.3-7.8,8.4c-1.1,0.6-2.2,1.2-3.1,1.8
			C19,58.6,18.8,62.5,19.1,66.4z"/>
	</g>
</g>
</svg>
