<svg id="Layer_1" data-name="Layer 1" xmlns="http://www.w3.org/2000/svg" viewBox="0 0 80 80">
  <defs>
    <style>
      .cls-1 {
        fill: #ebd8e9;
      }

      .cls-2 {
        fill: #838271;
      }

      .cls-3 {
        fill: #7c7e74;
      }
    </style>
  </defs>
  <title>Relationships</title>
  <g>
    <path class="cls-1" d="M52.21363,70.22378a1.936,1.936,0,0,0-1.12887-2.5991q-8.64455-3.08043-16.97362-6.95642A196.57661,196.57661,0,0,1,10.10293,47.38237a2.26694,2.26694,0,0,0-3.08039.58665,38.15371,38.15371,0,0,0-4.10446,7.368,1.93369,1.93369,0,0,0,.50418,2.1986A101.863,101.863,0,0,0,31.0708,74.96591a101.9982,101.9982,0,0,0,14.62234,4.938,3.06474,3.06474,0,0,0,3.68756-2.05826A72.61538,72.61538,0,0,1,52.21363,70.22378Z"/>
    <path class="cls-2" d="M48.38477,77.5166a6.58507,6.58507,0,0,1-4.98536-2.12695,9.1573,9.1573,0,0,1-6.42187-.60059,5.7815,5.7815,0,0,1-2.37109-2.43652,6.87274,6.87274,0,0,1-5.376-.24414,5.98287,5.98287,0,0,1-2.75977-2.66992,6.96668,6.96668,0,0,1-5.81787-1.70606,6.23979,6.23979,0,0,1-1.83594-3.49414A6.18173,6.18173,0,0,1,13.41162,61.583c-1.37744-2.21289-1.01611-5.29.99219-8.44336,3.771-5.92383,14.71094-15.375,23.96045-17.31006a1.24863,1.24863,0,0,1,.74707.07422,18.51271,18.51271,0,0,1,4.49316,3.10889c1.9375,1.63623,3.94239,3.32812,6.57031,3.82519,2.502.47656,3.82715-.17969,4.23926-.94824a1.15675,1.15675,0,0,0-.18554-1.37842,57.44808,57.44808,0,0,1-6.39942-8.14648A23.6392,23.6392,0,0,0,44.124,27.69043c-1.80664-1.46-4.30517-1.47949-7.42724-.05566l-.74414.34179a80.44616,80.44616,0,0,1-14.05762,5.272,17.45405,17.45405,0,0,1-9.52344-.36231A82.161,82.161,0,0,0,2.88379,49.72949a25.63345,25.63345,0,0,1,8.00635,5.11133,1.24977,1.24977,0,0,1-1.68555,1.8457,23.98084,23.98084,0,0,0-8.41113-5.1084,1.25056,1.25056,0,0,1-.70215-1.63378c3.186-7.86329,6.01855-12.48584,10.7915-19.29248a1.25041,1.25041,0,0,1,1.55762-.4126,14.7198,14.7198,0,0,0,8.86475.57959,78.28828,78.28828,0,0,0,13.60156-5.1128l.75293-.3457c5.05078-2.30566,8.2456-1.062,10.03662.38623a24.88232,24.88232,0,0,1,4.19726,5.2085,54.64592,54.64592,0,0,0,6.12207,7.8081,3.66057,3.66057,0,0,1,.60157,4.30713c-.40332.752-2.08985,3.13477-6.90723,2.22461-3.27344-.62012-5.63476-2.61328-7.71875-4.37207a18.96394,18.96394,0,0,0-3.51221-2.5581c-8.40918,1.9663-18.56836,10.77978-21.96679,16.1167-1.44873,2.27636-1.81446,4.43652-.978,5.78027.71728,1.15234,2.27539,1.65918,4.38574,1.42578a1.25,1.25,0,0,1,1.3667,1.4668,3.37658,3.37658,0,0,0,1.09326,2.77148,4.87792,4.87792,0,0,0,4.64893.87988,1.24888,1.24888,0,0,1,1.51269,1.00879,3.1316,3.1316,0,0,0,1.78418,2.04688,4.65817,4.65817,0,0,0,4.38037-.28028,1.25008,1.25008,0,0,1,1.80469.78516A3.37613,3.37613,0,0,0,38.187,72.60059a7.09218,7.09218,0,0,0,5.31006.17089,1.25027,1.25027,0,0,1,1.42188.50489,4.21111,4.21111,0,0,0,4.06152,1.707,4.69408,4.69408,0,0,0,3.90625-2.502,1.24932,1.24932,0,0,1,1.54492-.74512,3.80887,3.80887,0,0,0,3.18262-.63184,2.70076,2.70076,0,0,0,1.11035-2.35156A1.25017,1.25017,0,0,1,60.166,67.48438a4.09171,4.09171,0,0,0,3.11035-1.042,3.13555,3.13555,0,0,0,1.07422-2.60254,1.25008,1.25008,0,0,1,1.458-1.29785,2.41464,2.41464,0,0,0,2.09082-.90039,3.55477,3.55477,0,0,0,.60645-3.47558,1.25061,1.25061,0,0,1,.35352-1.29493,28.1705,28.1705,0,0,1,8.31738-5.0625,105.21957,105.21957,0,0,0-8.499-18.24463,27.70512,27.70512,0,0,1-11.60839,3.02881,1.26244,1.26244,0,0,1-1.32618-1.168,1.24982,1.24982,0,0,1,1.168-1.32714,25.17015,25.17015,0,0,0,11.61719-3.28223,1.25,1.25,0,0,1,1.66211.43359A105.414,105.414,0,0,1,79.93066,52.0957a1.25,1.25,0,0,1-.708,1.56836,28.9936,28.9936,0,0,0-8.12793,4.57032,5.88328,5.88328,0,0,1-1.31446,5.05371,5.1516,5.1516,0,0,1-3.00488,1.71875,5.67012,5.67012,0,0,1-1.82324,3.291,6.79678,6.79678,0,0,1-3.84082,1.69141,5.16615,5.16615,0,0,1-1.99317,3.1123,6.4393,6.4393,0,0,1-4.38476,1.22949,7.53539,7.53539,0,0,1-5.4834,3.1377A7.88912,7.88912,0,0,1,48.38477,77.5166Z"/>
    <path class="cls-3" d="M43.38672,70.34473a1.23352,1.23352,0,0,1-.44238-.08106,1.24967,1.24967,0,0,1-.72657-1.61133,7.15124,7.15124,0,0,1,4.38379-4.24023,7.82221,7.82221,0,0,1,5.64258-4.291,7.26077,7.26077,0,0,1,6.55762-4.31152A7.4776,7.4776,0,0,1,66.166,52.79492a1.25021,1.25021,0,0,1-.43164,2.46289,4.95534,4.95534,0,0,0-5.17579,2.44141,1.249,1.249,0,0,1-1.20214.63086A4.784,4.784,0,0,0,54.334,61.64746a1.25254,1.25254,0,0,1-1.09863.86524,5.30045,5.30045,0,0,0-4.55078,3.3789,1.25013,1.25013,0,0,1-.87207.76953,4.65532,4.65532,0,0,0-3.25684,2.876A1.24884,1.24884,0,0,1,43.38672,70.34473Z"/>
  </g>
</svg>
