<svg id="Layer_1" data-name="Layer 1" xmlns="http://www.w3.org/2000/svg" viewBox="0 0 80 80">
  <defs>
    <style>
      .cls-1 {
        fill: #c9ece6;
      }

      .cls-2 {
        fill: #838271;
      }
    </style>
  </defs>
  <title>Your_Accounts</title>
  <g>
    <path class="cls-1" d="M40.3656,69.215a3.431,3.431,0,0,0-3.42546-3.472c-8.343.141-15.85877-.16908-19.52279-.36124a2.57945,2.57945,0,0,1-2.44353-2.4931c-.37087-10.91013-.23731-21.50083.43982-34.56728a3.39866,3.39866,0,0,0-3.448-3.44959H3.79373A3.31492,3.31492,0,0,0,.6216,28.04544C-.02619,34.17893-.28695,51.777.42855,67.94025A12.57642,12.57642,0,0,0,12.79136,79.966c6.73775.10214,13.89942-.02464,23.36293-.39217a4.22058,4.22058,0,0,0,4.16441-4.11247Z"/>
    <path class="cls-2" d="M30.9252,76.80078c-7.314,0-13.96826-.1748-19.57568-.51953a8.56937,8.56937,0,0,1-8.02783-7.72266A191.13048,191.13048,0,0,1,3.3212,28.16016a8.61829,8.61829,0,0,1,8.21826-7.772c6.22656-.23291,54.33643-.28125,59.17236-.05859h0a8.56336,8.56336,0,0,1,8.13184,7.58447,177.89483,177.89483,0,0,1,.08887,39.71582,8.59885,8.59885,0,0,1-7.85645,7.6211c-1.43555.1123-2.90332.22558-4.39941.3291a1.24989,1.24989,0,0,1-1.3252-1.415,59.68842,59.68842,0,0,0,.29492-8.917c-.22851-3.6709-1.4541-4.85352-3.35742-5.57325l-.32129-.12011c-3.07812-1.15723-5.98535-2.249-5.8291-8.166a1.24975,1.24975,0,0,1,1.1875-1.21484c.02149-.002,2.65332-.19727,3.08692-1.78516.2832-1.03515-.16114-6.93457-2.208-9.61865-.832-1.08984-1.54688-1.08984-1.78125-1.08984-2.42676,0-6.09961,1.26513-6.27344,4.74951a13.63027,13.63027,0,0,0,.96387,4.4209,19.846,19.846,0,0,1,1.34668,7.35058c-.207,3.707-3.85938,5.60449-6.52735,6.99024-.54882.28515-1.06445.55175-1.50488.81347-2.05566,1.22559-2.67676,2.80371-3.01269,4.9541a80.4145,80.4145,0,0,0-.10352,8.46582,1.25081,1.25081,0,0,1-1.22656,1.29C36.9418,76.77246,33.87979,76.80078,30.9252,76.80078ZM46.33975,22.68457c-14.729,0-31.23632.07227-34.70507.20166A6.1103,6.1103,0,0,0,5.81,28.39844a188.85119,188.85119,0,0,0-.001,39.91211,6.07941,6.07941,0,0,0,5.6958,5.47558c7.50293.46,16.91651.61621,27.2793.4502a69.6246,69.6246,0,0,1,.16113-7.66211,8.63805,8.63805,0,0,1,4.20508-6.71777c.47852-.28418,1.03613-.5752,1.63086-.88379,2.25293-1.16993,5.05664-2.626,5.18359-4.91114a17.6138,17.6138,0,0,0-1.22851-6.43847,15.23586,15.23586,0,0,1-1.082-5.31836c.23144-4.67676,4.58691-7.12451,8.76953-7.12451a4.66544,4.66544,0,0,1,3.76855,2.07373c2.49219,3.2666,3.13379,9.96289,2.63282,11.79394-.624,2.28125-2.793,3.13086-4.17872,3.44336.15528,3.20215,1.585,3.74024,4.2002,4.72266l.32617.123c3.2207,1.2168,4.70606,3.53614,4.96875,7.75489a63.68014,63.68014,0,0,1-.1543,7.88769q1.46631-.10694,2.89258-.2207a6.0967,6.0967,0,0,0,5.56836-5.40234,175.46148,175.46148,0,0,0-.08691-39.14991,6.07275,6.07275,0,0,0-5.76465-5.37988h0C68.47354,22.72949,57.95889,22.68457,46.33975,22.68457ZM14.03165,37.56592l24.3208-.32666a1.25005,1.25005,0,0,0-.01611-2.5h-.01709l-24.32081.32666a1.25005,1.25005,0,0,0,.01612,2.5Zm.33789,8.28076L36.079,45.35742A1.25013,1.25013,0,0,0,37.3002,44.0791a1.23181,1.23181,0,0,0-1.27783-1.22168l-21.70947.48926a1.25016,1.25016,0,0,0,.02783,2.5Zm.31006,8.28125L32.308,53.96484a1.25059,1.25059,0,0,0,1.23828-1.26172,1.26626,1.26626,0,0,0-1.26172-1.23828l-17.62842.16309a1.25,1.25,0,0,0,.01123,2.5Z"/>
  </g>
</svg>
