<?xml version="1.0" encoding="utf-8"?>
<!-- Generator: Adobe Illustrator 23.0.1, SVG Export Plug-In . SVG Version: 6.00 Build 0)  -->
<svg version="1.1" id="Layer_1" xmlns="http://www.w3.org/2000/svg" xmlns:xlink="http://www.w3.org/1999/xlink" x="0px" y="0px"
	 viewBox="0 0 573.8 216" style="enable-background:new 0 0 573.8 216;" xml:space="preserve">
<style type="text/css">
	.st0{fill:none;}
	.st1{fill:#838271;}
	.st2{fill:#BA0C2F;}
	.st3{fill:#FFFFFF;}
</style>
<rect x="0" class="st0" width="573.8" height="216"/>
<g>
	<path class="st1" d="M11.4,121.6c0,2.7,0.3,5.2,0.9,7.6s1.5,4.4,2.8,6.2s2.9,3.1,4.9,4.1s4.4,1.5,7.2,1.5c2,0,3.9-0.3,5.5-0.9
		c1.6-0.6,3-1.3,4.1-2.1c1.4-0.9,2.6-1.9,3.6-3c0.6,0.7,1.4,1.7,2.3,3.1s1.4,2.7,1.4,3.9c0,0.4-0.1,0.8-0.3,1.2
		c-0.4,0.7-1,1.5-2,2.4c-1.4,1.2-3.5,2.3-6.2,3.2s-6,1.4-9.9,1.4c-2.5,0-5.2-0.4-8.2-1c-3-0.7-5.8-2.1-8.3-4.1
		c-2.6-2.1-4.8-4.9-6.5-8.6c-1.8-3.7-2.6-8.6-2.6-14.6c0-5.6,0.9-10.2,2.8-13.9c1.8-3.6,4.1-6.5,6.8-8.6c2.7-2.1,5.6-3.5,8.6-4.4
		c3-0.8,5.7-1.2,8-1.2c2.8,0,5.4,0.3,7.6,0.9c2.3,0.6,4.2,1.4,5.8,2.3c1.5,0.9,2.7,1.8,3.4,2.7c0.8,1,1.1,1.9,1.1,2.9
		c0,1.9-1.4,4.5-3.1,6.9c-1.2-1.4-3.1-2.9-5.5-4.3c-2.4-1.4-5.1-2.1-8.1-2.1c-2.9,0-5.3,0.5-7.3,1.4s-3.7,2.3-5,4
		c-1.3,1.7-2.3,3.7-2.9,6C11.7,116.5,11.4,119,11.4,121.6z"/>
	<path class="st1" d="M99.5,147.2c-0.8-1.1-1.4-2.8-1.7-4.9c-0.4-2.3-0.5-5.6-0.5-9.8v-18.8c0-3.3-0.3-6.2-1-8.8
		c-0.7-2.5-1.8-4.6-3.4-6.4c-1.6-1.7-3.8-3-6.4-3.8s-6-1.3-9.9-1.3c-2.3,0-4.7,0.2-7.1,0.6c-2.4,0.4-4.6,0.9-6.6,1.6
		c-2,0.7-3.6,1.5-4.9,2.4c-1.2,0.9-1.9,1.9-1.9,2.9c0,0.7,0.2,1.7,0.7,3.1c0.5,1.4,1.1,2.6,1.9,3.8c2.4-1.7,4.8-2.9,7.3-3.9
		c2.5-1,5.6-1.5,9.2-1.5c4.4,0,7.4,0.8,8.9,2.5c1.6,1.7,2.3,4.1,2.3,7.3v1.8c-0.7-0.1-1.5-0.1-2.4-0.1s-1.7,0-2.4,0
		c-2.8,0.1-5.9,0.4-9.2,0.9s-6.5,1.5-9.4,3s-5.4,3.4-7.4,5.9c-2,2.5-3,5.7-3,9.6l0,0c0,3.2,0.6,5.9,1.6,8s2.5,3.8,4.2,5
		c1.7,1.2,3.6,2.1,5.6,2.5c2.1,0.5,4.1,0.7,6.1,0.7c4.2,0,7.6-0.6,10.2-2c2.6-1.3,4.8-2.9,6.6-4.8c0.3,2.2,1.2,3.8,2.9,4.6
		c1.6,0.9,3.5,1.3,5.7,1.3c0.7,0,1.3,0,2-0.1s1.2-0.1,1.6-0.3c0.4-0.1,0.7-0.4,0.7-0.8C99.6,147.5,99.6,147.3,99.5,147.2z
		 M86.4,132.9c0,0.9-0.4,1.8-1.1,2.8c-0.8,1-1.8,1.8-3.1,2.6s-2.8,1.5-4.4,2c-1.7,0.5-3.4,0.8-5.3,0.8c-3.5,0-5.9-0.9-7.2-2.5
		c-1.3-1.7-1.9-3.6-1.9-5.9c0-2.4,0.6-4.3,1.8-5.7c1.2-1.4,2.8-2.6,4.7-3.4c1.9-0.8,4.1-1.4,6.4-1.7c2.4-0.3,4.7-0.4,7-0.4h3.1
		L86.4,132.9L86.4,132.9z"/>
	<path class="st1" d="M157.7,148.5h-11.1v-30.7c0-2.1-0.1-4.1-0.2-5.9s-0.5-3.4-1.2-4.7c-0.6-1.3-1.7-2.3-3.1-3s-3.4-1.1-6-1.1
		c-3.6,0-6.8,0.7-9.4,2.4c-2.6,1.7-3.9,3.9-3.9,6.4v36.5h-11.2V94.6c0.2,0,0.4,0,0.6-0.1c0.2,0,0.4,0,0.7,0s0.6,0,0.9,0
		c2,0,3.8,0.5,5.4,1.4c1.6,0.9,2.6,2.5,2.9,4.7c1.7-1.8,4.1-3.5,7.1-4.9c3-1.4,6.5-2.2,10.6-2.2c5.2,0,9.1,1.1,11.8,3.5
		c2.7,2.3,4.5,5.2,5.4,8.6c0.4,1.5,0.6,3.2,0.7,5.1s0.1,3.7,0.1,5.5L157.7,148.5L157.7,148.5z"/>
	<path class="st1" d="M215.7,147.2c-0.8-1.1-1.4-2.8-1.7-4.9c-0.4-2.3-0.5-5.6-0.5-9.8v-18.8c0-3.3-0.3-6.2-1-8.8
		c-0.7-2.5-1.8-4.6-3.5-6.4c-1.6-1.7-3.8-3-6.4-3.8s-6-1.3-9.9-1.3c-2.3,0-4.7,0.2-7.1,0.6c-2.4,0.4-4.6,0.9-6.6,1.6
		s-3.6,1.5-4.9,2.4c-1.2,0.9-1.9,1.9-1.9,2.9c0,0.7,0.2,1.7,0.7,3.1c0.5,1.4,1.1,2.6,1.9,3.8c2.4-1.7,4.8-2.9,7.3-3.9
		c2.5-1,5.6-1.5,9.2-1.5c4.4,0,7.4,0.8,8.9,2.5c1.5,1.7,2.3,4.1,2.3,7.3v1.8c-0.7-0.1-1.5-0.1-2.4-0.1s-1.7,0-2.4,0
		c-2.8,0.1-5.9,0.4-9.2,0.9c-3.4,0.5-6.5,1.5-9.5,3s-5.4,3.4-7.4,5.9s-3,5.7-3,9.6l0,0c0,3.2,0.5,5.9,1.6,8c1.1,2.1,2.5,3.8,4.2,5
		s3.5,2.1,5.6,2.5s4.1,0.7,6.1,0.7c4.2,0,7.6-0.6,10.2-2s4.8-2.9,6.6-4.8c0.3,2.2,1.2,3.8,2.9,4.6s3.5,1.3,5.7,1.3
		c0.7,0,1.3,0,2-0.1s1.2-0.1,1.6-0.3c0.4-0.1,0.7-0.4,0.7-0.8C215.9,147.5,215.8,147.3,215.7,147.2z M202.7,132.9
		c0,0.9-0.4,1.8-1.1,2.8c-0.8,1-1.8,1.8-3.1,2.6s-2.8,1.5-4.5,2c-1.7,0.5-3.5,0.8-5.3,0.8c-3.5,0-5.9-0.9-7.2-2.5s-1.9-3.6-1.9-5.9
		c0-2.4,0.6-4.3,1.8-5.7c1.2-1.4,2.8-2.6,4.7-3.4s4.1-1.4,6.4-1.7c2.4-0.3,4.7-0.4,7-0.4h3.1L202.7,132.9L202.7,132.9z"/>
	<path class="st1" d="M275.5,147.2c-0.8-1.1-1.4-2.8-1.7-4.9c-0.4-2.3-0.5-5.6-0.5-9.8V77c0-1.9-0.2-3.5-0.7-4.7
		c-0.5-1.2-1-2.1-1.8-2.9c-0.8-0.7-1.6-1.2-2.6-1.4c-1-0.2-2-0.4-2.9-0.4c-0.5,0-1,0-1.7,0c-0.6,0-1.1,0.1-1.4,0.1v31.1
		c-1.2-1.1-3-2.3-5.5-3.4s-5.6-1.7-9.4-1.7c-2.9,0-5.6,0.6-8.3,1.7c-2.7,1.1-5,2.8-7.1,5.1c-2,2.3-3.6,5.2-4.9,8.9
		c-1.2,3.6-1.8,7.9-1.8,12.9c0,5.2,0.6,9.6,1.9,13.1c1.2,3.5,2.9,6.4,5,8.5c2.1,2.1,4.5,3.6,7.2,4.5c2.7,0.9,5.5,1.4,8.3,1.4
		c4,0,7.3-0.8,9.8-2.4c2.6-1.6,4.4-3.1,5.5-4.6c0.3,2.2,1.2,3.8,2.9,4.6s3.5,1.3,5.7,1.3c0.7,0,1.3,0,2-0.1s1.2-0.1,1.6-0.3
		c0.4-0.1,0.7-0.4,0.7-0.8C275.6,147.5,275.6,147.3,275.5,147.2z M262.1,133.8c0,0.9-0.3,1.8-0.9,2.6s-1.4,1.6-2.4,2.3
		c-1.1,0.7-2.3,1.2-3.8,1.6c-1.5,0.4-3,0.7-4.7,0.7c-2.5,0-4.7-0.5-6.4-1.5c-1.7-1-3.1-2.4-4.2-4.2s-1.8-3.9-2.2-6.3
		c-0.4-2.4-0.6-5-0.6-7.9c0-6.1,1.2-10.8,3.5-13.9s5.5-4.7,9.5-4.7c1.7,0,3.2,0.2,4.6,0.6s2.5,0.9,3.6,1.5c1,0.6,1.9,1.2,2.5,1.9
		c0.6,0.6,1.1,1.1,1.5,1.5L262.1,133.8L262.1,133.8z"/>
	<path class="st1" d="M331.6,147.2c-0.8-1.1-1.4-2.8-1.7-4.9c-0.4-2.3-0.5-5.6-0.5-9.8v-18.8c0-3.3-0.3-6.2-1-8.8
		c-0.7-2.5-1.8-4.6-3.5-6.4c-1.6-1.7-3.8-3-6.4-3.8s-6-1.3-9.9-1.3c-2.3,0-4.7,0.2-7.1,0.6c-2.4,0.4-4.6,0.9-6.6,1.6
		s-3.6,1.5-4.9,2.4c-1.2,0.9-1.9,1.9-1.9,2.9c0,0.7,0.2,1.7,0.7,3.1c0.5,1.4,1.1,2.6,1.9,3.8c2.4-1.7,4.8-2.9,7.3-3.9
		c2.5-1,5.6-1.5,9.2-1.5c4.4,0,7.4,0.8,8.9,2.5c1.5,1.7,2.3,4.1,2.3,7.3v1.8c-0.7-0.1-1.5-0.1-2.4-0.1s-1.7,0-2.4,0
		c-2.8,0.1-5.9,0.4-9.2,0.9c-3.4,0.5-6.5,1.5-9.5,3s-5.4,3.4-7.4,5.9c-2,2.5-3,5.7-3,9.6l0,0c0,3.2,0.5,5.9,1.6,8
		c1.1,2.1,2.5,3.8,4.2,5s3.5,2.1,5.6,2.5s4.1,0.7,6.1,0.7c4.2,0,7.6-0.6,10.2-2s4.8-2.9,6.6-4.8c0.3,2.2,1.2,3.8,2.9,4.6
		s3.5,1.3,5.7,1.3c0.7,0,1.3,0,2-0.1s1.2-0.1,1.6-0.3c0.4-0.1,0.7-0.4,0.7-0.8C331.8,147.5,331.7,147.3,331.6,147.2z M318.6,132.9
		c0,0.9-0.4,1.8-1.1,2.8c-0.8,1-1.8,1.8-3.1,2.6s-2.8,1.5-4.5,2c-1.7,0.5-3.5,0.8-5.3,0.8c-3.5,0-5.9-0.9-7.2-2.5s-1.9-3.6-1.9-5.9
		c0-2.4,0.6-4.3,1.8-5.7c1.2-1.4,2.8-2.6,4.7-3.4s4.1-1.4,6.4-1.7c2.4-0.3,4.7-0.4,7-0.4h3.1L318.6,132.9L318.6,132.9z"/>
</g>
<g>
	<path class="st2" d="M389.6,89.9c15.8,0,20.2,10.4,20.3,24.5c0,6-0.1,14.5-0.3,20.2c-0.1,2.2,1.2,2.2,2.5,1.3
		c8.8-6.3,15.8-16,21.1-25.1c-1.6-2.5-2.5-6-2.5-9.2c0-6.5,3.4-10.8,8.3-10.8c4.4,0,7.9,3.3,7.9,9.7c0,2.6-0.6,5.5-1.7,8.1
		c0.8,0.3,2.3,0.4,3.5,0.4c10.1,0,16-4.5,18.8-13.8c0-0.1,0.2-0.8,0.4-1.3c1.5-5.1,11.9-2.6,10.8,2.3c-1.6,6.6-3.7,15.1-5.3,22.4
		c-0.7,3.2-1.3,6.6-1.3,9.4c0,7.1,3.5,10.5,10.4,10.5c4.5,0,11.1-1.7,15.6-4.1c-2.5-4.2-4.2-8.6-4.2-15.6
		c0-18.5,13.9-30.9,28.7-30.9c11.5,0,19.1,5.8,19.1,17.2c0,12.5-11.7,22.6-26.4,30.3c3,1.7,6.8,2.8,12.3,2.8
		c14.7,0,31.7-5.7,46-18.8V0h-216v101.1C367.2,95.4,378.5,89.9,389.6,89.9z M478.8,65.8c4.3,0,7.7,3.5,7.5,7.9
		c-0.2,4.4-3.9,7.9-8.2,7.9s-7.7-3.5-7.5-7.9C470.7,69.4,474.4,65.8,478.8,65.8z"/>
	<path class="st2" d="M522.1,97.2c-7.4,0-16.3,7.6-16.4,21.7c0,4.4,1,7.5,2.8,10.4c11.4-6.5,21.8-14.2,21.8-23.9
		C530.3,100,526.9,97.2,522.1,97.2z"/>
	<path class="st2" d="M527.7,147.4c-7.6,0-16.8-1.5-23.2-6.3c-5.9,3.2-14.5,6.5-23.3,6.5c-11.5,0-20.5-5.6-20.5-18.4
		c0-4.6,1-8.6,2.5-15c-4.2,2.4-9,3.7-14.8,3.7c-2.5,0-5.1-0.5-7.3-1.4c-8.4,14-20.5,25.1-28.7,30c-1.3,0.8-3.6,1.6-5.6,1.6
		c-6.3,0-8.9-3.5-8.8-8.9c0.1-6.6,0.3-19.5,0.3-25.2c0-11.8-4.1-15-10.9-15c-8.3,0-21,6.3-29.8,12.3V216h216v-84.7
		C560.6,141.6,545,147.4,527.7,147.4z"/>
</g>
<g>
	<path class="st3" d="M478.1,81.6c4.3,0,8-3.5,8.2-7.9c0.2-4.4-3.2-7.9-7.5-7.9c-4.3,0-8,3.5-8.2,7.9
		C470.3,78,473.7,81.6,478.1,81.6z"/>
	<path class="st3" d="M527.7,138.1c-5.6,0-9.3-1.1-12.3-2.8c14.7-7.7,26.4-17.8,26.4-30.3c0-11.4-7.7-17.2-19.1-17.2
		c-14.8,0-28.7,12.3-28.7,30.9c0,7,1.7,11.4,4.2,15.6c-4.5,2.4-11.1,4.1-15.6,4.1c-7,0-10.4-3.3-10.4-10.5c0-2.8,0.6-6.2,1.3-9.4
		c1.5-7.3,3.7-15.8,5.3-22.4c1.2-5-9.2-7.4-10.8-2.3c-0.2,0.6-0.4,1.2-0.4,1.3c-2.8,9.4-8.8,13.8-18.8,13.8c-1.2,0-2.7-0.2-3.5-0.4
		c1-2.5,1.7-5.4,1.7-8.1c0-6.4-3.5-9.7-7.9-9.7c-4.9,0-8.3,4.3-8.3,10.8c0,3.2,0.9,6.7,2.5,9.2c-5.3,9.1-12.3,18.8-21.1,25.1
		c-1.2,0.9-2.6,0.9-2.5-1.3c0.2-5.7,0.4-14.2,0.3-20.2c-0.1-14.2-4.5-24.5-20.3-24.5c-11.1,0-22.4,5.5-31.8,11.1v10.3
		c8.9-5.9,21.5-12.3,29.8-12.3c6.7,0,10.9,3.2,10.9,15c0,5.7-0.2,18.6-0.3,25.2c-0.1,5.3,2.5,8.9,8.8,8.9c2,0,4.3-0.8,5.6-1.6
		c8.2-4.9,20.3-16.1,28.7-30c2.2,0.9,4.8,1.3,7.3,1.4c5.9,0,10.6-1.3,14.8-3.7c-1.5,6.3-2.5,10.4-2.5,15c0,12.9,9,18.4,20.5,18.4
		c8.8,0,17.4-3.3,23.3-6.5c6.3,4.9,15.5,6.3,23.2,6.3c17.3,0,33-5.8,46.1-16.1v-12C559.4,132.5,542.4,138.1,527.7,138.1z
		 M505.7,118.9c0.1-14,9-21.7,16.4-21.7c4.8,0,8.2,2.9,8.2,8.1c0,9.7-10.5,17.4-21.8,23.9C506.6,126.4,505.6,123.3,505.7,118.9z"/>
</g>
</svg>
