<?xml version="1.0" encoding="utf-8"?>
<!-- Generator: Adobe Illustrator 23.0.1, SVG Export Plug-In . SVG Version: 6.00 Build 0)  -->
<svg version="1.1" id="Layer_1" xmlns="http://www.w3.org/2000/svg" xmlns:xlink="http://www.w3.org/1999/xlink" x="0px" y="0px"
	 viewBox="0 0 573.8 216" style="enable-background:new 0 0 573.8 216;" xml:space="preserve">
<style type="text/css">
	.st0{fill:none;}
	.st1{fill:#BA0C2F;}
	.st2{fill:#838271;}
	.st3{fill:#FFFFFF;}
</style>
<rect x="0" class="st0" width="573.8" height="216"/>
<g>
	<path class="st1" d="M532.8,98.2c-11,0-17.7,10.9-17.7,21.9c0,1.7,0.2,3,0.4,4.2c16.7-3.2,24.8-12.1,24.8-19.1
		C540.3,100.7,537.5,98.2,532.8,98.2z"/>
	<path class="st1" d="M384.7,119.6c0.7-10.1,2.6-20.2,4.5-28.2c5.7-24.6,15.2-43.3,28.8-43.3c9.4,0,12.9,6.5,13,14.3
		c0.2,20.4-16.3,45.2-36,60.9c-0.3,9.8,2.9,14.3,8.6,14.3c10.3,0,20.6-10.5,29.5-31.7c1.2-2.9,2.4-6.2,3.6-9.4
		c1.8-4.5,11-1.9,9.7,2.6c-2.8,9.5-7.4,22-7.4,30.3c0,5.5,2.8,7.9,6.9,7.8c5.7-0.1,10.4-4.2,13.7-8.2c0,0,2.3-11.8,3-15
		c9.7-45.9,20.8-65.8,35.4-65.8c8.7,0,13.2,5.4,13.2,14c0,15.9-11,34.2-32,59.4c6.6,2.3,13.8,4,23,4c0.5,0,1.8,0,2.3,0
		c-0.2-1.3-0.4-3.6-0.4-5.5c0-17.8,12.8-30.6,28.5-30.6c10.3,0,18.3,4.8,18.3,15.4c0,13.3-14.1,23.8-31.8,27.4
		c2.8,3.3,8.2,5.6,15.8,5.6c17,0,30.1-8.4,38.8-16.5V0h-216v133.9C367.7,130.2,377,125.2,384.7,119.6z M448.2,70.2
		c4,0,7.2,3.3,7,7.3s-3.6,7.3-7.7,7.3s-7.2-3.3-7-7.3C440.7,73.5,444.2,70.2,448.2,70.2z"/>
	<path class="st1" d="M497.9,56.7c-5.2,0-15.7,15-24.8,58.2c15.4-19.5,28-41.6,28-53.1C501,58.9,500.2,56.7,497.9,56.7z"/>
	<path class="st1" d="M535,147.2c-14.8,0-23.2-5.8-27.6-13c-1.5,0.1-3.2,0.1-4.7,0.1c-7.8,0-14.9-1.1-19.9-2.7
		c4,8.6,6.6,19.8,6.6,30c0,19.4-7,32.2-20.4,32.2c-9.5,0-14.9-6.9-15.1-21.2c-0.1-10.4,1.2-19.1,3.3-30.8c-3.2,2.7-7.8,4.6-13.2,4.7
		c-9.8,0-15.3-6.2-15.7-14.8c-7.6,10.3-16.8,15.2-26.4,15.2c-10.4,0-16-6.7-17.1-16.7c-7.5,4.8-16.6,9.7-27,13.4V216h216v-82.7
		C562.2,142.5,548.9,147.2,535,147.2z"/>
	<path class="st1" d="M417.9,56.7c-5.6,0-15.5,16.8-21.7,53.7C413.8,93.3,421,71.1,421,62.2C421,58.1,419.9,56.7,417.9,56.7z"/>
	<path class="st1" d="M469.7,131.2c-2.3,10.6-5.4,29.4-5.4,41.2c0,6.9,1.5,11.3,5.5,11.3c7,0,9-12.2,9-21.3c0-11.8-3-24.1-7.7-32.7
		L469.7,131.2z"/>
</g>
<g>
	<path class="st2" d="M11.4,121.6c0,2.7,0.3,5.2,0.9,7.6s1.5,4.4,2.8,6.2s2.9,3.1,4.9,4.1s4.4,1.5,7.2,1.5c2,0,3.9-0.3,5.5-0.9
		c1.6-0.6,3-1.3,4.1-2.1c1.4-0.9,2.6-1.9,3.6-3c0.6,0.7,1.4,1.7,2.3,3.1s1.4,2.7,1.4,3.9c0,0.4-0.1,0.8-0.3,1.2
		c-0.4,0.7-1,1.5-2,2.4c-1.4,1.2-3.5,2.3-6.2,3.2s-6,1.4-9.9,1.4c-2.5,0-5.2-0.4-8.2-1c-3-0.7-5.8-2.1-8.3-4.1
		c-2.6-2.1-4.8-4.9-6.5-8.6c-1.8-3.7-2.6-8.6-2.6-14.6c0-5.6,0.9-10.2,2.8-13.9c1.8-3.6,4.1-6.5,6.8-8.6c2.7-2.1,5.6-3.5,8.6-4.4
		c3-0.8,5.7-1.2,8-1.2c2.8,0,5.4,0.3,7.6,0.9c2.3,0.6,4.2,1.4,5.8,2.3c1.5,0.9,2.7,1.8,3.4,2.7c0.8,1,1.1,1.9,1.1,2.9
		c0,1.9-1.4,4.5-3.1,6.9c-1.2-1.4-3.1-2.9-5.5-4.3c-2.4-1.4-5.1-2.1-8.1-2.1c-2.9,0-5.3,0.5-7.3,1.4s-3.7,2.3-5,4
		c-1.3,1.7-2.3,3.7-2.9,6C11.7,116.5,11.4,119,11.4,121.6z"/>
	<path class="st2" d="M99.5,147.2c-0.8-1.1-1.4-2.8-1.7-4.9c-0.4-2.3-0.5-5.6-0.5-9.8v-18.8c0-3.3-0.3-6.2-1-8.8
		c-0.7-2.5-1.8-4.6-3.4-6.4c-1.6-1.7-3.8-3-6.4-3.8s-6-1.3-9.9-1.3c-2.3,0-4.7,0.2-7.1,0.6c-2.4,0.4-4.6,0.9-6.6,1.6
		c-2,0.7-3.6,1.5-4.9,2.4c-1.2,0.9-1.9,1.9-1.9,2.9c0,0.7,0.2,1.7,0.7,3.1c0.5,1.4,1.1,2.6,1.9,3.8c2.4-1.7,4.8-2.9,7.3-3.9
		c2.5-1,5.6-1.5,9.2-1.5c4.4,0,7.4,0.8,8.9,2.5c1.6,1.7,2.3,4.1,2.3,7.3v1.8c-0.7-0.1-1.5-0.1-2.4-0.1s-1.7,0-2.4,0
		c-2.8,0.1-5.9,0.4-9.2,0.9s-6.5,1.5-9.4,3s-5.4,3.4-7.4,5.9c-2,2.5-3,5.7-3,9.6l0,0c0,3.2,0.6,5.9,1.6,8s2.5,3.8,4.2,5
		c1.7,1.2,3.6,2.1,5.6,2.5c2.1,0.5,4.1,0.7,6.1,0.7c4.2,0,7.6-0.6,10.2-2c2.6-1.3,4.8-2.9,6.6-4.8c0.3,2.2,1.2,3.8,2.9,4.6
		c1.6,0.9,3.5,1.3,5.7,1.3c0.7,0,1.3,0,2-0.1s1.2-0.1,1.6-0.3c0.4-0.1,0.7-0.4,0.7-0.8C99.6,147.5,99.6,147.3,99.5,147.2z
		 M86.4,132.9c0,0.9-0.4,1.8-1.1,2.8c-0.8,1-1.8,1.8-3.1,2.6s-2.8,1.5-4.4,2c-1.7,0.5-3.4,0.8-5.3,0.8c-3.5,0-5.9-0.9-7.2-2.5
		c-1.3-1.7-1.9-3.6-1.9-5.9c0-2.4,0.6-4.3,1.8-5.7c1.2-1.4,2.8-2.6,4.7-3.4c1.9-0.8,4.1-1.4,6.4-1.7c2.4-0.3,4.7-0.4,7-0.4h3.1
		L86.4,132.9L86.4,132.9z"/>
	<path class="st2" d="M157.7,148.5h-11.1v-30.7c0-2.1-0.1-4.1-0.2-5.9s-0.5-3.4-1.2-4.7c-0.6-1.3-1.7-2.3-3.1-3s-3.4-1.1-6-1.1
		c-3.6,0-6.8,0.7-9.4,2.4c-2.6,1.7-3.9,3.9-3.9,6.4v36.5h-11.2V94.6c0.2,0,0.4,0,0.6-0.1c0.2,0,0.4,0,0.7,0s0.6,0,0.9,0
		c2,0,3.8,0.5,5.4,1.4c1.6,0.9,2.6,2.5,2.9,4.7c1.7-1.8,4.1-3.5,7.1-4.9c3-1.4,6.5-2.2,10.6-2.2c5.2,0,9.1,1.1,11.8,3.5
		c2.7,2.3,4.5,5.2,5.4,8.6c0.4,1.5,0.6,3.2,0.7,5.1s0.1,3.7,0.1,5.5L157.7,148.5L157.7,148.5L157.7,148.5z"/>
	<path class="st2" d="M215.7,147.2c-0.8-1.1-1.4-2.8-1.7-4.9c-0.4-2.3-0.5-5.6-0.5-9.8v-18.8c0-3.3-0.3-6.2-1-8.8
		c-0.7-2.5-1.8-4.6-3.5-6.4c-1.6-1.7-3.8-3-6.4-3.8s-6-1.3-9.9-1.3c-2.3,0-4.7,0.2-7.1,0.6c-2.4,0.4-4.6,0.9-6.6,1.6
		s-3.6,1.5-4.9,2.4c-1.2,0.9-1.9,1.9-1.9,2.9c0,0.7,0.2,1.7,0.7,3.1c0.5,1.4,1.1,2.6,1.9,3.8c2.4-1.7,4.8-2.9,7.3-3.9
		c2.5-1,5.6-1.5,9.2-1.5c4.4,0,7.4,0.8,8.9,2.5c1.5,1.7,2.3,4.1,2.3,7.3v1.8c-0.7-0.1-1.5-0.1-2.4-0.1s-1.7,0-2.4,0
		c-2.8,0.1-5.9,0.4-9.2,0.9c-3.4,0.5-6.5,1.5-9.5,3s-5.4,3.4-7.4,5.9s-3,5.7-3,9.6l0,0c0,3.2,0.5,5.9,1.6,8c1.1,2.1,2.5,3.8,4.2,5
		s3.5,2.1,5.6,2.5s4.1,0.7,6.1,0.7c4.2,0,7.6-0.6,10.2-2s4.8-2.9,6.6-4.8c0.3,2.2,1.2,3.8,2.9,4.6s3.5,1.3,5.7,1.3
		c0.7,0,1.3,0,2-0.1s1.2-0.1,1.6-0.3c0.4-0.1,0.7-0.4,0.7-0.8C215.9,147.5,215.8,147.3,215.7,147.2z M202.7,132.9
		c0,0.9-0.4,1.8-1.1,2.8c-0.8,1-1.8,1.8-3.1,2.6s-2.8,1.5-4.5,2c-1.7,0.5-3.5,0.8-5.3,0.8c-3.5,0-5.9-0.9-7.2-2.5s-1.9-3.6-1.9-5.9
		c0-2.4,0.6-4.3,1.8-5.7c1.2-1.4,2.8-2.6,4.7-3.4s4.1-1.4,6.4-1.7c2.4-0.3,4.7-0.4,7-0.4h3.1L202.7,132.9L202.7,132.9z"/>
	<path class="st2" d="M275.5,147.2c-0.8-1.1-1.4-2.8-1.7-4.9c-0.4-2.3-0.5-5.6-0.5-9.8V77c0-1.9-0.2-3.5-0.7-4.7
		c-0.5-1.2-1-2.1-1.8-2.9c-0.8-0.7-1.6-1.2-2.6-1.4c-1-0.2-2-0.4-2.9-0.4c-0.5,0-1,0-1.7,0c-0.6,0-1.1,0.1-1.4,0.1v31.1
		c-1.2-1.1-3-2.3-5.5-3.4s-5.6-1.7-9.4-1.7c-2.9,0-5.6,0.6-8.3,1.7c-2.7,1.1-5,2.8-7.1,5.1c-2,2.3-3.6,5.2-4.9,8.9
		c-1.2,3.6-1.8,7.9-1.8,12.9c0,5.2,0.6,9.6,1.9,13.1c1.2,3.5,2.9,6.4,5,8.5c2.1,2.1,4.5,3.6,7.2,4.5c2.7,0.9,5.5,1.4,8.3,1.4
		c4,0,7.3-0.8,9.8-2.4c2.6-1.6,4.4-3.1,5.5-4.6c0.3,2.2,1.2,3.8,2.9,4.6s3.5,1.3,5.7,1.3c0.7,0,1.3,0,2-0.1s1.2-0.1,1.6-0.3
		c0.4-0.1,0.7-0.4,0.7-0.8C275.6,147.5,275.6,147.3,275.5,147.2z M262.1,133.8c0,0.9-0.3,1.8-0.9,2.6s-1.4,1.6-2.4,2.3
		c-1.1,0.7-2.3,1.2-3.8,1.6c-1.5,0.4-3,0.7-4.7,0.7c-2.5,0-4.7-0.5-6.4-1.5c-1.7-1-3.1-2.4-4.2-4.2s-1.8-3.9-2.2-6.3
		c-0.4-2.4-0.6-5-0.6-7.9c0-6.1,1.2-10.8,3.5-13.9s5.5-4.7,9.5-4.7c1.7,0,3.2,0.2,4.6,0.6s2.5,0.9,3.6,1.5c1,0.6,1.9,1.2,2.5,1.9
		c0.6,0.6,1.1,1.1,1.5,1.5L262.1,133.8L262.1,133.8z"/>
	<path class="st2" d="M331.6,147.2c-0.8-1.1-1.4-2.8-1.7-4.9c-0.4-2.3-0.5-5.6-0.5-9.8v-18.8c0-3.3-0.3-6.2-1-8.8
		c-0.7-2.5-1.8-4.6-3.5-6.4c-1.6-1.7-3.8-3-6.4-3.8s-6-1.3-9.9-1.3c-2.3,0-4.7,0.2-7.1,0.6c-2.4,0.4-4.6,0.9-6.6,1.6
		s-3.6,1.5-4.9,2.4c-1.2,0.9-1.9,1.9-1.9,2.9c0,0.7,0.2,1.7,0.7,3.1c0.5,1.4,1.1,2.6,1.9,3.8c2.4-1.7,4.8-2.9,7.3-3.9
		c2.5-1,5.6-1.5,9.2-1.5c4.4,0,7.4,0.8,8.9,2.5c1.5,1.7,2.3,4.1,2.3,7.3v1.8c-0.7-0.1-1.5-0.1-2.4-0.1s-1.7,0-2.4,0
		c-2.8,0.1-5.9,0.4-9.2,0.9c-3.4,0.5-6.5,1.5-9.5,3s-5.4,3.4-7.4,5.9c-2,2.5-3,5.7-3,9.6l0,0c0,3.2,0.5,5.9,1.6,8
		c1.1,2.1,2.5,3.8,4.2,5s3.5,2.1,5.6,2.5s4.1,0.7,6.1,0.7c4.2,0,7.6-0.6,10.2-2s4.8-2.9,6.6-4.8c0.3,2.2,1.2,3.8,2.9,4.6
		s3.5,1.3,5.7,1.3c0.7,0,1.3,0,2-0.1s1.2-0.1,1.6-0.3c0.4-0.1,0.7-0.4,0.7-0.8C331.8,147.5,331.7,147.3,331.6,147.2z M318.6,132.9
		c0,0.9-0.4,1.8-1.1,2.8c-0.8,1-1.8,1.8-3.1,2.6s-2.8,1.5-4.5,2c-1.7,0.5-3.5,0.8-5.3,0.8c-3.5,0-5.9-0.9-7.2-2.5s-1.9-3.6-1.9-5.9
		c0-2.4,0.6-4.3,1.8-5.7c1.2-1.4,2.8-2.6,4.7-3.4s4.1-1.4,6.4-1.7c2.4-0.3,4.7-0.4,7-0.4h3.1L318.6,132.9L318.6,132.9z"/>
</g>
<g>
	<path class="st3" d="M447.5,84.9c4,0,7.5-3.3,7.7-7.3s-3-7.3-7-7.3c-4,0-7.5,3.3-7.7,7.3S443.5,84.9,447.5,84.9z"/>
	<path class="st3" d="M534.9,138c-7.6,0-13-2.4-15.8-5.6c17.7-3.7,31.8-14.2,31.8-27.4c0-10.6-8-15.4-18.3-15.4
		c-15.8,0-28.5,12.7-28.5,30.6c0,1.9,0.2,4.2,0.4,5.5c-0.5,0-1.8,0-2.3,0c-9.2,0-16.5-1.7-23-4c21.1-25.2,32-43.5,32-59.4
		c0-8.7-4.4-14-13.2-14c-14.6,0-25.8,19.9-35.4,65.8c-0.7,3.3-3,15-3,15c-3.3,4-8,8.1-13.7,8.2c-4.1,0.1-6.9-2.2-6.9-7.8
		c0-8.3,4.5-20.8,7.4-30.3c1.3-4.4-7.9-7-9.7-2.6c-1.3,3.2-2.4,6.5-3.6,9.4c-8.9,21.2-19.1,31.7-29.5,31.7c-5.7,0-8.9-4.5-8.6-14.3
		c19.7-15.6,36.2-40.5,36-60.9c-0.1-7.7-3.6-14.3-13-14.3c-13.5,0-23.1,18.7-28.8,43.3c-1.9,8-3.8,18.1-4.5,28.2
		c-7.7,5.6-16.9,10.6-26.9,14.4v9.5c10.4-3.7,19.6-8.7,27-13.4c1.1,10,6.7,16.7,17.1,16.7c9.6,0,18.8-5,26.4-15.2
		c0.4,8.6,5.8,14.8,15.7,14.8c5.4,0,10-2,13.2-4.7c-2.1,11.7-3.5,20.4-3.3,30.8c0.2,14.3,5.6,21.2,15.1,21.2
		c13.3,0,20.3-12.8,20.4-32.2c0-10.2-2.6-21.4-6.6-30c5.1,1.7,12.1,2.7,19.9,2.7c1.6,0,3.3,0,4.7-0.1c4.5,7.3,12.8,13,27.6,13
		c14,0,27.3-4.7,38.8-13.9v-11.8C565.1,129.7,552,138,534.9,138z M417.9,56.7c2,0,3,1.4,3,5.5c0,8.8-7.2,31-24.8,48.2
		C402.4,73.5,412.3,56.7,417.9,56.7z M497.9,56.7c2.3,0,3.2,2.1,3.2,5.2c0,11.5-12.5,33.6-28,53.1C482.2,71.8,492.7,56.7,497.9,56.7
		z M469.8,183.8c-4,0-5.5-4.4-5.5-11.3c0-11.9,3.1-30.6,5.4-41.2l1.4-1.5c4.7,8.5,7.7,20.9,7.7,32.7
		C478.8,171.5,476.8,183.8,469.8,183.8z M515.1,120c0-11,6.7-21.9,17.7-21.9c4.7,0,7.5,2.6,7.5,7c0,7-8.1,15.9-24.8,19.1
		C515.3,123.1,515.1,121.8,515.1,120z"/>
</g>
</svg>
