<svg xmlns="http://www.w3.org/2000/svg" viewBox="0 0 34 21"><style>.st0{fill:#D0D0CE;}</style><path d="M20.3 14.5s0 .1 0 0c-.1.2-.2.3-.2.3-.1.1-.2 0-.2.2v.2l-.1.1-.1.1v.2c0 .1.1.2.1.2.2 0 .2-.2.3-.4.1-.2.1-.4.1-.6h.1v-.1c.1 0 .2-.2 0-.2zm2.8-1.8c.1.1.2 0 .2 0 0-.1-.1-.1-.1-.2-.1 0-.1.1-.1.2zm2.3 1.1s0-.1 0 0v-.2l-.1-.1-.1-.1s-.1 0-.1-.1-.1-.1-.1-.1c-.1 0-.1-.1-.2-.1l-.1-.1c0-.1 0-.1-.1-.1h-.2l.1.1h.1v.1s.1 0 .1.1v.1h.1s0 .1.1.1c0 .1.1.1.1.2l.2.2c.1 0 .1.1.2 0 0 .1 0 .1 0 0zm.3-.6v.1c0 .1 0 .2.1.2h.2c.1 0 .1 0 .1.1l.1-.1v-.1s0-.1.1-.1v-.2h.1c-.1 0-.1-.2-.1-.2h.2c0-.1-.1 0-.1-.1v-.1c-.1 0-.1.1-.1.2h-.1s0 .1-.1.1H26s0 .2-.1.2h-.2zm1.1.1h.2c.1 0 .1-.1.1-.1l-.1.1h-.2c-.1-.1-.1 0-.1.1v.1c0 .1-.1.1-.1.2h.1v.1l.1.1s.1 0 .1-.1v-.1l-.1-.1c.1 0 .1-.1.2-.1l-.2.1-.1-.1c0-.2.1-.2.1-.2zm-.6.8s0-.1 0 0c-.1-.1-.1-.1-.2-.1h.1-.1c-.1 0-.1-.1-.1-.1s0 .1-.1.1-.1-.1-.2-.1h-.1l-.1.1s.1 0 .1.1h.7zm.2 0c-.1 0 0 .1 0 0 0 .1 0 0 0 0zm2.7-.2c-.1 0-.1-.1-.2-.2h-.1c-.1 0-.2 0-.2-.1h-.2s0-.1-.1-.1l-.1.1h-.1s0 .1-.1.1l-.1-.1v-.1c-.1 0-.1-.1-.2-.1s-.1.1-.1.1.1 0 .1.1h.1s-.1 0-.2.1h.1c.1 0 .1.1.1.1h.2l.1.1v.1s-.1 0-.1.1h.2c.1 0 .1.1.2.1h.1v-.1s0-.1.1-.1.2.1.2.2l.1.1h.2v-.1h-.2s0-.1-.1-.1l-.1-.1c.4-.1.5 0 .4-.1.1-.1 0 0 0 0zm0 3.5s-.2-.1-.2 0 .1.3.2.3.1-.2.1-.2v-.1h-.1zm-.9-.5h.1-.1zm1.4-1.2c-.1-.1-.2-.1-.2-.3h-.1s0-.1-.1-.2-.2-.1-.2-.2v-.1c0-.1 0-.2-.1-.2h-.1v-.1c0-.1-.1-.1-.1-.2-.1 0 0 .1-.1.1v.3c0 .1 0 .3-.1.3s-.1-.1-.1-.1c-.1 0-.1-.1-.2-.1v-.1h-.1v-.2s.1 0 .1-.1c0 0 0-.1-.1-.1H28c-.1 0-.2 0-.3-.1l.1.1h-.1c-.1 0-.2 0-.2.1v.2h-.1c0-.1 0-.1-.1-.1s-.1.1-.2.1c0 .1-.1.1-.1.2h-.1v.2c0 .1-.3.2-.4.2-.1 0-.2 0-.2.1 0 0-.1.1-.2.1v.4c0 .1 0 .1.1.1 0 .1.1.2.1.3 0 .1.1.1.1.2s-.1.1-.1.2l.2.1c.1 0 .2-.1.3-.1h.3c0-.2.2-.1.4-.2.1 0 .1-.1.2-.1s.3 0 .3.1l.1.2v.1c.1 0 .1-.2.2-.2 0 .1 0 .2-.1.2l.1-.1v.2h.1v.1c0 .1.2.2.3.2.1 0 .1-.1.1-.1s.1.1.2.1c0-.2.3-.1.3-.2s.1-.2.1-.3c0-.1.1-.1.1-.2v-.4c.2-.1.2-.3.1-.4zm1.9 1.8c-.1 0-.1 0 0 0-.1-.1-.1-.1 0 0-.1 0-.2 0-.2.1h-.1s0 .1-.1.1-.1.1-.2.1h-.1s-.1.1-.1.2l.1.1h.1s.1 0 .1-.1l.1-.2h.1v-.1c.3 0 .3-.1.3-.2zm.4-.4h-.1c-.1 0-.1-.1-.1-.1l-.1-.1v-.1s-.1 0-.1-.1c0 .1.1.2.1.2v.4c0 .1.1 0 .1.1v.1c.1 0 .1-.1.1-.1v-.1h.1v-.2zm-4.7-4.7c0 .1-.1.1-.1.1H27c-.1 0 0 .1-.1.1v.2s0-.1.1-.1c0 .1 0 .1.1.1v-.1c.2-.1.2-.3.1-.3zm-.5-.5s.1 0 0 0c.1 0 .1 0 0 0l.1.1s0 .1.1.1V12l.1.1s0-.1-.1-.1l-.1-.1c0-.1.1-.1.1-.1v-.1s0-.1-.1-.1v.3c-.1-.1-.1-.1-.1 0zm.5.2c-.1 0-.1 0 0 0-.1 0-.1 0 0 0-.1.1-.1.1 0 0 0 .1 0 .1 0 0 0 .1 0 .1 0 0 0 .1 0 .1 0 0zm-.3.1v.1s.1 0 0-.1c.1 0 0 0 0 0zM27 12.3c0 .1-.1.1-.1.1l.1.1v-.2zm0 .1l.1-.1c-.1 0-.1.1-.1.1zm.1-.1c0 .1 0 .1 0 0 0 .1-.1.1 0 0-.1.1 0 .1 0 0 0 .1 0 .1 0 0zm-.1-.1c.1 0 0-.1 0 0 0-.1 0-.1 0 0zm-.2-.1c0-.1 0-.1-.1-.1l.1.1zm.1-.1zm-.1-1.2s-.1.1-.1.2v.1c.1 0 .2-.3.1-.3zm-.9.6h-.2v.1s0 .1.1.1l.1-.2zm1.7-1.4s0 .1 0 0c0 .1 0 0 0 0s0 .1 0 0l.1.1v.1s.1-.1.1-.2c-.1 0-.1-.1-.2 0 0-.1 0 0 0 0zM27.8 10.1c.1 0 .1-.1 0 0 .1-.1.1-.1.2-.1 0 0 .1-.1 0-.1 0 0-.1.1-.1 0 0 0-.1.1-.1.2 0-.1 0-.1 0 0 0-.1 0 0 0 0zm.4-.5s0 .1-.1.1h-.2c-.1 0-.1.1-.2.1h.4v.1l.1-.1v-.1s0 .1.1.1h.1l.1-.1v.1l.1-.1v-.6l-.1.1c0 .1-.1.2-.2.3 0 .1 0 .1-.1.1zm.3-.7c-.1.1 0 .1 0 .1v.1h.1c0-.1-.1-.1-.1-.2 0 0 .1.1 0 0 .1.1.1 0 .1 0 .1 0 .1 0 .1.1 0 0 0-.1.1-.1-.1 0-.2-.1-.2-.2.1.1 0 .2-.1.2.1 0 .1 0 0 0 .1 0 0 0 0 0zm.5-.1s.1 0 0 0zm.1-.1v.1-.1zm-.3-1v-.2.2c-.1-.1-.1-.1 0 0-.1 0-.1.1-.1.1v.8s0-.1.1-.1c0-.1-.1-.1-.1-.2s0-.2.1-.2h.1c0-.1-.1-.1-.1-.2v-.2zM20.6 5s.1 0 0 0c.1 0 .1.1.1.1h.3c0-.1-.1-.1-.1-.2 0-.2.2-.4.4-.5.1 0 .1-.1.2-.1l.1-.1c.1-.1.2 0 .3-.1.1 0 .3-.1.3-.2l-.1-.1c-.2 0-.3.2-.5.2h-.2c-.1 0-.2.2-.3.2H21v.1c0 .1-.2.1-.2.2v.1c-.1 0-.2 0-.2.1.1.1 0 .1 0 .3 0-.1 0 0 0 0zm.5.1zM32.3 5.5c-.2-.2-.6-.3-.9-.3-.1 0-.2 0-.2.1.1.3-.1 0-.2 0h-.7c0-.2-.1-.2-.4-.2h-.4l-.2-.2c-.2-.1-.4-.1-.6-.1-.2 0-.3.1-.3.3H28c-.1 0-.1-.1-.2-.1 0 0 0 .2-.1.2s-.2-.2-.2-.3c0 0 .3-.2-.4-.3-.1 0-.1 0-.1.1h-.3c-.1 0-.6-.1-.7-.2-.4.4-.3.1-.3.1.1-.1 1-.4.3-.6h-.3c0-.1-.1-.2-.2-.2-.2 0-.2.1-.3.2-.3 0-.7.2-.7 0-.1 0-.5.1-.8.3l-.1.2c-.1 0-.5 0-.5.2v.1h-.3c-.2.3-.2 0-.2-.1 0 .1-.1.2-.2.2 0 .1.2.2.1.3-.1.1.1.3 0 .3s-.2-.5-.2-.6c0-.1.2-.2-.1-.2-.1 0-.4.2-.4.3 0 .2.1.3.1.3.2.3-.2 0-.4-.1-.4-.1-.3 0-.3.1 0 .3-.1.1-.2.1s-.3.1-.4.1c-.1-.2-.5.3-.7.3 0 0-.1 0-.1-.1s0-.4-.2 0v.1c0 .1-.2 0-.3.1-.1 0 0 .3-.4.2v.1c-.2 0-.2-.2-.2-.3h.3c.2 0 .5-.2 0-.4-.2-.1-.5-.2-.6-.2H18.1c.1 0 .1 0 .1-.1l-.1-.1V5c-.1 0-.1 0-.1.1V5c-.1 0-.1.1-.1.1L18 5h-.4c-.1 0-.1 0-.2.1v.1c-.1 0-.1.1-.1.1h-.2s-.1 0-.1.1h.1s0 .1-.1.1h-.1v-.1.1h-.1c.1 0 .1 0 .2-.1 0 .1-.1.2-.2.2s-.1.1-.1.1v.1s0 .1-.1.1c-.1.1-.1.2-.3.2h.1c-.1 0-.1.1-.2.1s-.1.1-.1.1-.1 0-.1.1 0 .2.1.2l-.1.1h.1s-.1 0-.1.1l.1.1c.1 0 .2-.1.3-.2 0 0 0 .1.1.1l.5.2c0 .1 0 .1.1.2 0 0 0 .2.1.2s.1-.1.2-.1h.1c0-.1.1-.1.1-.2V7c0-.1 0-.2.1-.2l.1-.1c0-.1-.1-.1-.1-.1v-.2c0-.1.1-.1.1-.1.1 0 .2-.1.2-.2V6c0-.1.1-.1.2-.1s.2 0 .2.1-.1.1-.1.1c-.1.1-.2.2-.3.2v.1s0 .1.1.1v.1c0 .1.1.1.1.1h.1c.1 0 .1 0 .2-.1.1 0 .2 0 .2-.1l.1.1s-.1.1-.2.1h-.2c-.1 0-.2.1-.2.1.2.2.1.2 0 .2l-.2.1c-.1 0-.1.2-.1.2 0 .1-.1.1-.1.2h-.2s-.1 0-.1.1H17.2c-.1 0-.1.1-.2.1h-.1v-.1c0-.1 0-.1.1-.1h-.1v-.1c-.1.1-.2.1-.2.2s.1.1.1.2v.1l-.1.1h-.1c-.1 0-.1.1-.2.1v.1s-.1.1-.2.1c0 .1 0 .2-.1.2h-.2v.1h-.2s-.1 0-.1.1.1.1.2.1c0 .1 0 .1.1.1v.4H15.3l-.1.1v.5h.1v.1h.1c.1 0 .1.1.1.1.1 0 .1-.1.2-.1h.1c.1 0 .1-.1.1-.1.1-.4.1-.4.1-.5 0-.1.1-.2.1-.2.1 0 .1 0 .2-.1V9c0-.1 0-.1.1-.1h.2c.1 0 .1-.1.2-.1 0 0 0-.1.1-.1s.1.1.2.2c0 0 .1 0 .1.1.1.1.1.1.2.1h.1l.1.1v.1s0 .1-.1.1c0 0 0-.1.1-.1l-.1-.1s0-.1.1-.1h.1c0-.1-.1-.1-.1-.1s-.1 0-.1-.1h-.1s0-.1-.1-.1c0 0 0-.1-.1-.1 0 0-.1 0-.1-.1v-.1s.1 0 .1-.1v.1h.1c0 .1.1.2.1.2s.1 0 .1.1l.1.1V9c0 .1 0 .1.1.1l.1.1h.1v.1c0 .1 0 .1.1.1v-.2l.1.1h.1l-.1-.1-.1.1h.1v-.1h.1c.1 0 .1.1.1.1s.1 0 .1-.1h.1l-.1-.1.1-.1v-.2l.1-.1v-.1c.1 0 .1-.1.1-.1.1 0 .2.3.2.3l.2-.1H19s-.1 0-.1-.1c0 0 .2-.1.3-.1l-.1.1s.1.1-.1.2c.1.2.4.2.4.4-.1 0-.1.1-.2.1H19s-.2 0-.2-.1c-.1 0-.1-.1-.2-.1h-.2l-.1.1h-.2c-.1 0-.3 0-.3.1h.1c0 .1 0 .1-.1.1 0 0 .1 0 .1.1l.1.1c.1 0 .1.1.2.1s0-.1.1-.1.1.1.2.1.1 0 .2-.1h.2v.1c0 .1-.1.1-.1.2s0 .1-.1.2h-.5c-.1 0-.3 0-.4-.1h-.2v-.1h-.1c-.1 0-.2 0-.2.1v.1s0 .1-.1.1c-.2 0-.3-.3-.5-.3h-.1c.4.2.4.1.4 0V9.6s0-.1-.1-.1h-.4c-.1 0-.4.1-.5.2l-.1.1c-.1 0-.2 0-.3-.1 0 0 0 .1-.1.1l-.3.3c-.1.1 0 .1-.1.3 0 .1-.1.1-.1.2-.1 0-.1 0-.2.1s-.2.3-.2.4c0 .1-.1.1-.1.2s.1.2.1.4c0 .1-.1.3-.1.3v.2l.2.2.2.2.3.3h.1c.1 0 .2-.1.3-.1.1 0 .1.1.2.1 0 0 .1 0 .1-.1.1 0 .2-.1.4-.1.1 0 .2.2.2.2h.1c.1 0 .2.1.2.1v.2l-.1.1c0 .2.2.3.3.4 0 .1 0 .1.1.2 0 .1.1.1.1.3v.2c0 .2-.2.2-.2.5 0 .2.1.3.2.5l.1.1v.1c0 .3.1.5.3.7 0 0 .1.1.1.2v.1s.1.1.1.2c0 0 0 .1.1.1s.2-.1.3-.1h.2c0-.1.1 0 .1-.1.1-.1.2-.2.2-.3 0-.1.1-.1.1-.2 0 0 .1-.1.1-.2v-.1c0-.1.1-.1.2-.2h.1v-.2c0-.1-.1-.2-.1-.2l.1-.1c0-.2.4-.2.4-.5v-.5c0-.1-.1-.1-.1-.2v-.2c0-.1.1-.1.1-.2.1-.3.3-.4.5-.5.1-.1.2-.2.3-.4.1-.1.2-.4.2-.6-.1 0-.2.1-.3.1h-.1s0 .1-.1.1-.1-.1-.1-.1v-.1c-.1 0-.1-.1-.2-.2-.1 0-.1 0-.1-.1-.1-.1 0-.1-.1-.2 0-.1-.1-.1-.1-.2v-.2s-.1-.2-.1-.3l-.3-.6v-.1c.1.1.1.2.2.2 0 0 0-.1.1-.2v.1s0 .1.1.1c0 .1.1.1.1.2v.2h.1c0 .1.1.1.1.2s0 .2.1.2c0 .1.1.2.1.2l.1.1v.1c0 .1 0 .1.1.2h.1c.1 0 .1 0 .1-.1h.1l.2-.1c.1 0 .2 0 .2-.1s.2-.1.3-.1l.1-.1s0-.1.1-.1v-.1s0-.1.1-.1c0-.1.1-.1.1-.2l-.1-.1s0-.1-.1-.1-.2 0-.2-.1v-.1c-.1.1-.1.2-.3.2 0 0-.1 0-.1-.1v-.1s0 .1-.1.1v-.1c-.1 0-.2-.2-.2-.2v-.1s0-.1.1-.1.2.1.2.2v.1s.1 0 .1.1l.1.1h.2s0-.1.1-.1.1.1.1.1h.8l.1.1c0 .1.1.1.2.1s.1.2.2.2.1-.1.1-.2v.2c0 .1 0 .1.1.2 0 .1.1.2.1.2v.2l.1.1c0 .1.1.1.1.2v-.1h.1s0-.1.1-.1v-.4c0-.1.1-.1.1-.1s.1 0 .1-.1l.2-.2c.1-.1.1-.1.2-.1v-.1s.1 0 .1-.1h.1c.1 0 .2 0 .2-.1 0 0 .1 0 .1.1v.1l.1.1c0 .1.1.1.1.2v.1s0 .1.1.1.1-.1.2-.2v.3c0 .1.1.2.1.3v.2c.1 0 .1.1.1.2s0 .1.1.2c0 .1.1.2.2.2h.1v-.1l-.1-.1V12c0-.2-.2-.2-.3-.3v-.1c0-.1-.1-.1-.1-.2s.1-.1.1-.2v-.1h.1s.1 0 .1.1c0 0 0 .1.1.1 0 .1.1.1.1.1v.2l.1-.1s0-.1.1-.1.1-.1.2-.1v-.2c0-.1-.1-.3-.1-.3l-.2-.2c0-.1.2-.2.2-.3H26.2c.1 0 .1 0 .2-.1v-.1h.1c.1 0 .2-.1.3-.1v-.1c.1 0 .1-.1.1-.2 0 0 .1-.2.2-.2v-.2c0-.1 0-.2-.1-.3v-.2s-.1 0-.1-.1c0 0 .1 0 .1-.1s.2-.1.2-.2H27v.1h-.1s0-.1-.1-.1c0 0-.1 0-.1-.1s.1 0 .1-.1l.1-.1h.1s.1 0 .1.1-.1.1-.1.1c.1 0 .2-.1.3-.1h.1v.3s.1 0 .1.1h-.1v.2h.2l.1-.1c0-.1 0-.2-.1-.3l-.1-.1s.1 0 .1-.1l.1-.1c0-.1.1-.1.1-.2h.2c.2 0 .3-.4.5-.5.1-.1.1-.2.1-.2v-.3s.1-.1.1-.2-.1-.3-.2-.2c-.2.1-.3-.1-.3-.1 0-.1.2-.2.2-.3.1-.1.2-.3.4-.3.1 0 .5-.1.6-.1.1 0 .2.1.3.1h.2c.1-.2.1-.4.4-.4h.2c-.1 0-.1.3.3-.1 0 0 .2.1 0 .2-.1.1-.2 0-.2.1-.4 1.2-.4 1.4-.5 1.4-.1 0-.2.1-.2.3 0 .1 0 .5.1.6.1-.1.1-.3.2-.3 0-.1.1-.1.1-.2s.1-.1.1-.2V7c.3-.6.5-.3.6-.3.3 0 .5-.4.7-.4.5 0 .1-.2.1-.3 0-.1.2-.1.2-.2v-.1c.2 0 .4.3.5.3.1 0 .1-.1.1-.2.1-.1.1-.1.2-.1 0 0-.3-.1-.5-.2zm-13.7.2c0-.1.1-.1.1-.1 0-.1-.1-.1-.1-.1 0 .1.1.1.1.1-.1 0-.1 0-.1.1s.1.1.1.2c0-.1-.1-.1-.1-.2zm.5 4.7zm1.4-1.6c.1.1.1.2.1.3 0 0 .1 0 .1-.1 0 .1.1.1.1.1h-.1s-.1 0-.1.1c.1 0 .1.1.1.1v.3h-.2s0-.1-.1-.1h-.1V9.2s0 .1-.1.1c.1 0 .1-.1.1-.1v.1c0-.1 0-.1.1-.2-.1-.1-.2-.3-.2-.4l-.1-.1s.1-.1.1-.2c0 0 .1 0 .1-.1.1 0 .1-.1.2-.1.2 0 .2.1.3.2h-.2c-.1 0-.2.1-.2.1l.1.3zm4.3 3.5zm0-.4c0-.1 0-.1 0 0 0-.1 0-.1 0 0zm0 .4v-.1.1zm.1-.1s0-.1 0 0c0-.1 0-.1 0 0 0-.1 0-.1 0 0zM32 5s.3 0 .3-.1c0 0-.1-.1-.2-.1-.1.1-.2.2-.1.2-.1 0-.1 0 0 0zm-.9.2c-.1 0-.1 0 0 0zm-3-1c0-.1 0-.1 0 0 0-.1 0-.1 0 0zm-2.1.2c.1 0 .1 0 0 0 .1 0 .1 0 0 0 .1 0 .1 0 0 0zm.1 0zm-1.3-.7s.1 0 0 0h.3c.1 0 .2 0 .2-.1 0 0-.1-.1-.2-.1H25v-.1s0 .1-.2.3c.1-.1 0-.1 0 0zm-.7-.4c.1.1.2.1.2 0 0 0-.1-.1-.2 0 .1-.1 0-.1 0 0zM24.5 3.3c-.1 0-.1.1-.2.1 0 0 .1.1.2.1s.2.1.4.1h.2v-.1s0-.1-.1-.1h-.2c-.2-.2-.2-.2-.3-.1.1 0 .1-.1.1-.1v-.1c-.1 0-.1-.1-.2-.1-.2 0-.2.2-.3.2.1 0 .1.1.2.1.1-.1.2 0 .2 0zm-4-.1s-.1 0 0 0zm-.4-.1c.1 0 .1 0 0 0 .1.1.1.1 0 0 .1.1.1.1 0 0 .1.1.1.1 0 0 0 .1.1.1.1.1s0-.1.1-.1h.1s.1 0 .1-.1h-.2c0 .1-.1.1-.2.1h-.2.1c0 .1.1 0 .1 0zm1.5 0h.2V3c-.1-.1-.2 0-.2.1zm-.2.1c.1-.1.1 0 0 0l.1-.1h-.2s-.1 0-.1.1h.2zm-.3 0s-.2 0-.2.1c.1 0 .1 0 .2-.1 0 0 0 .1 0 0 0 .1 0 0 0 0 .1 0 .1 0 0 0zm0-.1s.1 0 0 0c-.1-.1 0-.1.1-.1 0 0-.1 0-.1.1-.1-.2-.1-.1-.2-.1h.1-.1s.1.1.2.1c-.1 0 0 0 0 0zm-4.1.4c0 .1.1.1.1.1s0 .1.1.1.1-.1.1-.1h.1s-.1.1-.2.1h-.1c0 .1.1 0 .1 0h-.1c0 .1.2.2.2.2s0-.1.1-.2c0-.1.1-.2.2-.2l.1.1s0 .1.1.1v.1h.1v.1c.1 0 .1-.1.2-.1 0 0-.1 0-.1-.1v-.1h-.1s-.2-.1-.3-.1v-.1h-.1v-.1l-.1-.1h-.1v.1c-.1 0-.1-.1-.1-.1s-.1 0-.1.1h-.3c.2 0 .1.1.2.2 0-.1 0 0 0 0zM17.6 3.3c0 .1.1 0 .1 0h-.1v.1h.4l.1.1c.1 0 .2-.1.3-.2l-.1-.1h-.2v-.1s0 .1-.1.1c0 0-.1 0-.1-.1h-.1l-.2.2c.1-.1 0-.1 0 0 0-.1 0 0 0 0zm-.6.4c0-.1-.1-.1-.1-.1 0-.1.1 0 .1.1zm-.1-.2zm0 0zm-1.8 4.3c0 .1 0 .1 0 0l.1.1.1-.1h.1v-.2s.1 0 .1-.1 0-.1-.1-.1h-.1s-.1 0-.1.1h-.1s0 .1.1.1c0 .2-.1.2-.1.2zM15.5 7.2c0 .1 0 .1 0 0v.1h.1v.2h.3v.1l-.1.1v.1l-.1.1h.1l-.1.1v-.1h.3s.1 0 .1-.1H16l.1-.1s0-.1-.1-.1v-.1c0-.1-.1-.1-.1-.2 0 0 0-.1-.1-.1h-.1c0-.1.1-.1.1-.2h-.2s.1 0 .1-.1h-.2v.3c0-.1 0-.1 0 0 0-.1 0-.1 0 0 0-.1 0-.1 0 0-.1 0-.1 0 0 0zM14.8 6c0-.1-.1-.1-.1-.2h-.6s-.1 0 0-.1h-.2s.1.1.2.1h-.2.1v.1c.1 0 .1 0 .1.1.1 0 .2.1.3.1.1 0 .2-.1.2-.1.1.1.2.1.2 0zm-5.4 5.4s-.1-.1 0 0l-.1-.1c-.1 0-.2 0-.2-.1H9c-.1 0-.2-.1-.3-.1-.1 0-.2.1-.3.1 0 0 .1-.1.2-.1h.3c0 .1.1 0 .1.1h.2c.1.2.2.2.2.2zm0 .2h.2s0-.1.1-.1h.2s-.1 0-.1-.1c-.1 0-.1-.1-.2-.1h-.2v.1c.1.2.1.2 0 .2zM5 8.2zM12.8 13.8h-.1c-.1 0-.1-.1-.2-.2 0 0-.1 0-.1-.1h-.1c-.1 0-.1-.1-.1-.1h-.1v-.1H12s-.1-.1-.2-.1v-.1s-.1.1-.1 0c0 0-.1 0-.1-.1l-.1-.1s-.1-.1-.1-.2c-.1 0-.1-.1-.2-.1H11c-.1 0-.2 0-.2-.1s-.1-.1-.1-.1h-.1v-.1s-.1 0-.1-.1H10v-.1s-.1 0-.1-.1h-.1l.1.1h-.2s-.1 0-.1.1v.2l-.1-.1v-.1l-.1.1c-.1 0-.1 0-.2.1 0 0-.1 0-.1.1v.1s-.1 0-.1.1c-.1 0-.1-.1-.2-.1s-.1.1-.2.1-.1-.1-.1-.1l-.1-.1v-.4c-.1 0-.1-.1-.2-.1h-.3s.1 0 .1-.1V11.6c0-.1.1-.1.1-.2h-.2c-.1 0-.2 0-.2.1s-.1.1-.1.1v.1h-.4c-.1 0-.1-.1-.1-.1l-.1-.1v-.7c0-.1 0-.2.1-.2h.1s.1-.1.2-.1h.1c.1 0 .1.1.2.1v-.1H8c.1 0 .1.1.2.1h.1c.1 0 .1.2.2.3 0 .1.1.1.1.1s0 .1.1.1.1-.1.1-.1v-.1c0-.1-.1-.1-.1-.3 0-.2.2-.3.3-.4h.2v-.1.1l.1-.1V10l.1-.1c.1 0 .2 0 .2-.1h.1v-.1c0-.1.1-.2.2-.2h.1s.1 0 .1-.1h.1s0-.1.1-.1c-.1 0-.2.1-.2.1s0 .1.1.1l.1-.1.2-.1h-.1c-.1 0-.2-.1-.2-.2V9h-.1s.1 0 .1-.1-.1 0-.2 0-.2.1-.3.1c0-.1.1-.1.2-.1 0 0 0-.1.1-.1h.3c.2 0 .2.1.3-.1 0-.1.3-.1.3-.2s0-.1-.1-.2v-.1c-.1 0-.2.1-.3.1.1 0 .2-.1.3-.1-.1 0-.2 0-.2-.1-.1 0-.1 0-.2-.1v-.2l-.1-.1c0-.1-.1-.1-.1-.2h-.1s-.1 0-.1.1c.2-.7.1-.6 0-.6s-.1-.1-.1-.1c-.1 0-.1-.2-.1-.2 0-.1-.2 0-.2-.2-.1 0-.1-.1-.2-.1h-.1c-.1 0-.1-.1-.2-.1 0 0-.1 0-.1.1 0 0 .1.1 0 .2 0 0 .1.1.1.2s-.1.1-.1.1c0 .2.1.2.1.4 0 .1-.2.2-.3.2.2.1.1.3.2.3 0 0-.1 0-.1.1 0 0-.1.1-.1 0 0 0-.2-.1-.2-.2s0-.2-.1-.2h-.1c-.1-.1-.3-.2-.4-.3l-.1-.1h-.1c-.1.1-.1-.1-.2-.1h-.1v-.2c0-.1 0-.2.1-.3l.1-.2c.1 0 .1 0 .1-.1s-.1-.1-.2-.1c0 0-.1-.1.2 0 .1 0 0-.1.1-.1H8c.1 0 .1-.1.2-.1V6C8.1 6 8 6 8 5.9l.1.1c.1 0 .1-.1.1-.1v-.1c.1 0 .1.1.1.1h.1s0-.1 0 0c0 0 .2-.1.2-.2l-.1-.1s0-.1.1-.1v-.1c-.1 0-.1-.1-.2-.1h-.1s-.1 0-.1.1v.1s-.1 0-.1.1 0 .1-.1.2c.2 0 .1-.2.1-.2s.1 0 .1-.1l-.1-.1c-.1 0 0 .1-.1.1 0-.1 0-.1-.1-.1s-.1 0-.2-.1c0 0 .1 0 .1-.1s-.1-.1-.1-.1c0-.1-.1-.2-.2-.2s0 0 0 .1c0 0-.1 0-.1.1v.2c0 .1.2 0 .2.2v.1h.1c0 .1-.2.1-.2.2-.1 0 0-.1 0-.1h-.1c-.1 0-.1 0-.1.1H7c-.2 0-.4-.1-.4-.2-.1 0-.2 0-.2.1.1 0 .1 0 .2-.1 0 .1-.1 0-.1.1v.1c-.1 0-.1-.1-.1-.1h-.6c-.1 0-.1 0-.1-.1h.1c-.1-.2-.1-.2-.3-.2-.2 0-.3-.2-.5-.2h-.1l-.1-.1c-.1 0-.1.1-.1.1-.1 0-.1-.2-.2-.2s0 .1-.1.1h-.1c-.1 0-.1 0-.2.1 0 0-.1.1-.1 0 0 .1 0 .2-.1.2-.2 0-.1.1-.1.1-.1 0-.2 0-.3-.1-.1 0-.1-.1-.2-.1h-.1c-.1 0-.3 0-.4-.1h-.3s-.1 0-.1-.1H2c.1 0 0-.1 0-.1l-.1.1h-.1c-.2.1-.4.2-.4.3h-.2v.1s.1 0 .2.1l.1.1c.1 0 .2.1.2.2h-.1c-.1 0-.1 0-.1-.1h-.2c-.1.1-.2.1-.3.2 0 0 0 .1.1.1v.1h.3c.1 0 .1-.1.1-.1v.1l.1.1-.2.1c-.1 0-.2.1-.2.2s.1.1.1.1l.2.2s0-.1.1-.1v.1c.1.1.1.1.2.1v-.1h.1L2 7s0 .1-.1.2l-.2.1c0 .1-.1 0-.2.1l-.1.1c-.1 0-.1 0-.2.1.1 0 .2-.1.3-.1.1 0 .2-.1.3-.1.1-.1.2-.1.3-.2 0 0 0-.1.1-.1s.1-.1.1-.1c0-.1.2-.3.3-.3-.1 0-.1.1-.1.2.1 0 .3-.1.3-.2 0 0 .1 0 .1-.1.1.1.2.1.3.2h.2c.1.1.2.1.3.1l.1.1v-.1H4v.2h.1v.1s0 .1.1.1.1 0 .1.1v.1l.1.1v-.1c0-.1 0-.1-.1-.1 0 0 .1 0 .1.1v.2h.1v.1l.1.1c0 .1 0 .1.1.1 0 .1.1 0 .2.1 0 0 .1 0 .1.1v.2s0-.1-.1-.1c0 .1.1.1.1.2s-.1.3-.1.4v.4c0 .1.1.2.2.2 0 .1.1.2.1.3v.1c.1 0 .3.1.3.2s.1.1.1.2c0 0 0 .1.1.2.1 0 .1.1.2.2h-.1s.1 0 .1.1l.1.1v.1l.1.1s0 .1.1.1v-.1s0-.1-.1-.1-.1-.1-.1-.2v-.1c0-.1 0-.1-.1-.1 0 0-.1 0-.1-.1s-.1-.1-.1-.2c0 0 .1 0 .1.1v.2l.1.1c0 .1.1.1.1.1v.1s.1 0 .1.1c.1.1.2.2.2.3v.3l.1.1h.1l.1.1h.1s.1.1.2.1h.2c.1 0 .1-.1.1-.1h.1c.1 0 .1.1.2.2h.2l.1.1h.1c0 .1.1.1.1.2v.2l.1.1s0 .1.1.1h.1l.1.1v-.1l.1-.1.1.1c0 .1.1 0 .1.1v.2c0 .1-.1.1-.1.1 0 .1 0 .1-.1.1 0 .1-.1.1-.1.2 0 0 0 .1.1.1 0 .1-.1.1-.1.1v.1c0 .1 0 .1.1.2v.1c0 .1 0 .1.1.2 0 .1.1.1.1.2l.1.1v.1c.1.1.1.1.2.1 0 0 .1 0 .1.1 0 0 .1 0 .1.1.1 0 .1.1.1.2v.7c0 .1-.1.2-.1.3v.7s-.1.1-.1.2v.5L9 18s0-.1-.1-.1v.1c0 .1-.1.1-.1.1v.2c0 .1.1.1.1.1v.1s-.1 0-.1.1c0 0 .1.1.2.1h.1c0 .1.1.1.1.1.1 0 0 .1.1.1h.7s.1-.1.2-.1h.1c-.1 0-.2-.1-.2-.1s0-.2-.1-.2v-.1c0-.1 0-.1.1-.1 0 0 .1 0 .1-.1v-.1l.1-.1c0-.1-.1-.1-.1-.2s0-.1.1-.1h.1c0-.1 0-.1.1-.2v-.1h.1l-.1-.1h.2v-.2h.2c.1 0 .1 0 .2-.1l.1-.1v-.1s-.1 0-.1-.1v-.1s-.1 0-.1-.1h.2c.1 0 .2-.2.2-.3l.2-.2v-.1c0-.1.1-.1.1-.2v.1s.1 0 .1-.1c.1-.1.1 0 .2-.1h.2c.1 0 .1 0 .1-.1v-.1c0-.1.1-.1.1-.2V14.6s.1 0 .1-.1l.1-.1c.1-.1.2-.2.2-.4.1-.1.1-.1 0-.2zM4.2 7.3l-.1-.1c.1 0 .1 0 .1.1zM6.9 5.3H7c-.1-.1-.3-.2-.3-.3 0-.1-.1-.2-.1-.3l.1-.1-.1-.1c-.1 0-.1 0-.1.1h-.2s0 .2.1.2c-.1 0 0-.1-.1-.1l-.1-.1h-.1v.1H6c0 .1 0 0-.1 0s-.1 0-.1.1c0 0 0-.1-.1-.1s-.4.1-.4.3h.2s-.1 0-.1.1.2.1.2.1h.2c-.1 0-.2 0-.3.1l.1.1h.2s0 .1.1.1h.3c.1-.1.1 0 .2-.1 0 0 0-.1.1-.1s.1.1.3.1c.1 0 .2 0 .2-.1-.1.1-.1.1-.1 0-.1 0-.1 0 0 0-.1 0-.1 0 0 0zM4.9 5s0 .1 0 0c.1.1.3 0 .3 0 0-.1.1-.2.2-.3 0 0 .2 0 .2-.1s-.2-.1-.2-.1h-.1c-.1 0-.1 0-.2-.1h-.3v.1c0 .1-.2.2-.2.3.1.1.3.1.3.2zm.7-.9h-.2v.1h.2s0 .1.1.1h-.1l.1.1c.1 0 .1 0 .2-.1l.2-.1h.2s.1-.1.1-.2c0 0 0-.1-.1-.1h-.1c.1.2.1.2.1.1h-.1l-.1.1h.1c-.2.1-.3 0-.3 0h-.1s-.1-.1-.2 0c.1-.1.1-.1 0 0zm.1.1s0-.1 0 0c0-.1 0-.1 0 0zm-.4 0c.1 0 .1 0 .1-.1l-.1.1zm.4-.2zM5.1 4.1c.1 0 .1.1.1.1s.1 0 .1-.1c.1 0 .1 0 .1-.1 0 0 0 .1.1.1l.1-.1v-.2c0-.1-.2 0-.2 0h-.1c0 .1 0 .1-.1.2 0 0-.1 0-.1.1-.1 0-.1 0 0 0-.1 0-.1 0 0 0-.1.1 0 0 0 0zm.9-.4h.2l-.1-.1-.2.1H6c-.1 0-.1 0 0 0zm.1 0c-.1 0-.3 0-.3.1l.1.1c.1 0 .2-.1.2-.2 0 .1 0 .1 0 0zm-.4.1c.1 0 .1 0 0 0 .1 0 0-.1 0 0zm1.6 1c0-.1 0 0 0 0 0-.1-.1-.1-.1-.1l.1-.1h-.4.1v.1h-.1v.1c0 .1.1.1.2.2 0 0 0 .1.1.1l.1-.1c.1-.1.1 0 0-.2.1 0 0 0 0 0zM6.7 4v.1H7v-.2l.2.1H6.9 7v.1h-.1l.1.1c-.2 0-.2-.2-.3-.2zm.5 1.4s-.1 0 0 0c-.1 0 .2.1.2.1l.1-.1s-.1-.2-.2-.2c-.1.1-.1.2-.1.2zm.4-.9c-.1 0-.1 0 0 0-.1 0-.1.1 0 0l-.2.1V5h.1l.1-.1c0-.1 0 0 .1 0s.1-.1.2-.1c0 0 .1 0 .1-.1-.2-.2-.3-.2-.4-.2zm-1-.6s.1 0 0 0c0-.1 0-.1-.1-.1l.1.1zm0 .4h.1s0-.1-.1 0c0-.1 0 0 0 0zm0-.8c0 .1 0 .1 0 0 .1.1.1.1 0 0 .1.1 0 .1 0 .1h.3c.1.1.1.2.2.2h.1l-.1-.1C7 3.6 7 3.5 7 3.5s0-.1-.1-.1h-.1c-.1.1-.1 0-.2.1 0-.1 0 0 0 0-.1 0-.1 0 0 0zM6.9 3.7c-.1 0-.1.1 0 0 0 .1 0 .1 0 0zm1.1.7c0 .1.1.1.2 0h.5c.1 0 .3 0 .3-.1s-.1-.1-.3-.1c-.2 0-.2.1-.4.1H8s-.1 0-.1-.1H8s-.2 0-.1-.1h-.2c-.1-.1-.1-.2-.3-.2h-.1l.2.1h.1c.1.1.1.1.1.2v.1s.2.1.3.1zm-.4-.1l-.1-.1c-.1 0-.1.1-.1.1v.1l.2.1v-.2zm0-.5h-.2s.2.1.2 0c0 .1 0 0 0 0zm-.3-.1c0 .1.1.1.2 0v-.1c0-.1-.1 0-.1-.1 0 0-.1 0-.1-.1 0 0-.1 0-.1.1s.1.2.1.2zm-.1-.3c0-.1-.1-.1 0 0-.1-.1-.1 0 0 0zm.4-.1c-.1 0-.1 0 0 0h-.1c-.1.1 0 .1.1 0v.1h.3s-.2 0-.2.1.1.1.1.1l.1.1s.1 0 .1-.1l.1.1h.1v-.2s0 .1.1.1l.1-.1h.1v-.1H8.2v-.1s0-.1-.1-.1H8c-.1 0 0-.1-.1-.1-.2-.1-.2-.1-.3-.1 0 0 .1 0 .1.1h-.2v.1h-.1s.1.1.2.1zm1.1 2.9s0-.1 0 0c-.1-.2-.2-.1-.2-.2v-.1c-.1 0-.1.1-.1.2v.2h.1v.1s.1 0 .1-.1l.1.1h.2c-.1-.2-.2-.2-.2-.2zm.6-.6c0-.1-.2-.1-.2 0 0 0 0 .1.1.1 0 0 .1 0 .1-.1zm-.7.8s-.1 0 0 0l-.1.1c.1 0 .1-.1.1-.1zm.3-1.6h.2l.1-.1c-.1 0-.1-.1-.2-.1h-.2s-.1 0-.1.1c.1-.1.1 0 .2.1-.1-.1 0 0 0 0zM8.9 6.6s0-.1 0 0c0-.2-.1-.2 0 0-.1-.1-.1 0 0 0zm.5-1s0-.1 0 0c-.1-.1-.1 0-.1 0h.1zM9 5.4c-.1 0-.1 0 0 0zM9.7 5h-.2c-.1 0-.1-.1-.2-.2l-.2-.1c-.1.1-.1.1-.2.1h-.2v-.1c0-.1 0-.2-.1-.2s-.3 0-.3.2v.1s0 .1-.1.1v-.2c0-.1.1-.1.1-.2h-.1c0 .1-.1.1-.2.2v.1l-.1.1c0 .1.1.1.1.1h.2-.1l.1.1h.2l.1.1H9v.1c.1 0 .1-.1.1-.1l.2.2h-.1.1c.1 0 .3.2.3.3l-.1.1s-.1 0-.1.1c0 0 0 .1.1.1h-.4S9 6 9 6.1l.1.1.1-.1h.1l.1-.1.2.2c-.1.2.1.2.2.2.1.1.1 0 .2.1 0-.1-.2-.2-.2-.2s.2.1.3.1v-.1l-.1-.1v-.1h-.1c0-.1 0 0-.1 0 .2 0 .2-.1.2-.2h-.1.1c.2 0 .2.2.3.2V6h.1s.1 0 .1-.1 0-.1-.1-.1h-.1c0-.1 0 0-.1 0l-.1-.1c-.1 0-.2 0-.2-.1h-.1c0-.1.1-.1.1-.1h-.1.1s0-.1-.1-.1h.1v-.3c-.1 0-.2 0-.2-.1zM9 6.3zm-.5-.4zm-.6-3c.1.1 0 .1 0 0 0 .1 0 .1 0 0 .1.1.1.1.2.1h.1c-.1 0-.2 0-.2.1s.1.1.2.1h.1l.1.1h.2c.1 0 .2 0 .2-.1 0 0-.1.1-.2.1l.1.1c-.1 0-.1-.1-.2-.1H8.2c0 .1.2.1.2.2s-.1.1-.2.1l-.1.1c0 .1.1.1.1.2h.2c-.1 0-.1-.1-.2-.1h-.1c0 .1.1.1.1.1-.1 0-.2 0-.2.1.1 0 .2.1.3.1h.3c.1 0 0 .1.1.1.2-.1.3-.2.3-.2h-.1c0-.2.1-.1.1-.2v-.1h.2c.1 0 .1-.1.1-.2l-.1-.1c.1 0 .1 0 .1-.1h-.1c.1 0 .1-.1.2-.1h.2c.1-.1.2-.2.3-.2.1.1.3 0 .3 0H10c.2-.1.3 0 .4-.1h.1c0-.1-.2 0-.2-.1l-.1-.1H10h.1c-.1-.1-.4-.1-.5-.1h-.2l-.1.1h-.7c-.1 0-.1.1-.2.2l-.2-.1c-.1 0 0 .1-.1.1-.1-.1-.3 0-.3.1l.1-.1c0 .1 0 0 0 0zM14 5.2c-.1 0-.3 0-.3-.1h.1V5c.1 0 .1.1.2.2 0-.1.1-.1.1-.1 0-.2-.2-.2-.3-.4 0 .1.1.2.2.2v-.1c0-.1-.1-.1-.2-.2l.1.1c0-.1.2 0 .2-.1v-.1c.1 0 .1 0 .1-.1 0 0-.1 0-.1-.1h.1v-.2s-.1 0-.1-.1c0 0 0-.1.1-.1s.2 0 .2-.1-.1-.1-.1-.1h.1l-.1-.1h-.1s0-.1.1-.1.1-.1.1-.1c.1 0 .1 0 .1-.1.1 0 .1 0 .1-.1h-.1c.1 0 .2-.1.3-.1 0 0 .1 0 .1-.1 0 0-.1-.1-.2-.1h-.3c-.1 0-.1 0-.1.1H14c-.1 0-.2.3-.3.3l.2-.3c0-.1 0-.1-.1-.1s-.3.2-.4.2c0 0 .1-.1.1-.2h-.6.7c.1 0 .3 0 .3-.1h-.3c-.1-.1-.3-.2-.5-.2h-.5c-.2 0-.3.1-.4.1h-.4c-.1 0-.2 0-.3.1l.1.1h-.1c0 .1.1.1.2.1h-.1c-.1 0-.2-.1-.3-.1h-.1V3c-.1 0-.1 0-.2-.1V3c-.1 0-.1-.1-.1-.1-.1 0-.1.1-.2.1h-.3c-.1 0 0 .2-.1.2h-.1c-.1.1-.2.1-.3.2 0 0-.1 0-.1.1s.2.1.2.1c0 .1 0 .1-.1.2h-.3c-.1 0-.1.1-.2.1s-.2 0-.2.1.3.1.3.1h.2v.1h.1-.1s-.1 0-.1.1h.1s.1 0 .1.1l-.1.1s.1.1.2.1h.4c.4 0 .6.3.7.6 0 0 .1 0 .1.1s-.1.1-.1.1c0-.4.1-.4.1-.4l.1-.1c.1 0 .1.2.2.2v.1c-.1 0-.1-.1-.2-.1h-.1c0 .1.2.1.3.1 0 .1-.1.1-.1.2h-.1c-.1.1-.1.1-.1.2v.1h.1v.1c0 .1.1.1.1.2v.1c.1 0 .1-.1.1 0v.1c0 .1.1.2.2.3v.1c.1 0 .1 0 .1.1h.1c.1 0 .1.2.2.2h.1c.1 0 0-.2.1-.2v-.2c0-.1.1-.1.1-.2v-.1c0-.1.2-.1.2-.2 0 0 0-.1.1-.1V6c.1 0 .2 0 .2-.1 0 0 .1-.1.1-.2l.1-.1.1-.1h.1c.1-.1.2 0 .3-.1.1 0 .1-.1.2-.2h.3zM11.2 5.3c.1 0 .2 0 .2-.1-.1 0-.1-.1-.2-.1 0 0-.1 0-.1.1s0 .1.1.1zm3.1-1.1s0 .1 0 0c0 .1 0 .1 0 0 0 .1.1.1.1 0h-.1zM11 8c0-.1 0-.1 0 0-.1 0-.1 0-.1.1s-.1.2-.2.3l-.1.1h.4v.1l.1-.1v-.4h-.2c.1 0 .1-.1.1-.1zm17.4-3.7h.6s0-.1.1-.1c-.1 0-.3-.1-.3-.1s-.1 0-.1.1c-.1 0-.1-.1-.2-.1s-.1.1-.1.1c-.2.1-.1.1 0 .1zM2.2 7.2h.2c-.1-.1-.1 0-.2 0zm15.1 2.3h-.2c.1 0 .1.1.1.1.1 0 .1 0 .1-.1 0 .1 0 0 0 0zm3-4.2s0 .1 0 0v.1c.1 0 .1 0 .1-.1h-.1zm.9-.1l.1.1c0-.1-.1-.2-.1-.1zm1.1-.6c-.1-.1-.1 0-.1 0 .1.1.1 0 .1 0zm6.4 0c.1-.1 0-.1-.1-.1s-.1 0-.2.1h.3zM29.3 4.3h.1s-.3 0-.4-.1c.1.1.2.1.3.1zm-.7.1s-.1 0 0 0c-.1.1-.1.1 0 0 0 .1 0 .1 0 0zM1.2 6.8s-.1 0 0 0c-.1 0-.1 0 0 0z" class="st0"/></svg>