<svg xmlns="http://www.w3.org/2000/svg" viewBox="0 0 45.4 51.2" enable-background="new 0 0 45.4 51.2"><style type="text/css">.st0{fill:#E23130;} .st1{opacity:0.25;} .st2{fill:#FFFEFF;}</style><path d="M45.4 48.2l-22.7-7.6L0 48.2V0h45.4z" class="st0"/><path d="M0 48.2v3l22.7-7.6 22.7 7.6v-3l-22.7-7.6z" class="st1"/><path d="M12.9 14h7.6v5.4c0 2.2-.2 3.9-.6 5.2-.4 1.3-1.1 2.4-2.1 3.4s-2.4 1.8-4 2.4l-1.5-3.1c1.5-.5 2.6-1.2 3.3-2.1s1-2.1 1-3.6h-3.7V14zm12.7 0h7.6v5.4c0 2.2-.2 3.9-.6 5.2-.4 1.3-1.1 2.4-2.2 3.4-1 1-2.4 1.8-4 2.4l-1.5-3.1c1.5-.5 2.6-1.2 3.2-2.1s1-2.1 1-3.6h-3.6V14z" class="st2"/></svg>