<svg xmlns="http://www.w3.org/2000/svg" viewBox="0 0 30 30" enable-background="new 0 0 30 30"><style type="text/css">.st0{fill:#FFFFFF;}</style><path d="M17.1 22.5h-4.3c-.4 0-.8.3-.8.8v2.9c0 .4.3.8.8.8h.7l.4.4c.1.2.4.3.6.3h.9c.2 0 .4-.1.6-.3l.4-.4h.7c.4 0 .8-.3.8-.8v-2.9c0-.5-.3-.8-.8-.8zM15 2.4c-4.3 0-7.7 3.4-7.7 7.6 0 2.1.9 4.5 2.4 6.3 0 0 0 0 .1.1.5.6 1.8 2.4 1.8 3.7 0 .5.4.9.9.9h5.1c.1 0 .3 0 .4-.1.3-.1.6-.5.6-.9 0-1.1 1.1-2.8 1.8-3.7 0-.1.1-.1.1-.2 1.5-1.8 2.3-4.1 2.3-6.2-.1-4.1-3.5-7.5-7.8-7.5zm3.8 12.7c-.1.1-.1.1-.1.2-.4.5-1.6 2.1-1.9 3.7h-3.5c-.4-1.7-1.6-3.4-2-3.8 0 0-.1-.1-.1-.1-1.2-1.4-2-3.4-2-5.1 0-3.1 2.6-5.7 5.8-5.7 3.2 0 5.8 2.6 5.8 5.7 0 1.7-.8 3.6-2 5.1z" class="st0"/></svg>