<svg xmlns="http://www.w3.org/2000/svg" viewBox="0 0 11 17.1" enable-background="new 0 0 11 17.1"><style type="text/css">.st0{fill:#333333;}</style><path d="M10.6 0H.4C.2 0 0 .2 0 .4v16.2c0 .2.2.4.4.4h10.2c.2 0 .4-.2.4-.4V.4c0-.2-.2-.4-.4-.4zM4 .8c0-.1.2-.2.4-.2h2.2c.2 0 .4.1.4.2v.1c0 .1-.2.2-.4.2H4.4C4.2 1.1 4 1 4 .8zm2.7 15.3c0 .2-.2.4-.4.4H4.7c-.2 0-.4-.2-.4-.4v-1.7c0-.2.2-.4.4-.4h1.6c.2 0 .4.2.4.4v1.7zm3.2-2.7H1.1V1.9h8.7v11.5zM6 14.4H5c-.1 0-.2.1-.2.2v1.1c-.1.2 0 .3.2.3h1c.1 0 .2-.1.2-.2v-1.1c.1-.2 0-.3-.2-.3z" class="st0"/></svg>