<?xml version="1.0" encoding="utf-8"?>
<!-- Generator: Adobe Illustrator 19.1.0, SVG Export Plug-In . SVG Version: 6.00 Build 0)  -->
<svg version="1.1" id="Layer_2" xmlns="http://www.w3.org/2000/svg" xmlns:xlink="http://www.w3.org/1999/xlink" x="0px" y="0px"
	 viewBox="344 -165.7 638.4 347.7" style="enable-background:new 344 -165.7 638.4 347.7;" xml:space="preserve">
<style type="text/css">
	.st0{fill:none;}
	.st1{fill:#00ADBB;}
	.st2{fill:#FFFFFF;}
</style>
<title>HelloLife_over 2 inches_with TM_RGB</title>
<g>
	<rect x="389.7" y="-165.7" class="st0" width="612" height="347.7"/>
	<circle class="st1" cx="822.6" cy="5.8" r="128.7"/>
	<path class="st1" d="M485.7,50.9c-1.7,1.8-4,2.7-6.5,2.7c-5.1,0-9.2-4-9.2-9.1v-0.1V13.7h-34.7v30.6c0.1,2.4-0.9,4.8-2.6,6.5
		c-1.7,1.8-4,2.7-6.5,2.7c-5.1,0-9.2-4-9.2-9.1v-0.1v-75.6c0-5.1,4.1-9.2,9.1-9.2h0.1c2.4-0.1,4.8,0.9,6.5,2.7
		c1.7,1.7,2.7,4.1,2.6,6.5v27.8H470v-27.8c0-5.1,4.1-9.2,9.1-9.2h0.1c2.4-0.1,4.8,0.9,6.5,2.7c1.7,1.7,2.7,4.1,2.6,6.5v75.6
		C488.4,46.8,487.5,49.1,485.7,50.9z"/>
	<path class="st1" d="M555.7,26.4c-1.1,1-2.6,1.5-4.1,1.5h-38.4c0.4,3.4,2,6.6,4.7,8.7c2.9,2.3,6.5,3.5,10.2,3.4
		c2.6,0.1,5.1-0.4,7.5-1.2c2-0.8,3.8-1.8,5.4-3.2c1.7-1.4,3.7-2.2,5.9-2.3c1.7,0,3.4,0.7,4.7,1.9c1.7,1.4,2.6,3.5,2.6,5.7
		c0,1.7-0.8,3.2-2.1,4.3c-3.4,3.1-7.4,5.5-11.8,6.9c-4.2,1.4-8.6,2.1-13,2.1c-4.2,0-8.3-0.8-12.2-2.5c-7.6-3.2-13.6-9.2-16.7-16.8
		c-1.7-3.9-2.5-8-2.5-12.3c0-4.2,0.8-8.4,2.4-12.3c1.5-3.8,3.8-7.2,6.7-10.1c2.9-2.9,6.3-5.2,10-6.8c3.8-1.7,8-2.5,12.2-2.5
		c4.1,0,8.2,0.8,12.1,2.3c3.6,1.5,6.9,3.7,9.6,6.5c2.8,2.9,4.9,6.3,6.3,10c1.5,4,2.3,8.3,2.3,12.7C557.5,24,556.9,25.5,555.7,26.4z
		 M536.4,8.2c-2.6-2.2-5.8-3.3-9.2-3.2c-3.3-0.1-6.5,0.9-9.1,3c-2.5,2.1-4.1,5-4.7,8.2h27.7C540.4,13.1,538.8,10.3,536.4,8.2z"/>
	<path class="st1" d="M579.8,51.1c-1.5,1.6-3.7,2.4-5.9,2.4c-2.2,0-4.4-0.8-5.9-2.4c-1.6-1.5-2.5-3.6-2.5-5.9v-77.4
		c0-4.6,3.8-8.4,8.4-8.4c2.2,0,4.3,0.9,5.9,2.5c1.6,1.6,2.4,3.7,2.4,5.9v77.4C582.2,47.5,581.3,49.6,579.8,51.1z"/>
	<path class="st1" d="M607.9,51.1c-1.5,1.6-3.7,2.4-5.9,2.4c-2.2,0-4.4-0.8-5.9-2.4c-1.6-1.5-2.5-3.6-2.5-5.9v-77.4
		c0-4.6,3.8-8.4,8.4-8.4c2.2,0,4.3,0.9,5.9,2.5s2.4,3.7,2.4,5.9v77.4C610.3,47.5,609.5,49.6,607.9,51.1z"/>
	<path class="st1" d="M679.3,34.8c-3.2,7.6-9.2,13.6-16.8,16.8c-7.8,3.3-16.7,3.3-24.5,0c-7.6-3.2-13.6-9.2-16.8-16.8
		c-3.3-7.8-3.3-16.7,0-24.5c3.2-7.6,9.2-13.6,16.8-16.8c7.8-3.3,16.7-3.3,24.5,0c7.6,3.2,13.6,9.2,16.8,16.8
		C682.7,18.1,682.7,27,679.3,34.8z M664.3,16.1c-0.6-1.9-1.6-3.7-3-5.3c-1.3-1.5-2.9-2.7-4.7-3.6c-4-1.7-8.6-1.7-12.7,0
		c-1.8,0.8-3.4,2.1-4.7,3.6c-1.3,1.6-2.3,3.4-2.9,5.3c-1.3,4.2-1.3,8.7,0,13c0.6,1.9,1.6,3.7,2.9,5.3c1.3,1.5,2.9,2.7,4.7,3.6
		c4,1.8,8.6,1.8,12.7,0c1.8-0.8,3.4-2.1,4.7-3.6c1.3-1.6,2.3-3.4,3-5.3C665.6,24.8,665.6,20.3,664.3,16.1L664.3,16.1z"/>
	<path class="st2" d="M784.5,51c-1.6,1.7-3.8,2.6-6.1,2.5h-41.5c-5.1,0-9.2-4-9.2-9.1v-0.1v-75.5c-0.1-5.1,4-9.3,9.1-9.3
		c5.1-0.1,9.3,4,9.3,9.1c0,0.1,0,0.1,0,0.2v67.6h32.2c2.3,0,4.5,0.9,6.1,2.5c1.7,1.6,2.6,3.8,2.5,6.1
		C787.1,47.2,786.1,49.4,784.5,51z"/>
	<path class="st2" d="M864.4-28.5c-1.3,1.3-3.1,2-4.9,2h-3.9c-2.3-0.1-4.5,0.6-6.3,2.1c-1.6,1.4-2.4,3.6-2.4,6.6v10.6h11.2
		c3.8,0,6.9,3.1,6.9,6.9s-3.1,6.9-6.9,6.9l0,0h-11.2v38.7c0,4.5-3.6,8.2-8.2,8.3c0,0,0,0-0.1,0c-2.2,0-4.4-0.8-5.9-2.4
		c-1.6-1.5-2.5-3.6-2.5-5.9V6.6h-7.7c-3.8,0-6.9-3.1-6.9-6.9s3.1-6.9,6.9-6.9l0,0h7.7v-9c0-3.3,0.5-6.5,1.4-9.6
		c0.9-2.8,2.4-5.4,4.3-7.7c2-2.2,4.6-3.9,7.4-5c3.4-1.3,6.9-1.9,10.5-1.8h5.5c3.8,0,6.9,3.1,6.9,7C866.4-31.5,865.6-29.8,864.4-28.5
		z"/>
	<path class="st2" d="M924.1,26.4c-1.1,1-2.6,1.5-4.1,1.5h-38.4c0.4,3.4,2,6.6,4.7,8.7c2.9,2.3,6.5,3.5,10.2,3.4
		c2.6,0.1,5.1-0.4,7.5-1.2c2-0.8,3.8-1.8,5.4-3.2c1.7-1.4,3.7-2.2,5.9-2.3c1.7,0,3.4,0.7,4.7,1.9c1.7,1.4,2.6,3.5,2.6,5.7
		c0,1.7-0.8,3.2-2.1,4.3c-3.4,3.1-7.4,5.5-11.8,6.9c-4.2,1.4-8.6,2.1-13,2.1c-4.2,0-8.3-0.8-12.2-2.5c-7.6-3.2-13.6-9.2-16.7-16.8
		c-1.7-3.9-2.5-8-2.5-12.3c0-4.2,0.8-8.4,2.4-12.3c1.5-3.8,3.8-7.2,6.7-10.1s6.3-5.2,10-6.8c3.9-1.7,8-2.5,12.2-2.5
		c4.1,0,8.2,0.8,12.1,2.3c3.6,1.5,6.9,3.7,9.6,6.6c2.8,2.9,4.9,6.3,6.3,10c1.5,4,2.3,8.3,2.3,12.7C925.9,24,925.3,25.5,924.1,26.4z
		 M904.8,8.2C902.2,6,899,4.9,895.6,5c-3.3-0.1-6.5,0.9-9.1,3c-2.5,2.1-4.1,5-4.7,8.2h27.7C908.8,13.1,907.2,10.3,904.8,8.2
		L904.8,8.2z"/>
	<path class="st2" d="M808.4-18.3c-1.7,1.7-4.1,2.7-6.6,2.6c-5,0.1-9-3.9-9.1-8.8c0-0.1,0-0.2,0-0.3c-0.1-2.5,0.9-4.8,2.6-6.6
		c1.7-1.8,4-2.8,6.5-2.7c5.1,0,9.2,4.1,9.3,9.1v0.1C811.1-22.3,810.2-20,808.4-18.3z M807.8,51.4c-1.6,1.6-3.7,2.4-5.9,2.4
		c-4.6,0-8.3-3.7-8.3-8.2v-0.1V0c0-2.2,0.8-4.4,2.4-5.9c1.5-1.6,3.7-2.5,5.9-2.5c4.6,0,8.4,3.8,8.4,8.4v45.5
		C810.3,47.7,809.4,49.9,807.8,51.4z"/>
	<g>
		<path class="st1" d="M960.8-38.8h-4.6v-1.4H967v1.4h-4.6v12.4h-1.6L960.8-38.8L960.8-38.8z"/>
		<path class="st1" d="M969.2-40.3h1.6l5,7.5l5-7.5h1.6v13.8h-1.6v-11.2l-5,7.4h-0.1l-5-7.4v11.2h-1.5V-40.3L969.2-40.3z"/>
	</g>
</g>
</svg>
