<?xml version="1.0" encoding="utf-8"?>
<!-- Generator: Adobe Illustrator 19.1.0, SVG Export Plug-In . SVG Version: 6.00 Build 0)  -->
<svg version="1.1" id="Layer_2" xmlns="http://www.w3.org/2000/svg" xmlns:xlink="http://www.w3.org/1999/xlink" x="0px" y="0px"
	 viewBox="382 -165.7 712 347.7" style="enable-background:new 382 -165.7 712 347.7;" xml:space="preserve">
<style type="text/css">
	.st0{fill:none;}
	.st1{fill:#00ADBB;}
	.st2{fill:#FFFFFF;}
</style>
<title>Bonjour lavie_over 2 inches_with MC_RGB</title>
<rect x="716" y="-331.5" class="st0" width="684" height="347.8"/>
<g>
	<g>
		<circle class="st1" cx="929.2" cy="5.1" r="128.2"/>
		<path class="st2" d="M848.9,25.6v-0.2c0-10.9,8.3-15.9,20.1-15.9c4.2,0,8.3,0.7,12.2,2v-0.8c0-5.9-3.6-9.1-10.7-9.1
			c-3.3,0-6.6,0.4-9.8,1.4c-0.7,0.2-1.3,0.4-2,0.4c-3.2,0.1-5.8-2.5-5.9-5.7v-0.1c0-2.5,1.5-4.6,3.8-5.5c5.1-1.9,10.5-2.7,15.9-2.6
			c7.7,0,13.3,2,16.9,5.6c3.7,3.7,5.4,9.2,5.4,15.9v22.7c0,3.8-3,6.8-6.8,6.8h-0.1c-4.1,0-6.8-2.9-6.8-5.9v-0.1
			c-3.4,3.8-8.2,6.3-15.1,6.3C856.6,40.9,848.9,35.5,848.9,25.6z M881.4,22.3v-2.5c-2.8-1.3-5.9-1.9-9-1.9c-6.1,0-9.8,2.4-9.8,6.9
			V25c0,3.8,3.2,6.1,7.7,6.1C876.9,31.1,881.4,27.5,881.4,22.3z"/>
		<path class="st2" d="M977.7-17.9c-1.4,1.4-3.3,2.2-5.3,2.1c-4,0.1-7.3-3.1-7.4-7.2c0-0.1,0-0.2,0-0.2c0-2,0.7-3.9,2.1-5.3
			c1.4-1.4,3.3-2.2,5.3-2.2c4.1,0,7.5,3.3,7.5,7.4v0.1C979.9-21.2,979.1-19.3,977.7-17.9z M977.2,38.7c-1.3,1.3-3,2-4.8,2
			c-3.7,0-6.7-3-6.7-6.7c0,0,0,0,0-0.1V-3c0-1.8,0.7-3.5,2-4.8c1.2-1.3,3-2,4.8-2c3.8,0,6.8,3.1,6.8,6.8v36.9
			C979.2,35.7,978.5,37.4,977.2,38.7L977.2,38.7z"/>
		<path class="st2" d="M1034.7,18.5c-0.9,0.8-2.1,1.2-3.4,1.2H1000c0.3,2.8,1.7,5.3,3.8,7.1c2.3,1.9,5.3,2.9,8.3,2.7
			c3.8,0.1,7.6-1.1,10.5-3.6c1.3-1.2,3-1.8,4.8-1.9c1.4,0,2.8,0.6,3.8,1.6c1.4,1.1,2.1,2.8,2.1,4.6c0,1.4-0.6,2.6-1.7,3.5
			c-2.7,2.6-6,4.5-9.6,5.6c-3.4,1.1-7,1.7-10.6,1.7c-3.4,0-6.8-0.7-9.9-2c-6.1-2.6-11-7.5-13.6-13.7c-1.3-3.2-2-6.6-2-10
			s0.7-6.8,2-10c1.3-3.1,3.1-5.8,5.4-8.2c2.3-2.3,5.1-4.2,8.1-5.5c3.1-1.4,6.5-2,9.9-2s6.7,0.6,9.8,1.9c3,1.2,5.6,3,7.9,5.3
			c2.2,2.3,4,5.1,5.2,8.1c1.3,3.3,1.9,6.8,1.9,10.3C1036.2,16.6,1035.6,17.8,1034.7,18.5z M1018.9,3.7c-2.1-1.8-4.7-2.7-7.5-2.6
			c-2.7-0.1-5.3,0.8-7.4,2.4c-2,1.7-3.4,4.1-3.8,6.7h22.5C1022.3,7.7,1020.9,5.4,1018.9,3.7z"/>
		<path class="st2" d="M840.9,38.4c-1.2,1.3-3,2-4.8,2s-3.5-0.7-4.8-2c-1.3-1.2-2-3-2-4.8v-63c0-3.8,3.1-6.8,6.8-6.8
			c1.8,0,3.5,0.7,4.8,2s2,3,2,4.8v63C842.9,35.5,842.2,37.2,840.9,38.4z"/>
		<path class="st2" d="M959.3-1.4l-17.5,38.2c-0.5,1-1.3,1.9-2.2,2.6c-2,1.3-4.5,1.3-6.5,0c-1-0.7-1.7-1.5-2.2-2.6L913.4-1.4
			c-0.3-0.8-0.5-1.6-0.6-2.5c0-1.6,0.6-3.2,1.7-4.4c1.1-1.2,2.7-1.8,4.3-1.8c1.2,0,2.3,0.3,3.3,1c1,0.6,1.8,1.5,2.3,2.6l11.9,26.1
			l11.9-26.1c0.5-1,1.3-1.9,2.3-2.6c1-0.7,2.1-1,3.3-1c1.6,0,3.2,0.6,4.3,1.8s1.8,2.7,1.7,4.4C959.9-3,959.7-2.2,959.3-1.4z"/>
		<g>
			<path class="st1" d="M505.1,26.9c-1.3,2.6-3.1,4.9-5.3,6.7c-2.5,2-5.4,3.5-8.5,4.5c-3.7,1.1-7.6,1.7-11.5,1.6h-21.4
				c-2,0-3.9-0.7-5.3-2.2c-1.4-1.4-2.2-3.3-2.1-5.3v-59.6c-0.1-4,3.1-7.3,7.1-7.4c0.1,0,0.2,0,0.2,0h20.6c7.7,0,13.6,1.7,17.8,5
				c4.1,3.1,6.4,8,6.3,13.1c0.1,3.5-0.9,7-2.7,10c-1.7,2.8-4.3,5.1-7.3,6.5c4.2,1.1,7.9,3.7,10.4,7.2c2.3,3.4,3.5,7.4,3.5,11.5
				C507,21.5,506.4,24.3,505.1,26.9z M486.2-18.8c-1.3-1.4-3.3-2.1-6-2.1h-14.4v14.6h14.4c2.7,0,4.7-0.8,6-2.3c1.3-1.4,2-3.3,2-5.2
				S487.5-17.5,486.2-18.8z M491.5,13.1c-0.4-1.1-1-2.1-1.8-3c-0.9-0.9-2-1.6-3.2-2.1c-1.5-0.6-3.1-0.9-4.6-0.8H466V26h15.9
				c1.6,0,3.2-0.2,4.6-0.8c1.2-0.5,2.3-1.3,3.2-2.2c0.8-0.9,1.5-1.9,1.8-3.1C492.3,17.7,492.3,15.3,491.5,13.1z"/>
			<path class="st1" d="M560.3,25.4c-2.6,6.2-7.5,11.1-13.6,13.6c-6.4,2.7-13.5,2.7-19.9,0c-6.2-2.6-11.1-7.5-13.6-13.6
				c-2.7-6.4-2.7-13.5,0-19.9c2.6-6.2,7.5-11.1,13.6-13.6c6.4-2.7,13.5-2.7,19.9,0c6.2,2.6,11.1,7.5,13.6,13.6
				C563,11.9,563,19.1,560.3,25.4z M548.1,10.2c-0.5-1.6-1.3-3-2.4-4.3c-1-1.2-2.3-2.2-3.8-2.9c-3.3-1.4-7-1.4-10.3,0
				c-1.5,0.7-2.8,1.7-3.8,2.9c-1.1,1.3-1.9,2.7-2.3,4.3c-1,3.4-1,7.1,0,10.5c0.5,1.6,1.3,3,2.3,4.3c1,1.2,2.3,2.2,3.8,2.9
				c3.3,1.4,7,1.4,10.3,0c1.5-0.7,2.8-1.7,3.8-2.9c1.1-1.3,1.9-2.7,2.4-4.3C549.2,17.3,549.2,13.7,548.1,10.2z"/>
			<path class="st1" d="M613.6,38.7c-1.2,1.3-3,2-4.7,2c-1.8,0-3.5-0.7-4.8-2c-1.3-1.2-2-3-2-4.7V13.6c0.1-3-0.8-5.9-2.5-8.3
				c-1.6-2.2-4.2-3.4-7.7-3.4c-1.7,0-3.3,0.3-4.8,1c-1.3,0.6-2.4,1.5-3.2,2.6s-1.5,2.4-1.8,3.7c-0.4,1.4-0.6,2.8-0.6,4.3v20.3
				c0,3.7-3,6.7-6.7,6.7l0,0c-1.8,0-3.5-0.7-4.8-2c-1.3-1.2-2-3-2-4.7V-2.8c0-3.8,3.1-6.8,6.8-6.8c1.8,0,3.5,0.7,4.7,2
				s1.9,3,1.9,4.8c1.7-2.1,3.8-3.9,6.3-5.2c2.5-1.4,5.4-2.1,8.3-2.1c2.9-0.1,5.7,0.5,8.4,1.7c2.4,1.1,4.5,2.7,6.2,4.7
				c1.7,2.1,3.1,4.6,3.9,7.3c0.9,3,1.4,6.1,1.3,9.3v21C615.6,35.7,614.9,37.4,613.6,38.7z"/>
			<path class="st1" d="M635.7,48.6c-0.8,2.5-2.1,4.8-3.9,6.8c-1.8,2-4,3.5-6.4,4.6c-2.9,1.2-6,1.7-9.1,1.7h-4
				c-3.1,0-5.6-2.4-5.7-5.5c0-3.1,2.4-5.6,5.5-5.7h0.1h2.2c1.5,0.1,3.1-0.2,4.5-0.8c1.1-0.5,2-1.2,2.7-2.1c0.7-0.9,1.1-1.9,1.3-3
				c0.2-1.2,0.3-2.4,0.3-3.6V-2.9c0-1.8,0.7-3.5,2-4.7c1.3-1.3,3-2,4.8-2c3.7,0,6.7,3,6.7,6.7l0,0v43.5
				C637,43.3,636.6,46,635.7,48.6z M635.6-17.7c-1.4,1.4-3.3,2.2-5.3,2.1c-2,0-3.9-0.7-5.3-2.1c-1.4-1.4-2.2-3.3-2.2-5.3
				c0-4.1,3.3-7.5,7.4-7.5h0.1c2,0,3.9,0.7,5.3,2.2c1.4,1.4,2.2,3.3,2.1,5.3C637.7-21,637-19.1,635.6-17.7L635.6-17.7z"/>
			<path class="st1" d="M692.3,25.5c-2.6,6.2-7.5,11.1-13.6,13.6c-6.4,2.7-13.5,2.7-19.9,0c-6.2-2.6-11.1-7.5-13.6-13.6
				c-2.7-6.4-2.7-13.5,0-19.9c2.6-6.2,7.5-11.1,13.6-13.6c6.4-2.7,13.5-2.7,19.9,0c6.2,2.6,11.1,7.5,13.6,13.6
				C695,12,695,19.2,692.3,25.5z M680.1,10.3c-0.5-1.6-1.3-3-2.4-4.3c-1-1.2-2.3-2.2-3.8-2.9c-3.3-1.4-7-1.4-10.3,0
				c-1.5,0.7-2.8,1.7-3.8,2.9c-1.1,1.3-1.9,2.7-2.4,4.3c-1,3.4-1,7.1,0,10.5c0.5,1.6,1.3,3,2.3,4.3c1,1.2,2.3,2.2,3.8,2.9
				c3.3,1.4,7,1.4,10.3,0c1.5-0.7,2.8-1.7,3.8-2.9c1.1-1.3,1.9-2.7,2.4-4.3C681.2,17.4,681.2,13.8,680.1,10.3z"/>
			<path class="st1" d="M745.3,38.5c-1.2,1.3-3,2-4.7,2c-1.8,0-3.5-0.7-4.7-2s-1.9-3-1.9-4.8c-1.7,2.2-3.9,3.9-6.3,5.2
				c-2.6,1.4-5.4,2.1-8.3,2.1c-2.9,0.1-5.8-0.5-8.4-1.7c-2.4-1.1-4.5-2.7-6.2-4.8s-3.1-4.6-3.9-7.3c-0.9-3-1.4-6.1-1.3-9.3V-3
				c0-3.8,3.1-6.8,6.8-6.8c1.8,0,3.5,0.7,4.7,2c1.3,1.3,2,3,2,4.8v20.2c-0.1,2.9,0.7,5.8,2.4,8.3c1.6,2.2,4.2,3.4,7.7,3.4
				c1.7,0,3.3-0.3,4.8-1c1.3-0.6,2.4-1.5,3.3-2.6c0.9-1.1,1.5-2.3,1.9-3.7c0.4-1.4,0.6-2.8,0.6-4.3V-3c0-3.8,3.1-6.8,6.8-6.8
				c1.8,0,3.5,0.7,4.7,2c1.3,1.3,2,3,2,4.8v36.7C747.3,35.5,746.6,37.2,745.3,38.5z"/>
			<path class="st1" d="M789.3,0.2c-1.1,1.1-2.7,1.8-4.3,1.7c-2,0-4,0.2-6,0.7c-1.9,0.4-3.7,1.2-5.3,2.3c-1.5,1-2.8,2.4-3.7,4
				c-1,1.8-1.5,3.8-1.4,5.9v19.1c0,3.7-3,6.7-6.7,6.7l0,0c-1.8,0-3.5-0.7-4.8-2c-1.3-1.2-2-3-2-4.7V-2.8c0-3.8,3.1-6.8,6.8-6.8
				c1.8,0,3.5,0.7,4.7,2s1.9,3,1.9,4.8c1.1-1.3,2.3-2.5,3.6-3.5c1.1-0.9,2.4-1.6,3.7-2.2c1.3-0.6,2.7-1,4.1-1.2
				c1.7-0.2,3.3-0.3,5-0.3c3.4,0,6.1,2.8,6,6.1C791.1-2.4,790.4-0.9,789.3,0.2z"/>
		</g>
	</g>
	<rect x="450" y="-165.7" class="st0" width="612" height="347.7"/>
	<g>
		<path class="st1" d="M1072.3-24.7L1072.3-24.7l-5.1-7.4v11.2h-1.5v-13.8h1.6l5,7.5l5-7.5h1.6v13.8h-1.6v-11.2L1072.3-24.7z"/>
		<path class="st1" d="M1088.5-20.7c-3.9-0.1-7-3.4-6.9-7.3c0.1-3.8,3.2-6.8,7-6.9c2-0.1,4,0.7,5.4,2.2l-1.1,1.1
			c-1.1-1.2-2.7-1.9-4.3-1.9c-3.1,0.2-5.5,2.9-5.3,6.1c0.2,2.9,2.5,5.1,5.3,5.3c1.7,0,3.3-0.7,4.4-2l1,1
			C1092.6-21.5,1090.6-20.6,1088.5-20.7z"/>
	</g>
</g>
</svg>
