<svg xmlns="http://www.w3.org/2000/svg" viewBox="0 0 48 55">
  <defs>
    <style>
      .cls-1 {
        fill: #fff;
        fill-rule: evenodd;
      }
    </style>
  </defs>
  <title>Asset 1</title>
  <g id="Layer_2" data-name="Layer 2">
    <g id="Layer_1-2" data-name="Layer 1">
      <path class="cls-1" d="M19.5,6.6A17.91938,17.91938,0,0,0,6,24V36a2.00588,2.00588,0,0,1-2,2,4.01176,4.01176,0,0,0-4,4v3a.94477.94477,0,0,0,1,1H47a1.00209,1.00209,0,0,0,1-1V42a4.01176,4.01176,0,0,0-4-4,2.00588,2.00588,0,0,1-2-2V24A17.91938,17.91938,0,0,0,28.5,6.6V4.5a4.5,4.5,0,0,0-9,0ZM17,48H31a7,7,0,0,1-14,0Z"/>
    </g>
  </g>
</svg>
