<svg xmlns="http://www.w3.org/2000/svg" viewBox="0 0 600 317.48476"><defs><style>.cls-1,.cls-5{fill:#838271;}.cls-2{fill:#ba0c2f;}.cls-3{fill:#c01f3f;}.cls-4{fill:#fff;}.cls-5{fill-rule:evenodd;}</style></defs><title>190325_CL_Legacy-Point_RBG_FR</title><g id="GWL_FR" data-name="GWL FR"><path class="cls-1" d="M230.2072,222.16316a16.32534,16.32534,0,0,0,.44346,3.88708,8.94114,8.94114,0,0,0,1.4135,3.16,6.86525,6.86525,0,0,0,2.52215,2.12532,8.15305,8.15305,0,0,0,3.71393.783,7.932,7.932,0,0,0,2.80461-.46678,9.54138,9.54138,0,0,0,2.11067-1.07094,9.18378,9.18378,0,0,0,1.85045-1.53766,16.17471,16.17471,0,0,1,1.19413,1.59628,3.619,3.619,0,0,1,.72817,1.98733,1.59361,1.59361,0,0,1-.16091.60078,3.8478,3.8478,0,0,1-1.04787,1.22262,9.35,9.35,0,0,1-3.18735,1.65178,16.14135,16.14135,0,0,1-5.05046.69179,18.55613,18.55613,0,0,1-4.21314-.53847,10.74439,10.74439,0,0,1-4.27832-2.12512,12.3116,12.3116,0,0,1-3.34041-4.42421,17.5479,17.5479,0,0,1-1.35309-7.49575,15.7218,15.7218,0,0,1,1.41709-7.1168,12.72756,12.72756,0,0,1,3.48384-4.40428,12.594,12.594,0,0,1,4.399-2.2459,15.74217,15.74217,0,0,1,4.10385-.64167,15.50049,15.50049,0,0,1,3.92156.45817,11.93466,11.93466,0,0,1,2.98319,1.17844,6.36821,6.36821,0,0,1,1.76139,1.40485,2.33175,2.33175,0,0,1,.58946,1.46992,7.0194,7.0194,0,0,1-1.60259,3.51387,11.50651,11.50651,0,0,0-2.809-2.18892,7.96068,7.96068,0,0,0-4.12383-1.09451,8.86541,8.86541,0,0,0-3.76071.72709,6.83684,6.83684,0,0,0-2.57463,2.04139,8.51879,8.51879,0,0,0-1.4754,3.0761A14.78646,14.78646,0,0,0,230.2072,222.16316Z"/><path class="cls-1" d="M275.32127,235.27346a5.58293,5.58293,0,0,1-.8942-2.532,35.901,35.901,0,0,1-.26677-5.00142V218.088a17.89074,17.89074,0,0,0-.50941-4.493,7.18891,7.18891,0,0,0-1.7679-3.25151,7.79022,7.79022,0,0,0-3.29609-1.95094,17.00593,17.00593,0,0,0-5.09407-.65028,22.97126,22.97126,0,0,0-3.66165.30049,19.57914,19.57914,0,0,0-3.39156.84142,9.9598,9.9598,0,0,0-2.49115,1.23205,1.891,1.891,0,0,0-.96046,1.47238,5.29051,5.29051,0,0,0,.37634,1.576,7.92476,7.92476,0,0,0,.99622,1.93767,16.69174,16.69174,0,0,1,3.73386-1.97682,13.34422,13.34422,0,0,1,4.72957-.76435q3.374,0,4.56442,1.28745a5.3438,5.3438,0,0,1,1.18947,3.75266v.92049a11.31779,11.31779,0,0,0-1.21817-.05816h-1.21821a37.1593,37.1593,0,0,0-4.72778.465,17.03746,17.03746,0,0,0-4.84379,1.51153,10.96419,10.96419,0,0,0-3.79965,3.02291,7.656,7.656,0,0,0-1.53731,4.94136h-.00016a8.81176,8.81176,0,0,0,.83978,4.10256,7.31513,7.31513,0,0,0,2.12953,2.55669,7.5888,7.5888,0,0,0,2.87927,1.30809,14.33964,14.33964,0,0,0,3.14927.35681,11.60447,11.60447,0,0,0,5.21736-1.00453,12.95016,12.95016,0,0,0,3.40272-2.43944,2.91453,2.91453,0,0,0,1.45926,2.38538,6.06387,6.06387,0,0,0,2.91863.67,9.46729,9.46729,0,0,0,1.01052-.05247,7.06258,7.06258,0,0,0,.82338-.13124.43243.43243,0,0,0,.25873-.68271Zm-6.67032-7.33183a2.32375,2.32375,0,0,1-.57736,1.416,6.06275,6.06275,0,0,1-1.56707,1.35923,10.30483,10.30483,0,0,1-2.28193,1.04778,8.664,8.664,0,0,1-2.7218.42475q-2.69474,0-3.68405-1.30266a4.82582,4.82582,0,0,1-.98977-3.00169,4.35991,4.35991,0,0,1,.93479-2.91668,6.29971,6.29971,0,0,1,2.41941-1.72737,12.514,12.514,0,0,1,3.29911-.84951,28.92734,28.92734,0,0,1,3.57408-.22655H268.651Z"/><path class="cls-1" d="M305.17938,235.94505h-5.7138V220.23528q0-1.62186-.11448-3.02465a6.55681,6.55681,0,0,0-.61093-2.39764,3.444,3.444,0,0,0-1.60346-1.54929,7.0449,7.0449,0,0,0-3.09244-.55323,8.6076,8.6076,0,0,0-4.79424,1.23846,3.86007,3.86007,0,0,0-2.0007,3.27394v18.72218h-5.72841V208.31557q.12461-.01506.29962-.03049c.09992-.01.21619-.01763.34963-.02285q.19955-.00753.47447-.00764a5.42706,5.42706,0,0,1,2.74347.701,3.1409,3.1409,0,0,1,1.48745,2.40778,12.28691,12.28691,0,0,1,3.63906-2.51657,12.45464,12.45464,0,0,1,5.444-1.10486,9.17821,9.17821,0,0,1,6.06934,1.77134,8.16611,8.16611,0,0,1,2.743,4.42851,13.24227,13.24227,0,0,1,.3501,2.62756q.05757,1.44745.05841,2.80466Z"/><path class="cls-1" d="M334.899,235.27346a5.583,5.583,0,0,1-.8942-2.532A35.901,35.901,0,0,1,333.738,227.74V218.088a17.89028,17.89028,0,0,0-.50941-4.493,7.18938,7.18938,0,0,0-1.7679-3.25151,7.79035,7.79035,0,0,0-3.29614-1.95094,17.00558,17.00558,0,0,0-5.094-.65028,22.97126,22.97126,0,0,0-3.66165.30049,19.58088,19.58088,0,0,0-3.39161.84142,9.95972,9.95972,0,0,0-2.49114,1.23205,1.89107,1.89107,0,0,0-.96041,1.47238,5.29042,5.29042,0,0,0,.37633,1.576,7.926,7.926,0,0,0,.99617,1.93767,16.69336,16.69336,0,0,1,3.73391-1.97682,13.34393,13.34393,0,0,1,4.72952-.76435q3.37409,0,4.56447,1.28745a5.3438,5.3438,0,0,1,1.18946,3.75266v.92049a11.31831,11.31831,0,0,0-1.21821-.05816h-1.21816a37.1593,37.1593,0,0,0-4.72778.465,17.03746,17.03746,0,0,0-4.84379,1.51153,10.96505,10.96505,0,0,0-3.79971,3.02291,7.65639,7.65639,0,0,0-1.53725,4.94136h-.00016a8.81176,8.81176,0,0,0,.83978,4.10256,7.3147,7.3147,0,0,0,2.12953,2.55669,7.58845,7.58845,0,0,0,2.87927,1.30809,14.33971,14.33971,0,0,0,3.14927.35681,11.60444,11.60444,0,0,0,5.21736-1.00453,12.95115,12.95115,0,0,0,3.40272-2.43944,2.91451,2.91451,0,0,0,1.45927,2.38538,6.0638,6.0638,0,0,0,2.91862.67,9.46715,9.46715,0,0,0,1.01052-.05247,7.06258,7.06258,0,0,0,.82338-.13124.43243.43243,0,0,0,.25873-.68271Zm-6.67037-7.33183a2.3236,2.3236,0,0,1-.57731,1.416,6.06275,6.06275,0,0,1-1.56707,1.35923,10.30462,10.30462,0,0,1-2.28193,1.04778,8.66392,8.66392,0,0,1-2.7218.42475q-2.69473,0-3.684-1.30266a4.82582,4.82582,0,0,1-.98977-3.00169,4.35991,4.35991,0,0,1,.93479-2.91668,6.29978,6.29978,0,0,1,2.41941-1.72737,12.51344,12.51344,0,0,1,3.29912-.84951,28.92706,28.92706,0,0,1,3.57407-.22655h1.59454Z"/><path class="cls-1" d="M365.5073,235.27346a5.58293,5.58293,0,0,1-.8942-2.532,35.901,35.901,0,0,1-.26677-5.00142V199.28918a7.09559,7.09559,0,0,0-.34236-2.41629,3.62972,3.62972,0,0,0-.93576-1.46177,3.02236,3.02236,0,0,0-1.34652-.716,6.403,6.403,0,0,0-1.4835-.179q-.37818,0-.85823.01891a6.78589,6.78589,0,0,0-.721.05683v15.96072a10.92212,10.92212,0,0,0-2.79164-1.75765,11.23479,11.23479,0,0,0-4.80428-.89328,10.918,10.918,0,0,0-4.27008.86735,9.89583,9.89583,0,0,0-3.61953,2.631,13.067,13.067,0,0,0-2.48854,4.5392,20.75582,20.75582,0,0,0-.93315,6.59192,20.48248,20.48248,0,0,0,.9539,6.73442,11.51565,11.51565,0,0,0,2.56372,4.34386,9.31522,9.31522,0,0,0,3.66662,2.3323,13.14566,13.14566,0,0,0,4.26275.69968,9.52583,9.52583,0,0,0,5.03877-1.208,9.651,9.651,0,0,0,2.79928-2.3489,2.9145,2.9145,0,0,0,1.45926,2.38538,6.06389,6.06389,0,0,0,2.91863.67,9.4666,9.4666,0,0,0,1.01052-.05247,7.06258,7.06258,0,0,0,.82338-.13124.43244.43244,0,0,0,.25873-.68271Zm-6.84834-6.84117a2.47053,2.47053,0,0,1-.435,1.34765,3.89636,3.89636,0,0,1-1.25081,1.17932,8.12241,8.12241,0,0,1-1.93065.84229,8.33115,8.33115,0,0,1-2.42008.33693,6.56655,6.56655,0,0,1-3.29019-.758,5.8043,5.8043,0,0,1-2.14807-2.13393,9.5099,9.5099,0,0,1-1.14212-3.22885,23.35942,23.35942,0,0,1-.32626-4.04312q0-4.71706,1.79464-7.13166a5.7736,5.7736,0,0,1,4.89453-2.41465,8.184,8.184,0,0,1,2.33844.3089,8.76406,8.76406,0,0,1,1.82186.758,6.41073,6.41073,0,0,1,1.30518.95462c.3174.31074.57874.57152.78853.78669Z"/><path class="cls-1" d="M394.28212,235.27346a5.583,5.583,0,0,1-.8942-2.532,35.89342,35.89342,0,0,1-.26676-5.00142V218.088a17.89025,17.89025,0,0,0-.50942-4.493,7.18985,7.18985,0,0,0-1.7679-3.25151,7.79072,7.79072,0,0,0-3.29614-1.95094,17.00558,17.00558,0,0,0-5.094-.65028,22.97088,22.97088,0,0,0-3.66165.30049,19.58,19.58,0,0,0-3.39161.84142,9.9598,9.9598,0,0,0-2.49115,1.23205,1.89117,1.89117,0,0,0-.96046,1.47238,5.291,5.291,0,0,0,.37639,1.576,7.92427,7.92427,0,0,0,.99617,1.93767,16.69282,16.69282,0,0,1,3.73386-1.97682,13.34422,13.34422,0,0,1,4.72957-.76435q3.37409,0,4.56447,1.28745a5.3438,5.3438,0,0,1,1.18946,3.75266v.92049a11.31831,11.31831,0,0,0-1.21821-.05816h-1.21816a37.1593,37.1593,0,0,0-4.72778.465A17.0373,17.0373,0,0,0,375.5308,220.24a10.96441,10.96441,0,0,0-3.79971,3.02291,7.656,7.656,0,0,0-1.53726,4.94136h-.00021a8.81174,8.81174,0,0,0,.83983,4.10256,7.3146,7.3146,0,0,0,2.12953,2.55669,7.58856,7.58856,0,0,0,2.87923,1.30809,14.3403,14.3403,0,0,0,3.14926.35681,11.60453,11.60453,0,0,0,5.21741-1.00453,12.94989,12.94989,0,0,0,3.40267-2.43944,2.91467,2.91467,0,0,0,1.45932,2.38538,6.0638,6.0638,0,0,0,2.91862.67,9.46729,9.46729,0,0,0,1.01052-.05247,7.06434,7.06434,0,0,0,.82338-.13124.43249.43249,0,0,0,.25873-.68271Zm-6.67037-7.33183a2.32369,2.32369,0,0,1-.57736,1.416,6.06108,6.06108,0,0,1-1.56707,1.35923,10.30272,10.30272,0,0,1-2.28193,1.04778,8.66365,8.66365,0,0,1-2.72175.42475q-2.69473,0-3.6841-1.30266a4.82608,4.82608,0,0,1-.98972-3.00169,4.36015,4.36015,0,0,1,.93474-2.91668A6.3,6.3,0,0,1,379.144,223.241a12.51417,12.51417,0,0,1,3.29915-.84951,28.92673,28.92673,0,0,1,3.57408-.22655h1.59454Z"/><path class="cls-2" d="M423.97984,205.92368c8.08592,0,10.34761,5.31754,10.40408,12.572.02377,3.05242-.05442,7.43267-.16316,10.33387-.04151,1.12229.64116,1.1146,1.2715.66545,4.49165-3.24751,8.09161-8.21613,10.81018-12.8634a9.11162,9.11162,0,0,1-1.29927-4.74c0-3.34123,1.75852-5.5571,4.27273-5.5571,2.23432,0,4.03158,1.70795,4.03158,4.96309a11.23036,11.23036,0,0,1-.85167,4.13371,6.81261,6.81261,0,0,0,1.81219.21686c5.15278-.01609,8.195-2.278,9.65514-7.08175.01471-.04822.11156-.38622.20241-.68533.792-2.60783,6.11915-1.3516,5.51555,1.201-.8074,3.406-1.91216,7.729-2.7,11.48044a25.27647,25.27647,0,0,0-.66252,4.80254c0,3.66566,1.76908,5.36571,5.33219,5.36571a19.61525,19.61525,0,0,0,7.99553-2.08571,14.44428,14.44428,0,0,1-2.12712-7.97765c0-9.50464,7.10363-15.81564,14.70791-15.81564,5.88276,0,9.8032,2.98206,9.8032,8.81732,0,6.40241-6.00641,11.58933-13.53562,15.545a12.43268,12.43268,0,0,0,6.32546,1.41078,35.38758,35.38758,0,0,0,23.5863-9.6241V159.84843h-110.686v51.78578C412.51954,208.71794,418.31082,205.92368,423.97984,205.92368Zm45.71235-12.34615a3.83552,3.83552,0,0,1,3.86063,4.04055,4.2715,4.2715,0,0,1-4.22108,4.0405,3.83462,3.83462,0,0,1-3.86-4.0405A4.27042,4.27042,0,0,1,469.69219,193.57753Z"/><path class="cls-3" d="M491.88908,209.65093c-3.78976,0-8.37375,3.91613-8.421,11.0976a9.09014,9.09014,0,0,0,1.42683,5.31c5.82956-3.34272,11.18468-7.29037,11.18468-12.24643A3.86421,3.86421,0,0,0,491.88908,209.65093Z"/><path class="cls-2" d="M494.75011,235.35965c-3.91669,0-8.6272-.76374-11.883-3.2469a25.9371,25.9371,0,0,1-11.9238,3.34006c-5.88,0-10.483-2.85329-10.483-9.44311a31.99863,31.99863,0,0,1,1.2918-7.66521,14.79675,14.79675,0,0,1-7.59424,1.89109,10.50838,10.50838,0,0,1-3.73489-.70885c-4.29256,7.147-10.4959,12.87125-14.68131,15.39714a6.23319,6.23319,0,0,1-2.87482.82364c-3.20815,0-4.54345-1.80618-4.50758-4.53623.04458-3.394.16957-10.00468.16957-12.91736,0-6.02727-2.11954-7.66424-5.57289-7.66424-4.2383,0-10.74,3.2495-15.27559,6.28209v53.62266h110.686V227.12215A37.627,37.627,0,0,1,494.75011,235.35965Z"/><path class="cls-4" d="M469.33174,201.65853a4.27146,4.27146,0,0,0,4.22108-4.0405,3.83555,3.83555,0,0,0-3.86063-4.04055,4.27045,4.27045,0,0,0-4.22042,4.04055A3.83459,3.83459,0,0,0,469.33174,201.65853Z"/><path class="cls-4" d="M494.7801,230.625a12.432,12.432,0,0,1-6.32546-1.41084c7.52921-3.95564,13.53562-9.14251,13.53562-15.545,0-5.83526-3.92044-8.81727-9.8032-8.81727-7.60428,0-14.70791,6.311-14.70791,15.81564a14.44458,14.44458,0,0,0,2.12712,7.9777,19.61675,19.61675,0,0,1-7.99553,2.08566c-3.56311,0-5.33219-1.70005-5.33219-5.36576a25.27766,25.27766,0,0,1,.66252-4.80254c.78787-3.75144,1.89263-8.07444,2.7-11.48045.6036-2.55264-4.72358-3.80882-5.51555-1.201-.09085.29916-.1877.63716-.20241.68538-1.46013,4.80372-4.50236,7.06561-9.65514,7.08175a6.81241,6.81241,0,0,1-1.81219-.21691,11.2302,11.2302,0,0,0,.85167-4.13376c0-3.255-1.79726-4.96294-4.03158-4.96294-2.51421,0-4.27273,2.21572-4.27273,5.55705a9.11175,9.11175,0,0,0,1.29927,4.74c-2.71857,4.64722-6.31853,9.61589-10.81018,12.8634-.63034.4491-1.313.45679-1.2715-.6655.10874-2.90115.18693-7.28145.16316-10.33377-.05647-7.25459-2.31816-12.57208-10.40408-12.57208-5.669,0-11.4603,2.79426-16.29943,5.71047v5.27762c4.53556-3.03259,11.03729-6.28214,15.27559-6.28214,3.45335,0,5.57289,1.637,5.57289,7.66423,0,2.91274-.125,9.52336-.16957,12.91742-.03587,2.73005,1.29943,4.53623,4.50758,4.53623a6.232,6.232,0,0,0,2.87482-.82369c4.18541-2.52584,10.38875-8.25015,14.68131-15.39709a10.50615,10.50615,0,0,0,3.73489.7088,14.79575,14.79575,0,0,0,7.59424-1.891,31.99827,31.99827,0,0,0-1.2918,7.66516c0,6.58987,4.603,9.44305,10.483,9.44305a25.93709,25.93709,0,0,0,11.9238-3.33995c3.25576,2.48311,7.96627,3.24685,11.883,3.24685a37.62724,37.62724,0,0,0,23.61629-8.23745V221.0008A35.38794,35.38794,0,0,1,494.7801,230.625Zm-11.312-9.87637c.0472-7.18152,4.63119-11.0976,8.421-11.0976a3.86416,3.86416,0,0,1,4.19056,4.16107c0,4.95612-5.35512,8.90372-11.18468,12.24654A9.09035,9.09035,0,0,1,483.46813,220.74858Z"/><polygon class="cls-1" points="461.864 138.472 447.881 125.366 80.377 125.366 80.377 124.556 448.203 124.556 461.87 137.365 475.714 124.556 518.577 124.556 518.577 125.366 476.03 125.366 461.864 138.472"/><path class="cls-1" d="M464.57063,72.635a3.74753,3.74753,0,0,0-3.1777-1.44587c-2.94452,0-5.01246,2.7668-5.01246,6.21926,0,3.8553,2.14566,5.769,4.73134,5.769a4.05228,4.05228,0,0,0,3.58007-1.69349v1.39991h2.81445V67.03548h-2.9357Zm0,7.42262a3.08819,3.08819,0,0,1-2.40431,1.3916c-1.60646.00242-2.76459-1.43365-2.76459-4.26082,0-3.14386,1.497-4.183,2.84867-4.183a2.92879,2.92879,0,0,1,2.32023,1.46626Z"/><path class="cls-1" d="M414.347,80.97643c-3.412,0-5.37741-2.57785-5.37741-6.01576,0-4.18345,2.4814-6.27573,5.37886-6.27573a4.68591,4.68591,0,0,1,4.13359,2.3586l1.2723-.95454s-1.02873-3.344-5.98277-3.344a8.07373,8.07373,0,0,0-8.13149,8.34735c0,5.41871,3.77095,8.10266,7.84307,8.10266,4.677,0,6.27119-3.24519,6.27119-3.24519l-.95369-.91906A5.27582,5.27582,0,0,1,414.347,80.97643Z"/><path class="cls-1" d="M439.17577,71.17981a4.76418,4.76418,0,0,0-3.66,1.79564V71.49612h-2.91261v11.384h2.91261V74.37828a3.21554,3.21554,0,0,1,2.43339-1.38058,1.74612,1.74612,0,0,1,1.77023,1.314,3.92813,3.92813,0,0,1,.11269,1.14129v7.42715h2.93706V75.14437a4.00905,4.00905,0,0,0-.8976-2.93438A3.703,3.703,0,0,0,439.17577,71.17981Z"/><path class="cls-1" d="M425.59683,71.17357a5.62825,5.62825,0,0,0-4.70006,2.48376l.83548.79492a4.48908,4.48908,0,0,1,3.24993-1.46592,2.44789,2.44789,0,0,1,2.66525,2.7228c0,.19276.00966.36044.00966.36044a7.93632,7.93632,0,0,0-2.65045-.48424c-2.60866,0-4.73528,1.44709-4.73528,4.03079,0,2.18626,1.68736,3.57884,3.96809,3.57884a4.44466,4.44466,0,0,0,3.53594-1.5737v1.25886h2.7525V76.34969C430.52789,72.4482,428.44881,71.17357,425.59683,71.17357Zm2.06026,9.42715a3.77034,3.77034,0,0,1-2.30017.80175,1.8649,1.8649,0,0,1-2.01834-1.98239A2.15082,2.15082,0,0,1,425.77,77.31767a4.99949,4.99949,0,0,1,1.88707.41358Z"/><path class="cls-1" d="M449.74005,71.17357a5.61861,5.61861,0,0,0-4.69531,2.48376l.83415.79492a4.48887,4.48887,0,0,1,3.24811-1.46592,2.448,2.448,0,0,1,2.66535,2.7228c0,.19276.00733.36044.00733.36044a7.90061,7.90061,0,0,0-2.6497-.48424c-2.60476,0-4.72955,1.44709-4.72955,4.03079,0,2.18626,1.68481,3.57884,3.962,3.57884a4.44668,4.44668,0,0,0,3.53994-1.5737v1.25886h2.75V76.34969C454.67233,72.4482,452.59363,71.17357,449.74005,71.17357Zm2.05963,9.42715a3.75463,3.75463,0,0,1-2.29527.80175,1.86312,1.86312,0,0,1-2.01664-1.98239,2.1483,2.1483,0,0,1,2.42974-2.10241,4.987,4.987,0,0,1,1.88217.41358Z"/><path class="cls-1" d="M474.574,71.17357a5.62574,5.62574,0,0,0-4.69861,2.48376l.8355.79492a4.48925,4.48925,0,0,1,3.24858-1.46592,2.44972,2.44972,0,0,1,2.66635,2.7228c0,.19276.00636.36044.00636.36044a7.91321,7.91321,0,0,0-2.6502-.48424c-2.60866,0-4.73137,1.44709-4.73137,4.03079,0,2.18626,1.68615,3.57884,3.96333,3.57884a4.44385,4.44385,0,0,0,3.53849-1.5737v1.25886h2.75386V76.34969C479.50632,72.4482,477.42663,71.17357,474.574,71.17357Zm2.05818,9.42715a3.76166,3.76166,0,0,1-2.29822.80175,1.86356,1.86356,0,0,1-2.01369-1.98239,2.14849,2.14849,0,0,1,2.42827-2.10241,4.96488,4.96488,0,0,1,1.88364.41358Z"/><path class="cls-1" d="M519.40752,75.24091a4.84378,4.84378,0,0,0-5.17966-4.06488,5.82738,5.82738,0,0,0-5.90906,5.97468c0,3.49474,2.0518,6.04595,6.03959,6.04595a5.44508,5.44508,0,0,0,5.16645-2.81521l-.769-.70421a4.72662,4.72662,0,0,1-3.90759,1.66926c-2.32266,0-3.54337-1.80615-3.604-3.8609h8.37251A8.93839,8.93839,0,0,0,519.40752,75.24091Zm-8.09925.55818c.29969-1.90858,1.34735-2.85345,2.79884-2.85345A2.41716,2.41716,0,0,1,516.663,75.472c.00636.15154.00733.327.00733.327Z"/><path class="cls-1" d="M482.28215,75.55747h6.38622l-2.39723.954,2.39723-.954v1.90808h-6.38622Z"/><path class="cls-1" d="M490.881,67.05172l4.879,11.17576,4.815-11.17576h2.73136L495.76,83.19789h-.78171l-7.56783-16.14617Z"/><polygon class="cls-1" points="503.808 82.873 506.721 82.873 506.721 71.502 505.264 73.982 506.721 71.502 503.808 71.502 503.808 82.873"/><path class="cls-1" d="M503.66616,68.315a1.59117,1.59117,0,1,1,1.58883,1.55682A1.57609,1.57609,0,0,1,503.66616,68.315Z"/><path class="cls-1" d="M378.98507,72.8558a.82.82,0,1,1-.82218.82057A.82138.82138,0,0,1,378.98507,72.8558ZM394.822,76.18689c-.04437.15083-.08385.32534-.1237.52554a13.59131,13.59131,0,0,1-12.95206,10.57051l-.37887.01124-.002-.10633.37889-.01a12.79386,12.79386,0,0,0,3.74139-.94818,12.98341,12.98341,0,0,0,7.31249-8.14251v.002s.09462-.30628.16182-.56146a1.23808,1.23808,0,0,0-.96137.76143c-.05672.10437-.12968.21117-.1865.33706a11.47949,11.47949,0,0,1-11.174,6.43267l-.37876-.01127.00366-.10438.37888.013a10.62149,10.62149,0,0,0,9.87925-6.98679h-.00123s.11206-.3009.18968-.55a1.23911,1.23911,0,0,0-1.00134.70373c-.02455.044-.05562.08408-.08225.13a9.41155,9.41155,0,0,1-4.45478,3.89906,9.12948,9.12948,0,0,1-5.419.58591l-.37521-.06087.018-.10265.37338.06085a8.38881,8.38881,0,0,0,4.09092-.62429,8.4952,8.4952,0,0,0,4.99559-6.1876s.0456-.31593.07113-.575c0,0-.54631.093-.83061.901a6.92425,6.92425,0,0,1-6.90146,4.54166,3.22081,3.22081,0,0,1-2.79711-3.19381,3.16666,3.16666,0,0,1,3.19334-3.19555.41122.41122,0,0,1,.17879.04973l.03229-.07063a4.8959,4.8959,0,0,0-7.18736-.82463,6.9639,6.9639,0,0,1,13.36-2.45991,7.59608,7.59608,0,0,1,.36775,1.05317,1.13914,1.13914,0,0,0,.49437.6414c-.03213-.24039-.07186-.47763-.11952-.71632l.00221.001a8.13637,8.13637,0,0,0-.397-1.13,8.50627,8.50627,0,0,0-11.16412-4.46772,8.37873,8.37873,0,0,0-3.26448,2.52357l-.20753.31606-.08813-.05719.20925-.31486A9.18813,9.18813,0,0,1,389.97269,70.137a1.13073,1.13073,0,0,0,.61062.52859q-.11605-.34264-.25814-.67795a10.76213,10.76213,0,0,0-14.13233-5.651,10.5894,10.5894,0,0,0-3.38511,2.34683l-.253.27867-.07857-.06929.2537-.28a11.35692,11.35692,0,0,1,19.2272,2.68174,4.85439,4.85439,0,0,0,.26227.6133,1.50328,1.50328,0,0,0,.59192.554c-.06991-.23271-.1469-.461-.23211-.68909l.002.00075c-.08213-.21732-.165-.43218-.25567-.64446a12.90738,12.90738,0,0,0-20.35895-4.77878l-.275.26069-.07186-.07469.27375-.26325a13.57035,13.57035,0,0,1,22.08311,4.14921c.14505.3223.26888.65438.379.98118a10.91186,10.91186,0,0,1,.63908,2.54865,1.53913,1.53913,0,0,0,.4708.718c-.01869-.242-.04167-.482-.07784-.72353h.002a13.02954,13.02954,0,0,0-1.0627-3.67416,15.3166,15.3166,0,1,0,1.148,7.55108l-.00195.00378s.03044-.31971.0418-.5809C395.51462,75.24642,395.06375,75.36618,394.822,76.18689Z"/><polygon class="cls-1" points="341.338 103.263 340.533 103.263 340.533 46.95 341.338 46.95 340.89 47.599 341.338 46.95 341.338 103.263"/><path class="cls-5" d="M283.36818,92.2627l1.65444-8.2803c-.275-.32639-.46467-.57077-.92291-1.04186-.6753-.46145-.99365-.79589-1.72038-1.222-.66564-.39551-1.4776-.8875-2.14325-1.283l-2.5162-1.26215a16.79052,16.79052,0,0,0-4.28325,1.74288V75.61207l-2.05-1.87149-5.03407-4.12569h-.86662l-5.03574,4.12569-2.05,1.87149v5.30421a16.82668,16.82668,0,0,0-4.28163-1.74288l-2.51787,1.26215c-.66565.39553-1.47756.88752-2.1432,1.283-.72673.42607-1.0467.76051-1.72039,1.222-.45823.47109-.648.71547-.9229,1.04186l1.65444,8.2803a9.83855,9.83855,0,0,1,5.01484,1.46955l-3.29121,2.71242c3.51309,1.95832,5.90069,4.80258,10.17752,6.15474l4.14659-4.49225-.01933,6.50366a13.99916,13.99916,0,0,0,2.84265,0l-.01767-6.50366,4.1466,4.49225c4.27521-1.35216,6.66119-4.19642,10.1759-6.15474L278.355,93.73225a9.83229,9.83229,0,0,1,5.01322-1.46955"/><path class="cls-5" d="M297.52831,75.45964a1.95756,1.95756,0,0,0,2.00336-2.00492,1.98624,1.98624,0,0,0-2.00336-2.11753,2.01408,2.01408,0,0,0-2.11915,2.11753,1.98879,1.98879,0,0,0,2.11915,2.00492m19.23763,6.63871c0-.22668.05628-.57077.05628-.91485,0-3.14811-1.88922-5.32349-5.26724-5.32349-2.80564,0-5.38141,2.11751-5.38141,5.838,0,3.952,2.74779,5.957,6.5262,5.957a7.13514,7.13514,0,0,0,3.32173-.74442l.17046-2.005a6.778,6.778,0,0,1-3.32017.80232c-2.177,0-3.60637-1.26053-3.60637-4.12248,0-2.46157,1.029-3.77838,2.51787-3.77838a1.77488,1.77488,0,0,1,1.94708,1.65927c0,.57239-.45824.91648-1.37471.91648-.80068,0-1.71715,0-2.632-.0579l.85857,1.8892c.68655-.05628,1.48884-.11578,2.40369-.11578ZM298.84512,58.79778c1.71877,0,2.6899,1.37466,2.6899,3.95043,0,2.57734-.97113,3.95043-2.6899,3.95043-1.7172,0-2.69152-1.37309-2.69152-3.95043,0-2.57577.97432-3.95043,2.69152-3.95043m0-2.05963c-3.89415,0-5.78337,2.804-5.78337,6.01006,0,3.20761,1.88922,6.01164,5.78337,6.01164,3.89253,0,5.78171-2.804,5.78171-6.01164,0-3.206-1.88918-6.01006-5.78171-6.01006M300.104,78.492h1.14478v5.26886a12.53109,12.53109,0,0,1-.40033,3.60634h3.55a12.52351,12.52351,0,0,1-.402-3.60634V78.492h2.005a.7543.7543,0,0,0,.86019-.74442l.17041-1.31519a11.74612,11.74612,0,0,1-1.66087.11415h-1.37471V75.40177c0-1.31679.574-2.40529,2.005-2.40529a3.797,3.797,0,0,1,1.71714.45824V71.45136a5.96812,5.96812,0,0,0-2.28951-.45823c-2.51949,0-4.18036,1.43094-4.18036,4.69482v.80232Zm-13.00412-5.43768a12.16317,12.16317,0,0,1,.574,4.35079v5.6113a12.15594,12.15594,0,0,1-.574,4.35079h7.50695c.402,0,.74445-.11415.8023-.63026l.17208-1.83133a9.39922,9.39922,0,0,1-3.034.45824c-1.09331,0-1.78147-.2878-1.78147-1.603V77.40512a12.26573,12.26573,0,0,1,.57079-4.35079Zm12.48961,14.31288a12.52351,12.52351,0,0,1-.402-3.60634V80.32493a12.52354,12.52354,0,0,1,.402-3.60635h-3.5501a12.52873,12.52873,0,0,1,.40039,3.60635v3.43594a12.5287,12.5287,0,0,1-.40039,3.60634ZM263.79934,56.73815c-3.89258,0-5.78176,2.804-5.78176,6.01006,0,3.20761,1.88918,6.01164,5.78176,6.01164,3.89415,0,5.78171-2.804,5.78171-6.01164,0-3.206-1.88756-6.01006-5.78171-6.01006m0,2.05963c1.71877,0,2.69147,1.37466,2.69147,3.95043,0,2.57734-.9727,3.95043-2.69147,3.95043-1.7172,0-2.69152-1.37309-2.69152-3.95043,0-2.57577.97432-3.95043,2.69152-3.95043m20.61229,4.12246c0-2.91983,1.14478-4.06461,2.7478-4.06461,1.48722,0,2.23167,1.03065,2.23167,2.91983v4.40866a8.66032,8.66032,0,0,1-2.00336.40034c-1.48884,0-2.97611-.85857-2.97611-3.66422m8.02147,5.15306a15.23827,15.23827,0,0,1-.29425-3.09186V56.85228a15.25028,15.25028,0,0,1,.29425-3.09186h-3.32821a15.78329,15.78329,0,0,1,.28621,3.09186v.91647a6.3746,6.3746,0,0,0-3.034-.86019c-2.51949,0-5.03893,1.66091-5.03893,5.8975,0,3.95043,2.51944,5.72548,4.92313,5.72548a7.05138,7.05138,0,0,0,2.11915-.45824l.91643-1.37466h.11418V68.0733ZM305.143,57.42469a15.77077,15.77077,0,0,1,.28621,3.09186v4.46489a15.77077,15.77077,0,0,1-.28621,3.09186h3.26227a15.46478,15.46478,0,0,1-.22831-2.97768V62.74821c0-2.40374.68816-3.49219,2.29118-3.49219s2.28952,1.08845,2.28952,3.49219v2.34741a15.3221,15.3221,0,0,1-.22993,2.97768h3.26388a15.77113,15.77113,0,0,1-.28616-3.09186V61.14519c0-2.00335-.68654-4.407-3.89258-4.407a3.51006,3.51006,0,0,0-3.43591,1.94707l-.11413-.05952.05785-1.201Zm-34.9895,0a15.75961,15.75961,0,0,1,.28778,3.09186v4.46489a15.75961,15.75961,0,0,1-.28778,3.09186h3.26389a15.3363,15.3363,0,0,1-.22831-2.97768V62.74821c0-2.40374.68654-3.49219,2.28951-3.49219,1.60464,0,2.28956,1.08845,2.28956,3.49219v2.34741a15.33715,15.33715,0,0,1-.2283,2.97768h3.26388a15.77077,15.77077,0,0,1-.28621-3.09186V61.14519c0-2.00335-.68654-4.407-3.89415-4.407a3.50913,3.50913,0,0,0-3.43429,1.94707l-.11418-.05952.05628-1.201Zm-20.38079-3.66427a12.22284,12.22284,0,0,1,.57236,4.35082v5.61129a12.22228,12.22228,0,0,1-.57236,4.35077h7.55675c.68816,0,.97437-.28616.97437-.80229a10.66136,10.66136,0,0,0-.11418-1.48722,4.46251,4.46251,0,0,1-2.06125.34244h-1.0885c-1.14473,0-1.603-.17041-1.603-2.28952V58.11124a12.22157,12.22157,0,0,1,.57237-4.35082Z"/><polygon class="cls-1" points="225.157 103.263 224.353 103.263 224.353 46.95 225.157 46.95 224.707 47.785 225.157 46.95 225.157 103.263"/><path class="cls-1" d="M186.48018,70.62031c-.85448,0-1.23543-.32774-1.23543-.57565,0-.19074.19079-.85053,1.315-.85053a1.11365,1.11365,0,0,1,1.20931,1.09844h3.89708c0-2.52411-4.00795-2.85595-5.3799-2.85595-1.15193,0-5.13314.33184-5.13314,2.71849-.1104,1.94854,1.62123,1.94854,3.32128,2.223.38533.11088,2.14292.11088,2.58142.19458a.61663.61663,0,0,1,.60239.51826c0,.52279-.385.824-1.3155.77026-.771,0-1.34552-.24747-1.34552-.77026h-3.95447c0,2.66567,4.28162,2.58154,5.3,2.58154,1.178-.05333,5.59712-.11,5.59712-2.58154C191.93984,70.37628,187.85276,70.62031,186.48018,70.62031Z"/><path class="cls-1" d="M198.03629,65.37744h-2.22252a2.54813,2.54813,0,0,1-2.33308,2.391h-.8243V69.5223h1.47986v3.62646c0,1.75732,2.33292,2.276,3.76274,2.276.57674,0,2.5245-.328,3.4323-.46563V73.20205c-1.86878.27418-3.4323.52232-3.4323-.76706V69.5223h3.4323V67.76846h-3.295Z"/><polygon class="cls-1" points="163.832 64.856 162.676 68.424 161.963 70.62 160.205 64.856 158.257 64.856 156.309 64.856 154.635 70.677 152.629 64.856 148.21 64.856 151.97 75.15 156.008 75.15 158.257 69.057 160.537 75.15 164.625 75.15 168.331 64.856 163.832 64.856"/><path class="cls-1" d="M101.18328,67.76846H97.75176L97.672,75.15012h3.84313V72.10365c0-2.24973,2.471-1.81108,3.56882-1.81108v-2.719a5.38907,5.38907,0,0,0-3.56882,1.09867A1.90752,1.90752,0,0,0,101.18328,67.76846Z"/><path class="cls-1" d="M111.64252,67.43662H111.562c-3.378,0-6.23407,1.70442-6.23407,4.09138s2.47117,4.09111,6.23407,4.09111c4.03407,0,5.51752-1.70419,6.03969-2.6652h-4.22845c-.52233,1.04491-3.48454,1.23542-3.67939-.65568,2.66508,0,4.86164,0,7.96132-.05735C117.65515,72.24088,117.65515,67.43662,111.64252,67.43662Zm-1.8913,3.1304c.38095-1.75775,3.56914-1.83762,3.95024,0Z"/><path class="cls-1" d="M88.201,66.80745c2.139,0,2.79833,1.28872,2.852,1.86483h4.88792c-.32841-3.04627-4.36576-4.33522-7.79728-4.33522-3.09983,0-7.76663,1.75345-7.76663,5.818,0,3.8968,3.62215,5.60146,7.824,5.60146a32.16383,32.16383,0,0,0,7.73989-1.125V69.77021h-6.81v2.223a16.6418,16.6418,0,0,0,2.39094,0l.05333.77023a12.84023,12.84023,0,0,1-3.43152.43862,3.13846,3.13846,0,0,1-3.37429-3.15739A3.17447,3.17447,0,0,1,88.201,66.80745Z"/><path class="cls-1" d="M173.76871,67.29963c-3.32221,0-6.15025,1.84141-6.15025,4.22837s2.4438,4.09111,6.20342,4.09111c4.038,0,5.4631-1.70419,6.03984-2.6652h-4.28209c-.5231,1.04491-3.4861,1.23542-3.62247-.65568h7.96148C179.91864,69.442,177.85986,67.29963,173.76871,67.29963ZM172.01033,70.567c.27352-2.032,3.515-1.89474,3.90052,0Z"/><polygon class="cls-1" points="142.171 72.104 147.36 72.104 147.36 69.907 145.849 70.567 147.36 69.907 142.171 69.907 142.171 72.104"/><path class="cls-1" d="M137.11868,65.37744h-2.14292a2.553,2.553,0,0,1-2.38673,2.391h-.8501V69.5223h1.483v3.62646c0,1.75732,2.33371,2.276,3.759,2.276a13.76883,13.76883,0,0,0,3.43153-.46563V73.20205c-1.81092.27418-3.29375.52232-3.29375-.71311l-.13778-2.96664h3.43153V67.76846h-3.29375Z"/><path class="cls-1" d="M130.118,72.48894l-.08351-1.62072a2.55954,2.55954,0,0,0-1.42622-2.63459c-3.10405-1.56313-6.8094-.8503-9.33422.19075l1.09844,1.67768c3.18366-1.62053,6.23-.90793,5.84906.137-.38471.76616-2.33356.71287-3.95385.76616-2.08568,0-3.65249.7135-3.65249,2.52845,0,1.8911,2.85572,2.13878,3.78964,2.13878a12.87953,12.87953,0,0,0,4.66727-.82356,5.76511,5.76511,0,0,0,4.80394.30124V73.61369a4.67469,4.67469,0,0,1-.93439.11068C130.1715,73.72437,130.03451,73.14876,130.118,72.48894Zm-5.37975,1.563c-.60646.19415-1.70442.27489-1.84189-.38126-.10649-1.42977,2.14324-.96055,3.32519-1.4831A1.95507,1.95507,0,0,1,124.73827,74.05191Z"/><path class="cls-1" d="M84.492,84.5049a.94822.94822,0,0,0-.42943-.32153,1.45861,1.45861,0,0,0-1.10563.01439,1.38257,1.38257,0,0,0-.456.31871,1.41306,1.41306,0,0,0-.294.47509,1.66278,1.66278,0,0,0-.1029.59113,1.80326,1.80326,0,0,0,.10009.614,1.38,1.38,0,0,0,.28524.47822,1.27859,1.27859,0,0,0,.44413.31,1.47094,1.47094,0,0,0,.58206.11009,1.30119,1.30119,0,0,0,.594-.13042,1.15474,1.15474,0,0,0,.41754-.34467l.59426.41129a1.89744,1.89744,0,0,1-.67652.53013,2.17083,2.17083,0,0,1-.93517.18829,2.446,2.446,0,0,1-.8967-.1592,2.06385,2.06385,0,0,1-.70279-.44632,2.02408,2.02408,0,0,1-.45883-.6837,2.26738,2.26738,0,0,1-.16483-.87763,2.19744,2.19744,0,0,1,.17359-.88951,1.97682,1.97682,0,0,1,.47634-.67495,2.11971,2.11971,0,0,1,.71467-.4288,2.582,2.582,0,0,1,.89389-.15076,2.45783,2.45783,0,0,1,.41755.03754,2.15667,2.15667,0,0,1,.41754.116,2.04056,2.04056,0,0,1,.37657.19423,1.20151,1.20151,0,0,1,.29994.27805Z"/><path class="cls-1" d="M85.84032,85.58269a2.26712,2.26712,0,0,1,.16764-.88951,1.95286,1.95286,0,0,1,.46477-.67495,2.061,2.061,0,0,1,.7056-.4288,2.55836,2.55836,0,0,1,.89108-.15076,2.59945,2.59945,0,0,1,.89983.15076,2.08756,2.08756,0,0,1,.71154.4288,1.92637,1.92637,0,0,1,.46759.67495,2.26158,2.26158,0,0,1,.16764.88951,2.22839,2.22839,0,0,1-.16764.87763,2.01474,2.01474,0,0,1-.46759.6837,2.12714,2.12714,0,0,1-.71154.44632,2.46882,2.46882,0,0,1-.89983.1592,2.43,2.43,0,0,1-.89108-.1592,2.1007,2.1007,0,0,1-.7056-.44632,2.04364,2.04364,0,0,1-.46477-.6837A2.23392,2.23392,0,0,1,85.84032,85.58269Zm.806,0a1.7124,1.7124,0,0,0,.1029.60552,1.40229,1.40229,0,0,0,.294.47791,1.34685,1.34685,0,0,0,.45288.31589,1.44433,1.44433,0,0,0,.57925.11291,1.46831,1.46831,0,0,0,.58237-.11291,1.34292,1.34292,0,0,0,.4557-.31589,1.40709,1.40709,0,0,0,.294-.47791,1.71939,1.71939,0,0,0,.1029-.60552,1.66256,1.66256,0,0,0-.1029-.59113,1.43649,1.43649,0,0,0-.29118-.47509,1.34765,1.34765,0,0,0-.45289-.31871,1.45086,1.45086,0,0,0-.588-.116,1.43,1.43,0,0,0-.58519.116,1.355,1.355,0,0,0-.45007.31871,1.43575,1.43575,0,0,0-.29087.47509A1.65573,1.65573,0,0,0,86.64632,85.58269Z"/><path class="cls-1" d="M91.3122,83.54283h1.15849l1.08217,2.91467h.01783L94.641,83.54283h1.16443v4.10256h-.735V84.34851h-.01189L93.794,87.64539h-.51763l-1.24669-3.29688H92.0178v3.29688h-.7056Z"/><path class="cls-1" d="M97.39333,83.54283h1.35834a3.00235,3.00235,0,0,1,.64712.0638,1.36076,1.36076,0,0,1,.49386.20862.97429.97429,0,0,1,.31777.37094,1.219,1.219,0,0,1,.11166.54452,1.16113,1.16113,0,0,1-.12949.57362,1.03411,1.03411,0,0,1-.34967.37376,1.54638,1.54638,0,0,1-.51482.2058,2.93487,2.93487,0,0,1-.62334.0638h-.57049v1.6977h-.74094Zm1.25857,1.79059a2.24074,2.24074,0,0,0,.34686-.026.97073.97073,0,0,0,.294-.0929.53461.53461,0,0,0,.20611-.18234.54062.54062,0,0,0,.07632-.30151.51468.51468,0,0,0-.07632-.29243.5275.5275,0,0,0-.203-.17672.87761.87761,0,0,0-.28837-.08413,2.67957,2.67957,0,0,0-.33216-.02033h-.54109v1.17632Z"/><path class="cls-1" d="M102.3216,83.54283h.64117l1.79372,4.10256h-.847l-.38814-.93861h-1.8056l-.37626.93861h-.82915Zm.94111,2.5381-.64117-1.66893-.65274,1.66893Z"/><path class="cls-1" d="M109.02607,87.43114a3.26924,3.26924,0,0,1-.69685.23458,4.06784,4.06784,0,0,1-.87324.08382,2.56859,2.56859,0,0,1-.9236-.1592,2.11665,2.11665,0,0,1-.71749-.44632,2.02356,2.02356,0,0,1-.46759-.6837,2.2341,2.2341,0,0,1-.16764-.87763,2.19744,2.19744,0,0,1,.17359-.88951,1.97682,1.97682,0,0,1,.47634-.67495,2.11971,2.11971,0,0,1,.71467-.4288,2.582,2.582,0,0,1,.89389-.15076,2.8047,2.8047,0,0,1,.91453.142,1.87279,1.87279,0,0,1,.66745.37376l-.51138.54452a1.26844,1.26844,0,0,0-.44413-.29556,1.56648,1.56648,0,0,0-.62053-.12167,1.48853,1.48853,0,0,0-.59707.116,1.34066,1.34066,0,0,0-.4557.31871,1.43668,1.43668,0,0,0-.29119.47509,1.66278,1.66278,0,0,0-.1029.59113,1.71961,1.71961,0,0,0,.1029.60552,1.4074,1.4074,0,0,0,.294.47791,1.32366,1.32366,0,0,0,.46478.31589,1.61137,1.61137,0,0,0,.62053.11291,2.17309,2.17309,0,0,0,.82914-.14481V85.907h-.87637v-.6027h1.59386Z"/><path class="cls-1" d="M110.47918,83.54283h.98209l1.93509,3.071h.01157v-3.071h.741v4.10256h-.9408L111.232,84.47581h-.01188v3.16958h-.74095Z"/><path class="cls-1" d="M115.6192,83.54283h.74094l-.23118.12187.23118-.12187v4.10256h-.74094Z"/><path class="cls-1" d="M117.94837,83.54283h2.75829v.63741h-2.01734v1.04308h1.91131v.61428h-1.91131v1.1588h2.12306v.649h-2.864Z"/><path class="cls-1" d="M150.64377,83.54283h1.43248a3.13389,3.13389,0,0,1,.79317.10446,2.04374,2.04374,0,0,1,.71937.34467,1.80394,1.80394,0,0,1,.51919.63179,2.1183,2.1183,0,0,1,.19955.97051,2.00244,2.00244,0,0,1-.19955.927,1.89511,1.89511,0,0,1-.51919.63742,2.16015,2.16015,0,0,1-.71937.36782,2.76271,2.76271,0,0,1-.79317.11885h-1.43248Zm1.318,3.46514a2.415,2.415,0,0,0,.55986-.06662,1.45283,1.45283,0,0,0,.5048-.22582,1.20534,1.20534,0,0,0,.36844-.43193,1.47771,1.47771,0,0,0,.14262-.68934,1.57466,1.57466,0,0,0-.14262-.71873,1.168,1.168,0,0,0-.36844-.43444,1.36136,1.36136,0,0,0-.5048-.21424,2.749,2.749,0,0,0-.55986-.05818h-.59926V87.008Z"/><path class="cls-1" d="M155.244,83.54283h.66182l-.48479,1.52974h-.57675Z"/><path class="cls-1" d="M157.12118,83.54283h.6224l1.74086,4.10256h-.822l-.37657-.93861h-1.75274l-.36469.93861h-.80506Zm.91328,2.5381-.62178-1.66893-.63367,1.66893Z"/><path class="cls-1" d="M162.17174,84.40043a.88133.88133,0,0,0-.32278-.25209.95188.95188,0,0,0-.41973-.10133,1.014,1.014,0,0,0-.25084.0319.75606.75606,0,0,0-.22832.09852.53573.53573,0,0,0-.16827.1739.48415.48415,0,0,0-.06568.25772.4653.4653,0,0,0,.05692.2377.52756.52756,0,0,0,.157.168,1.058,1.058,0,0,0,.24271.12166q.14262.05208.314.10447c.12886.04253.26335.0907.40222.14481a1.5463,1.5463,0,0,1,.3822.21424,1.05362,1.05362,0,0,1,.28524.33623,1.03377,1.03377,0,0,1,.11135.50418,1.30938,1.30938,0,0,1-.11948.57643,1.18819,1.18819,0,0,1-.31965.40847,1.36,1.36,0,0,1-.4679.24333,1.94482,1.94482,0,0,1-.56548.081,2.09062,2.09062,0,0,1-.77-.14763,1.48864,1.48864,0,0,1-.61678-.43756l.51356-.48666a1.035,1.035,0,0,0,.39659.33028,1.1068,1.1068,0,0,0,.48854.12167,1.08594,1.08594,0,0,0,.25647-.03191.68.68,0,0,0,.23708-.107.60176.60176,0,0,0,.17077-.1886.55049.55049,0,0,0,.06568-.28087.46351.46351,0,0,0-.07381-.2696.6656.6656,0,0,0-.20017-.18516,1.41985,1.41985,0,0,0-.2965-.13636l-.35969-.12167a3.48487,3.48487,0,0,1-.36531-.13887,1.20461,1.20461,0,0,1-.32778-.21456,1.02334,1.02334,0,0,1-.23707-.32746,1.13658,1.13658,0,0,1-.09133-.48385,1.07267,1.07267,0,0,1,.12823-.5389,1.14021,1.14021,0,0,1,.33716-.37345,1.48316,1.48316,0,0,1,.47353-.22018,2.03125,2.03125,0,0,1,.53921-.07257,1.88923,1.88923,0,0,1,.62491.1101,1.52775,1.52775,0,0,1,.5511.33028Z"/><path class="cls-1" d="M165.529,84.40043a.88133.88133,0,0,0-.32278-.25209.95188.95188,0,0,0-.41973-.10133,1.014,1.014,0,0,0-.25084.0319.75606.75606,0,0,0-.22832.09852.53573.53573,0,0,0-.16827.1739.48415.48415,0,0,0-.06568.25772.4653.4653,0,0,0,.05692.2377.52756.52756,0,0,0,.157.168,1.058,1.058,0,0,0,.24271.12166q.14262.05208.314.10447c.12886.04253.26335.0907.40221.14481a1.54619,1.54619,0,0,1,.38221.21424,1.05362,1.05362,0,0,1,.28524.33623,1.03377,1.03377,0,0,1,.11135.50418,1.30938,1.30938,0,0,1-.11948.57643,1.18819,1.18819,0,0,1-.31965.40847,1.36,1.36,0,0,1-.4679.24333,1.94482,1.94482,0,0,1-.56548.081,2.09062,2.09062,0,0,1-.77-.14763,1.48864,1.48864,0,0,1-.61678-.43756l.51356-.48666a1.035,1.035,0,0,0,.39659.33028,1.1068,1.1068,0,0,0,.48854.12167,1.08594,1.08594,0,0,0,.25647-.03191.68.68,0,0,0,.23708-.107.60176.60176,0,0,0,.17077-.1886.55049.55049,0,0,0,.06568-.28087.46351.46351,0,0,0-.07381-.2696.6656.6656,0,0,0-.20017-.18516,1.41985,1.41985,0,0,0-.2965-.13636l-.35969-.12167a3.48571,3.48571,0,0,1-.36531-.13887,1.20461,1.20461,0,0,1-.32778-.21456,1.02334,1.02334,0,0,1-.23707-.32746,1.13658,1.13658,0,0,1-.09133-.48385,1.07267,1.07267,0,0,1,.12823-.5389,1.14021,1.14021,0,0,1,.33716-.37345,1.48316,1.48316,0,0,1,.47353-.22018,2.03125,2.03125,0,0,1,.53921-.07257,1.88923,1.88923,0,0,1,.62491.1101,1.52775,1.52775,0,0,1,.5511.33028Z"/><path class="cls-1" d="M170.05409,86.13879a1.7078,1.7078,0,0,1-.12573.66932,1.46665,1.46665,0,0,1-.85636.82852,1.89831,1.89831,0,0,1-1.28985,0,1.5312,1.5312,0,0,1-.51606-.32152,1.44537,1.44537,0,0,1-.3428-.507,1.7422,1.7422,0,0,1-.1226-.66932v-2.596h.71936V86.11a1.40908,1.40908,0,0,0,.04567.35624.87919.87919,0,0,0,.15075.31589.78838.78838,0,0,0,.27961.22582,1.11166,1.11166,0,0,0,.862,0,.77746.77746,0,0,0,.27961-.22582.88039.88039,0,0,0,.15138-.31589,1.40908,1.40908,0,0,0,.04567-.35624V83.54283h.71936Z"/><path class="cls-1" d="M171.05307,83.54283h1.4037a2.49073,2.49073,0,0,1,.55359.061,1.41642,1.41642,0,0,1,.47666.19986,1.04184,1.04184,0,0,1,.334.365,1.11816,1.11816,0,0,1,.12573.55047,1.05948,1.05948,0,0,1-.24834.72718,1.24478,1.24478,0,0,1-.6762.3797l1.07842,1.81937h-.86762l-.9358-1.73836h-.52544v1.73836h-.71874Zm1.30674,1.76744a2.08963,2.08963,0,0,0,.30839-.02314.87649.87649,0,0,0,.27648-.087.5404.5404,0,0,0,.20268-.18266.53447.53447,0,0,0,.08006-.304.47343.47343,0,0,0-.07444-.27523.552.552,0,0,0-.18828-.17109.7799.7799,0,0,0-.2596-.087,1.81355,1.81355,0,0,0-.28274-.02314h-.65055v1.15317Z"/><path class="cls-1" d="M176.1324,83.54283h.62241l1.74086,4.10256h-.82195l-.37657-.93861H175.5444l-.36469.93861h-.80506Zm.91328,2.5381L176.4239,84.412l-.63366,1.66893Z"/><path class="cls-1" d="M179.0549,83.54283h.95268l1.87786,3.071h.01188v-3.071h.71874v4.10256h-.91328l-1.91726-3.16958h-.01188v3.16958h-.71874Z"/><path class="cls-1" d="M186.45183,84.5049a.92073.92073,0,0,0-.4166-.32153,1.37645,1.37645,0,0,0-1.07279.01439,1.33277,1.33277,0,0,0-.44225.31871,1.424,1.424,0,0,0-.28587.47509,1.71176,1.71176,0,0,0-.09946.59113,1.84266,1.84266,0,0,0,.097.614,1.39127,1.39127,0,0,0,.27648.47822,1.24218,1.24218,0,0,0,.431.31,1.3936,1.3936,0,0,0,.56549.11009,1.23337,1.23337,0,0,0,.57611-.13042,1.12847,1.12847,0,0,0,.40535-.34467l.57612.41129a1.84747,1.84747,0,0,1-.65619.53013,2.05444,2.05444,0,0,1-.90765.18829,2.311,2.311,0,0,1-.87012-.1592,1.99786,1.99786,0,0,1-.68183-.44632,2.019,2.019,0,0,1-.44538-.6837,2.332,2.332,0,0,1-.16014-.87763,2.25054,2.25054,0,0,1,.1689-.88951,1.96821,1.96821,0,0,1,.46227-.67495,2.04153,2.04153,0,0,1,.69309-.4288,2.44051,2.44051,0,0,1,.86762-.15076,2.31566,2.31566,0,0,1,.40534.03754,2.05153,2.05153,0,0,1,.40535.116,1.98338,1.98338,0,0,1,.36531.19423,1.18881,1.18881,0,0,1,.29087.27805Z"/><path class="cls-1" d="M187.646,83.54283h2.67666v.63741h-1.95792v1.04308H190.22v.61428h-1.85533v1.1588h2.06051v.649H187.646Z"/><path class="cls-1" d="M192.33748,86.51536h-1.36992v-.59081h1.36992l-.685.2954.685-.2954Z"/><path class="cls-1" d="M192.38315,83.54283h.80443l1.11283,3.158h.02314l1.12409-3.158h.77628l-1.62075,4.10256h-.62178Z"/><path class="cls-1" d="M196.77815,83.54283h.71874l-.35937.48884.35937-.48884v4.10256h-.71874Z"/><path class="cls-1" d="M198.52464,83.54283h2.67666v.63741h-1.95792v1.04308h1.85533v.61428h-1.85533v1.1588h2.06051v.649h-2.77925Z"/><path class="cls-1" d="M136.51015,57.12184h.64555V60.1757h1.54257v.57424h-2.18812Z"/><path class="cls-1" d="M140.75283,57.12184h.5586l1.5629,3.6281h-.73782l-.3381-.83009H140.2252l-.3281.83009h-.72249Zm.82008,2.24441-.5586-1.47563-.56893,1.47563Z"/><polygon class="cls-5" points="139.738 86.629 139.738 89.599 143.168 89.599 143.168 88.57 143.855 88.57 143.855 89.599 147.368 89.599 147.368 86.629 145.598 86.629 145.598 89.059 144.394 89.059 144.394 86.685 142.624 86.685 142.624 89.059 141.425 89.059 141.425 86.629 139.738 86.629 139.738 86.629"/><path class="cls-5" d="M147.35976,85.48989V83.715H129.922v1.77141h1.57539a3.01152,3.01152,0,0,1-2.74224,2.46c-1.58955,0-2.87828-1.58249-2.87828-3.5357,0-1.95254,1.28873-3.536,2.87828-3.536a2.96169,2.96169,0,0,1,2.68439,2.25815l1.57892-.6492a4.64794,4.64794,0,0,0-4.26331-3.37726c-2.52546,0-4.5739,2.37476-4.5739,5.30431,0,2.929,2.04844,5.30382,4.5739,5.30382a4.79907,4.79907,0,0,0,4.478-4.21518Z"/></g></svg>