<svg xmlns="http://www.w3.org/2000/svg" viewBox="0 0 600 317.48476"><defs><style>.cls-1,.cls-5{fill:#838271;}.cls-2{fill:#c01f3f;}.cls-3{fill:#ba0c2f;}.cls-4{fill:#fff;}.cls-5{fill-rule:evenodd;}</style></defs><title>190325_CL_Legacy-Point_RBG_EN</title><g id="GWL"><path class="cls-1" d="M246.61635,222.16282a16.33084,16.33084,0,0,0,.44337,3.88694,8.94622,8.94622,0,0,0,1.41353,3.16042,6.86333,6.86333,0,0,0,2.52151,2.12511,8.16134,8.16134,0,0,0,3.71491.78316,7.919,7.919,0,0,0,2.80462-.46691,9.57391,9.57391,0,0,0,2.11015-1.07055,9.12851,9.12851,0,0,0,1.85051-1.53854,16.25623,16.25623,0,0,1,1.19451,1.5973,3.618,3.618,0,0,1,.72864,1.98725,1.62327,1.62327,0,0,1-.1613.60047,3.84726,3.84726,0,0,1-1.04814,1.22226,9.34176,9.34176,0,0,1-3.18712,1.65181,16.11645,16.11645,0,0,1-5.05045.69232,18.59877,18.59877,0,0,1-4.21387-.53848,10.75772,10.75772,0,0,1-4.278-2.12508,12.32268,12.32268,0,0,1-3.341-4.42435,17.56447,17.56447,0,0,1-1.35262-7.49611,15.72533,15.72533,0,0,1,1.41672-7.11677,12.73442,12.73442,0,0,1,3.48416-4.40407,12.59975,12.59975,0,0,1,4.39976-2.24582,15.7524,15.7524,0,0,1,4.10384-.64214,15.50947,15.50947,0,0,1,3.92114.45837,11.9336,11.9336,0,0,1,2.983,1.17848,6.35262,6.35262,0,0,1,1.76185,1.405,2.32824,2.32824,0,0,1,.5887,1.47013,7.02423,7.02423,0,0,1-1.6016,3.51406,11.50543,11.50543,0,0,0-2.80993-2.18919,7.95193,7.95193,0,0,0-4.12307-1.09409,8.86771,8.86771,0,0,0-3.76085.72653,6.83842,6.83842,0,0,0-2.57492,2.0407,8.53223,8.53223,0,0,0-1.47551,3.07707,14.79962,14.79962,0,0,0-.46261,3.77474"/><path class="cls-1" d="M291.73076,235.27319a5.58408,5.58408,0,0,1-.89428-2.5322,35.85252,35.85252,0,0,1-.26711-5.0013v-9.65217a17.90808,17.90808,0,0,0-.50855-4.49272,7.197,7.197,0,0,0-1.76825-3.2523,7.79928,7.79928,0,0,0-3.29612-1.94989,16.99014,16.99014,0,0,0-5.09423-.65065,22.992,22.992,0,0,0-3.6615.3002,19.662,19.662,0,0,0-3.39228.84087,9.97,9.97,0,0,0-2.4905,1.233,1.89047,1.89047,0,0,0-.9605,1.47228,5.28364,5.28364,0,0,0,.37608,1.57594,7.96307,7.96307,0,0,0,.99578,1.93812,16.68117,16.68117,0,0,1,3.73415-1.97764,13.36762,13.36762,0,0,1,4.72992-.76392q3.37353,0,4.56433,1.28744a5.34364,5.34364,0,0,1,1.18916,3.75231v.921a11.21629,11.21629,0,0,0-1.218-.05876h-1.218a37.516,37.516,0,0,0-4.72778.46477,17.093,17.093,0,0,0-4.84424,1.51183,10.96946,10.96946,0,0,0-3.79933,3.02364,7.65275,7.65275,0,0,0-1.53746,4.94147,8.8141,8.8141,0,0,0,.83976,4.10171,7.33336,7.33336,0,0,0,2.12939,2.5578,7.61538,7.61538,0,0,0,2.87942,1.30775,14.384,14.384,0,0,0,3.14972.35687,11.59052,11.59052,0,0,0,5.21712-1.0054,12.91841,12.91841,0,0,0,3.40294-2.4392,2.91269,2.91269,0,0,0,1.45947,2.38579,6.056,6.056,0,0,0,2.91789.66989,9.35091,9.35091,0,0,0,1.01072-.05233,7.12066,7.12066,0,0,0,.82375-.13144.43292.43292,0,0,0,.3451-.42309.42851.42851,0,0,0-.08653-.25961m-6.67017-7.33157a2.32022,2.32022,0,0,1-.578,1.41567,6.029,6.029,0,0,1-1.56632,1.359,10.26729,10.26729,0,0,1-2.28214,1.04811,8.66821,8.66821,0,0,1-2.72236.42525q-2.694,0-3.68393-1.30349a4.827,4.827,0,0,1-.98936-3.0012,4.358,4.358,0,0,1,.93487-2.91682,6.3,6.3,0,0,1,2.4189-1.72765,12.54989,12.54989,0,0,1,3.29931-.84938,28.89427,28.89427,0,0,1,3.57389-.22651h1.59518Z"/><path class="cls-1" d="M321.58926,235.94491h-5.714V220.23478q0-1.62186-.11432-3.02367a6.57814,6.57814,0,0,0-.61113-2.39861,3.44858,3.44858,0,0,0-1.60371-1.5492,7.0475,7.0475,0,0,0-3.092-.55238,8.61239,8.61239,0,0,0-4.794,1.23723,3.861,3.861,0,0,0-2.00114,3.27473v18.722H297.93V208.3154c.08334-.00962.18377-.02032.30023-.02993.10043-.01067.21582-.01817.34938-.02348s.29169-.0075.47438-.0075a5.427,5.427,0,0,1,2.74371.70089,3.13945,3.13945,0,0,1,1.48725,2.40824,12.2627,12.2627,0,0,1,3.63907-2.5172,12.46512,12.46512,0,0,1,5.44471-1.10475,9.17787,9.17787,0,0,1,6.06866,1.77144,8.16367,8.16367,0,0,1,2.74264,4.42862,13.246,13.246,0,0,1,.35044,2.62727q.05772,1.44717.05879,2.80462Z"/><path class="cls-1" d="M351.30893,235.27319a5.58431,5.58431,0,0,1-.89428-2.5322,35.85435,35.85435,0,0,1-.2671-5.0013v-9.65217a17.90808,17.90808,0,0,0-.50855-4.49272,7.20715,7.20715,0,0,0-1.76825-3.2523,7.79269,7.79269,0,0,0-3.29612-1.94989,16.99014,16.99014,0,0,0-5.09423-.65065,22.99218,22.99218,0,0,0-3.66151.3002,19.59986,19.59986,0,0,0-3.3912.84087,9.94143,9.94143,0,0,0-2.49157,1.233,1.89047,1.89047,0,0,0-.9605,1.47228,5.28387,5.28387,0,0,0,.37607,1.57594,7.929,7.929,0,0,0,.99686,1.93812,16.674,16.674,0,0,1,3.73307-1.97764,13.36339,13.36339,0,0,1,4.72993-.76392q3.37353,0,4.56433,1.28744a5.34369,5.34369,0,0,1,1.18916,3.75231v.921a11.21629,11.21629,0,0,0-1.218-.05876h-1.218a37.49685,37.49685,0,0,0-4.72778.46477,17.093,17.093,0,0,0-4.84424,1.51183,10.96927,10.96927,0,0,0-3.79933,3.02364,7.65869,7.65869,0,0,0-1.53746,4.94147,8.8141,8.8141,0,0,0,.83976,4.10171,7.33325,7.33325,0,0,0,2.12939,2.5578,7.60807,7.60807,0,0,0,2.87942,1.30775,14.384,14.384,0,0,0,3.14972.35687,11.59052,11.59052,0,0,0,5.21712-1.0054,12.91841,12.91841,0,0,0,3.40294-2.4392,2.91513,2.91513,0,0,0,1.45947,2.38579,6.05891,6.05891,0,0,0,2.91789.66989,9.36519,9.36519,0,0,0,1.01072-.05233,7.121,7.121,0,0,0,.82375-.13144.43292.43292,0,0,0,.3451-.42309.42846.42846,0,0,0-.08654-.25961m-6.67017-7.33157a2.3202,2.3202,0,0,1-.578,1.41567,6.04689,6.04689,0,0,1-1.56632,1.359,10.26729,10.26729,0,0,1-2.28214,1.04811,8.66826,8.66826,0,0,1-2.72236.42525q-2.694,0-3.68394-1.30349a4.8271,4.8271,0,0,1-.98935-3.0012,4.358,4.358,0,0,1,.93487-2.91682,6.30005,6.30005,0,0,1,2.41889-1.72765,12.55,12.55,0,0,1,3.29932-.84938,28.89427,28.89427,0,0,1,3.57389-.22651h1.59517Z"/><path class="cls-1" d="M381.918,235.27319a5.57133,5.57133,0,0,1-.89425-2.53216,35.85491,35.85491,0,0,1-.2671-5.00131V199.28858a7.07843,7.07843,0,0,0-.343-2.41573,3.62906,3.62906,0,0,0-.93488-1.46159,3.03415,3.03415,0,0,0-1.34727-.71694,6.44105,6.44105,0,0,0-1.483-.17842q-.37826,0-.859.01924a6.67238,6.67238,0,0,0-.7201.05664V210.553a10.89494,10.89494,0,0,0-2.7918-1.75758,11.224,11.224,0,0,0-4.80473-.8932,10.926,10.926,0,0,0-4.27051.8665,9.89645,9.89645,0,0,0-3.61876,2.63047,13.09158,13.09158,0,0,0-2.48942,4.53974,20.76353,20.76353,0,0,0-.93275,6.59221,20.46942,20.46942,0,0,0,.95411,6.7343,11.52068,11.52068,0,0,0,2.56422,4.34421,9.31761,9.31761,0,0,0,3.66577,2.33239,13.1644,13.1644,0,0,0,4.263.69982,9.52047,9.52047,0,0,0,5.03868-1.20841,9.63466,9.63466,0,0,0,2.7993-2.34947,2.91744,2.91744,0,0,0,1.45947,2.38579,6.06327,6.06327,0,0,0,2.91894.66992,9.37162,9.37162,0,0,0,1.01071-.05236,7.06478,7.06478,0,0,0,.82271-.1314.43338.43338,0,0,0,.25961-.68274m-6.84859-6.84115a2.46131,2.46131,0,0,1-.43594,1.3473,3.87306,3.87306,0,0,1-1.25,1.17955,8.12776,8.12776,0,0,1-1.93065.843,8.3437,8.3437,0,0,1-2.42.33656,6.556,6.556,0,0,1-3.29074-.75861,5.81192,5.81192,0,0,1-2.14862-2.13362,9.51867,9.51867,0,0,1-1.14108-3.22879,23.3166,23.3166,0,0,1-.32693-4.04293q0-4.71818,1.79495-7.13177a5.7745,5.7745,0,0,1,4.89449-2.41462,8.18961,8.18961,0,0,1,2.33878.30878,8.7091,8.7091,0,0,1,1.82165.75857,6.37035,6.37035,0,0,1,1.30456.95411c.3184.3109.57908.57161.78958.78636Z"/><path class="cls-1" d="M410.69233,235.27319a5.58408,5.58408,0,0,1-.89428-2.5322,35.85252,35.85252,0,0,1-.26711-5.0013v-9.65217a17.90808,17.90808,0,0,0-.50855-4.49272,7.197,7.197,0,0,0-1.76825-3.2523,7.79269,7.79269,0,0,0-3.29612-1.94989,16.98539,16.98539,0,0,0-5.09423-.65065,22.99218,22.99218,0,0,0-3.66151.3002,19.59951,19.59951,0,0,0-3.39119.84087,9.97876,9.97876,0,0,0-2.49158,1.233,1.89323,1.89323,0,0,0-.9605,1.47228,5.28364,5.28364,0,0,0,.37608,1.57594,8.00012,8.00012,0,0,0,.99578,1.93812,16.72711,16.72711,0,0,1,3.73414-1.97764,13.36772,13.36772,0,0,1,4.72993-.76392q3.37515,0,4.56433,1.28744a5.34369,5.34369,0,0,1,1.18916,3.75231v.921a11.20214,11.20214,0,0,0-1.218-.05876h-1.218a37.516,37.516,0,0,0-4.72778.46477,17.07533,17.07533,0,0,0-4.84317,1.51183,10.9538,10.9538,0,0,0-3.8004,3.02364,7.65869,7.65869,0,0,0-1.53746,4.94147,8.8141,8.8141,0,0,0,.83976,4.10171,7.32434,7.32434,0,0,0,2.13047,2.5578,7.59584,7.59584,0,0,0,2.87834,1.30775,14.38178,14.38178,0,0,0,3.14864.35687,11.59233,11.59233,0,0,0,5.2182-1.0054,12.91841,12.91841,0,0,0,3.40294-2.4392,2.91269,2.91269,0,0,0,1.45947,2.38579,6.05891,6.05891,0,0,0,2.91789.66989,9.36519,9.36519,0,0,0,1.01072-.05233,7.121,7.121,0,0,0,.82375-.13144.43292.43292,0,0,0,.3451-.42309.42851.42851,0,0,0-.08653-.25961m-6.67017-7.33157a2.32022,2.32022,0,0,1-.578,1.41567,6.01742,6.01742,0,0,1-1.56739,1.359,10.23591,10.23591,0,0,1-2.28107,1.04811,8.66155,8.66155,0,0,1-2.72128.42525q-2.69566,0-3.685-1.30349A4.827,4.827,0,0,1,392.2,227.885a4.358,4.358,0,0,1,.93487-2.91682,6.29585,6.29585,0,0,1,2.42-1.72765,12.53094,12.53094,0,0,1,3.29824-.84938,28.89427,28.89427,0,0,1,3.57389-.22651h1.59518Z"/><path class="cls-2" d="M513.80089,210.14621c-5.61994,0-9.0742,5.59966-9.0742,11.21744a11.31694,11.31694,0,0,0,.21689,2.17745c8.53673-1.64111,12.70466-6.19155,12.70466-9.80068,0-2.27576-1.437-3.59421-3.84735-3.59421"/><path class="cls-3" d="M437.87853,221.11823a95.90885,95.90885,0,0,1,2.30353-14.43016c2.9029-12.585,7.8102-22.1709,14.74-22.1709,4.81861,0,6.60932,3.34738,6.64884,7.30588.10473,10.43318-8.37115,23.1902-18.4603,31.20767-.13244,5.01413,1.47659,7.3262,4.418,7.3262,5.28553,0,10.55391-5.38592,15.09368-16.23048.61971-1.47868,1.20948-3.17962,1.8601-4.81859.9082-2.28322,5.65417-.96053,4.9746,1.30988-1.45624,4.85494-3.78755,11.27831-3.78755,15.5232,0,2.83987,1.42852,4.02049,3.53434,3.98948,2.92754-.04271,5.32616-2.14112,7.03881-4.18929,0,0,1.20517-6.03553,1.55673-7.70335,4.94891-23.50863,10.66392-33.72706,18.15791-33.72706,4.47671,0,6.75032,2.75017,6.75032,7.19588,0,8.15314-5.61674,17.52-16.41748,30.45764a34.47594,34.47594,0,0,0,11.80721,2.05886c.27885,0,.92953-.0032,1.202-.00747a21.00176,21.00176,0,0,1-.19876-2.80889c0-9.14146,6.54092-15.661,14.61288-15.661,5.28018,0,9.384,2.46914,9.384,7.89569,0,6.79306-7.20334,12.18114-16.28712,14.05408,1.41568,1.67956,4.19148,2.88369,8.07842,2.88369,8.71514,0,15.43343-4.28117,19.88876-8.447v-62.2839H424.09048v68.63252a58.60626,58.60626,0,0,0,13.788-7.36256m32.5582-25.27472a3.5698,3.5698,0,0,1,3.59309,3.76089,3.97548,3.97548,0,0,1-3.92861,3.75977,3.568,3.568,0,0,1-3.592-3.75977,3.97469,3.97469,0,0,1,3.92757-3.76089"/><path class="cls-2" d="M495.89834,188.91543c-2.66148,0-8.03994,7.70766-12.71431,29.84654,7.91167-10.00369,14.32758-21.32048,14.32758-27.20322,0-1.55458-.45087-2.64332-1.61327-2.64332"/><path class="cls-3" d="M514.8939,235.27306c-7.59337,0-11.87452-2.94776-14.161-6.683-.74576.03844-1.624.05768-2.4232.05768a33.99164,33.99164,0,0,1-10.20986-1.40283,37.82007,37.82007,0,0,1,3.38474,15.3693c-.02458,9.95028-3.60594,16.488-10.44064,16.488-4.86883,0-7.64247-3.55357-7.73866-10.884-.07154-5.34322.639-9.77506,1.69563-15.77854a10.53712,10.53712,0,0,1-6.75461,2.38472c-5.02371.01924-7.81979-3.17538-8.0196-7.58049-3.90937,5.26949-8.60937,7.80593-13.51452,7.80593-5.34748,0-8.20023-3.435-8.76542-8.5645a69.82677,69.82677,0,0,1-13.85639,6.88387v37.16524h110.6869v-42.377a31.61938,31.61938,0,0,1-19.88341,7.11569"/><path class="cls-2" d="M454.9371,188.92045c-2.88053,0-7.962,8.60725-11.12556,27.52485,9.01323-8.79852,12.68862-20.18045,12.68862-24.70311,0-2.09841-.55554-2.82174-1.56306-2.82174"/><path class="cls-2" d="M481.47008,227.0936c-1.17427,5.44794-2.78115,15.04132-2.78115,21.13137,0,3.53864.76924,5.78659,2.82386,5.78659,3.56531,0,4.62839-6.27486,4.62839-10.9193a36.83042,36.83042,0,0,0-3.95528-16.74119Z"/><path class="cls-4" d="M470.10161,203.3646a3.97539,3.97539,0,0,0,3.92854-3.75978,3.56977,3.56977,0,0,0-3.5931-3.76085,3.97636,3.97636,0,0,0-3.9286,3.76085,3.56949,3.56949,0,0,0,3.59316,3.75978"/><path class="cls-4" d="M514.88842,230.57913c-3.88694,0-6.66274-1.2041-8.07841-2.88366,9.08378-1.873,16.28712-7.26105,16.28712-14.05411,0-5.42652-4.10279-7.89566-9.38291-7.89566-8.072,0-14.614,6.51846-14.614,15.661a20.99969,20.99969,0,0,0,.19877,2.8089c-.27141.00534-.92314.0075-1.20094.0075a34.47156,34.47156,0,0,1-11.80715-2.05886c10.80067-12.9376,16.41637-22.3045,16.41637-30.45768,0-4.44567-2.2736-7.19584-6.75031-7.19584-7.49288,0-13.2079,10.21843-18.15792,33.727-.35155,1.66782-1.55673,7.70338-1.55673,7.70338-1.71265,2.04709-4.11133,4.14654-7.03881,4.18929-2.10588.031-3.53434-1.14961-3.53434-3.98952,0-4.24485,2.33132-10.66822,3.78867-15.52316.6795-2.27041-4.06751-3.59313-4.97571-1.30991-.65062,1.639-1.24039,3.33991-1.85906,4.81862-4.5397,10.84453-9.80815,16.23048-15.09473,16.23048-2.94137,0-4.5504-2.31207-4.418-7.3262,10.09026-8.01855,18.56607-20.77449,18.4603-31.2077-.03952-3.95847-1.82912-7.30592-6.64885-7.30592-6.92978,0-11.83708,9.58595-14.74,22.17094a96.17732,96.17732,0,0,0-2.30353,14.43019,58.545,58.545,0,0,1-13.788,7.36145v4.88914a69.768,69.768,0,0,0,13.85639-6.88387c.56526,5.12951,3.41794,8.56558,8.76542,8.56558,4.90515,0,9.60515-2.53752,13.51452-7.807.19981,4.4051,2.99589,7.59972,8.01959,7.58156a10.53543,10.53543,0,0,0,6.75462-2.3858c-1.05669,6.00348-1.76717,10.43533-1.69563,15.77851.09619,7.32942,2.86983,10.88408,7.73866,10.88408,6.8347,0,10.41606-6.53665,10.44064-16.488a37.82392,37.82392,0,0,0-3.38474-15.3693,33.99132,33.99132,0,0,0,10.20986,1.40283c.79916,0,1.67743-.01923,2.42319-.05663,2.28645,3.73414,6.56766,6.68194,14.161,6.68194a31.6193,31.6193,0,0,0,19.88341-7.11573v-6.02484c-4.45532,4.16579-11.17362,8.447-19.88876,8.447m-59.95158-41.659c1.00856,0,1.56312.72437,1.56312,2.8217,0,4.5237-3.67539,15.90567-12.68757,24.70311,3.1625-18.9176,8.24392-27.52481,11.12445-27.52481m40.96137-.00431c1.1624,0,1.61327,1.08767,1.61327,2.64329,0,5.8817-6.41591,17.19849-14.32758,27.20218,4.67437-22.13889,10.05283-29.84547,12.71431-29.84547m-14.38535,65.09606c-2.0556,0-2.82386-2.248-2.82386-5.78766,0-6.089,1.60694-15.68238,2.78114-21.13029l.71479-.74253a36.81188,36.81188,0,0,1,3.95639,16.74011c0,4.64551-1.06419,10.92037-4.62846,10.92037M504.72663,221.364c0-5.61779,3.45523-11.21741,9.07413-11.21741,2.41035,0,3.84742,1.31737,3.84742,3.59313,0,3.61021-4.16794,8.16064-12.70473,9.80176a11.32251,11.32251,0,0,1-.21682-2.17748"/><polygon class="cls-1" points="478.274 138.472 464.291 125.366 64.024 125.366 64.024 124.556 464.614 124.556 478.281 137.365 492.125 124.556 534.988 124.556 534.988 125.366 492.441 125.366 478.274 138.472"/><path class="cls-1" d="M480.952,72.63515a3.75577,3.75577,0,0,0-3.17915-1.44431c-2.93979,0-5.00738,2.7661-5.00738,6.21718,0,3.85167,2.14512,5.76521,4.72754,5.76521a4.0503,4.0503,0,0,0,3.57893-1.69268V82.88h2.81448V67.0409H480.952Zm0,7.42086a3.10438,3.10438,0,0,1-2.40545,1.39139c-1.6064.001-2.76231-1.43285-2.76231-4.25877,0-3.14369,1.49426-4.18151,2.85005-4.18151a2.931,2.931,0,0,1,2.31771,1.46415Z"/><path class="cls-1" d="M430.75235,80.973c-3.41023,0-5.375-2.577-5.375-6.01375,0-4.18029,2.47968-6.27043,5.37681-6.27043a4.67739,4.67739,0,0,1,4.13042,2.356l1.27123-.9536s-1.02576-3.34089-5.9784-3.34089a8.069,8.069,0,0,0-8.12655,8.34191c0,5.41715,3.76648,8.10049,7.83575,8.10049,4.67986,0,6.2692-3.24692,6.2692-3.24692l-.9536-.91727A5.276,5.276,0,0,1,430.75235,80.973Z"/><polygon class="cls-1" points="504.979 67.058 501.851 67.058 501.851 82.876 511.965 82.876 511.965 80.707 504.979 80.707 504.979 67.058"/><path class="cls-1" d="M522.11225,70.96439c0-2.01213.975-2.53647,1.8248-2.53647a2.16814,2.16814,0,0,1,1.03891.3214l.58408-1.02478a3.87615,3.87615,0,0,0-2.84375-.98235,3.35189,3.35189,0,0,0-3.27519,2.25308,6.87526,6.87526,0,0,0-.23938,2.5149h-1.71023v1.75155h1.71023v9.61462h2.90711V73.26172h2.56635V71.51017h-2.56635S522.11225,71.146,522.11225,70.96439Z"/><path class="cls-1" d="M455.56776,71.1822a4.74736,4.74736,0,0,0-3.65363,1.794V71.49824H449.0014v11.3781h2.91273V74.37852a3.20218,3.20218,0,0,1,2.42848-1.37956,1.75464,1.75464,0,0,1,1.77178,1.31254,3.92287,3.92287,0,0,1,.113,1.13995v7.42489h2.9315V75.14406a3.99174,3.99174,0,0,0-.89936-2.9333A3.68989,3.68989,0,0,0,455.56776,71.1822Z"/><path class="cls-1" d="M441.99419,71.17524a5.61033,5.61033,0,0,0-4.69082,2.48272l.83158.79517a4.47909,4.47909,0,0,1,3.24789-1.46478,2.446,2.446,0,0,1,2.66409,2.71941c0,.1921.00584.36176.00584.36176a7.872,7.872,0,0,0-2.64677-.48168c-2.607,0-4.73,1.445-4.73,4.02671,0,2.18606,1.68708,3.5782,3.9626,3.5782a4.4449,4.4449,0,0,0,3.53652-1.57424v1.25783h2.75073v-6.525C446.92589,72.44916,444.84452,71.17524,441.99419,71.17524Zm2.05858,9.42288a3.75071,3.75071,0,0,1-2.29856.80076,1.86457,1.86457,0,0,1-2.01652-1.9803,2.15188,2.15188,0,0,1,2.43153-2.102,4.97158,4.97158,0,0,1,1.88355.41413Z"/><path class="cls-1" d="M466.13071,71.17524a5.63011,5.63011,0,0,0-4.69924,2.48272l.83855.79517a4.47152,4.47152,0,0,1,3.24422-1.46478,2.44574,2.44574,0,0,1,2.666,2.71941c0,.1921.00536.36176.00536.36176a7.8872,7.8872,0,0,0-2.65019-.48168c-2.60144,0-4.727,1.445-4.727,4.02671,0,2.18606,1.68391,3.5782,3.96188,3.5782a4.45,4.45,0,0,0,3.53869-1.57424v1.25783h2.75013v-6.525C471.05911,72.44916,468.97786,71.17524,466.13071,71.17524Zm2.05493,9.42288a3.75344,3.75344,0,0,1-2.29821.80076,1.86048,1.86048,0,0,1-2.01272-1.9803,2.14944,2.14944,0,0,1,2.42958-2.102,4.966,4.966,0,0,1,1.88135.41413Z"/><path class="cls-1" d="M490.95014,71.17524a5.62244,5.62244,0,0,0-4.69829,2.48272l.83757.79517a4.47173,4.47173,0,0,1,3.24447-1.46478,2.44415,2.44415,0,0,1,2.66337,2.71941c0,.1921.00779.36176.00779.36176a7.86644,7.86644,0,0,0-2.6453-.48168c-2.60875,0-4.73193,1.445-4.73193,4.02671,0,2.18606,1.68538,3.5782,3.9631,3.5782a4.45191,4.45191,0,0,0,3.53649-1.57424v1.25783h2.74869v-6.525C495.8761,72.44916,493.79874,71.17524,490.95014,71.17524Zm2.05491,9.42288a3.75225,3.75225,0,0,1-2.29674.80076,1.86358,1.86358,0,0,1-2.01492-1.9803,2.15057,2.15057,0,0,1,2.43177-2.102,4.971,4.971,0,0,1,1.87989.41413Z"/><path class="cls-1" d="M535.75906,75.24083a4.84149,4.84149,0,0,0-5.17606-4.06265,5.82325,5.82325,0,0,0-5.90684,5.97072c0,3.49408,2.051,6.04652,6.03653,6.04652a5.44,5.44,0,0,0,5.16386-2.81619l-.76882-.7035a4.72138,4.72138,0,0,1-3.90558,1.66759c-2.32549,0-3.54137-1.80483-3.60231-3.85707h8.37032A8.93426,8.93426,0,0,0,535.75906,75.24083Zm-8.09439.55811c.29691-1.90622,1.34558-2.85362,2.80083-2.85362a2.41551,2.41551,0,0,1,2.55122,2.5277c.00536.14967.00781.32592.00781.32592Z"/><polygon class="cls-1" points="513.169 82.876 516.082 82.876 516.082 71.51 515.114 72.945 516.082 71.51 513.169 71.51 513.169 82.876"/><path class="cls-1" d="M513.0238,68.32371a1.5914,1.5914,0,1,1,1.59275,1.55776A1.57443,1.57443,0,0,1,513.0238,68.32371Z"/><path class="cls-1" d="M395.39,72.85575a.82026.82026,0,1,1-.82223.821A.8217.8217,0,0,1,395.39,72.85575Zm15.83908,3.33173c-.04461.15065-.08459.32518-.12421.52532a13.59079,13.59079,0,0,1-12.95316,10.5715l-.37918.01145-.00183-.10628.37882-.01a12.80668,12.80668,0,0,0,3.74187-.9487,12.98591,12.98591,0,0,0,7.31335-8.14315v.0022s.09458-.30665.162-.56163a1.23767,1.23767,0,0,0-.96176.76152c-.05679.10434-.12942.21085-.18624.33688A11.47961,11.47961,0,0,1,397.04329,85.06l-.37917-.01121.004-.10456.37882.0134a10.62651,10.62651,0,0,0,9.88-6.98771h-.00085s.11225-.30078.18965-.55039a1.24,1.24,0,0,0-1.00162.704c-.02438.04436-.05559.08384-.08239.12992a9.40928,9.40928,0,0,1-4.455,3.89948,9.13433,9.13433,0,0,1-5.41919.58649l-.3754-.061.0178-.10286.37357.061A8.39162,8.39162,0,0,0,400.265,82.012a8.49688,8.49688,0,0,0,4.996-6.18815s.04545-.31591.07081-.57516c0,0-.5464.09323-.83074.90083a6.92269,6.92269,0,0,1-6.90177,4.54276,3.22187,3.22187,0,0,1-2.79756-3.19475,3.16679,3.16679,0,0,1,3.1933-3.19574.41049.41049,0,0,1,.179.04972l.03217-.07057a4.89681,4.89681,0,0,0-7.1882-.82439,6.965,6.965,0,0,1,13.36223-2.46029,7.71372,7.71372,0,0,1,.36735,1.05292,1.13733,1.13733,0,0,0,.49421.64183c-.03205-.2406-.072-.478-.11944-.71679l.00185.00123a8.05132,8.05132,0,0,0-.39626-1.1302,8.50763,8.50763,0,0,0-11.16541-4.46805,8.38268,8.38268,0,0,0-3.26509,2.52391l-.20755.316-.088-.057.2094-.31519a9.18891,9.18891,0,0,1,16.16707,1.29158,1.1327,1.1327,0,0,0,.61135.529q-.11662-.34317-.259-.6778a10.76271,10.76271,0,0,0-14.13311-5.652,10.60635,10.60635,0,0,0-3.38587,2.34694l-.25266.27934-.07873-.06994.25411-.27959a11.35752,11.35752,0,0,1,19.2286,2.68186,4.83839,4.83839,0,0,0,.26279.61283,1.49718,1.49718,0,0,0,.592.55419c-.07-.23207-.14674-.46059-.23219-.689l.00183.001c-.0824-.21754-.1648-.43256-.25583-.64475a12.9087,12.9087,0,0,0-20.36112-4.77909l-.2746.26084-.07179-.07483.27363-.26279a13.57108,13.57108,0,0,1,22.08524,4.14909c.1448.32237.26863.65438.37881.98115a10.95631,10.95631,0,0,1,.63976,2.54915,1.538,1.538,0,0,0,.47023.718c-.019-.242-.04144-.4818-.07766-.7236h.00184a13.04789,13.04789,0,0,0-1.0628-3.67448,15.31768,15.31768,0,1,0,1.14835,7.55189l-.00195.00365s.03-.31956.04181-.5804C411.92146,75.24705,411.47026,75.36651,411.22906,76.18748Z"/><polygon class="cls-1" points="357.714 103.263 356.91 103.263 356.91 46.95 357.714 46.95 357.312 47.71 357.714 46.95 357.714 103.263"/><path class="cls-5" d="M299.77262,92.26232l1.65444-8.2803c-.275-.32639-.46466-.57077-.9229-1.04186-.67531-.46145-.99365-.79589-1.72038-1.222-.66565-.39551-1.47761-.8875-2.14325-1.283l-2.5162-1.26215a16.79037,16.79037,0,0,0-4.28325,1.74288V75.61169l-2.05-1.87149L282.757,69.61451h-.86662l-5.03575,4.12569-2.05,1.87149V80.9159A16.82676,16.82676,0,0,0,270.523,79.173l-2.51787,1.26215c-.66564.39553-1.47755.88752-2.14319,1.283-.72673.42607-1.0467.76051-1.72039,1.222-.45823.47109-.648.71547-.9229,1.04186l1.65444,8.2803a9.83861,9.83861,0,0,1,5.01484,1.46955l-3.29121,2.71242c3.51309,1.95832,5.90069,4.80258,10.17751,6.15474l4.1466-4.49225-.01933,6.50365a13.99723,13.99723,0,0,0,2.84265,0l-.01767-6.50365,4.1466,4.49225c4.27521-1.35216,6.66118-4.19642,10.1759-6.15474l-3.2896-2.71242a9.83235,9.83235,0,0,1,5.01322-1.46955"/><path class="cls-5" d="M313.93276,75.45926a1.95755,1.95755,0,0,0,2.00335-2.00492,1.98624,1.98624,0,0,0-2.00335-2.11754,2.01409,2.01409,0,0,0-2.11915,2.11754,1.98879,1.98879,0,0,0,2.11915,2.00492M333.17039,82.098c0-.22669.05628-.57077.05628-.91485,0-3.14811-1.88922-5.32349-5.26724-5.32349-2.80565,0-5.38142,2.1175-5.38142,5.838,0,3.952,2.7478,5.957,6.5262,5.957a7.13522,7.13522,0,0,0,3.32174-.74442l.17046-2.005a6.778,6.778,0,0,1-3.32017.80232c-2.177,0-3.60637-1.26053-3.60637-4.12248,0-2.46157,1.029-3.77838,2.51787-3.77838a1.77488,1.77488,0,0,1,1.94708,1.65927c0,.57239-.45824.91648-1.37471.91648-.80068,0-1.71715,0-2.632-.0579l.85857,1.8892c.68654-.05628,1.48884-.11578,2.40369-.11578ZM315.24957,58.7974c1.71877,0,2.6899,1.37466,2.6899,3.95043,0,2.57734-.97113,3.95043-2.6899,3.95043-1.7172,0-2.69152-1.37309-2.69152-3.95043,0-2.57577.97432-3.95043,2.69152-3.95043m0-2.05963c-3.89415,0-5.78338,2.804-5.78338,6.01006,0,3.20761,1.88923,6.01163,5.78338,6.01163,3.89253,0,5.78171-2.804,5.78171-6.01163,0-3.206-1.88918-6.01006-5.78171-6.01006m1.25891,21.75386h1.14478v5.26886a12.53069,12.53069,0,0,1-.40034,3.60634h3.55a12.52351,12.52351,0,0,1-.402-3.60634V78.49163h2.005a.75431.75431,0,0,0,.8602-.74442l.17041-1.31519a11.74623,11.74623,0,0,1-1.66087.11415H320.401V75.40139c0-1.31679.574-2.40529,2.005-2.40529a3.797,3.797,0,0,1,1.71715.45824V71.451a5.96812,5.96812,0,0,0-2.28951-.45823c-2.51949,0-4.18036,1.43094-4.18036,4.69482v.80232ZM303.50436,73.054a12.16313,12.16313,0,0,1,.574,4.35079V83.016a12.15594,12.15594,0,0,1-.574,4.35079h7.50695c.402,0,.74445-.11415.8023-.63026l.17207-1.83133a9.39911,9.39911,0,0,1-3.034.45824c-1.09331,0-1.78148-.2878-1.78148-1.603V77.40474a12.2656,12.2656,0,0,1,.5708-4.35079ZM315.994,87.36683a12.5239,12.5239,0,0,1-.40195-3.60634V80.32455a12.52393,12.52393,0,0,1,.40195-3.60635h-3.55009a12.52873,12.52873,0,0,1,.40039,3.60635v3.43594a12.5287,12.5287,0,0,1-.40039,3.60634ZM280.20379,56.73777c-3.89258,0-5.78176,2.804-5.78176,6.01006,0,3.20761,1.88918,6.01163,5.78176,6.01163,3.89415,0,5.78171-2.804,5.78171-6.01163,0-3.206-1.88756-6.01006-5.78171-6.01006m0,2.05963c1.71876,0,2.69147,1.37466,2.69147,3.95043,0,2.57734-.97271,3.95043-2.69147,3.95043-1.7172,0-2.69152-1.37309-2.69152-3.95043,0-2.57577.97432-3.95043,2.69152-3.95043m20.61229,4.12246c0-2.91983,1.14478-4.06461,2.7478-4.06461,1.48722,0,2.23166,1.03065,2.23166,2.91983v4.40866a8.66026,8.66026,0,0,1-2.00335.40034c-1.48884,0-2.97611-.85857-2.97611-3.66422m8.02147,5.15306a15.23821,15.23821,0,0,1-.29426-3.09186V56.8519a15.25014,15.25014,0,0,1,.29426-3.09186h-3.32821a15.78406,15.78406,0,0,1,.2862,3.09186v.91647a6.37455,6.37455,0,0,0-3.034-.86019c-2.51949,0-5.03893,1.66091-5.03893,5.8975,0,3.95043,2.51944,5.72548,4.92313,5.72548a7.05145,7.05145,0,0,0,2.11915-.45824l.91642-1.37466h.11418v1.37466Zm12.70986-10.64861a15.77077,15.77077,0,0,1,.28621,3.09186v4.46489a15.77077,15.77077,0,0,1-.28621,3.09186h3.26227a15.46478,15.46478,0,0,1-.22831-2.97768V62.74783c0-2.40374.68816-3.49219,2.29118-3.49219s2.28951,1.08845,2.28951,3.49219v2.34741a15.323,15.323,0,0,1-.22992,2.97768H332.196a15.77113,15.77113,0,0,1-.28616-3.09186V61.14481c0-2.00335-.68654-4.407-3.89258-4.407a3.51,3.51,0,0,0-3.43591,1.94707l-.11413-.05952.05785-1.201Zm-34.9895,0a15.75961,15.75961,0,0,1,.28778,3.09186v4.46489a15.75961,15.75961,0,0,1-.28778,3.09186h3.26389a15.3363,15.3363,0,0,1-.22831-2.97768V62.74783c0-2.40374.68654-3.49219,2.28951-3.49219,1.60464,0,2.28956,1.08845,2.28956,3.49219v2.34741a15.3363,15.3363,0,0,1-.22831,2.97768h3.26389a15.77077,15.77077,0,0,1-.28621-3.09186V61.14481c0-2.00335-.68654-4.407-3.89415-4.407a3.50912,3.50912,0,0,0-3.43429,1.94707l-.11418-.05952.05628-1.201ZM266.17712,53.76a12.22308,12.22308,0,0,1,.57236,4.35082v5.61129a12.22256,12.22256,0,0,1-.57236,4.35077h7.55675c.68816,0,.97437-.28616.97437-.80229a10.66136,10.66136,0,0,0-.11418-1.48722,4.46256,4.46256,0,0,1-2.06125.34243h-1.0885c-1.14474,0-1.603-.1704-1.603-2.28951V58.11086A12.22188,12.22188,0,0,1,270.4137,53.76Z"/><polygon class="cls-1" points="241.534 103.263 240.73 103.263 240.73 46.95 241.534 46.95 241.132 47.668 241.534 46.95 241.534 103.263"/><polygon class="cls-1" points="187.375 66.111 183.664 66.111 183.664 75.774 193.328 75.774 193.328 73.533 187.375 73.533 187.375 66.111"/><path class="cls-1" d="M163.7483,71.52163c-.80206,0-1.15964-.30764-1.15964-.54034,0-.17905.17908-.79836,1.23436-.79836a1.04533,1.04533,0,0,1,1.13513,1.03106h3.658c0-2.36928-3.76209-2.68076-5.04989-2.68076-1.08126,0-4.81825.31148-4.81825,2.55173-.10364,1.829,1.52177,1.829,3.11754,2.08659.36169.10408,2.01147.10408,2.42307.18265a.57881.57881,0,0,1,.56544.48646c0,.49072-.3614.77348-1.23481.723-.72367,0-1.263-.2323-1.263-.723h-3.7119c0,2.50216,4.019,2.42319,4.97488,2.42319,1.10578-.05006,5.25379-.10327,5.25379-2.42319C168.87306,71.29256,165.03668,71.52163,163.7483,71.52163Z"/><polygon class="cls-1" points="194.566 75.774 198.019 75.774 198.019 68.895 197.418 69.483 198.019 68.895 194.566 68.895 194.566 75.774"/><path class="cls-1" d="M174.59555,66.60036h-2.08619a2.39183,2.39183,0,0,1-2.19,2.24435h-.77374V70.491h1.38908v3.404c0,1.64953,2.18983,2.1364,3.53193,2.1364.54137,0,2.36965-.30786,3.22177-.43707V73.945c-1.75415.25736-3.22177.49028-3.22177-.72V70.491h3.22177V68.84471h-3.09288Z"/><path class="cls-1" d="M211.18683,73.04278h7.47252c-.05357-2.73082-2.01191-4.74225-5.77239-4.74225-3.11842,0-5.84858,1.70335-5.84858,3.94408,0,2.269,2.36905,3.84019,5.89849,3.84019,3.71057,0,5.05312-1.57118,5.61856-2.42253h-3.96864C214.09666,74.56368,211.237,74.82188,211.18683,73.04278Zm3.63248-1.64974h-3.63248C211.41934,69.514,214.536,69.6426,214.81931,71.393Z"/><path class="cls-1" d="M203.99614,68.79081c0-1.33822,1.46673-1.15965,3.22147-.7977V66.34278a10.15807,10.15807,0,0,0-3.22147-.41157c-1.64993,0-3.42888.54056-3.42888,2.8596v.10392h-1.259V70.491h1.20956v5.28259h3.47835V70.491h2.60142V68.89473h-2.60142Z"/><path class="cls-1" d="M196.3162,65.72409a1.644,1.644,0,0,0-1.82916,1.41679c0,.7232.852,1.21352,1.82916,1.21352.98012,0,1.77808-.49032,1.77808-1.21352A1.61484,1.61484,0,0,0,196.3162,65.72409Z"/><polygon class="cls-1" points="142.489 66.111 141.404 69.46 140.735 71.522 139.085 66.111 137.257 66.111 135.428 66.111 133.857 71.575 131.974 66.111 127.826 66.111 131.355 75.774 135.145 75.774 137.257 70.054 139.397 75.774 143.234 75.774 146.713 66.111 142.489 66.111"/><path class="cls-1" d="M83.55377,68.84471h-3.221l-.07486,6.92885h3.60738V72.914c0-2.11173,2.31944-1.7,3.34991-1.7V68.66181a5.0585,5.0585,0,0,0-3.34991,1.03128A1.79039,1.79039,0,0,0,83.55377,68.84471Z"/><path class="cls-1" d="M93.37143,68.53323h-.0756c-3.17083,0-5.85166,1.59987-5.85166,3.84041s2.31958,3.84015,5.85166,3.84015c3.78661,0,5.17907-1.59965,5.6692-2.50172H94.996c-.49028.98082-3.27079,1.15965-3.45369-.61545,2.5016,0,4.56343,0,7.473-.05384C99.01523,73.04278,99.01523,68.53323,93.37143,68.53323Zm-1.77529,2.93838c.35758-1.64993,3.3502-1.7249,3.70793,0Z"/><path class="cls-1" d="M71.3678,67.94265c2.0078,0,2.62667,1.20966,2.677,1.75044h4.58809c-.30826-2.85941-4.098-4.06929-7.319-4.06929-2.90969,0-7.29022,1.64589-7.29022,5.46116,0,3.65777,3.4,5.25786,7.34409,5.25786a30.19037,30.19037,0,0,0,7.26511-1.056V70.72367H72.24062V72.8103a15.61991,15.61991,0,0,0,2.24428,0l.05.723a12.05266,12.05266,0,0,1-3.221.41171,2.94594,2.94594,0,0,1-3.16731-2.9637A2.97974,2.97974,0,0,1,71.3678,67.94265Z"/><path class="cls-1" d="M151.81657,68.40464c-3.11842,0-5.773,1.72846-5.773,3.969s2.29389,3.84015,5.82289,3.84015c3.79028,0,5.128-1.59965,5.66935-2.50172h-4.01942c-.491.98082-3.27226,1.15965-3.40026-.61545h7.47311C157.58926,70.41563,155.65676,68.40464,151.81657,68.40464Zm-1.65051,3.067c.25673-1.90736,3.29941-1.77852,3.66125,0Z"/><polygon class="cls-1" points="122.157 72.914 127.028 72.914 127.028 70.852 125.893 71.883 127.028 70.852 122.157 70.852 122.157 72.914"/><path class="cls-1" d="M117.41471,66.60036h-2.01147a2.39637,2.39637,0,0,1-2.24032,2.24435h-.798V70.491h1.392v3.404c0,1.64953,2.19056,2.1364,3.52841,2.1364a12.92481,12.92481,0,0,0,3.221-.43707V73.945c-1.69983.25736-3.0917.49028-3.0917-.66936l-.12932-2.78466h3.221V68.84471h-3.0917Z"/><path class="cls-1" d="M110.84348,73.27563l-.07839-1.5213a2.40255,2.40255,0,0,0-1.33873-2.473c-2.91365-1.46724-6.3917-.79813-8.76164.17905l1.03106,1.57477c2.98836-1.52112,5.84784-.85223,5.49026.12859-.3611.71916-2.19041.66915-3.71131.71916-1.95774,0-3.42844.66974-3.42844,2.37335,0,1.77511,2.68055,2.00759,3.55718,2.00759a12.08935,12.08935,0,0,0,4.381-.773,5.41143,5.41143,0,0,0,4.50926.28275V74.33138a4.388,4.388,0,0,1-.87708.10389C110.89368,74.43527,110.76509,73.895,110.84348,73.27563Zm-5.04975,1.4671c-.56925.18224-1.59987.258-1.7289-.35788-.1-1.34207,2.01177-.90162,3.12121-1.39212A1.83514,1.83514,0,0,1,105.79373,74.74273Z"/><polygon class="cls-5" points="147.88 86.857 147.88 89.64 151.094 89.64 151.094 88.676 151.737 88.676 151.737 89.64 155.03 89.64 155.03 86.857 153.371 86.857 153.371 89.134 152.243 89.134 152.243 86.909 150.584 86.909 150.584 89.134 149.461 89.134 149.461 86.857 147.88 86.857 147.88 86.857"/><path class="cls-5" d="M155.02191,85.78959V84.12636H138.3723v1.65992h1.47623a2.822,2.822,0,0,1-2.56964,2.30519c-1.48951,0-2.69712-1.48289-2.69712-3.31317,0-1.82964,1.20761-3.31344,2.69712-3.31344a2.77529,2.77529,0,0,1,2.51544,2.116l1.47954-.60834a4.3554,4.3554,0,0,0-3.995-3.1647c-2.36651,0-4.286,2.22529-4.286,4.97046,0,2.74467,1.91951,4.97,4.286,4.97a4.497,4.497,0,0,0,4.19616-3.94988Z"/><path class="cls-1" d="M81.74465,82.33555h.79443l2.22359,5.16175H83.71282l-.48118-1.18079h-2.238l-.4665,1.18079H79.49905Zm1.1664,3.19358-.79473-2.0997-.80911,2.0997Z"/><path class="cls-1" d="M88.53372,83.41475a1.1175,1.1175,0,0,0-.4119-.31706,1.22757,1.22757,0,0,0-.53578-.12742,1.33428,1.33428,0,0,0-.32089.03993.98824.98824,0,0,0-.29152.12389.678.678,0,0,0-.2149.219.59987.59987,0,0,0-.084.32412.581.581,0,0,0,.07281.29886.66011.66011,0,0,0,.20052.21138,1.38677,1.38677,0,0,0,.31.15325c.12125.04345.25512.08749.40074.13094.16528.054.33673.11449.51406.1826a2.002,2.002,0,0,1,.48852.26951,1.341,1.341,0,0,1,.36433.42276,1.28872,1.28872,0,0,1,.14239.63413,1.61917,1.61917,0,0,1-.15325.72574,1.48932,1.48932,0,0,1-.40808.51376,1.743,1.743,0,0,1-.598.3065,2.53187,2.53187,0,0,1-.72163.10158,2.709,2.709,0,0,1-.98408-.18554,1.89928,1.89928,0,0,1-.78739-.55076l.65616-.61182a1.31489,1.31489,0,0,0,.50672.41512,1.3515,1.3515,0,0,0,.9512.11332.87764.87764,0,0,0,.30268-.135.75163.75163,0,0,0,.21872-.23722.68626.68626,0,0,0,.08367-.35347A.57609.57609,0,0,0,88.14,85.744a.84233.84233,0,0,0-.25513-.23311,1.82637,1.82637,0,0,0-.379-.17145q-.21886-.0731-.45916-.15325a4.56675,4.56675,0,0,1-.46679-.175,1.55666,1.55666,0,0,1-.41924-.26951,1.305,1.305,0,0,1-.30239-.41219,1.40564,1.40564,0,0,1-.11655-.6083,1.33652,1.33652,0,0,1,.16382-.67817,1.45146,1.45146,0,0,1,.4301-.47032,1.92691,1.92691,0,0,1,.60507-.27714,2.65441,2.65441,0,0,1,.689-.091,2.4586,2.4586,0,0,1,.79825.13857,1.94473,1.94473,0,0,1,.70342.41571Z"/><path class="cls-1" d="M93.15058,83.41475a1.1175,1.1175,0,0,0-.4119-.31706,1.22757,1.22757,0,0,0-.53578-.12742,1.33428,1.33428,0,0,0-.32089.03993.98824.98824,0,0,0-.29152.12389.678.678,0,0,0-.2149.219.59987.59987,0,0,0-.084.32412.581.581,0,0,0,.07281.29886.66011.66011,0,0,0,.20052.21138,1.38677,1.38677,0,0,0,.31.15325c.12125.04345.25512.08749.40074.13094.16528.054.33673.11449.51406.1826a2.002,2.002,0,0,1,.48852.26951,1.341,1.341,0,0,1,.36433.42276,1.28872,1.28872,0,0,1,.14239.63413,1.61917,1.61917,0,0,1-.15325.72574,1.48932,1.48932,0,0,1-.40808.51376,1.743,1.743,0,0,1-.598.3065,2.53187,2.53187,0,0,1-.72163.10158,2.709,2.709,0,0,1-.98408-.18554,1.89928,1.89928,0,0,1-.78739-.55076l.65616-.61182a1.31489,1.31489,0,0,0,.50672.41512,1.3515,1.3515,0,0,0,.9512.11332.87756.87756,0,0,0,.30268-.135.75163.75163,0,0,0,.21872-.23722.68626.68626,0,0,0,.08367-.35347.57609.57609,0,0,0-.09482-.33879.84233.84233,0,0,0-.25513-.23311,1.82637,1.82637,0,0,0-.379-.17145q-.21886-.0731-.45916-.15325a4.56675,4.56675,0,0,1-.46679-.175,1.55666,1.55666,0,0,1-.41924-.26951,1.305,1.305,0,0,1-.30239-.41219,1.40564,1.40564,0,0,1-.11655-.6083,1.33652,1.33652,0,0,1,.16382-.67817,1.45146,1.45146,0,0,1,.4301-.47032,1.92691,1.92691,0,0,1,.60507-.27714,2.65446,2.65446,0,0,1,.689-.091,2.4586,2.4586,0,0,1,.79825.13857,1.94473,1.94473,0,0,1,.70342.41571Z"/><path class="cls-1" d="M99.26059,85.60193a2.12324,2.12324,0,0,1-.16029.842,1.88808,1.88808,0,0,1-.43744.63765,1.91947,1.91947,0,0,1-.65615.40456,2.45907,2.45907,0,0,1-1.64758,0,1.95774,1.95774,0,0,1-.65968-.40456,1.81946,1.81946,0,0,1-.43743-.63765,2.16483,2.16483,0,0,1-.15678-.842V82.33555h.91862v3.23a1.76381,1.76381,0,0,0,.05813.448,1.10453,1.10453,0,0,0,.19318.3975.99568.99568,0,0,0,.35728.28419,1.44189,1.44189,0,0,0,1.10093,0,.99571.99571,0,0,0,.35729-.28419,1.10453,1.10453,0,0,0,.19318-.3975,1.76381,1.76381,0,0,0,.05813-.448v-3.23h.91861Z"/><path class="cls-1" d="M100.86942,82.33555h1.79349a3.22961,3.22961,0,0,1,.70694.07692,1.83018,1.83018,0,0,1,.60889.2513,1.31736,1.31736,0,0,1,.42628.45916,1.39146,1.39146,0,0,1,.16059.69286,1.31809,1.31809,0,0,1-.31707.9148,1.593,1.593,0,0,1-.864.47736l1.37778,2.28935h-1.108l-1.19575-2.18719H101.788V87.4973h-.91862Zm1.6693,2.22358a2.69106,2.69106,0,0,0,.3937-.02877,1.12175,1.12175,0,0,0,.35376-.1098.69056.69056,0,0,0,.25865-.22958.66142.66142,0,0,0,.10216-.38224.58963.58963,0,0,0-.09482-.34643.71272.71272,0,0,0-.24045-.21549,1.008,1.008,0,0,0-.33174-.10921,2.335,2.335,0,0,0-.36082-.02877H101.788v1.45029Z"/><path class="cls-1" d="M107.83376,82.33555h.79443l2.22358,5.16175h-1.04984l-.48118-1.18079h-2.238l-.4665,1.18079h-1.02812Zm1.16639,3.19358-.79472-2.0997-.80911,2.0997Z"/><path class="cls-1" d="M111.90015,82.33555h1.21748l2.39856,3.86412h.01439V82.33555h.91861V87.4973H115.2828l-2.44965-3.988h-.01438v3.988h-.91862Z"/><path class="cls-1" d="M121.78562,83.54628a1.17679,1.17679,0,0,0-.53226-.40514,1.78834,1.78834,0,0,0-1.37044.0182,1.71909,1.71909,0,0,0-.56514.401,1.78548,1.78548,0,0,0-.36434.59773,2.1174,2.1174,0,0,0-.12771.74394,2.30338,2.30338,0,0,0,.1239.7727,1.741,1.741,0,0,0,.35376.60126,1.58924,1.58924,0,0,0,.55047.39046,1.80455,1.80455,0,0,0,.72162.138,1.59677,1.59677,0,0,0,.7363-.16381,1.435,1.435,0,0,0,.51759-.43392l.7363.51788a2.36084,2.36084,0,0,1-.83847.667,2.66145,2.66145,0,0,1-1.15906.23662,2.99214,2.99214,0,0,1-1.11179-.20022,2.51353,2.51353,0,0,1-1.43973-1.42152,2.89024,2.89024,0,0,1-.204-1.10445,2.80329,2.80329,0,0,1,.2149-1.11914,2.48631,2.48631,0,0,1,.59068-.849,2.61149,2.61149,0,0,1,.88574-.53961,3.15865,3.15865,0,0,1,1.108-.18965,2.97973,2.97973,0,0,1,.51759.04756,2.63432,2.63432,0,0,1,.51758.14562,2.49018,2.49018,0,0,1,.4665.24426,1.50463,1.50463,0,0,1,.372.35Z"/><path class="cls-1" d="M123.64311,82.33555h3.41905v.80206h-2.50043v1.31231h2.3692v.77271h-2.3692v1.45792h2.63166v.81675h-3.55028Z"/><path class="cls-1" d="M164.82465,83.54628a1.17762,1.17762,0,0,0-.532-.40514,1.78983,1.78983,0,0,0-1.371.0182,1.72112,1.72112,0,0,0-.56485.401,1.79087,1.79087,0,0,0-.36463.59773,2.11732,2.11732,0,0,0-.12741.74394,2.29612,2.29612,0,0,0,.12389.7727,1.7497,1.7497,0,0,0,.35347.60126,1.59037,1.59037,0,0,0,.55076.39046,1.80557,1.80557,0,0,0,.72162.138,1.596,1.596,0,0,0,.73631-.16381,1.43839,1.43839,0,0,0,.51787-.43392l.7363.51788a2.371,2.371,0,0,1-.83846.667,2.66148,2.66148,0,0,1-1.15906.23662,2.99045,2.99045,0,0,1-1.11209-.20022,2.51127,2.51127,0,0,1-1.43972-1.42152,2.8903,2.8903,0,0,1-.20433-1.10445,2.7934,2.7934,0,0,1,.21548-1.11914,2.489,2.489,0,0,1,.5901-.849,2.61,2.61,0,0,1,.886-.53961,3.15871,3.15871,0,0,1,1.108-.18965,2.99057,2.99057,0,0,1,.51787.04756,2.62574,2.62574,0,0,1,.51729.14562,2.52023,2.52023,0,0,1,.4668.24426,1.50821,1.50821,0,0,1,.37167.35Z"/><path class="cls-1" d="M166.47927,84.902a2.88616,2.88616,0,0,1,.20786-1.11914,2.45514,2.45514,0,0,1,.576-.849,2.54413,2.54413,0,0,1,.87487-.53961,3.12959,3.12959,0,0,1,1.10446-.18965,3.1853,3.1853,0,0,1,1.11561.18965,2.57493,2.57493,0,0,1,.88191.53961,2.43153,2.43153,0,0,1,.57953.849,2.88634,2.88634,0,0,1,.20786,1.11914,2.84717,2.84717,0,0,1-.20786,1.10445,2.55,2.55,0,0,1-.57953.86019,2.63414,2.63414,0,0,1-.88191.56133,3.02238,3.02238,0,0,1-1.11561.20022A2.96982,2.96982,0,0,1,168.138,87.428a2.60341,2.60341,0,0,1-.87487-.56133,2.576,2.576,0,0,1-.576-.86019A2.847,2.847,0,0,1,166.47927,84.902Zm.99876,0a2.18432,2.18432,0,0,0,.128.76155,1.76431,1.76431,0,0,0,.364.60184,1.66905,1.66905,0,0,0,.56132.39692,1.76566,1.76566,0,0,0,.7181.14209,1.79342,1.79342,0,0,0,.72221-.14209,1.66,1.66,0,0,0,.56485-.39692,1.77475,1.77475,0,0,0,.36463-.60184,2.19781,2.19781,0,0,0,.12742-.76155,2.13081,2.13081,0,0,0-.12742-.74394,1.82167,1.82167,0,0,0-.3611-.59773,1.68264,1.68264,0,0,0-.56133-.401,1.77941,1.77941,0,0,0-.72926-.14562,1.75393,1.75393,0,0,0-.72514.14562,1.69221,1.69221,0,0,0-.55781.401,1.81035,1.81035,0,0,0-.36052.59773A2.1177,2.1177,0,0,0,167.478,84.902Z"/><path class="cls-1" d="M173.58746,82.33555h1.4362l1.34167,3.66742h.02172l1.327-3.66742h1.44325V87.4973H178.246V83.349h-.01468l-1.56714,4.14831h-.64177L174.477,83.349h-.01468V87.4973h-.87487Z"/><path class="cls-1" d="M181.0961,82.33555h1.68457a3.67,3.67,0,0,1,.80147.08044,1.66868,1.66868,0,0,1,.61241.26246,1.2249,1.2249,0,0,1,.394.4668,1.55315,1.55315,0,0,1,.13857.68521,1.482,1.482,0,0,1-.16088.72163,1.30356,1.30356,0,0,1-.43333.47031,1.90321,1.90321,0,0,1-.63824.25894,3.58955,3.58955,0,0,1-.77271.07986H182.015v2.1361h-.91891Zm1.56009,2.25294a2.7286,2.7286,0,0,0,.43039-.03288,1.17163,1.17163,0,0,0,.36463-.11684.66014.66014,0,0,0,.25483-.22959.68062.68062,0,0,0,.09512-.37872.61246.61246,0,0,0-.34643-.59068,1.07963,1.07963,0,0,0-.357-.10569,3.26426,3.26426,0,0,0-.41218-.02525H182.015v1.47965Z"/><path class="cls-1" d="M187.41632,82.33555h.79443l2.22358,5.16175h-1.04984l-.48089-1.18079h-2.23826l-.4668,1.18079H185.171Zm1.1661,3.19358-.79443-2.0997-.80911,2.0997Z"/><path class="cls-1" d="M191.68088,82.33555h1.21777l2.39856,3.86412h.01468V82.33555h.91833V87.4973h-1.1667l-2.449-3.988h-.01468v3.988h-.91891Z"/><path class="cls-1" d="M199.43084,85.259l-1.9394-2.92348h1.12266l1.29763,2.1725,1.3123-2.1725h1.06453l-1.9394,2.92348V87.4973h-.91832Z"/><path class="cls-1" d="M132.30934,57.83531h-1.33726v-.67759h3.451v.67759h-1.33726v3.68562h-.77652Z"/><path class="cls-1" d="M135.45183,57.15772h.77653v1.76266h2.04009V57.15772h.77652v4.36321h-.77652V59.58564h-2.04009v1.93529h-.77653Z"/><path class="cls-1" d="M140.54283,57.15772h2.89089v.67759h-2.11438V58.945h2.00341V59.598h-2.00341v1.23245h2.22477v.69051h-3.00128Z"/></g></svg>