<svg xmlns="http://www.w3.org/2000/svg" viewBox="0 0 27 44" enable-background="new 0 0 27 44"><style type="text/css">.st0{fill-rule:evenodd;clip-rule:evenodd;fill:#45B649;}</style><path d="M.5.3h1.7v32.5h1.9v2H.5V.3zM2.2 2.4h1.9v1.9H2.2V2.4zM4.1 4.2H6v1.9H4.1V4.2zM6 6h1.9v1.9H6V6zM7.9 7.8h1.9v1.9H7.9V7.8zM9.8 9.6h1.9v1.9H9.8V9.6zM11.7 11.4h2v1.9h-2v-1.9zM13.7 13.3h1.9v1.9h-1.9v-1.9zM15.6 15.1h1.9V17h-1.9v-1.9zM17.5 16.9h1.9v1.9h-1.9v-1.9zM19.4 18.7h1.9v2h-1.9v-2zM21.3 20.5h1.9v2h-1.9v-2zM23.2 22.3h1.9v1.9h-1.9v-1.9zM4.1 30.9H6v2H4.1v-2zM6 29h1.9v1.9H6V29zM7.9 27.1h2V29h-2v-1.9zM17.8 27.1v2.1h-1.9v-4h9.2v-1H27v2.9h-9.2zM9.8 29h2v4.1h-2V29zM17.9 29.2h1.9v4.1h-1.9v-4.1zM11.8 33.1h1.9v4.1h-1.9v-4.1zM13.6 37.2h2v4.1h-2v-4.1zM19.8 33.2h1.9v4.2h-1.9v-4.2zM21.7 37.4h1.9v4.1h-1.9v-4.1zM16.4 43.3v-1.9h4.2v1.9h-4.2z" class="st0"/></svg>