<svg xmlns="http://www.w3.org/2000/svg" viewBox="0 0 34 21" enable-background="new 0 0 34 21"><style type="text/css">.st0{fill:#FFFFFF;}</style><path d="M20.3 14.5s0 .1 0 0c-.1.2-.2.3-.2.3-.1.1-.2 0-.2.2 0 .1 0 .1 0 .2 0 0-.1.1-.1.1s-.1.1-.1.1c0 .1 0 .1 0 .1s0 0 0 .1.1.2.1.2c.2 0 .2-.2.3-.4.1-.2.1-.4.1-.6 0 0 0 0 .1 0v-.1c.1 0 .2-.2 0-.2zM23.1 12.7c.1.1.2 0 .2 0 0-.1-.1-.1-.1-.2-.1 0-.1.1-.1.2zM25.4 13.8s0-.1 0 0v-.2s0 0-.1-.1c0 0-.1-.1-.1-.1s-.1 0-.1-.1-.1-.1-.1-.1c-.1 0-.1-.1-.2-.1 0 0-.1-.1-.1-.1 0-.1 0-.1-.1-.1h-.1s0 0-.1 0c0 0 .1.1.1.1s.1 0 .1 0 0 .1 0 .1.1 0 .1.1c0 0 0 .1 0 .1s0 0 .1 0c0 0 0 .1.1.1 0 .1.1.1.1.2.1.1.1.1.2.2.1 0 .1.1.2 0 0 .1 0 .1 0 0zM25.7 13.2s0 .1 0 .1c0 .1 0 .2.1.2 0 0 0 0 .1 0 0 0 .1 0 .1 0 .1 0 .1 0 .1.1 0 0 0 0 .1-.1 0 0 0-.1 0-.1s0-.1.1-.1c0-.1 0-.1 0-.2 0 0 .1 0 .1 0-.1 0-.1-.2-.1-.2s.1 0 .1 0 .1 0 .1 0c0-.1-.1 0-.1-.1 0 0 0-.1 0-.1-.1 0-.1.1-.1.2 0 0-.1 0-.1 0s0 .1-.1.1c0 0-.1 0-.1 0s0 .2-.1.2-.2 0-.2 0zM26.8 13.3c.1 0 .1 0 .1 0s.1 0 .1 0c.1 0 .1-.1.1-.1s-.1.1-.1.1h-.2c-.1-.1-.1 0-.1.1 0 0 0 0 0 .1s-.1.1-.1.2c0 0 0 0 .1 0v.2s0-.1 0-.1 0-.1 0-.1v.1s.1.1.1.1.1 0 .1-.1c0 0 0 0 0-.1 0 0-.1-.1-.1-.1.1 0 .1-.1.2-.1 0 0-.2.1-.2.1s-.1-.1-.1-.1c0-.2.1-.2.1-.2zM26.2 14.1c.1 0 .1 0 .1 0s0 0-.1 0c0 0 0-.1 0 0-.1-.1-.1-.1-.2-.1 0 0 .1 0 .1 0H26c-.1 0-.1-.1-.1-.1s0 .1-.1.1-.1-.1-.2-.1c0 0 0 0-.1 0 0 0-.1.1-.1.1s.1 0 .1.1c0 0 .1 0 .1 0 .1 0 .1 0 .2 0 0 0 0 0 .1 0s.2 0 .3 0zM26.4 14.1c-.1 0 0 .1 0 0 0 .1 0 0 0 0zM29.1 13.9c-.1 0-.1-.1-.2-.2 0 0-.1 0-.1 0-.1 0-.2 0-.2-.1 0 0 0 0-.1 0h-.1s0-.1-.1-.1c0 0-.1.1-.1.1s-.1 0-.1 0 0 .1-.1.1c0 0-.1-.1-.1-.1v-.1c-.1 0-.1-.1-.2-.1s-.1.1-.1.1.1 0 .1.1c0 0 .1 0 .1 0s-.1 0-.2.1c0 0 0 0 .1 0 0 0 0 0 0 .1 0 0 0 0 0-.1.1 0 .1.1.1.1.1 0 .1 0 .2 0 0 0 .1.1.1.1 0 .1 0 .1 0 .1s-.1 0-.1.1c0 0 0 0 .1 0h.1c.1 0 .1.1.2.1h.1s0 0 0-.1c0 0 0-.1.1-.1s.2.1.2.2c0 0 .1.1.1.1h.1s.1 0 .1 0 0 0 0-.1c0 0-.1 0-.1 0s-.1 0-.1 0 0-.1-.1-.1c0 0-.1-.1-.1-.1.4-.1.5 0 .4-.1.1-.1 0 0 0 0zM29.1 17.4s-.2-.1-.2 0 .1.3.2.3.1-.2.1-.2 0-.1 0-.1-.1 0-.1 0zM28.2 16.9s.1 0 .1 0c-.1 0-.1 0-.1 0zM29.6 15.7c-.1-.1-.2-.1-.2-.3 0 0-.1 0-.1 0s0-.1-.1-.2-.2-.1-.2-.2c0 0 0 0 0-.1s0-.2-.1-.2c0 0-.1 0-.1 0s0-.1 0-.1c0-.1-.1-.1-.1-.2-.1 0 0 .1-.1.1v.3c0 .1 0 .3-.1.3s-.1-.1-.1-.1c-.1 0-.1-.1-.2-.1 0 0 0-.1 0-.1s-.1 0-.1 0v-.2s.1 0 .1-.1c0 0 0-.1-.1-.1 0 0 0 0-.1 0s-.2 0-.3-.1c0 0 0 0 .1.1 0 0 0 0-.1 0s-.2 0-.2.1c0 0 0 .1 0 .1s0 .1 0 .1-.1 0-.1 0c0-.1 0-.1-.1-.1s-.1.1-.2.1c0 .1-.1.1-.1.2 0 0 0 0-.1 0 0 0 0 .1 0 .1s0 0 0-.1c0 0 0 0 0 .1v.1c0 .1-.3.2-.4.2-.1 0-.2 0-.2.1 0 0-.1.1-.2.1v.2c0 .1 0 .1 0 .2s0 .1.1.1c0 .1.1.2.1.3 0 .1.1.1.1.2s-.1.1-.1.2c0 0 .2.1.2.1.1 0 .2-.1.3-.1 0 0 0 0 .1 0s.1 0 .2 0c0-.2.2-.1.4-.2.1 0 .1-.1.2-.1s.3 0 .3.1c0 0 .1.2.1.2s0 .1 0 .1c.1 0 .1-.2.2-.2 0 .1 0 .2-.1.2 0 0 .1-.1.1-.1s0 0 0 .1c0 0 0 .1 0 .1s0 0 .1 0c0 0 0 .1 0 .1 0 .1.2.2.3.2.1 0 .1-.1.1-.1s.1.1.2.1c0-.2.3-.1.3-.2s.1-.2.1-.3c0-.1.1-.1.1-.2 0 0 0 0 0-.1v-.1s0-.1 0-.2c.2-.1.2-.3.1-.4zM31.5 17.5c-.1 0-.1 0 0 0-.1-.1-.1-.1 0 0-.1 0-.2 0-.2.1 0 0 0 0-.1 0s0 .1-.1.1-.1.1-.2.1c0 0 0 0-.1 0 0 0-.1.1-.1.2 0 0 .1.1.1.1s.1 0 .1 0 .1 0 .1-.1c0 0 .1-.2.1-.2s.1 0 .1 0 0-.1 0-.1c.3 0 .3-.1.3-.2zM31.9 17.1c-.1 0 0 0-.1 0s-.1-.1-.1-.1-.1-.1-.1-.1 0 0 0-.1c0 0-.1 0-.1-.1 0 .1.1.2.1.2s0 0 0 .1c0 0 0 0 0 .1s0 .1 0 .1 0 0 0 .1.1 0 .1.1c0 0 0 .1 0 .1.1 0 .1-.1.1-.1s0 0 0-.1c0 0 0 0 .1 0 0-.1 0-.2 0-.2zM27.2 12.4c0 .1-.1.1-.1.1s0 0-.1 0 0 .1-.1.1c0 0 0 0 0 .1 0 0 0 .1 0 .1s0-.1.1-.1c0 .1 0 .1.1.1 0 0 0 0 0-.1 0 0 0 .1 0 .1s0-.1 0-.1c.2-.1.2-.3.1-.3zM26.7 11.9s.1 0 0 0c.1 0 .1 0 0 0 .1.1.1.1.1.1s0 .1.1.1c0 0 0 0 0-.1 0 0 .1.1.1.1s0-.1-.1-.1c0 0-.1-.1-.1-.1 0-.1.1-.1.1-.1s0-.1 0-.1 0-.1-.1-.1c0 0 0 0 0 .1 0 0 0 .1 0 .1s0 .1 0 .1c-.1-.1-.1-.1-.1 0zM27.2 12.1c-.1 0-.1 0 0 0-.1 0-.1 0 0 0-.1.1-.1.1 0 0 0 .1 0 .1 0 .1s0 0 0-.1c0 .1 0 .1 0 0 0 .1 0 .1 0 0 0 .1 0 .1 0 0zM26.9 12.2s0 .1 0 .1.1 0 0-.1c.1 0 0 0 0 0zM27 12.3c0 .1-.1.1-.1.1s.1.1.1.1c0-.1 0-.2 0-.2zM27 12.4s.1-.1.1-.1c-.1 0-.1.1-.1.1zM27.1 12.3c0 .1 0 .1 0 0 0 .1-.1.1 0 0-.1.1 0 .1 0 0 0 .1 0 .1 0 0zM27 12.2c.1 0 0-.1 0 0 0-.1 0-.1 0 0zM26.8 12.1c0-.1 0-.1-.1-.1 0 0 .1.1.1.1zM26.9 12zM26.8 10.8s-.1.1-.1.2 0 .1 0 .1c.1 0 .2-.3.1-.3zM25.9 11.4c-.1 0-.2 0-.2 0s0 0 0 .1c0 0 0 .1.1.1 0 0 .1-.2.1-.2zM27.6 10s0 .1 0 0c0 .1 0 0 0 0s0 .1 0 0c.1.1.1.1.1.1s0 .1 0 .1.1-.1.1-.2c-.1 0-.1-.1-.2 0 0-.1 0 0 0 0zM27.8 10.1c.1 0 .1-.1 0 0 .1-.1.1-.1.2-.1 0 0 .1-.1 0-.1 0 0-.1.1-.1 0 0 0-.1.1-.1.2 0-.1 0-.1 0 0 0-.1 0 0 0 0zM28.2 9.6s0 .1-.1.1h-.2c-.1 0-.1.1-.2.1.1 0 .1 0 .2 0 0 0 0 0 .1 0 0 0 .1 0 .1 0s0 0 0 .1c0 0 .1-.1.1-.1s0 0 0-.1c0 0 0 .1.1.1 0 0 0 0 .1 0 0 0 0 0 .1-.1 0 0 0 0 0 .1 0 0 0 0 .1-.1 0 0 0 0 0-.1 0 0 0-.1 0-.1s0-.1 0-.1 0-.1 0-.1 0-.1 0-.1 0 0 0-.1c0 0-.1.1-.1.1 0 .1-.1.2-.2.3 0 .1 0 .1-.1.1zM28.5 8.9c-.1.1 0 .1 0 .1v.1s.1 0 .1 0c0-.1-.1-.1-.1-.2 0 0 .1.1 0 0 .1.1.1 0 .1 0 .1 0 .1 0 .1.1 0 0 0-.1.1-.1 0 0 .1 0 .1 0s0 0-.1 0-.2-.1-.2-.2c.1.1 0 .2-.1.2.1 0 .1 0 0 0 .1 0 0 0 0 0zM29 8.8s.1 0 0 0zM29.1 8.7v.1-.1zM28.8 7.7s0-.1 0-.2v.2c-.1-.1-.1-.1 0 0-.1 0-.1.1-.1.1s0 .1 0 .1v.2s0 .1 0 .1 0 0 0 .1c0 0 0 .1 0 .2 0 0 0 .1 0 .1s0-.1.1-.1c0-.1-.1-.1-.1-.2s0-.2.1-.2c0 0 .1 0 .1 0 0-.1-.1-.1-.1-.2 0 0 0-.1 0-.1 0-.1 0-.1 0-.1zM20.6 5s.1 0 0 0c.1 0 .1.1.1.1s.1 0 .1 0h.2c0-.1-.1-.1-.1-.2 0-.2.2-.4.4-.5.1 0 .1-.1.2-.1 0 0 .1-.1.1-.1.1-.1.2 0 .3-.1.1 0 .3-.1.3-.2 0 0-.1-.1-.1-.1-.2 0-.3.2-.5.2 0 0-.1 0-.1 0-.1 0-.1 0-.1 0-.1 0-.2.2-.3.2 0 0-.1 0-.1 0s0 0 0 .1-.2.1-.2.2c0 0 0 0 0 .1-.1 0-.2 0-.2.1.1.1 0 .1 0 .3 0-.1 0 0 0 0zM21.1 5.1zM32.3 5.5c-.2-.2-.6-.3-.9-.3-.1 0-.2 0-.2.1.1.3-.1 0-.2 0h-.7c0-.2-.1-.2-.4-.2-.1 0-.3 0-.4 0-.1-.1-.1-.1-.2-.2-.2-.1-.4-.1-.6-.1-.2 0-.3.1-.3.3H28c-.1 0-.1-.1-.2-.1 0 0 0 .2-.1.2s-.2-.2-.2-.3c0 0 .3-.2-.4-.3-.1 0-.1 0-.1.1h-.3c-.1 0-.6-.1-.7-.2-.4.4-.3.1-.3.1.1-.1 1-.4.3-.6h-.3c0-.1-.1-.2-.2-.2-.2 0-.2.1-.3.2-.3 0-.7.2-.7 0-.1 0-.5.1-.8.3 0 0-.1.2-.1.2-.1 0-.5 0-.5.2 0 0 0 .1 0 .1-.1 0-.1 0-.3 0-.2.3-.2 0-.2-.1 0 .1-.1.2-.2.2 0 .1.2.2.1.3-.1.1.1.3 0 .3s-.2-.5-.2-.6c0-.1.2-.2-.1-.2-.1 0-.4.2-.4.3 0 .2.1.3.1.3.2.3-.2 0-.4-.1-.4-.1-.3 0-.3.1 0 .3-.1.1-.2.1s-.3.1-.4.1c-.1-.2-.5.3-.7.3 0 0-.1 0-.1-.1s0-.4-.2 0c0 0 0 0 0 .1s-.2 0-.3.1c-.1 0 0 .3-.4.2v.1c-.2 0-.2-.2-.2-.3.1 0 .2 0 .3 0 .2 0 .5-.2 0-.4-.2-.1-.5-.2-.6-.2 0 0 0 0-.1 0 0 0-.1 0-.1 0s0 0-.1 0c.1 0 .1 0 .1-.1 0 0-.1-.1-.1-.1s0 0 0-.1c-.1 0-.1 0-.1.1 0 0 0 0 0-.1-.1 0-.1.1-.1.1S18 5 18 5s-.1 0-.2 0c0 0 0 0-.1 0 0 0-.1 0-.1 0-.1 0-.1 0-.2.1v.1c-.1 0-.1.1-.1.1s-.1 0-.1 0 0 0-.1 0c0 0-.1 0-.1.1 0 0 0 0 .1 0 0 0 0 .1-.1.1 0 0-.1 0-.1 0s0 0 0-.1c0 0 0 0 0 .1 0 0 0 0-.1 0 .1 0 .1 0 .2-.1 0 .1-.1.2-.2.2s-.1.1-.1.1 0 .1 0 .1 0 .1-.1.1c-.1.1-.1.2-.3.2 0 0 0 0 .1 0-.1 0-.1.1-.2.1s-.1.1-.1.1-.1 0-.1.1 0 .2.1.2c0 0-.1.1-.1.1s0 0 .1 0c0 0-.1 0-.1.1 0 0 .1.1.1.1.1 0 .2-.1.3-.2 0 0 0 .1.1.1.5.2.5.2.5.2 0 .1 0 .1.1.2 0 0 0 .2.1.2s.1-.1.2-.1h.1c0-.1.1-.1.1-.2 0 0 0 0 0-.1s0-.2.1-.2c0 0 .1-.1.1-.1 0-.1-.1-.1-.1-.1s0 0 0-.1c0 0 0-.1 0-.1 0-.1.1-.1.1-.1.1 0 .2-.1.2-.2 0 0 0 0 0-.1s.1-.1.2-.1.2 0 .2.1-.1.1-.1.1c-.1.1-.2.2-.3.2 0 0 0 0 0 .1 0 0 0 .1.1.1 0 0 0 0 0 .1s.1.1.1.1 0 0 .1 0 .1 0 .2-.1c.1 0 .2 0 .2-.1 0 0 .1.1.1.1s-.1.1-.2.1-.1 0-.2 0-.2.1-.2.1c.2.2.1.2 0 .2-.2.1-.2.1-.2.1-.1 0-.1.2-.1.2 0 .1-.1.1-.1.2 0 0-.1 0-.1 0s-.1 0-.1 0-.1 0-.1.1c0 0-.1 0-.1 0s0 0-.1 0c0 0-.1 0-.1 0-.1 0-.1.1-.2.1 0 0 0 0-.1 0 0 0 0 0 0-.1s0-.1.1-.1c0 0-.1 0-.1 0s0-.1 0-.1c-.1.1-.2.1-.2.2s.1.1.1.2c0 0 0 .1 0 .1s-.1.1-.1.1-.1 0-.1 0c-.1 0-.1.1-.2.1 0 0 0 .1 0 .1s-.1.1-.2.1c0 .1 0 .2-.1.2 0 0 0 0-.1 0 0 0-.1 0-.1 0s0 .1 0 .1 0 0-.1 0c0 0-.1 0-.1 0s-.1 0-.1.1.1.1.2.1c0 .1 0 .1.1.1 0 0 0 0 0 .1 0 0 0 .1 0 .1 0 .1 0 .1 0 .2 0 0-.1 0-.1 0s-.1 0-.1 0h-.2s0 0-.1 0h-.1s-.1.1-.1.1 0 .1 0 .1c0 .1 0 .2 0 .3 0 0 0 0 0 .1 0 0 0 0 .1 0v.1s.1 0 .1 0c.1 0 .1.1.1.1.1 0 .1-.1.2-.1 0 0 .1 0 .1 0 .1 0 .1-.1.1-.1.1-.4.1-.4.1-.5 0-.1.1-.2.1-.2.1 0 .1 0 .2-.1V9c0-.1 0-.1.1-.1s.1 0 .2 0 .1-.1.2-.1c0 0 0-.1.1-.1s.1.1.2.2c0 0 .1 0 .1.1.1.1.1.1.2.1 0 0 0 0 .1 0 0 0 .1.1.1.1s0 0 0 .1c0 0 0 .1-.1.1 0 0 0-.1.1-.1 0 0-.1-.1-.1-.1s0-.1.1-.1.1 0 .1 0c0-.1-.1-.1-.1-.1s-.1 0-.1-.1c0 0-.1 0-.1 0s0-.1-.1-.1c0 0 0-.1-.1-.1 0 0-.1 0-.1-.1 0 0 0 0 0-.1 0 0 .1 0 .1-.1 0 0 0 .1 0 .1h.1c0 .1.1.2.1.2s.1 0 .1.1c0 0 .1.1.1.1V9c0 .1 0 .1.1.1 0 0 .1.1.1.1h.1s0 0 0 .1 0 .1.1.1c0 0 0-.1 0-.1s0 0 0-.1c0 0 0 0 .1.1 0 0 0 0 .1 0 0 0-.1-.1-.1-.1l-.1.1s0 0 .1 0c0 0 0 0 0-.1 0 0 .1 0 .1 0 .1 0 .1.1.1.1s.1 0 .1-.1c0 0 .1 0 .1 0s-.1-.1-.1-.1.1-.1.1-.1v-.2s0 0 .1-.1c0 0 0 0 0-.1.1 0 .1-.1.1-.1.1 0 .2.3.2.3s.2-.1.2-.1-.1 0-.1 0-.1 0-.1-.1c0 0 .2-.1.3-.1 0 0 0 0-.1.1 0 0 .1.1-.1.2.1.2.4.2.4.4-.1 0-.1.1-.2.1H19s-.2 0-.2-.1c-.1 0-.1-.1-.2-.1s-.1 0-.2 0c0 0-.1.1-.1.1h-.1s-.1 0-.1 0c-.1 0-.3 0-.3.1 0 0 0 0 .1 0 0 .1 0 .1-.1.1 0 0 .1 0 .1.1 0 0 .1.1.1.1.1 0 .1.1.2.1s0-.1.1-.1.1.1.2.1.1 0 .2-.1c0 0 0 0 .1 0 0 0 0 0 .1 0 0 0 0 .1 0 .1 0 .1-.1.1-.1.2s0 .1-.1.2c0 0 0 0-.1 0s-.1 0-.2 0-.1 0-.2 0-.3 0-.4-.1c-.1 0-.1 0-.2 0 0 0 0 0 0-.1h-.1c-.1 0-.2 0-.2.1v.1s0 .1-.1.1c-.2 0-.3-.3-.5-.3h-.1c.4.2.4.1.4 0s0-.1 0-.1 0 0 0-.1c0 0 0 0 0-.1 0 0 0-.1-.1-.1s-.1 0-.1 0-.1 0-.1 0-.1 0-.1 0-.1 0-.1 0c-.1 0-.4.1-.5.2 0 0-.1.1-.1.1-.1 0-.2 0-.3-.1 0 0 0 .1-.1.1-.1.1-.2.2-.3.3-.1.1 0 .1-.1.3 0 .1-.1.1-.1.2-.1 0-.1 0-.2.1s-.2.3-.2.4c0 .1-.1.1-.1.2s.1.2.1.4c0 .1-.1.3-.1.3s0 .1 0 .1 0 .1 0 .1.2.2.2.2c.1.1.1.1.2.2s.2.2.3.3c0 0 .1 0 .1 0 .1 0 .2-.1.3-.1.1 0 .1.1.2.1 0 0 .1 0 .1-.1.1 0 .2-.1.4-.1.1 0 .2.2.2.2h.1c.1 0 .2.1.2.1s0 .1 0 .2c0 0-.1.1-.1.1 0 .2.2.3.3.4 0 .1 0 .1.1.2 0 .1.1.1.1.3 0 .1 0 .1 0 .2 0 .2-.2.2-.2.5 0 .2.1.3.2.5 0 0 .1.1.1.1v.1c0 .3.1.5.3.7 0 0 .1.1.1.2 0 0 0 .1 0 .1s.1.1.1.2c0 0 0 .1.1.1s.2-.1.3-.1c0 0 .1 0 .1 0s.1 0 .1 0c0-.1.1 0 .1-.1.1-.1.2-.2.2-.3 0-.1.1-.1.1-.2 0 0 .1-.1.1-.2 0 0 0-.1 0-.1 0-.1.1-.1.2-.2 0 0 .1 0 .1 0s0-.1 0-.2-.1-.2-.1-.2.1-.1.1-.1c0-.2.4-.2.4-.5 0 0 0 0 0-.1s0-.2 0-.2v-.1s0 0 0-.1-.1-.1-.1-.2 0-.1 0-.2.1-.1.1-.2c.1-.3.3-.4.5-.5.1-.1.2-.2.3-.4.1-.1.2-.4.2-.6-.1 0-.2.1-.3.1 0 0-.1 0-.1 0s0 .1-.1.1-.1-.1-.1-.1 0 0 0-.1c-.1 0-.1-.1-.2-.2-.1 0-.1 0-.1-.1-.1-.1 0-.1-.1-.2 0-.1-.1-.1-.1-.2v-.2s-.1-.2-.1-.3l-.3-.6v-.1c.1.1.1.2.2.2 0 0 0-.1.1-.2 0 0 0 .1 0 .1s0 .1.1.1c0 .1.1.1.1.2 0 0 0 0 0 .1 0 0 0 .1 0 .1s0 0 .1 0c0 .1.1.1.1.2s0 .2.1.2c0 .1.1.2.1.2s.1.1.1.1 0 .1 0 .1c0 .1 0 .1.1.2 0 0 .1 0 .1 0 .1 0 .1 0 .1-.1h.1s.2-.1.2-.1c.1 0 .2 0 .2-.1s.2-.1.3-.1c0 0 .1-.1.1-.1s0-.1.1-.1c0 0 0-.1 0-.1s0-.1.1-.1c0-.1.1-.1.1-.2 0 0 0 0-.1-.1 0 0 0-.1-.1-.1s-.2 0-.2-.1v-.1c-.1.1-.1.2-.3.2 0 0-.1 0-.1-.1 0 0 0-.1 0-.1s0 .1-.1.1c0 0 0 0 0-.1-.1 0-.2-.2-.2-.2s0 0 0-.1c0 0 0-.1.1-.1s.2.1.2.2c0 0 0 0 0 .1 0 0 .1 0 .1.1 0 0 .1.1.1.1h.2s0-.1.1-.1.1.1.1.1.1 0 .1 0c.1 0 .2 0 .3 0h.2s0 0 .1 0c0 0 .1 0 .1 0s.1.1.1.1c0 .1.1.1.2.1 0 0 0 0 .1 0 0 0-.1 0-.1 0s.1.2.2.2.1-.1.1-.2c0 0 0 .1 0 .1s0 .1 0 .1c0 .1 0 .1.1.2 0 .1.1.2.1.2s0 .1 0 .1 0 .1 0 .1.1.1.1.1c0 .1.1.1.1.2 0 0 0 0 0-.1 0 0 0 0 .1 0 0 0 0-.1.1-.1v-.1c0-.1 0-.1 0-.2s0-.1 0-.1c0-.1.1-.1.1-.1s.1 0 .1-.1c.1-.1.1-.1.2-.2s.1-.1.2-.1c0 0 0-.1 0-.1s.1 0 .1-.1c0 0 0 0 .1 0s.2 0 .2-.1c0 0 .1 0 .1.1 0 0 0 .1 0 .1s.1.1.1.1c0 .1.1.1.1.2 0 0 0 .1 0 .1s0 .1.1.1.1-.1.2-.2c0 0 0 0 0 .1s0 .2 0 .2c0 .1.1.2.1.3 0 0 0 .1 0 .1s0 .1 0 .1c.1 0 .1.1.1.2s0 .1.1.2c0 .1.1.2.2.2 0 0 0 0 .1 0 0 0 0-.1 0-.1s-.1-.1-.1-.1 0 0 0-.1c0-.2-.2-.2-.3-.3 0 0 0-.1 0-.1 0-.1-.1-.1-.1-.2s.1-.1.1-.2c0 0 0 0 0-.1 0 0 .1 0 .1 0s.1 0 .1.1c0 0 0 .1.1.1 0 .1.1.1.1.1s0 0 0 .1c0 0 0 .1 0 .1s.1-.1.1-.1 0-.1.1-.1.1-.1.2-.1c0-.1 0-.1 0-.2s-.1-.3-.1-.3c-.1-.1-.1-.1-.2-.2 0-.1.2-.2.2-.3.1 0 .1 0 .2 0 0 0 0 .1 0 .1s0 0 0-.1c0 0 .1 0 .1 0 .1 0 .1 0 .2-.1 0 0 0-.1 0-.1s0 0 .1 0 .2-.1.3-.1c0 0 0 0 0-.1.1 0 .1-.1.1-.2 0 0 .1-.2.2-.2 0-.1 0-.1 0-.2s0-.2-.1-.3c0 0 0-.1 0-.1s0-.1 0-.1-.1 0-.1-.1c0 0 .1 0 .1-.1s.2-.1.2-.2c0 0-.1 0-.1 0s0 0-.1 0c0 0 0 .1 0 .1s-.1 0-.1 0 0-.1-.1-.1c0 0-.1 0-.1-.1s.1 0 .1-.1c0 0 .1-.1.1-.1s0 0 .1 0c0 0 .1 0 .1.1s-.1.1-.1.1c.1 0 .2-.1.3-.1 0 0 .1 0 .1 0s0 0 0 .1c0 0 0 0 0 .1 0 0 0 .1 0 .1s.1 0 .1.1c0 0 0 0-.1 0 0 0 0 0 0 .1 0 0 0 .1 0 .1s0 0 .1 0c0 0 .1 0 .1 0s.1-.1.1-.1c0-.1 0-.2-.1-.3 0 0-.1-.1-.1-.1s.1 0 .1-.1c0 0 .1-.1.1-.1 0-.1.1-.1.1-.2 0 0 .1 0 .2 0 .2 0 .3-.4.5-.5.1-.1.1-.2.1-.2 0-.1 0-.2 0-.3 0 0 .1-.1.1-.2s-.1-.3-.2-.2c-.2.1-.3-.1-.3-.1 0-.1.2-.2.2-.3.1-.1.2-.3.4-.3.1 0 .5-.1.6-.1.1 0 .2.1.3.1h.2c.1-.2.1-.4.4-.4.1 0 .1 0 .2 0-.1 0-.1.3.3-.1 0 0 .2.1 0 .2-.1.1-.2 0-.2.1-.4 1.2-.4 1.4-.5 1.4-.1 0-.2.1-.2.3 0 .1 0 .5.1.6.1-.1.1-.3.2-.3 0-.1.1-.1.1-.2s.1-.1.1-.2c0 0 0-.1 0-.2.3-.6.5-.3.6-.3.3 0 .5-.4.7-.4.5 0 .1-.2.1-.3 0-.1.2-.1.2-.2 0 0 0-.1 0-.1.2 0 .4.3.5.3.1 0 .1-.1.1-.2.1-.1.1-.1.2-.1 0 0-.3-.1-.5-.2zm-13.7.2c0-.1.1-.1.1-.1 0-.1-.1-.1-.1-.1 0 .1.1.1.1.1-.1 0-.1 0-.1.1s.1.1.1.2c0-.1-.1-.1-.1-.2zm.5 4.7zm1.4-1.6c.1.1.1.2.1.3 0 0 .1 0 .1-.1 0 .1.1.1.1.1h-.1s-.1 0-.1.1c.1 0 .1.1.1.1s0 0 0 .1c0 0 0 .1 0 .1v.1s-.1 0-.1 0-.1 0-.1 0 0-.1-.1-.1c0 0-.1 0-.1 0s0-.1 0-.1 0 0 0-.1c0 0 0 0 0-.1 0 0 0 .1-.1.1.1 0 .1-.1.1-.1s0 0 0 .1c0-.1 0-.1.1-.2-.1-.1-.2-.3-.2-.4 0 0-.1-.1-.1-.1s.1-.1.1-.2c0 0 .1 0 .1-.1.1 0 .1-.1.2-.1.2 0 .2.1.3.2 0 0-.1 0-.2 0s-.2.1-.2.1c.1.3.1.3.1.3zm4.3 3.5zm0-.4c0-.1 0-.1 0 0 0-.1 0-.1 0 0zm0 .4s0-.1 0-.1 0 .1 0 .1zm.1-.1s0-.1 0 0c0-.1 0-.1 0 0 0-.1 0-.1 0 0zM32 5s.3 0 .3-.1c0 0-.1-.1-.2-.1-.1.1-.2.2-.1.2-.1 0-.1 0 0 0zM31.1 5.2c-.1 0-.1 0 0 0zM28.1 4.2c0-.1 0-.1 0 0 0-.1 0-.1 0 0zM26 4.4c.1 0 .1 0 0 0 .1 0 .1 0 0 0 .1 0 .1 0 0 0zM26.1 4.4zM24.8 3.7s.1 0 0 0h.2s.1 0 .1 0c.1 0 .2 0 .2-.1 0 0-.1-.1-.2-.1 0 0 0 0-.1 0 0 0 0 0 0-.1 0 0 0 .1-.2.3.1-.1 0-.1 0 0zM24.1 3.3c.1.1.2.1.2 0 0 0-.1-.1-.2 0 .1-.1 0-.1 0 0zM24.5 3.3c-.1 0-.1.1-.2.1 0 0 .1.1.2.1s.2.1.4.1c0 0 .1 0 .1 0s.1 0 .1 0 0 0 0-.1c0 0 0-.1-.1-.1h-.1s-.1 0-.1 0c-.2-.2-.2-.2-.3-.1.1 0 .1-.1.1-.1s0 0 0-.1c-.1 0-.1-.1-.2-.1-.2 0-.2.2-.3.2.1 0 .1.1.2.1.1-.1.2 0 .2 0zM20.5 3.2s-.1 0 0 0zM20.1 3.1c.1 0 .1 0 0 0 .1.1.1.1 0 0 .1.1.1.1 0 0 .1.1.1.1 0 0 0 .1.1.1.1.1s0-.1.1-.1c0 0 .1 0 .1 0s.1 0 .1-.1c0 0-.1 0-.1 0s-.1 0-.1 0c0 .1-.1.1-.2.1 0 0-.2 0-.2 0s0 0 .1 0c0 .1.1 0 .1 0zM21.6 3.1s.1 0 .2 0V3c-.1-.1-.2 0-.2.1zM21.4 3.2c.1-.1.1 0 0 0 .1-.1.1-.1.1-.1s-.1 0-.1 0h-.1s-.1 0-.1.1c.1 0 .2 0 .2 0zM21.1 3.2s-.2 0-.2.1c.1 0 .1 0 .2-.1 0 0 0 .1 0 0 0 .1 0 0 0 0 .1 0 .1 0 0 0zM21.1 3.1s.1 0 0 0c-.1-.1 0-.1.1-.1 0 0-.1 0-.1.1-.1-.2-.1-.1-.2-.1 0 0 0 0 .1 0h-.1s.1.1.2.1c-.1 0 0 0 0 0zM17 3.5c0 .1.1.1.1.1s0 .1.1.1.1-.1.1-.1h.1s-.1.1-.2.1c0 0-.1 0-.1 0 0 .1.1 0 .1 0s.1 0 .1 0-.1 0-.1 0-.1 0-.1 0c0 .1.2.2.2.2s0-.1.1-.2c0-.1.1-.2.2-.2 0 0 0 0 .1.1 0 0 0 .1.1.1 0 .1 0 0 0 .1 0 0 .1 0 .1 0s0 0 0 .1c.1 0 .1-.1.2-.1 0 0-.1 0-.1-.1 0 0 0 0 0-.1 0 0 0 0-.1 0 0 0-.2-.1-.3-.1 0 0 0-.1 0-.1s0 0-.1 0c0 0 0 0 0-.1 0 0-.1-.1-.1-.1s-.1 0-.1 0c0 .1 0 .1 0 .1-.1 0-.1-.1-.1-.1s-.1 0-.1.1c0 0-.1 0-.1 0-.1 0-.1 0-.2 0 .2 0 .1.1.2.2 0-.1 0 0 0 0zM17.6 3.3c0 .1.1 0 .1 0s.1 0 .1 0-.1 0-.1 0 0 0-.1 0c0 0 0 0 0 .1h.4s.1.1.1.1c.1 0 .2-.1.3-.2 0 0-.1-.1-.1-.1h-.1s-.1 0-.1 0 0 0 0-.1c0 0 0 .1-.1.1 0 0-.1 0-.1-.1h-.1l-.2.2c.1-.1 0-.1 0 0 0-.1 0 0 0 0zM17 3.7c0-.1-.1-.1-.1-.1 0-.1.1 0 .1.1zM16.9 3.5zM16.9 3.5zM15.1 7.8c0 .1 0 .1 0 0 .1.1.1.1.1.1s.1-.1.1-.1.1 0 .1 0 0-.1 0-.1v-.1s.1 0 .1-.1 0-.1-.1-.1h-.1s-.1 0-.1.1c0 0-.1 0-.1 0s0 .1.1.1c0 .2-.1.2-.1.2zM15.5 7.2c0 .1 0 .1 0 0v.2s0 0 0-.1c0 0 0 0 .1 0 0 0 0 0 0 .1 0 0 0 0 0 .1 0 0 0 0 .1 0 0 0 0 0 .1 0 0 0 0 0 .1 0v.1s-.1.1-.1.1 0 .1 0 .1-.1.1-.1.1 0 0 .1 0c0 0 0 0 .1 0 0 0-.1 0-.1 0s-.1.1-.1.1 0-.1 0-.1 0 0 .1 0c0 0 .1 0 .2 0 0 0 .1 0 .1-.1 0 0 0 0-.1 0 0 0 .1-.1.1-.1s0-.1-.1-.1c0 0 0 0 0-.1s-.1-.1-.1-.2c0 0 0-.1-.1-.1 0 0 0 0-.1 0 0-.1.1-.1.1-.2h-.2s.1 0 .1-.1h-.1s-.1 0-.1 0 0 0 0 .1 0 .1 0 .2c0-.1 0-.1 0 0 0-.1 0-.1 0 0 0-.1 0-.1 0 0-.1 0-.1 0 0 0zM14.8 6c0-.1-.1-.1-.1-.2 0 0 0 0-.1 0 0 0-.1 0-.1 0s-.1 0-.1 0-.1 0-.1 0h-.1s0 0-.1 0c0 0-.1 0 0-.1 0 0 0 0-.1 0 0 0 0 0-.1 0 0 0 .1.1.2.1 0 0-.1 0-.2 0 0 0 .1 0 .1 0s0 .1 0 .1c.1 0 .1 0 .1.1.1 0 .2.1.3.1.1 0 .2-.1.2-.1.1.1.2.1.2 0zM9.4 11.4s-.1-.1 0 0l-.1-.1c-.1 0-.2 0-.2-.1 0 0 0 0-.1 0s-.2-.1-.3-.1c-.1 0-.2.1-.3.1 0 0 .1-.1.2-.1h.1s.1 0 .1 0 0 0 .1 0c0 .1.1 0 .1.1.1 0 .1 0 .2 0 .1.2.2.2.2.2zM9.4 11.6c.1 0 .2 0 .2 0s0-.1.1-.1c0 0 0 0 .1 0h.1s-.1 0-.1-.1c-.1 0-.1-.1-.2-.1 0 0-.1 0-.1 0s0 0-.1 0c0 0 0 0 0 .1.1.2.1.2 0 .2zM5 8.2zM12.8 13.8s-.1 0-.1 0c-.1 0-.1-.1-.2-.2 0 0-.1 0-.1-.1h-.1c-.1 0-.1-.1-.1-.1s0 0-.1 0c0 0 0-.1 0-.1s0 0-.1 0c0 0-.1-.1-.2-.1 0 0 0-.1 0-.1s-.1.1-.1 0c0 0-.1 0-.1-.1 0 0 0 0-.1-.1 0 0-.1-.1-.1-.2-.1 0-.1-.1-.2-.1 0 0-.1 0-.1 0H11c-.1 0-.2 0-.2-.1s-.1-.1-.1-.1h-.1s0-.1 0-.1-.1 0-.1-.1c0 0-.1 0-.1 0s-.1 0-.1 0-.1 0-.1 0-.1 0-.1 0H10s0 0 0-.1c0 0-.1 0-.1-.1h-.1s0 0 .1.1h-.2s-.1 0-.1.1c0 0 0 .1 0 .1s0 .1 0 .1-.1-.1-.1-.1 0-.1 0-.1 0 0-.1.1c-.1 0-.1 0-.2.1 0 0-.1 0-.1.1 0 0 0 .1 0 .1s-.1 0-.1.1c-.1 0-.1-.1-.2-.1s-.1.1-.2.1-.1-.1-.1-.1-.1-.1-.1-.1v-.2s0-.1 0-.1v-.1c-.1 0-.1-.1-.2-.1s-.2 0-.3 0c0 0 .1 0 .1-.1v-.2s0-.1 0-.1c0-.1.1-.1.1-.2 0 0-.1 0-.1 0s0 0-.1 0-.2 0-.2.1-.1.1-.1.1 0 .1 0 .1 0 0-.1 0-.1 0-.2 0c0 0 0 0-.1 0s-.1-.1-.1-.1-.1-.1-.1-.1 0 0 0-.1c0 0 0 0 0-.1V11c0-.1 0-.1 0-.1s0 0 0-.1 0-.2.1-.2c0 0 .1 0 .1 0s.1-.1.2-.1c0 0 .1 0 .1 0 .1 0 .1.1.2.1 0 0 0-.1 0-.1.1 0 .1 0 .2 0 0 0 0 0 .1 0s.1.1.2.1c0 0 0 0 .1 0s.1.2.2.3c0 .1.1.1.1.1s0 .1.1.1.1-.1.1-.1c0-.1 0-.1 0-.1 0-.1-.1-.1-.1-.3 0-.2.2-.3.3-.4 0 0 0 0 .1 0 0 0 0 0 .1 0 0 0 0-.1 0-.1s0 .1 0 .1.1-.1.1-.1 0 0 0-.1c0 0 .1-.1.1-.1s.1 0 .1 0-.1 0-.1 0c.1 0 .2 0 .2-.1 0 0 .1 0 .1 0s0 0 0-.1.1-.2.2-.2c0 0 0 0 .1 0 0 0 .1 0 .1-.1 0 0 .1 0 .1 0s0-.1.1-.1c-.1 0-.2.1-.2.1s0 .1.1.1c0 0 .1-.1.1-.1s.2-.1.2-.1-.1 0-.1 0c-.1 0-.2-.1-.2-.2 0 0 0 0 0-.1 0 0-.1 0-.1 0s.1 0 .1-.1-.1 0-.2 0-.2.1-.3.1c0-.1.1-.1.2-.1 0 0 0-.1.1-.1s.2 0 .3 0c.2 0 .2.1.3-.1 0-.1.3-.1.3-.2s0-.1-.1-.2c0 0 0 0 0-.1-.1 0-.2.1-.3.1.1 0 .2-.1.3-.1-.1 0-.2 0-.2-.1-.1 0-.1 0-.2-.1 0 0 0 0 0-.1 0 0 0-.1 0-.1s-.1-.1-.1-.1c0-.1-.1-.1-.1-.2 0 0 0 0-.1 0 0 0-.1 0-.1.1.2-.7.1-.6 0-.6s-.1-.1-.1-.1c-.1 0-.1-.2-.1-.2 0-.1-.2 0-.2-.2-.1 0-.1-.1-.2-.1 0 0 0 0-.1 0s-.1-.1-.2-.1c0 0-.1 0-.1.1 0 0 .1.1 0 .2 0 0 .1.1.1.2s-.1.1-.1.1c0 .2.1.2.1.4 0 .1-.2.2-.3.2.2.1.1.3.2.3 0 0-.1 0-.1.1 0 0-.1.1-.1 0 0 0-.2-.1-.2-.2s0-.2-.1-.2h-.1c-.1-.1-.3-.2-.4-.3 0 0-.1-.1-.1-.1s-.1 0-.1 0c-.1.1-.1-.1-.2-.1 0 0 0 0-.1 0 0 0 0-.1 0-.2s0-.2.1-.3c0 0 .1-.2.1-.2.1 0 .1 0 .1-.1s-.1-.1-.2-.1c0 0-.1-.1.2 0 .1 0 0-.1.1-.1H8c.1 0 .1-.1.2-.1V6C8.1 6 8 6 8 5.9c0 0 .1.1.1.1.1 0 .1-.1.1-.1s0-.1 0-.1c.1 0 .1.1.1.1s0 0 .1 0c0 0 0-.1 0 0 0 0 .2-.1.2-.2 0 0-.1-.1-.1-.1s0-.1.1-.1c0 0 0 0 0-.1-.1 0-.1-.1-.2-.1 0 0-.1 0-.1 0s-.1 0-.1.1c0 0 0 .1 0 .1s-.1 0-.1.1 0 .1-.1.2c.2 0 .1-.2.1-.2s.1 0 .1-.1c0 0-.1-.1-.1-.1-.1 0 0 .1-.1.1 0-.1 0-.1-.1-.1s-.1 0-.2-.1c0 0 .1 0 .1-.1s-.1-.1-.1-.1c0-.1-.1-.2-.2-.2s0 0 0 .1c0 0-.1 0-.1.1 0 0 0 0 0 .1 0 0 0 0 0 .1s.2 0 .2.2c0 0 0 .1 0 .1s0 0 .1 0c0 .1-.2.1-.2.2-.1 0 0-.1 0-.1s-.1 0-.1 0c-.1 0-.1 0-.1.1-.1 0-.1 0-.3 0-.2 0-.4-.1-.4-.2-.1 0-.2 0-.2.1.1 0 .1 0 .2-.1 0 .1-.1 0-.1.1 0 0 0 .1 0 .1-.1 0-.1-.1-.1-.1H6c-.1 0-.1 0-.2 0s-.1 0-.1-.1c0 0 .1 0 .1 0-.1-.2-.1-.2-.3-.2-.2 0-.3-.2-.5-.2-.1 0-.1 0-.1 0s-.1-.1-.1-.1c-.1 0-.1.1-.1.1-.1 0-.1-.2-.2-.2s0 .1-.1.1c0 0 0 0-.1 0s-.1 0-.2.1c0 0-.1.1-.1 0 0 .1 0 .2-.1.2-.2 0-.1.1-.1.1-.1 0-.2 0-.3-.1-.1 0-.1-.1-.2-.1s-.1 0-.1 0c-.1 0-.3 0-.4-.1h-.3s-.1 0-.1-.1h-.2s0 0-.1 0c0 0 0 0-.1 0 .1 0 0-.1 0-.1s-.1.1-.1.1-.1 0-.1 0c-.2.1-.4.2-.4.3h-.2s0 .1 0 .1.1 0 .2.1c0 0 .1.1.1.1.1 0 .2.1.2.2 0 0 0 0-.1 0s-.1 0-.1-.1h-.2c-.1.1-.2.1-.3.2 0 0 0 .1.1.1 0 0 0 0 0 .1h.2s.1 0 .1 0c.1 0 .1-.1.1-.1v.1s.1.1.1.1-.2.1-.2.1c-.1 0-.2.1-.2.2s.1.1.1.1.2.2.2.2 0-.1.1-.1v.1s0 .1 0 .1 0 0 0-.1c.1.1.1.1.2.1 0 0 0 0 0-.1 0 0 0 0 .1 0C2 7 2 7 2 7s0 .1-.1.2c0 0-.2.1-.2.1 0 .1-.1 0-.2.1 0 0-.1.1-.1.1-.1 0-.1 0-.2.1.1 0 .2-.1.3-.1.1 0 .2-.1.3-.1.1-.1.2-.1.3-.2 0 0 0-.1.1-.1s.1-.1.1-.1c0-.1.2-.3.3-.3-.1 0-.1.1-.1.2.1 0 .3-.1.3-.2 0 0 .1 0 .1-.1.1.1.2.1.3.2h.2c.1.1.2.1.3.1 0 0 .1.1.1.1s0 0 0-.1c0 0 0 0 .1 0 0 0 0 0 .1 0 0 0 0 0 0 .1 0 0 0 .1 0 .1s0 0 .1 0c0 0 0 0 0 .1 0 0 0 .1.1.1s.1 0 .1.1v.1s.1.1.1.1 0 0 0-.1 0-.1-.1-.1c0 0 .1 0 .1.1 0 0 0 0 0 .1 0 0 0 .1 0 .1s.1 0 .1 0 0 .1 0 .1.1.1.1.1c0 .1 0 .1.1.1 0 .1.1 0 .2.1 0 0 .1 0 .1.1 0 0 0 0 0 .1 0 0 0 .1 0 .1s0-.1-.1-.1c0 .1.1.1.1.2s-.1.3-.1.4c0 .1 0 .2 0 .3 0 0 0 0 0 .1s.1.2.2.2c0 .1.1.2.1.3 0 0 0 .1 0 .1.1 0 .3.1.3.2s.1.1.1.2c0 0 0 .1.1.2.1 0 .1.1.2.2 0 0 0 0-.1 0 0 0 .1 0 .1.1 0 0 .1.1.1.1v.1s.1.1.1.1 0 .1.1.1c0 0 0 0 0-.1 0 0 0-.1-.1-.1s-.1-.1-.1-.2c0 0 0-.1 0-.1 0-.1 0-.1-.1-.1 0 0-.1 0-.1-.1s-.1-.1-.1-.2c0 0 .1 0 .1.1 0 0 0 .1 0 .1s0 .1 0 .1.1.1.1.1c0 .1.1.1.1.1s0 .1 0 .1.1 0 .1.1c.1.1.2.2.2.3 0 0 0 0 0 .1 0 0 0 .1 0 .1s0 .1 0 .1.1.1.1.1.1 0 .1 0 .1.1.1.1.1 0 .1 0 .1.1.2.1c0 0 0 0 .1 0 0 0 0 0 .1 0s.1-.1.1-.1 0 0 .1 0 .1.1.2.2c.1 0 .1 0 .2 0 0 0 .1.1.1.1s0 0 .1 0c0 .1.1.1.1.2 0 0 0 0 0 .1 0 0 0 .1 0 .1s.1.1.1.1 0 .1.1.1c0 0 .1 0 .1 0s.1.1.1.1 0 0 0-.1c0 0 .1-.1.1-.1s0 0 .1.1c0 .1.1 0 .1.1 0 0 0 0 0 .1 0 0 0 0 0 .1s-.1.1-.1.1c0 .1 0 .1-.1.1 0 .1-.1.1-.1.2 0 0 0 .1.1.1 0 .1-.1.1-.1.1s0 .1 0 .1c0 .1 0 .1.1.2 0 0 0 .1 0 .1 0 .1 0 .1.1.2 0 .1.1.1.1.2 0 0 .1.1.1.1s0 .1 0 .1c.1.1.1.1.2.1 0 0 .1 0 .1.1 0 0 .1 0 .1.1.1 0 .1.1.1.2 0 0 0 .2 0 .3 0 .1 0 .1 0 .2v.1s0 .1 0 .1c0 .1-.1.2-.1.3 0 .1 0 .1 0 .2v.2c0 .1 0 .1 0 .2 0 0 0 .1 0 .1s-.1.1-.1.2c0 0 0 .1 0 .1 0 .1 0 .1 0 .2 0 0 0 .1 0 .1v.1L9 18s0-.1-.1-.1c0 0 0 .1 0 .1 0 .1-.1.1-.1.1 0 .1 0 .2 0 .2 0 .1.1.1.1.1s0 0 0 .1c0 0-.1 0-.1.1 0 0 .1.1.2.1h.1c0 .1.1.1.1.1.1 0 0 .1.1.1h.7s.1-.1.2-.1c0 0 0 0 .1 0-.1 0-.2-.1-.2-.1s0-.2-.1-.2c0 0 0 0 0-.1s0-.1.1-.1c0 0 .1 0 .1-.1 0 0 0-.1 0-.1s.1-.1.1-.1c0-.1-.1-.1-.1-.2s0-.1.1-.1c0 0 .1 0 .1 0 0-.1 0-.1.1-.2 0 0 0 0 0-.1 0 0 0 0 .1 0 0 0-.1-.1-.1-.1.1 0 .1 0 .1 0s.1 0 .1 0 0-.1 0-.2c0 0 .1 0 .2 0s.1 0 .2-.1c0 0 .1-.1.1-.1s0 0 0-.1c0 0-.1 0-.1-.1 0 0 0-.1 0-.1s-.1 0-.1-.1c0 0 .1 0 .1 0s.1 0 .1 0c.1 0 .2-.2.2-.3.1-.1.1-.1.2-.2 0 0 0-.1 0-.1 0-.1.1-.1.1-.2v.3c0-.1 0-.1 0-.2 0 0 .1 0 .1-.1.1-.1.1 0 .2-.1 0 0 .1 0 .2 0s.1 0 .1-.1c0 0 0-.1 0-.1 0-.1.1-.1.1-.2 0 0 0-.1 0-.1s0-.1 0-.1 0-.1 0-.2 0-.2 0-.2.1 0 .1-.1c0 0 0 0 .1-.1s.2-.2.2-.4c.1-.1.1-.1 0-.2zM4.2 7.3s-.1-.1-.1-.1c.1 0 .1 0 .1.1zM6.9 5.3c.1 0 .1 0 .1 0-.1-.1-.3-.2-.3-.3 0-.1-.1-.2-.1-.3 0 0 .1-.1.1-.1s-.1-.1-.1-.1c-.1 0-.1 0-.1.1-.1 0 0 0-.1 0 0 0-.1 0-.1 0s0 .2.1.2c-.1 0 0-.1-.1-.1 0 0-.1-.1-.1-.1h-.1s0 0 0 .1c0 0-.1 0-.1 0 0 .1 0 0-.1 0s-.1 0-.1.1c0 0 0-.1-.1-.1s-.4.1-.4.3c0 0 .1 0 .1 0s.1 0 .1 0-.1 0-.1.1.2.1.2.1h.2s.1 0 .1 0-.1 0-.1 0c-.1 0-.2 0-.3.1 0 0 .1.1.1.1s.1 0 .2 0c0 0 0 .1.1.1h.3c.1-.1.1 0 .2-.1 0 0 0-.1.1-.1s.1.1.3.1c.1 0 .2 0 .2-.1-.1.1-.1.1-.1 0-.1 0-.1 0 0 0-.1 0-.1 0 0 0zM4.9 5s0 .1 0 0c.1.1.3 0 .3 0 0-.1.1-.2.2-.3 0 0 .2 0 .2-.1s-.2-.1-.2-.1-.1 0-.1 0c-.1 0-.1 0-.2-.1-.1 0-.1 0-.1 0-.1 0-.1 0-.2 0 0 0 0 .1 0 .1 0 .1-.2.2-.2.3.1.1.3.1.3.2zM5.6 4.1c-.1 0-.1 0-.1 0s0 0-.1 0c0 0 0 .1 0 .1s.1 0 .1 0 .1 0 .1 0 0 .1.1.1c0 0-.1 0-.1 0s.1.1.1.1c.1 0 .1 0 .2-.1 0 0 .2-.1.2-.1s.2 0 .2 0 .1-.1.1-.2c0 0 0-.1-.1-.1 0 0-.1 0-.1 0 .1.2.1.2.1.1 0 0 0 0-.1 0 0 0-.1.1-.1.1s.1 0 .1 0 0 0 .1 0c0 0 0 0-.1 0-.2.1-.3 0-.3 0h-.1s-.1-.1-.2 0c.1-.1.1-.1 0 0zm.1.1s0-.1 0 0c0-.1 0-.1 0 0zM5.3 4.2c.1 0 .1 0 .1-.1 0 0-.1.1-.1.1zM5.7 4zM5.1 4.1c.1 0 .1.1.1.1s.1 0 .1-.1c.1 0 .1 0 .1-.1 0 0 0 .1.1.1l.1-.1s0 0 0-.1c0 0 0 0 0-.1s-.2 0-.2 0 0 0-.1 0c0 .1 0 .1-.1.2 0 0-.1 0-.1.1-.1 0-.1 0 0 0-.1 0-.1 0 0 0-.1.1 0 0 0 0zM6 3.7h.1s.1 0 .1 0-.1-.1-.1-.1-.2.1-.2.1 0 0 .1 0c-.1 0-.1 0 0 0zM6.1 3.7c-.1 0-.3 0-.3.1 0 0 .1.1.1.1.1 0 .2-.1.2-.2 0 .1 0 .1 0 0zM5.7 3.8c.1 0 .1 0 0 0 .1 0 0-.1 0 0zM7.3 4.8c0-.1 0 0 0 0 0-.1-.1-.1-.1-.1s.1-.1.1-.1h-.2c-.1 0-.1 0-.2 0 0 0 .1 0 .1 0v.1c-.1 0-.1 0-.1 0v.1c0 .1.1.1.2.2 0 0 0 .1.1.1 0 0 0 0 .1-.1s.1 0 0-.2c.1 0 0 0 0 0zM6.7 4c0 .1 0 .1 0 .1.1 0 .2 0 .2 0s-.1 0-.1 0 .1 0 .1 0 .1 0 .1 0C7 4 7 4 7 3.9c.2.1.2.1.2.1s0 0-.1 0c0 0-.1 0-.1 0s0 0-.1 0c0 0 .1 0 .1 0v.1s-.1 0-.1 0 0 0 .1.1c-.2 0-.2-.2-.3-.2zM7.2 5.4s-.1 0 0 0c-.1 0 .2.1.2.1s0 0 .1-.1c0 0-.1-.2-.2-.2-.1.1-.1.2-.1.2zM7.6 4.5c-.1 0-.1 0 0 0-.1 0-.1.1 0 0l-.2.1v.1c0 .1 0 .1 0 .2 0 0 0 .1 0 .1h.1s.1-.1.1-.1c0-.1 0 0 .1 0s.1-.1.2-.1c0 0 .1 0 .1-.1-.2-.2-.3-.2-.4-.2zM6.6 3.9s.1 0 0 0c0-.1 0-.1-.1-.1 0 0 .1.1.1.1zM6.6 4.3c.1 0 .1 0 .1 0s0-.1-.1 0c0-.1 0 0 0 0zM6.6 3.5c0 .1 0 .1 0 0 .1.1.1.1 0 0 .1.1 0 .1 0 .1s0 0 .1 0c0 0 .1 0 .1 0 .1 0 .1 0 .1 0 .1.1.1.2.2.2 0 0 .1 0 .1 0s-.1-.1-.1-.1C7 3.6 7 3.5 7 3.5s0-.1-.1-.1c0 0 0 0-.1 0-.1.1-.1 0-.2.1 0-.1 0 0 0 0-.1 0-.1 0 0 0zM6.9 3.7c-.1 0-.1.1 0 0 0 .1 0 .1 0 0zM8 4.4c0 .1.1.1.2 0h.3s0 0 .1 0c0 0 0 0 .1 0s.3 0 .3-.1-.1-.1-.3-.1c-.2 0-.2.1-.4.1-.1 0-.1 0-.2 0 0 0-.1 0-.1 0s-.1 0-.1-.1H8s-.2 0-.1-.1h-.1s0 0-.1 0c-.1-.1-.1-.2-.3-.2 0 0-.1 0-.1 0s.2.1.2.1 0 0 .1 0c.1.1.1.1.1.2 0 0 0 0 0 .1 0 0 .2.1.3.1zM7.6 4.3s-.1-.1-.1-.1c-.1 0-.1.1-.1.1s0 0 0 .1c0 0 .2.1.2.1 0-.1 0-.1 0-.2zM7.6 3.8c-.1 0-.2 0-.2 0s.2.1.2 0c0 .1 0 0 0 0zM7.3 3.7c0 .1.1.1.2 0 0 0 0-.1 0-.1 0-.1-.1 0-.1-.1 0 0-.1 0-.1-.1 0 0-.1 0-.1.1s.1.2.1.2zM7.2 3.4c0-.1-.1-.1 0 0-.1-.1-.1 0 0 0zM7.6 3.3c-.1 0-.1 0 0 0h-.1c-.1.1 0 .1.1 0 0 .1 0 .1 0 .1s0 0 .1 0c0 0 0 0 .1 0 0 0 .1 0 .1 0s-.2 0-.2.1.1.1.1.1.1.1.1.1.1 0 .1-.1c0 0 .1.1.1.1h.1s0 0 0-.1c0 0 0 0 0-.1 0 0 0 .1.1.1 0 0 .1-.1.1-.1s.1 0 .1 0 0 0 0-.1c0 0-.1 0-.2 0 0 0-.1 0-.1 0s0-.1 0-.1 0-.1-.1-.1c0 0-.1 0-.1 0-.1 0 0-.1-.1-.1-.2-.1-.2-.1-.3-.1 0 0 .1 0 .1.1h-.1c-.1 0-.1 0-.1 0s0 .1 0 .1.1 0 .1 0 0 0-.1 0c0 0-.1 0-.1 0s.1.1.2.1zM8.7 6.2s0-.1 0 0c-.1-.2-.2-.1-.2-.2 0 0 0 0 0-.1-.1 0-.1.1-.1.2v.1s0 0 0 .1c0 0 .1 0 .1 0s0 .1 0 .1.1 0 .1-.1c0 0 .1.1.1.1h.1s.1 0 .1 0c-.1-.2-.2-.2-.2-.2zM9.3 5.6c0-.1-.2-.1-.2 0 0 0 0 .1.1.1 0 0 .1 0 .1-.1zM8.6 6.4s-.1 0 0 0l-.1.1c.1 0 .1-.1.1-.1zM8.9 4.8c.1 0 .1 0 .1 0s.1 0 .1 0 0 0 .1-.1c-.1 0-.1-.1-.2-.1s-.1 0-.2 0c0 0-.1 0-.1.1.1-.1.1 0 .2.1-.1-.1 0 0 0 0zM8.9 6.6s0-.1 0 0c0-.2-.1-.2 0 0-.1-.1-.1 0 0 0zM9.4 5.6s0-.1 0 0c-.1-.1-.1 0-.1 0s0 0 .1 0zM9 5.4c-.1 0-.1 0 0 0zM9.7 5s-.1 0-.1 0h-.1c-.1 0-.1-.1-.2-.2 0 0-.2-.1-.2-.1-.1.1-.1.1-.2.1 0 0 0 0-.1 0 0 0 0 0-.1 0 0 0 0-.1 0-.1 0-.1 0-.2-.1-.2s-.3 0-.3.2c0 0 0 .1 0 .1s0 .1-.1.1c0 0 0 0 0-.1 0 0 0 0 0-.1s.1-.1.1-.2c0 0-.1 0-.1 0 0 .1-.1.1-.2.2 0 0 0 .1 0 .1s-.1.1-.1.1c0 .1.1.1.1.1s.1 0 .2 0c-.1 0-.1 0-.1 0s.1.1.1.1h.2s.1.1.1.1c.1 0 .4 0 .5 0 0 0 0 .1 0 .1.1 0 .1-.1.1-.1s.2.2.2.2-.1 0-.1 0 .1 0 .1 0c.1 0 .3.2.3.3 0 0-.1.1-.1.1s-.1 0-.1.1c0 0 0 .1.1.1 0 0-.1 0-.1 0h-.3S9 6 9 6.1c0 0 .1.1.1.1s.1-.1.1-.1 0 0 .1 0c0 0 0 0 .1-.1.1.1.1.1.2.2-.1.2.1.2.2.2.1.1.1 0 .2.1 0-.1-.2-.2-.2-.2s.2.1.3.1c0 0 0-.1 0-.1s-.1-.1-.1-.1 0 0 0-.1h-.1c0-.1 0 0-.1 0 .2 0 .2-.1.2-.2 0 0 0 0-.1 0 0 0 0 0 .1 0 .2 0 .2.2.3.2 0 0 0-.1 0-.1.1 0 .1 0 .1 0s.1 0 .1-.1 0-.1-.1-.1c0 0 0 0-.1 0 0-.1 0 0-.1 0 0 0-.1-.1-.1-.1-.1 0-.2 0-.2-.1 0 0-.1 0-.1 0 0-.1.1-.1.1-.1s0 0-.1 0c0 0 .1 0 .1 0s0-.1-.1-.1h.1v-.3c-.1 0-.2 0-.2-.1zM9 6.3zM8.5 5.9zM7.9 2.9c.1.1 0 .1 0 0 0 .1 0 .1 0 0 .1.1.1.1.2.1 0 0 0 0 .1 0-.1 0-.2 0-.2.1 0 0 .1 0 .1 0s-.1 0-.1 0 .1.1.2.1c0 0 0 0 .1 0 0 0 .1.1.1.1s0 0 .1 0c0 0 .1 0 .1 0 .1 0 .2 0 .2-.1 0 0-.1.1-.2.1 0 0 .1.1.1.1-.1 0-.1-.1-.2-.1s-.1 0-.2 0c0 0-.1 0-.1 0 0 .1.2.1.2.2s-.1.1-.2.1c0 0-.1.1-.1.1 0 .1.1.1.1.2h.2c-.1 0-.1-.1-.2-.1 0 0-.1 0-.1 0 0 .1.1.1.1.1-.1 0-.2 0-.2.1.1 0 .2.1.3.1 0 0 .1 0 .1 0h.2c.1 0 0 .1.1.1.2-.1.3-.2.3-.2h-.1c0-.2.1-.1.1-.2 0 0 0 0 0-.1h.2c.1 0 .1-.1.1-.2 0 0-.1-.1-.1-.1.1 0 .1 0 .1-.1h-.1c.1 0 .1-.1.2-.1s.1 0 .2 0c.1-.1.2-.2.3-.2.1.1.3 0 .3 0S10 3 10 3c.2-.1.3 0 .4-.1 0 0 .1 0 .1 0 0-.1-.2 0-.2-.1 0 0 0 0-.1-.1 0 0 0 0-.1 0H10s0 0 .1 0c-.1-.1-.4-.1-.5-.1h-.1s0 0-.1 0c0 0-.1.1-.1.1s-.1 0-.1 0h-.4s-.1 0-.1 0 0 0-.1 0-.1.1-.2.2c0 0-.2-.1-.2-.1-.1 0 0 .1-.1.1-.1-.1-.3 0-.3.1l.1-.1c0 .1 0 0 0 0zM14 5.2c-.1 0-.3 0-.3-.1 0 0 .1 0 .1 0s0 0 0-.1c.1 0 .1.1.2.2 0-.1.1-.1.1-.1 0-.2-.2-.2-.3-.4 0 .1.1.2.2.2 0 0 0-.1 0-.1 0-.1-.1-.1-.2-.2 0 0 .1.1.1.1 0-.1.2 0 .2-.1 0 0 0 0 0-.1.1 0 .1 0 .1-.1 0 0-.1 0-.1-.1 0 0 .1 0 .1 0s0 0 0-.1 0-.1 0-.1-.1 0-.1-.1c0 0 0-.1.1-.1s.2 0 .2-.1-.1-.1-.1-.1 0 0 .1 0c0 0-.1-.1-.1-.1s-.1 0-.1 0 0-.1.1-.1.1-.1.1-.1c.1 0 .1 0 .1-.1.1 0 .1 0 .1-.1 0 0 0 0-.1 0 .1 0 .2-.1.3-.1 0 0 .1 0 .1-.1 0 0-.1-.1-.2-.1 0 0-.1 0-.1 0h-.2c-.1 0-.1 0-.1.1 0 0-.1 0-.1 0H14c-.1 0-.2.3-.3.3 0 0 .2-.3.2-.3 0-.1 0-.1-.1-.1s-.3.2-.4.2c0 0 .1-.1.1-.2-.1 0-.6 0-.6 0h.7c.1 0 .3 0 .3-.1-.1 0-.2 0-.3 0-.1-.1-.3-.2-.5-.2h-.5c-.2 0-.3.1-.4.1 0 0-.1 0-.1 0H12c-.1 0-.1 0-.2 0s-.2 0-.3.1c0 0 0 0 .1.1 0 0-.1 0-.1 0 0 .1.1.1.2.1h-.1c-.1 0-.2-.1-.3-.1 0 0-.1 0-.1 0s0 0 0 .1c-.1 0-.1 0-.2-.1 0 0 0 0 0 .1-.1 0-.1-.1-.1-.1-.1 0-.1.1-.2.1s-.2 0-.3 0c-.1 0 0 .2-.1.2 0 0-.1 0-.1 0-.1.1-.2.1-.3.2 0 0-.1 0-.1.1s.2.1.2.1c0 .1 0 .1-.1.2-.1 0-.2 0-.3 0-.1 0-.1.1-.2.1s-.2 0-.2.1.3.1.3.1h.2s0 0 0 .1h.2s0 0-.1 0h-.1s-.1 0-.1.1c.1 0 0 0 .1 0 0 0 .1 0 .1.1 0 0 0 0-.1.1 0 0 .1.1.2.1 0 0 0 0 .1 0 0 0 .1 0 .1 0s.1 0 .1 0h.1c.4 0 .6.3.7.6 0 0 .1 0 .1.1s-.1.1-.1.1c0-.4.1-.4.1-.4s.1-.1.1-.1c.1 0 .1.2.2.2 0 0 0 .1 0 .1-.1 0-.1-.1-.2-.1 0 0 0 0-.1 0 0 .1.2.1.3.1 0 .1-.1.1-.1.2 0 0 0 0-.1 0-.1.1-.1.1-.1.2v.1s0 0 .1 0c0 0 0 0 0 .1s.1.1.1.2c0 0 0 .1 0 .1.1 0 .1-.1.1 0 0 0 0 0 0 .1s.1.2.2.3c0 0 0 .1 0 .1.1 0 .1 0 .1.1 0 0 .1 0 .1 0 .1 0 .1.2.2.2 0 0 0 0 .1 0s0-.2.1-.2c0 0 0-.1 0-.2s.1-.1.1-.2c0 0 0-.1 0-.1 0-.1.2-.1.2-.2 0 0 0-.1.1-.1V6c.1 0 .2 0 .2-.1 0 0 .1-.1.1-.2l.1-.1s0 0 .1-.1h.1c.1-.1.2 0 .3-.1.1 0 .1-.1.2-.2.2 0 .3 0 .3 0zM11.2 5.3c.1 0 .2 0 .2-.1-.1 0-.1-.1-.2-.1 0 0-.1 0-.1.1s0 .1.1.1zM14.3 4.2s0 .1 0 0c0 .1 0 .1 0 0 0 .1.1.1.1 0h-.1zM11 8c0-.1 0-.1 0 0-.1 0-.1 0-.1.1s-.1.2-.2.3c0 0-.1.1-.1.1s.1 0 .1 0 .1 0 .1 0 0 0 .1 0c0 0 .1 0 .1 0s0 0 0 .1c0 0 .1-.1.1-.1s0 .1 0 .1 0 0 0-.1c0 0 0 0 0-.1 0 0 0 0 0-.1 0 0 0 0 0-.1 0 0 0-.1 0-.1s-.1 0-.1 0 0 0-.1 0c.1 0 .1-.1.1-.1zM28.4 4.3c.1 0 .1 0 .1 0s.1 0 .1 0 0 0 .1 0c0 0 0 0 .1 0 0 0 .1 0 .1 0h.1s0-.1.1-.1c-.1 0-.3-.1-.3-.1s-.1 0-.1.1c-.1 0-.1-.1-.2-.1s-.1.1-.1.1c-.2.1-.1.1 0 .1zM2.2 7.2c.1 0 .1 0 .2 0-.1-.1-.1 0-.2 0zM17.3 9.5s-.1 0-.1 0-.1 0-.1 0c.1 0 .1.1.1.1.1 0 .1 0 .1-.1 0 .1 0 0 0 0zM20.3 5.3s0 .1 0 0c0 .1 0 .1 0 .1.1 0 .1 0 .1-.1 0 0 0 0-.1 0zM21.2 5.2s.1.1.1.1c0-.1-.1-.2-.1-.1zM22.3 4.6c-.1-.1-.1 0-.1 0 .1.1.1 0 .1 0zM28.7 4.6c.1-.1 0-.1-.1-.1s-.1 0-.2.1c.2 0 .3 0 .3 0zM29.3 4.3c.1 0 .1 0 .1 0s-.3 0-.4-.1c.1.1.2.1.3.1zM28.6 4.4s-.1 0 0 0c-.1.1-.1.1 0 0 0 .1 0 .1 0 0zM1.2 6.8s-.1 0 0 0c-.1 0-.1 0 0 0z" class="st0"/></svg>