<?xml version="1.0" encoding="utf-8"?>
<!-- Generator: Adobe Illustrator 19.1.0, SVG Export Plug-In . SVG Version: 6.00 Build 0)  -->
<svg version="1.1" id="Layer_1" xmlns="http://www.w3.org/2000/svg" xmlns:xlink="http://www.w3.org/1999/xlink" x="0px" y="0px"
	 viewBox="0 0 205.8 200" style="enable-background:new 0 0 205.8 200;" xml:space="preserve">
<g>
	<path d="M110.7,161.1c-0.2-0.7-0.8-1.1-1.6-1c-0.9,0.1-1.5,0.2-2.1,0.3c-1.3,0.2-2,0.3-4.1,0.3c-2.2,0-2.8-0.1-4.2-0.3
		c-0.6-0.1-1.2-0.2-2.1-0.3c-0.7-0.1-1.4,0.4-1.6,1l-4.6,15.9c-0.1,0.2-0.1,0.4,0,0.7l3.9,21.2c0.1,0.7,0.7,1.2,1.4,1.2h14
		c0.7,0,1.3-0.5,1.4-1.2l3.8-21.6c0-0.2,0-0.4,0-0.6L110.7,161.1z"/>
	<path d="M204.5,177.1c-19-18.4-42.1-31.4-67-37.6c-0.6-0.3-1.3-0.5-2.1-0.5h-2.3c-0.1,0-0.1,0-0.2,0l10.2,22.1L121.9,200h79.5
		c2.4,0,4.3-1.9,4.3-4.3v-15.4C205.8,179.1,205.3,177.9,204.5,177.1z"/>
	<path d="M72.8,139c-0.1,0-0.2,0-0.2,0h-1.6c-0.3,0-0.7,0-1,0.1c-25.5,6-49.3,19.2-68.6,38c-0.8,0.8-1.3,1.9-1.3,3.1v15.4
		c0,2.4,1.9,4.3,4.3,4.3h79l-20.9-38.3L72.8,139z"/>
	<path d="M127.8,128.1v-13.3c8.8-8.6,14.7-21,15.6-33.5c0,0,0.1,0,0.1,0c4.4,0,8-3.8,8-8.4c0-3.4-1.9-6.4-4.7-7.7
		c1.6-5,2.5-10.3,2.5-15.9C149.3,22,128.5,0,102.9,0S56.5,22,56.5,49.2c0,5.6,0.9,10.9,2.5,15.9c-2.8,1.3-4.7,4.3-4.7,7.7
		c0,4.7,3.6,8.4,8,8.4c0,0,0.1,0,0.1,0c0.9,12.3,6.7,24.6,15.3,33.1v13.7c0,0.5,0.1,0.9,0.3,1.3c1.1,2.3,11.6,22,24.7,22.3
		c0,0,0.2,0,0.3,0c0,0,0,0,0,0c13.1,0,23.4-20,24.6-22.3C127.7,128.9,127.8,128.5,127.8,128.1z"/>
</g>
</svg>
