<svg xmlns="http://www.w3.org/2000/svg" viewBox="0 0 30 20.5" enable-background="new 0 0 30 20.5"><style type="text/css">.st0{fill:#FFFFFF;}</style><path d="M0 18.7V1.9C0 .8.8 0 1.9 0h26.2c1 0 1.9.8 1.9 1.9v16.8c0 1-.8 1.9-1.9 1.9H1.9C.8 20.5 0 19.7 0 18.7zM28.4 1.9c0-.1-.1-.2-.2-.2H1.9c-.1 0-.2.1-.2.2v16.8c0 .1.1.2.2.2h26.2c.1 0 .2-.1.2-.2V1.9h.1zM14.8 13.5c-.2 0-.4-.1-.6-.2l-11-8.9c-.4-.3-.4-.8-.1-1.2S4 2.7 4.3 3l10.5 8.4L25.6 3c.4-.3 1-.2 1.3.2s.2 1-.2 1.3l-11.3 8.8c-.2.1-.4.2-.6.2z" class="st0"/></svg>