<svg xmlns="http://www.w3.org/2000/svg" viewBox="0 0 32 32" enable-background="new 0 0 32 32"><style type="text/css">.st0{fill:#3A5898;} .st1{display:none;} .st2{display:inline;fill:#D13E2B;}</style><path d="M8.8 10.9h3.1v-3c0-1.3 0-3.4 1-4.6C13.9 2 15.3 1 17.7 1c3.9 0 5.5.6 5.5.6l-.8 4.6s-1.3-.4-2.5-.4-2.3.4-2.3 1.6v3.5h4.9l-.3 4.5h-4.6V31h-5.8V15.4h-3v-4.5z" class="st0"/><g class="st1"><path d="M14.4 2.3c.2.2.5.4.8.7.3.3.6.7.9 1.1.3.4.5.9.7 1.5.2.6.3 1.3.3 2 0 1.4-.3 2.6-.9 3.4-.3.4-.6.8-.9 1.1-.4.3-.8.7-1.2 1.1-.2.2-.5.5-.7.8-.2.3-.4.7-.4 1.1 0 .4.1.8.4 1 .2.3.4.5.6.7l1.3 1.1c.8.7 1.6 1.4 2.2 2.3.6.8.9 1.9.9 3.3 0 1.9-.9 3.6-2.6 5.1-1.8 1.5-4.3 2.3-7.6 2.4-2.8 0-4.9-.6-6.2-1.8-1.3-.9-2-2.2-2-3.7 0-.7.2-1.6.7-2.5.4-.9 1.2-1.7 2.4-2.4 1.3-.7 2.6-1.2 4.1-1.5 1.4-.2 2.6-.3 3.5-.3-.3-.4-.5-.8-.8-1.2-.3-.4-.4-.9-.4-1.5 0-.4.1-.6.1-.9.1-.2.2-.5.2-.7-.5.1-.9.1-1.3.1-2.1 0-3.7-.7-4.8-2C2.6 11.4 2 10 2 8.4c0-2 .8-3.7 2.5-5.3 1.1-1 2.3-1.6 3.5-1.9C9.2 1 10.3.8 11.4.8h7.9l-2.5 1.4-2.4.1zm1.5 22.9c0-1-.3-1.9-1-2.6-.7-.7-1.8-1.6-3.3-2.6-.3 0-.5 0-.9 0-.2 0-.7 0-1.6.1-.8.1-1.7.3-2.5.6-.2.1-.5.2-.9.4s-.7.4-1.1.7c-.4.3-.7.7-.9 1.2-.3.5-.4 1.1-.4 1.8 0 1.4.6 2.5 1.9 3.5 1.2.9 2.8 1.4 4.9 1.4 1.9 0 3.3-.4 4.3-1.2 1.1-1.1 1.5-2.1 1.5-3.3m-5.5-11.7c1 0 1.9-.4 2.6-1.1.3-.5.6-1 .6-1.6.1-.5.1-1 .1-1.3 0-1.6-.4-3.1-1.2-4.7-.4-.8-.9-1.4-1.5-1.9s-1.3-.7-2.2-.7c-1.1 0-2 .5-2.7 1.3-.6.9-.9 1.9-.9 3 0 1.4.4 2.9 1.3 4.5.4.7.9 1.3 1.6 1.8.7.5 1.5.7 2.3.7" class="st2"/><path d="M32 7.2h-3.8V3.5h-2.5v3.7h-3.8v2.6h3.8v3.7h2.5V9.8H32z" class="st2"/></g></svg>