<svg xmlns="http://www.w3.org/2000/svg" viewBox="0 0 14.3 19.4" enable-background="new 0 0 14.3 19.4"><style type="text/css">.st0{fill:#333333;}</style><path d="M12.1 7.1V5c0-1.3-.5-2.6-1.5-3.5C9.8.5 8.5 0 7.2 0c-2.7 0-5 2.2-5 5v2.1C.8 8.4 0 10.2 0 12.2c0 4 3.2 7.2 7.2 7.2s7.2-3.2 7.2-7.2c-.1-2-.9-3.8-2.3-5.1zM3.7 5c0-1.9 1.5-3.5 3.5-3.5 1.9 0 3.5 1.5 3.5 3.5v1c-1-.6-2.2-.9-3.5-.9-1.3 0-2.5.3-3.5.9V5zm4 7.6v1.8h-1v-1.8c-.5-.2-.8-.6-.8-1.2 0-.7.6-1.3 1.3-1.3.7 0 1.3.6 1.3 1.3-.1.5-.4 1-.8 1.2z" class="st0"/></svg>