<svg xmlns="http://www.w3.org/2000/svg" viewBox="0 0 14 14" enable-background="new 0 0 14 14"><style type="text/css">.st0{fill-rule:evenodd;clip-rule:evenodd;fill:#FFFFFF;}</style><path d="M3.1 5.4c0-.6 0-1.2 0-1.8C3.2 1.9 4.7.4 6.4.1c2.1-.3 4.2 1.1 4.6 3.2 0 .5 0 1 0 1.6 0 .2 0 .4 0 .6.2 0 .4 0 .6 0 .6 0 1 .4 1 1 0 2.1 0 4.3 0 6.4 0 .7-.4 1-1.1 1.1-1.7 0-3.5 0-5.2 0-1.2 0-2.5 0-3.7 0-.2 0-.5-.1-.7-.2-.4-.2-.5-.6-.5-1 0-2.1 0-4.1 0-6.2 0-.8.4-1.2 1.2-1.2.1 0 .3 0 .5 0zm1.5 0c1.7 0 3.3 0 4.8 0 0-.5 0-1.1 0-1.6-.1-1.2-.9-2-2.2-2.2-1-.1-2.1.6-2.4 1.7-.2.6-.2 1.4-.2 2.1zm1.2 6.4c.8 0 1.5 0 2.4 0-.2-.7-.4-1.3-.6-1.9.7-.5.9-.9.7-1.5-.1-.5-.6-.9-1.3-.9-.5 0-1 .3-1.2.8-.3.7-.1 1.1.6 1.6-.2.6-.3 1.2-.6 1.9z" class="st0"/></svg>