<svg xmlns="http://www.w3.org/2000/svg" viewBox="0 0 24 24" enable-background="new 0 0 24 24"><style type="text/css">.st0{fill:url(#SVGID_1_);} .st1{fill:#C8C8C8;} .st2{fill:url(#SVGID_2_);} .st3{fill:#EE2A24;} .st4{fill:#1B181C;} .st5{fill:url(#SVGID_3_);} .st6{fill:url(#SVGID_4_);} .st7{fill:#FFF9FA;}</style><g id="rect2470"><linearGradient id="SVGID_1_" x1="621.937" x2="628.213" y1="820.933" y2="809.562" gradientUnits="userSpaceOnUse" gradientTransform="matrix(1 .001 -.001 1 -610.162 -803.355)"><stop offset="0" stop-color="#fff"/><stop offset="1" stop-color="#E1E1E1"/></linearGradient><path d="M5.9.6h10.3c2.3 1.6 4.9 4.1 6.7 6.7v15.9h-17V.6z" class="st0"/><path d="M23 23.2H5.9V.5h10.4c2.6 1.9 5.1 4.3 6.7 6.7v16zm-17-.1h16.9V7.3C21.3 5 18.8 2.5 16.2.6H6v22.5z" class="st1"/></g><g id="path3395"><linearGradient id="SVGID_2_" x1="629.317" x2="630.284" y1="807.17" y2="806.278" gradientUnits="userSpaceOnUse" gradientTransform="translate(-610.524 -802.52)"><stop offset="0" stop-color="#fff"/><stop offset="1" stop-color="#C8C8C8"/></linearGradient><path d="M16.2.6c2.5 1.8 4.9 4 6.7 6.7-1.2-1.2-2.8-1.9-4.7-1.8.2-2.3-.7-3.8-2-4.9z" class="st2"/><path d="M22.9 7.3c-1.2-1.3-2.8-1.9-4.7-1.8h-.1v-.1c.2-2-.4-3.5-1.9-4.8l.1-.1c2.7 2.1 5 4.3 6.6 6.8zm-4.4-1.9c1.6 0 2.9.5 4 1.4-1.5-2.1-3.4-4-5.7-5.7 1.1 1.2 1.5 2.6 1.4 4.3.1 0 .2 0 .3 0z" class="st1"/></g><path d="M17.2 8H.5V1.5h16.7V8zM1.9 6.6h14V2.9h-14v3.7z" class="st1"/><path id="path4463" d="M11.9 15.4c.4-.8.9-1.7 1.3-2.6l.1-.4c-.5-1.9-.8-3.4-.5-4.3.1-.3.4-.4.7-.4h.2c.4 0 .6.5.7.8 0 .4-.1 1-.1 1 0-.2 0-.6-.1-1-.2-.4-.3-.6-.5-.7-.1.1-.2.2-.2.4-.1.3-.1.6-.1.8 0 .7.1 1.5.4 2.4 0-.1.1-.3.1-.4.1-.2.4-1.5.4-1.5s-.1 1.7-.2 2.3c0 .1-.1.2-.1.3.4 1.2 1.1 2.2 1.9 3 .3.3.7.5 1.1.8.8-.1 1.6-.2 2.2-.2.8 0 1.5.1 1.7.4.1.1.2.3.2.4 0 .1 0 .2 0 .3 0 0 0-.3-.7-.5-.5-.2-1.5-.2-2.7 0 1.4.7 2.7 1 3.2.8.1-.1.2-.2.2-.2s-.1.3-.1.4c-.1.1-.2.2-.3.2-.7.2-2.4-.2-4-1.1-1.7.3-3.6.7-5.1 1.2-1.6 2.5-2.7 3.7-3.6 3.3l-.3-.2c-.1-.1-.2-.3-.1-.4.1-.5.8-1.3 2.1-2.1.1-.1.8-.4.8-.4s-.5.4-.6.5c-1 .9-1.8 1.9-1.8 2.4.8-.1 2.1-1.9 3.8-5.3m.6.3c-.3.5-.6 1-.8 1.5 1.4-.6 3-1 4.4-1.3-.2-.1-.4-.3-.6-.4-.8-.7-1.4-1.5-1.9-2.4-.3.8-.6 1.6-1.1 2.6" class="st3"/><path d="M21.4 17.8c.1 0 .2 0 .2-.1 0 0 0-.1-.1-.1 0 0 0 0-.1 0v.2zm0 .2l-.1-.4s.1 0 .2 0 .1 0 .1 0 0 .1 0 .1c0 .1 0 .1-.1.1 0 0 .1.1.1.1 0 .1 0 .1 0 .1h-.1s0-.1 0-.1 0-.1-.1-.1h-.1v.2h.1zm.1.2c-.2 0-.4-.2-.4-.4s.2-.4.4-.4.4.2.4.4-.2.4-.4.4zm.4-.4c0-.2-.2-.3-.3-.3s-.3.2-.3.3.2.3.3.3.3-.1.3-.3z" class="st3"/><path d="M13.8 21l-.1-.7c0-.2-.1-.5-.1-.8 0 .2-.1.6-.1.8l-.1.7h.4zm-.5.5l-.1.8h-.5l.7-3.4h.6l.6 3.4H14l-.1-.8h-.6zM15.8 20.8s0-.1 0-.1c0-.2-.1-.3-.2-.3-.2 0-.3.4-.3.8 0 .5.1.7.3.7.1 0 .2 0 .2-.2 0 0 0-.1 0-.2v-.7zm.6-2v2.8c0 .2 0 .5 0 .7h-.5V22c-.1.2-.3.3-.5.3-.5 0-.7-.6-.7-1.3 0-.9.3-1.3.7-1.3.2 0 .3.1.4.3v-1.2h.6zM17.6 21.9c.2 0 .3-.4.3-.8 0-.3-.1-.8-.3-.8-.2 0-.3.5-.3.8 0 .4 0 .8.3.8zm0 .5c-.5 0-.8-.5-.8-1.3 0-.9.4-1.3.9-1.3s.8.5.8 1.3c-.1 1-.6 1.3-.9 1.3zM19.3 21.4c0 .1 0 .1 0 .2.1.2.2.3.2.3.2 0 .3-.3.3-.8 0-.4-.1-.7-.3-.7-.1 0-.2.1-.2.3 0 0 0 .1 0 .2v.5zm-.6-2.6h.6v1.3c.1-.2.3-.3.5-.3.4 0 .6.5.6 1.2 0 .9-.3 1.3-.7 1.3-.2 0-.3-.1-.4-.3v.3h-.5c0-.2 0-.5 0-.7v-2.8h-.1zM21.8 20.9c0-.3-.1-.6-.3-.6-.2 0-.3.3-.3.6h.6zm-.6.4c0 .4.2.6.5.6.2 0 .3 0 .4-.1l.1.4c-.1.1-.4.1-.6.1-.6 0-.9-.4-.9-1.2 0-.8.4-1.3.9-1.3s.8.4.8 1.2c0 .2 0 .3 0 .3h-1.2z" class="st4"/><linearGradient id="SVGID_3_" x1="10.31" x2="7.329" y1="14.854" y2="24.03" gradientUnits="userSpaceOnUse" gradientTransform="matrix(1 0 0 -1 .04 24.215)"><stop offset=".127" stop-color="#89171A"/><stop offset=".244" stop-color="#90191C" stop-opacity=".999"/><stop offset=".398" stop-color="#9F1C20" stop-opacity=".999"/><stop offset=".573" stop-color="#BB2025" stop-opacity=".998"/><stop offset=".761" stop-color="#E01F26" stop-opacity=".997"/><stop offset=".867" stop-color="#ED1C24" stop-opacity=".996"/></linearGradient><path d="M1.2 2.2h15.3v5.2H1.2z" class="st5"/><linearGradient id="SVGID_4_" x1="10.436" x2="7.219" y1="14.491" y2="24.394" gradientUnits="userSpaceOnUse" gradientTransform="matrix(1 0 0 -1 .04 24.215)"><stop offset=".315" stop-color="#5C0C0D"/><stop offset=".444" stop-color="#821518" stop-opacity=".999"/><stop offset=".618" stop-color="#AD1F23" stop-opacity=".998"/><stop offset=".775" stop-color="#CC2026" stop-opacity=".997"/><stop offset=".908" stop-color="#DF1F26" stop-opacity=".996"/><stop offset="1" stop-color="#E51E25" stop-opacity=".996"/></linearGradient><path d="M16.8 7.7H.9V1.9h15.9v5.8zm-.5-5.2H1.5v4.6h14.8V2.5z" class="st6"/><path d="M5.2 3h1.1c.3 0 .6 0 .8.2.2.2.3.5.3.8 0 .4-.1.6-.3.8-.2.3-.5.4-.8.4h-.4v1.2h-.7V3m.7.6v1h.4c.1 0 .2 0 .3-.1.1-.1.1-.2.1-.4s0-.3-.1-.4c-.1-.1-.2-.1-.4-.1h-.3m2.6 0v2.1h.2c.3 0 .5-.1.6-.3.2-.1.3-.4.3-.7 0-.3-.1-.6-.2-.8-.2-.2-.4-.3-.7-.3h-.2M7.8 3h.7c.4 0 .7 0 .9.1.2.1.4.2.5.4.1.1.2.3.3.5.1.2.1.4.1.7 0 .3 0 .5-.1.7-.1.2-.2.4-.3.5-.1.2-.3.3-.5.4-.2.1-.5.1-.9.1h-.7V3m3 0h1.8v.7h-1.1v.6h1.1V5h-1.1v1.5h-.7V3" class="st7"/></svg>