<?xml version="1.0" encoding="utf-8"?>
<!-- Generator: Adobe Illustrator 21.1.0, SVG Export Plug-In . SVG Version: 6.00 Build 0)  -->
<svg version="1.1" id="Online" xmlns="http://www.w3.org/2000/svg" xmlns:xlink="http://www.w3.org/1999/xlink" x="0px" y="0px"
	 viewBox="0 0 74.2 70.7" style="enable-background:new 0 0 74.2 70.7;" xml:space="preserve">
<style type="text/css">
	.st0{fill:#798F9C;}
	.st1{fill:#E33031;}
</style>
<path class="st0" d="M9.3,19.4h26.8c0.5,0,0.9-0.4,0.9-0.9c0-0.5-0.4-0.9-0.9-0.9H9.3c-0.5,0-0.9,0.4-0.9,0.9
	C8.4,19,8.8,19.4,9.3,19.4z"/>
<path class="st0" d="M9.3,27.5h21.5c0.5,0,0.9-0.4,0.9-0.9c0-0.5-0.4-0.9-0.9-0.9H9.3c-0.5,0-0.9,0.4-0.9,0.9
	C8.4,27.1,8.8,27.5,9.3,27.5z"/>
<path class="st0" d="M9.3,35.5h20.1c0.5,0,0.9-0.4,0.9-0.9c0-0.5-0.4-0.9-0.9-0.9H9.3c-0.5,0-0.9,0.4-0.9,0.9
	C8.4,35.1,8.8,35.5,9.3,35.5z"/>
<path class="st0" d="M9.3,43.6h20.1c0.5,0,0.9-0.4,0.9-0.9c0-0.5-0.4-0.9-0.9-0.9H9.3c-0.5,0-0.9,0.4-0.9,0.9
	C8.4,43.2,8.8,43.6,9.3,43.6z"/>
<path class="st0" d="M9.3,51.6h18.1c0.5,0,0.9-0.4,0.9-0.9c0-0.5-0.4-0.9-0.9-0.9H9.3c-0.5,0-0.9,0.4-0.9,0.9
	C8.4,51.2,8.8,51.6,9.3,51.6z"/>
<path class="st0" d="M45,15.6V9.4C45,9.2,45,9,44.8,8.9L36,0.2C35.9,0.1,35.7,0,35.5,0H0.8C0.4,0,0,0.4,0,0.8v60.5
	c0,0.4,0.4,0.8,0.8,0.8h43.5c0.4,0,0.8-0.4,0.8-0.8V47.5h-1.6v13H1.6V1.6h33v8.7h8.9v6.2L45,15.6z"/>
<g>
	<g>
		<path class="st1" d="M56.6,43.5C56.6,43.5,56.6,43.5,56.6,43.5c-6.5,6.5-17,6.5-23.5,0l0,0c-6.5-6.5-6.5-17,0-23.5c0,0,0,0,0,0
			c3.1-3.1,7.3-4.9,11.7-4.9c4.4,0,8.6,1.7,11.7,4.9c3.1,3.1,4.9,7.3,4.9,11.7C61.5,36.2,59.8,40.4,56.6,43.5z M34.4,42.3
			c5.8,5.8,15.2,5.8,21,0c0,0,0,0,0,0c2.8-2.8,4.4-6.5,4.4-10.5c0-4-1.5-7.7-4.3-10.5c-2.8-2.8-6.5-4.4-10.5-4.4
			c-4,0-7.7,1.5-10.5,4.3c0,0,0,0,0,0C28.6,27.1,28.6,36.5,34.4,42.3L34.4,42.3z"/>
		<path class="st1" d="M53.7,40.6C53.7,40.6,53.7,40.6,53.7,40.6c-4.8,4.8-12.7,4.8-17.5,0l0,0c-4.8-4.8-4.8-12.7,0-17.5
			c0,0,0,0,0,0c2.3-2.3,5.5-3.6,8.8-3.6c3.3,0,6.4,1.3,8.8,3.6c2.3,2.3,3.6,5.5,3.6,8.8C57.3,35.1,56,38.2,53.7,40.6z M37.3,39.3
			c4.2,4.2,10.9,4.2,15.1,0c0,0,0,0,0,0c2-2,3.1-4.7,3.1-7.5c0-2.8-1.1-5.5-3.1-7.5c-2-2-4.7-3.1-7.5-3.1c-2.8,0-5.5,1.1-7.5,3.1
			c0,0,0,0,0,0C33.2,28.4,33.2,35.2,37.3,39.3L37.3,39.3z"/>
	</g>
	<g>
		<path class="st1" d="M60.4,47.2c-0.3,0.3-0.9,0.3-1.2,0l-3.7-3.5c-0.3-0.3-0.4-0.9,0-1.2c0.4-0.4,0.9-0.4,1.2,0l3.7,3.5
			C60.8,46.3,60.8,46.8,60.4,47.2C60.5,47.2,60.4,47.2,60.4,47.2z"/>
		<path class="st1" d="M73.3,60.2c-1.4,1.4-3.8,1.2-5.5-0.4l-8-8.1c-0.9-0.9-1.4-2-1.4-3.1c0-0.9,0.3-1.7,0.9-2.3c0,0,0,0,0,0
			c0.6-0.6,1.4-0.9,2.3-0.9c1.1,0,2.3,0.5,3.1,1.4l8,8.1C74.5,56.3,74.7,58.8,73.3,60.2z M60.6,47.5c-0.4,0.4-0.4,0.8-0.4,1.1
			c0,0.7,0.3,1.4,0.8,1.9l0,0l8,8.1c0.9,0.9,2.3,1.1,3,0.4c0.7-0.7,0.5-2.1-0.4-3l-8-8.1C63,47.4,62.3,47,61.7,47
			C61.4,47,60.9,47.1,60.6,47.5L60.6,47.5C60.6,47.5,60.6,47.5,60.6,47.5z M60.4,51.1L60.4,51.1L60.4,51.1z"/>
	</g>
</g>
</svg>
