<?xml version="1.0" encoding="utf-8"?>
<!-- Generator: Adobe Illustrator 21.1.0, SVG Export Plug-In . SVG Version: 6.00 Build 0)  -->
<svg version="1.1" id="Online" xmlns="http://www.w3.org/2000/svg" xmlns:xlink="http://www.w3.org/1999/xlink" x="0px" y="0px"
	 viewBox="0 0 74.2 70.7" style="enable-background:new 0 0 74.2 70.7;" xml:space="preserve">
<style type="text/css">
	.st0{fill:#798F9C;}
	.st1{fill:#E33031;}
</style>
<g>
	<path class="st0" d="M65.8,64.5H8.7c-0.4,0-0.8-0.3-0.8-0.8V45.9c0-0.2,0.1-0.4,0.2-0.5l9.6-9.5c0.1-0.1,0.3-0.2,0.5-0.2H23
		c0.4,0,0.8,0.3,0.8,0.8c0,0.4-0.3,0.8-0.8,0.8h-4.4l-9.1,9V63h55.6V46.3l-8.9-8.9h-4.8c-0.4,0-0.8-0.3-0.8-0.8
		c0-0.4,0.3-0.8,0.8-0.8h5.1c0.2,0,0.4,0.1,0.5,0.2l9.4,9.4c0.1,0.1,0.2,0.3,0.2,0.5v17.8C66.6,64.2,66.3,64.5,65.8,64.5z"/>
	<path class="st0" d="M48.7,53.9H26.2c-0.2,0-0.4-0.1-0.5-0.2l-6.8-6.8H8.7c-0.4,0-0.8-0.3-0.8-0.8s0.3-0.8,0.8-0.8h10.5
		c0.2,0,0.4,0.1,0.5,0.2l6.8,6.8h21.8l7-7c0.1-0.1,0.3-0.2,0.5-0.2h9.9c0.4,0,0.8,0.3,0.8,0.8c0,0.4-0.3,0.8-0.8,0.8h-9.6l-7,7
		C49.1,53.8,48.9,53.9,48.7,53.9z"/>
	<path class="st1" d="M37.4,46.9c-0.3,0-0.6-0.1-0.8-0.3L19.7,29.7c-0.3-0.3-0.4-0.8-0.2-1.2c0.2-0.4,0.6-0.7,1-0.7h7.3L28,6.4
		c0-0.6,0.5-1.1,1.1-1.1h16.5c0.6,0,1.1,0.5,1.1,1.1v21.4h7.5c0.5,0,0.9,0.3,1,0.7s0.1,0.9-0.2,1.2L38.2,46.6
		C38,46.8,37.7,46.9,37.4,46.9z M23.2,30l14.2,14.2l14.1-14.1h-5.9c-0.6,0-1.1-0.5-1.1-1.1V7.6H30.2l-0.2,21.3
		c0,0.6-0.5,1.1-1.1,1.1H23.2z"/>
</g>
</svg>
