<?xml version="1.0" encoding="utf-8"?>
<!-- Generator: Adobe Illustrator 21.1.0, SVG Export Plug-In . SVG Version: 6.00 Build 0)  -->
<svg version="1.1" id="Online" xmlns="http://www.w3.org/2000/svg" xmlns:xlink="http://www.w3.org/1999/xlink" x="0px" y="0px"
	 viewBox="0 0 74.2 70.7" style="enable-background:new 0 0 74.2 70.7;" xml:space="preserve">
<style type="text/css">
	.st0{fill:#E33031;}
	.st1{fill:#798F9C;}
</style>
<path class="st0" d="M35.7,6.5c5.2,0,9.5,0,13.4,0c2.7,0,5,0.9,6.6,2.6c1.6,1.6,2.4,3.9,2.4,6.5c0,3.3,0,6.6,0,9.8
	c0,1.9,0,3.9,0,5.9c0,5.4-3.5,9-9,9c-1.1,0-2.2,0-3.3,0c-1.3,0-2.7,0-4,0c-2.5,0-4.6,0-6.5,0c-0.1,0-0.1,0-0.2,0
	c-1.2,0-2.9,0.2-4.3,1.6c-1,0.9-1.9,1.8-2.9,2.6c-2.3,2.1-4.7,4.2-7,6.3c-0.9,0.8-1.7,1.6-2.6,2.3c0-3.3-0.1-6.3,0-9.4
	c0-2.1-1.2-3.3-3.3-3.5c-2.6-0.1-4.5-1.1-6-2.9c0-0.1-0.1-0.1-0.2-0.2c-1.2-1.3-1.9-2.8-1.9-4.5c-0.1-6.5-0.1-12.4,0-18.3
	c0.1-3.1,1.8-5.4,5-6.9c1.2-0.5,2.6-0.8,3.8-0.8c0.8,0,1.5,0,2.3,0c2.9,0,5.9,0,8.8,0C29.8,6.5,32.7,6.5,35.7,6.5 M35.7,4.3
	c-5.9,0-11.8,0-17.7,0c-0.8,0-1.5,0-2.3,0c0,0,0,0,0,0c-1.6,0-3.3,0.4-4.7,1C7.3,7,4.8,9.9,4.7,14.1c-0.1,6.1-0.1,12.3,0,18.4
	c0,2.3,0.9,4.4,2.5,6c1.9,2.5,4.5,3.6,7.6,3.7c1,0.1,1.2,0.3,1.2,1.3c0,4.2,0,8.3,0.1,12.5c0,0.5-0.2,1,0.3,1.5c2-1.8,4-3.5,5.9-5.3
	c3.3-3,6.6-6,9.9-9c0.8-0.8,1.7-1,2.8-1c0,0,0.1,0,0.1,0c2.2,0,4.3,0,6.5,0c2.5,0,4.9,0,7.4,0c6.7,0,11.2-4.5,11.2-11.1
	c0-5.2,0-10.4,0-15.6c0.1-6.7-4.6-11.2-11.1-11.3C44.6,4.3,40.1,4.3,35.7,4.3L35.7,4.3z"/>
<path class="st1" d="M64.6,17.3c1.8,1.3,2.9,3.2,3.5,5.7c0.3,1.2,0.2,2.4,0.2,3.7c0,0.3,0,0.6,0,1c0,1.2,0,2.4,0,3.5
	c0,3.4,0,6.9,0,10.3c0,4.9-2.8,8.1-7.7,8.8c-0.2,0-0.4,0.1-0.6,0.1c-0.5,0.1-0.9,0.2-1.3,0.2l0,0l0,0h0h-1h-0.1l-0.1,0
	c-1.8,0.3-1.8,2.1-1.8,2.8c0,2.6-0.1,5.3-0.2,7.9c0,1-0.1,2-0.1,3l0,0l0,0l0,0.6l0,0v0v0.6c-1.2-1.1-2.3-2.2-3.4-3.3
	c-3.4-3.4-6.7-6.9-9.7-10.1c-0.8-0.9-1.7-1.2-2.9-1.2l0,0c-0.4,0-0.9,0-1.3,0c-1.9,0-3.8,0-5.7,0l-0.9,0h-1.1l4.8-4.8h15.9v0l0.1,0
	c0.5,0,3.4,0,5.9-0.9c4.9-1.6,7.5-5.6,7.7-11.5c0.1-4.3,0.1-8.8,0.1-13C64.6,19.7,64.6,18.5,64.6,17.3 M63.4,15.2
	c0,6.3,0.1,12.5,0,18.7c-0.1,4.8-2,8.7-6.8,10.3C54.1,45,51.4,45,51,45c0,0-0.1,0-0.1,0H34.5l-7.2,7.3h1.8c0,0,0.1,0,0.2,0
	c0.1,0,0.2,0,0.3,0h1.8c2.2,0,4.3,0,6.5,0c0.4,0,0.9,0,1.3,0c0,0,0,0,0,0c0.8,0,1.4,0.2,2,0.9c3.2,3.4,6.4,6.8,9.7,10.1
	c1.8,1.8,3.7,3.5,5.5,5.3c0-1.1,0-2.3,0-3.5c0-0.2,0-0.4,0-0.6c0.1-3.6,0.3-7.3,0.4-10.9c0-0.9,0.1-1.5,0.8-1.6h1v0c0,0,0,0,0,0
	c0.7,0,1.4-0.2,2.1-0.3c5.4-0.9,8.7-4.6,8.7-10.1c0-4.6,0-9.3,0-13.9c0-1.7,0.1-3.3-0.3-5C68.6,19.4,66.8,16.7,63.4,15.2L63.4,15.2z
	"/>
<g>
	<path class="st0" d="M12.9,16.6h10.4v2.9h-6.2v2.4h5.3v2.8h-5.3v5.6h-4.2V16.6z"/>
	<path class="st0" d="M32.2,28h-4.8l-0.7,2.3h-4.3l5.1-13.6h4.6l5.1,13.6h-4.4L32.2,28z M31.3,25l-1.5-4.9L28.3,25H31.3z"/>
	<path class="st0" d="M50.4,28.3c0.5,0.4,0.9,0.6,1,0.7c0.2,0.1,0.6,0.3,1,0.5l-1.2,2.4c-0.6-0.3-1.2-0.6-1.7-1
		c-0.6-0.4-1-0.7-1.2-0.9c-0.9,0.4-2.1,0.6-3.5,0.6c-2.1,0-3.7-0.5-4.9-1.6c-1.4-1.3-2.1-3.1-2.1-5.4c0-2.2,0.6-4,1.9-5.2
		c1.2-1.2,3-1.9,5.2-1.9c2.3,0,4,0.6,5.2,1.8c1.2,1.2,1.8,3,1.8,5.2C51.9,25.4,51.4,27,50.4,28.3z M47.2,26.1
		c0.3-0.6,0.5-1.5,0.5-2.7c0-1.4-0.3-2.4-0.8-2.9c-0.5-0.6-1.2-0.9-2.1-0.9c-0.8,0-1.5,0.3-2,0.9C42.2,21.1,42,22,42,23.3
		c0,1.5,0.3,2.5,0.8,3.1c0.5,0.6,1.2,0.9,2.1,0.9c0.3,0,0.6,0,0.8-0.1c-0.4-0.3-0.9-0.7-1.7-1l0.7-1.5c0.4,0.1,0.7,0.2,0.9,0.3
		c0.2,0.1,0.6,0.4,1.2,0.8C46.8,25.9,47,26,47.2,26.1z"/>
</g>
</svg>
