<?xml version="1.0" encoding="utf-8"?>
<!-- Generator: Adobe Illustrator 21.1.0, SVG Export Plug-In . SVG Version: 6.00 Build 0)  -->
<svg version="1.1" id="Online" xmlns="http://www.w3.org/2000/svg" xmlns:xlink="http://www.w3.org/1999/xlink" x="0px" y="0px"
	 viewBox="0 0 74.2 70.7" style="enable-background:new 0 0 74.2 70.7;" xml:space="preserve">
<style type="text/css">
	.st0{fill:#798F9C;}
	.st1{fill:#E33031;}
</style>
<g>
	<path class="st0" d="M73.4,65.1H38.2c-3.6,0-6.5-2.9-6.5-6.5s2.9-6.5,6.5-6.5h35.1c0.5,0,0.8,0.4,0.8,0.8c0,0.5-0.4,0.8-0.8,0.8
		H38.2c-2.7,0-4.8,2.2-4.8,4.8c0,2.7,2.2,4.8,4.8,4.8h35.1c0.5,0,0.8,0.4,0.8,0.8C74.2,64.8,73.8,65.1,73.4,65.1z"/>
	<path class="st0" d="M72.2,59.5H41.6c-0.5,0-0.8-0.4-0.8-0.8s0.4-0.8,0.8-0.8h30.6c0.5,0,0.8,0.4,0.8,0.8S72.7,59.5,72.2,59.5z"/>
</g>
<g>
	<path class="st0" d="M65.4,53.8H43.9c-3,0-5.4-2.4-5.4-5.4s2.4-5.4,5.4-5.4h21.5c0.5,0,0.8,0.4,0.8,0.8s-0.4,0.8-0.8,0.8H43.9
		c-2,0-3.7,1.7-3.7,3.7c0,2,1.7,3.7,3.7,3.7h21.5c0.5,0,0.8,0.4,0.8,0.8C66.3,53.4,65.9,53.8,65.4,53.8z"/>
	<path class="st0" d="M64.3,49.3H46.2c-0.5,0-0.8-0.4-0.8-0.8c0-0.5,0.4-0.8,0.8-0.8h18.1c0.5,0,0.8,0.4,0.8,0.8
		C65.1,48.9,64.8,49.3,64.3,49.3z"/>
</g>
<path class="st0" d="M37.1,65.1H0.8c-0.5,0-0.8-0.4-0.8-0.8V0.8C0,0.4,0.4,0,0.8,0h47.6c0.5,0,0.8,0.4,0.8,0.8v43
	c0,0.5-0.4,0.8-0.8,0.8c-0.5,0-0.8-0.4-0.8-0.8V1.7H1.7v61.7h35.4c0.5,0,0.8,0.4,0.8,0.8C38,64.8,37.6,65.1,37.1,65.1z"/>
<path class="st1" d="M14.4,31.2H7.6c-0.5,0-0.8-0.4-0.8-0.8v-6.8c0-0.5,0.4-0.8,0.8-0.8h6.8c0.5,0,0.8,0.4,0.8,0.8v6.8
	C15.3,30.8,14.9,31.2,14.4,31.2z M8.5,29.5h5.1v-5.1H8.5V29.5z"/>
<path class="st1" d="M14.4,44.7H7.6c-0.5,0-0.8-0.4-0.8-0.8v-6.8c0-0.5,0.4-0.8,0.8-0.8h6.8c0.5,0,0.8,0.4,0.8,0.8v6.8
	C15.3,44.4,14.9,44.7,14.4,44.7z M8.5,43h5.1V38H8.5V43z"/>
<path class="st1" d="M14.4,58.3H7.6c-0.5,0-0.8-0.4-0.8-0.8v-6.8c0-0.5,0.4-0.8,0.8-0.8h6.8c0.5,0,0.8,0.4,0.8,0.8v6.8
	C15.3,58,14.9,58.3,14.4,58.3z M8.5,56.6h5.1v-5.1H8.5V56.6z"/>
<path class="st0" d="M33.7,13H15.6c-0.5,0-0.8-0.4-0.8-0.8s0.4-0.8,0.8-0.8h18.1c0.5,0,0.8,0.4,0.8,0.8S34.2,13,33.7,13z"/>
<path class="st0" d="M41.6,27.8H20.1c-0.5,0-0.8-0.4-0.8-0.8s0.4-0.8,0.8-0.8h21.5c0.5,0,0.8,0.4,0.8,0.8S42.1,27.8,41.6,27.8z"/>
<path class="st0" d="M38.2,41.4H20.1c-0.5,0-0.8-0.4-0.8-0.8s0.4-0.8,0.8-0.8h18.1c0.5,0,0.8,0.4,0.8,0.8S38.7,41.4,38.2,41.4z"/>
<path class="st0" d="M29.2,54.9h-9.1c-0.5,0-0.8-0.4-0.8-0.8s0.4-0.8,0.8-0.8h9.1c0.5,0,0.8,0.4,0.8,0.8S29.6,54.9,29.2,54.9z"/>
</svg>
