<?xml version="1.0" encoding="utf-8"?>
<!-- Generator: Adobe Illustrator 21.1.0, SVG Export Plug-In . SVG Version: 6.00 Build 0)  -->
<svg version="1.1" id="Layer_1" xmlns="http://www.w3.org/2000/svg" xmlns:xlink="http://www.w3.org/1999/xlink" x="0px" y="0px"
	 viewBox="0 0 54 54.2" style="enable-background:new 0 0 54 54.2;" xml:space="preserve">
<style type="text/css">
	.st0{fill:#79909C;}
	.st1{fill:#E43032;}
</style>
<path class="st0" d="M35.5,54.2c-8.5,0-14-6-14.2-6.2L5.5,32.2C1.2,27.1-0.6,22,0.2,17.1c1.2-7.1,7.4-11,8.1-11.4
	c1-0.6,2.3-0.4,3.1,0.5L21.2,18c0.7,0.9,0.8,2.1,0.1,3c-2.8,3.7-1.8,5.4-1.6,5.6l0.1,0.1c4.3,4.3,7.7,7.8,9.5,9.5
	c0.2,0.2,0.3,0.2,0.4,0.2c1,0,2.8-1.5,3.7-2.6c0.4-0.5,1.1-0.9,1.7-0.9c0.7,0,1.3,0.2,1.8,0.7l0,0l12.4,11.7
	c0.5,0.5,0.8,1.2,0.8,1.9c0,0.7-0.4,1.4-0.9,1.8c-2.3,1.9-4.8,3.3-7.2,4.2l-0.1,0l-4.1,1C36.9,54.2,36.2,54.2,35.5,54.2z M9.5,7.7
	c-0.2,0.1-5.9,3.6-6.9,9.7c-0.7,4.2,0.9,8.6,4.8,13.1l15.7,15.7c0.2,0.3,5.1,5.5,12.5,5.5c0.6,0,1.2,0,1.8-0.1l3.8-0.9
	c2.2-0.8,4.4-2.1,6.5-3.7L35.3,35.4c0,0,0,0,0,0c0,0-2.9,3.5-5.6,3.5c-0.8,0-1.5-0.3-2.1-0.9c-2.5-2.4-7.1-7-9.6-9.6l-0.2-0.2
	c-0.3-0.4-2.7-3.4,1.5-8.7L9.5,7.7z"/>
<path class="st1" d="M40.4,25.7c0,0.2,0,0.5,0,0.7l0,0.1l2.4,0.2l0-0.1c0-0.3,0-0.6,0-0.9c0-8-6.5-14.5-14.5-14.5v2.4
	C35,13.6,40.4,19,40.4,25.7z"/>
<path class="st1" d="M46.1,25.7c0,0.2,0,0.3,0,0.5l0,0.3l2.4,0.1l0-0.3c0-0.2,0-0.5,0-0.7c0-11.2-9.1-20.3-20.3-20.3v2.4
	C38.1,7.9,46.1,15.9,46.1,25.7z"/>
<path class="st1" d="M28.3,0v2.4c12.8,0,23.3,10.4,23.3,23.3c0,0.2,0,0.3,0,0.5c0,0.1,0,0.3,0,0.4l2.4,0.1l0-0.3c0-0.2,0-0.4,0-0.6
	C54,11.5,42.5,0,28.3,0z"/>
</svg>
