<?xml version="1.0" encoding="utf-8"?>
<!-- Generator: Adobe Illustrator 21.1.0, SVG Export Plug-In . SVG Version: 6.00 Build 0)  -->
<svg version="1.1" id="Online" xmlns="http://www.w3.org/2000/svg" xmlns:xlink="http://www.w3.org/1999/xlink" x="0px" y="0px"
	 viewBox="0 0 74.2 70.7" style="enable-background:new 0 0 74.2 70.7;" xml:space="preserve">
<style type="text/css">
	.st0{fill:#798F9C;}
	.st1{fill:#E33031;}
</style>
<path class="st0" d="M71.7,20.8l-5.1-3.3c-0.7-0.5-1.6-0.3-2.1,0.4c-0.5,0.7-0.3,1.6,0.4,2.1l5.4,3.5c0,0,0.1,0,0.1,0L37.3,47
	L4.6,23.6c0,0,0.1,0,0.1,0l6-3.7c0.7-0.4,0.9-1.4,0.5-2.1c-0.4-0.7-1.4-0.9-2.1-0.5l-5.7,3.5c-1.4,0.2-2.5,1.5-2.5,3v43.9
	c0,1.7,1.4,3,3,3h67.3c1.7,0,3-1.4,3-3V23.8C74.2,22.3,73.1,21,71.7,20.8z M44.1,44.1l27.1-19.2v41.6L44.1,44.1z M37.3,48.7
	C37.4,48.7,37.4,48.7,37.3,48.7C37.4,48.7,37.4,48.7,37.3,48.7c0.1,0,0.2,0,0.2,0c0,0,0,0,0,0c0.1,0,0.2-0.1,0.2-0.1l5-3.5
	l27.4,22.6H4.9L31.9,45l5,3.6C37,48.7,37.2,48.7,37.3,48.7z M3.9,24.9l26.8,19.2L3.9,66.5V24.9z"/>
<path class="st1" d="M21.6,13.8h30.3c0.6,0,1-0.4,1-1c0-0.5-0.4-1-1-1H21.6c-0.6,0-1,0.4-1,1C20.6,13.4,21,13.8,21.6,13.8z"/>
<path class="st1" d="M21.6,32h30.3c0.6,0,1-0.4,1-1c0-0.5-0.4-1-1-1H21.6c-0.6,0-1,0.4-1,1C20.6,31.5,21,32,21.6,32z"/>
<path class="st1" d="M21.6,22.9h30.3c0.6,0,1-0.4,1-1c0-0.5-0.4-1-1-1H21.6c-0.6,0-1,0.4-1,1C20.6,22.5,21,22.9,21.6,22.9z"/>
<path class="st1" d="M61.7,26.1l-3,2.1V4.1H16.3v24.2l-3-2.1V4.1c0-1.7,1.4-3,3-3h42.4c1.7,0,3,1.4,3,3V26.1z"/>
</svg>
