<?xml version="1.0" encoding="utf-8"?>
<!-- Generator: Adobe Illustrator 22.1.0, SVG Export Plug-In . SVG Version: 6.00 Build 0)  -->
<svg version="1.1" id="Online" xmlns="http://www.w3.org/2000/svg" xmlns:xlink="http://www.w3.org/1999/xlink" x="0px" y="0px"
	 viewBox="0 0 74.2 70.7" style="enable-background:new 0 0 74.2 70.7;" xml:space="preserve">
<style type="text/css">
	.st0{fill:#E33031;}
	.st1{fill:#798F9C;}
</style>
<rect x="57.7" y="43.6" class="st0" width="14" height="11.3"/>
<g>
	<path class="st1" d="M9,49.9c-3.2,0-5.8,2.6-5.8,5.8s2.6,5.8,5.8,5.8s5.8-2.6,5.8-5.8S12.1,49.9,9,49.9z M9,59.9
		c-2.3,0-4.2-1.9-4.2-4.2s1.9-4.2,4.2-4.2s4.2,1.9,4.2,4.2S11.3,59.9,9,59.9z"/>
	<path class="st1" d="M9,54.5c-0.7,0-1.2,0.5-1.2,1.2c0,0.7,0.5,1.2,1.2,1.2c0.7,0,1.2-0.5,1.2-1.2C10.1,55,9.6,54.5,9,54.5z"/>
	<path class="st1" d="M45.1,49.9c-3.2,0-5.7,2.6-5.7,5.8s2.6,5.8,5.7,5.8c3.2,0,5.8-2.6,5.8-5.8S48.3,49.9,45.1,49.9z M45.1,59.9
		c-2.3,0-4.2-1.9-4.2-4.2s1.9-4.2,4.2-4.2c2.3,0,4.2,1.9,4.2,4.2S47.5,59.9,45.1,59.9z"/>
	<path class="st1" d="M45.1,54.5c-0.7,0-1.2,0.5-1.2,1.2c0,0.7,0.5,1.2,1.2,1.2s1.2-0.5,1.2-1.2C46.3,55,45.8,54.5,45.1,54.5z"/>
	<path class="st1" d="M72.8,56.3l-0.1-1.5l-15.7,0V30.7h-4.9l0,7.1h-2.6V8.7h-5.6V42h-0.1h-0.7h-2L34.9,21
		c-1.3-4.4-5.5-7.6-10.1-7.6h-8.6c-1.4,0-2.6,1.2-2.6,2.6l-0.1,21.7l-8-1.8l-0.1,0c-2.7,0.1-3.4,4.4-3.5,4.9l0,13.2L3.3,52
		c1.5-2.3,4.2-3.5,6.9-3c2.8,0.5,5,2.8,5.5,5.5c0.2,1.2,0.1,2.4-0.4,3.6l-0.4,1L39.1,59l-0.4-1c-0.3-0.7-0.4-1.5-0.4-2.3
		c0-3.1,2.1-5.8,5.1-6.6c3.1-0.6,4.8,0.7,4.9,0.8l1.2,1v-4.3h2.7l0,13.2L72.8,56.3z M16.2,15h8.6c4,0,7.5,2.7,8.7,6.5l6.2,21.2
		c-0.1,0.3-0.3,0.6-0.5,0.9c0,0,0,0,0,0l-4-2.9l1.8-2.3c0.3-0.3,0.2-0.8-0.1-1.1c-0.3-0.3-0.8-0.2-1.1,0.1l-4.6,5.9
		c-0.3,0.3-0.2,0.8,0.1,1.1c0.1,0.1,0.3,0.2,0.5,0.2c0.2,0,0.4-0.1,0.6-0.3l1.9-2.4l3.9,2.8c-1.2,1-2.7,1.6-4.4,1.6
		c-1.9,0-3.8-0.1-4.2-0.1v-1.7c0-2.2-1.8-3.9-3.9-3.9h-3v-7.2c0-1.2-1-2.2-2.2-2.2c-1.2,0-2.2,1-2.2,2.2v7.6
		c-1.6-1.1-2.8-2.1-3.2-2.5l0.1-22.3C15.1,15.5,15.6,15,16.2,15z M25.6,42c1.3,0,2.4,1.1,2.4,2.4v1.4c-2.9-0.8-5.9-2.4-8.3-4v-8.6
		c0-0.4,0.3-0.7,0.7-0.7c0.4,0,0.7,0.3,0.7,0.7V42H25.6z M36.8,55.7c0,0.6,0.1,1.2,0.2,1.8L17,57.6c0.3-1.1,0.3-2.2,0.1-3.3
		c-0.5-3.4-3.3-6.2-6.7-6.8c-0.5-0.1-1-0.1-1.4-0.1c-2.1,0-4.1,0.8-5.6,2.2v-4.1h4.3v-4.6H3.4c0.2-1.2,0.9-3.2,1.9-3.3l8.5,1.9
		c1.2,1,8.4,7.2,15.4,8.3c0.1,0,2.3,0.2,4.5,0.1c2.7-0.1,5.1-1.3,6.6-3.4c0.2-0.3,0.4-0.7,0.6-1h1.4l0.1,4.4
		C39.1,48.9,36.8,52.1,36.8,55.7z M3.5,43.9v-1.6h2.7v1.6H3.5z M48,48c-0.9-0.4-2.3-0.7-4.1-0.5l-0.1-4.1h1.6V10.2H48V48z
		 M55.5,32.2v24.1l8.1,0L53.7,58l-0.1-25.8H55.5z M49.5,45.1v-5.8h2.6l0,5.8H49.5z"/>
</g>
</svg>
