<?xml version="1.0" encoding="utf-8"?>
<!-- Generator: Adobe Illustrator 21.1.0, SVG Export Plug-In . SVG Version: 6.00 Build 0)  -->
<svg version="1.1" id="Online" xmlns="http://www.w3.org/2000/svg" xmlns:xlink="http://www.w3.org/1999/xlink" x="0px" y="0px"
	 viewBox="0 0 74.2 70.7" style="enable-background:new 0 0 74.2 70.7;" xml:space="preserve">
<style type="text/css">
	.st0{fill:#E33031;}
	.st1{fill:#798F9C;}
</style>
<path class="st0" d="M15.7,17.9h23c0.5,0,0.8-0.3,0.8-0.8c0-0.4-0.3-0.8-0.8-0.8h-23c-0.5,0-0.8,0.3-0.8,0.8
	C15,17.6,15.3,17.9,15.7,17.9z"/>
<path class="st0" d="M15.7,31.7h23c0.5,0,0.8-0.3,0.8-0.8c0-0.4-0.3-0.8-0.8-0.8h-23c-0.5,0-0.8,0.3-0.8,0.8
	C15,31.3,15.3,31.7,15.7,31.7z"/>
<path class="st0" d="M15.7,24.8h23c0.5,0,0.8-0.3,0.8-0.8c0-0.4-0.3-0.8-0.8-0.8h-23c-0.5,0-0.8,0.3-0.8,0.8S15.3,24.8,15.7,24.8z"
	/>
<path class="st0" d="M46.2,27.2l-2.3,1.6V10.5H11.7v18.4l-2.3-1.6V10.5c0-1.3,1.1-2.3,2.3-2.3h32.2c1.3,0,2.3,1.1,2.3,2.3V27.2z"/>
<path class="st0" d="M74,40.8L62.4,29.2c-0.2-0.2-0.6-0.3-0.8-0.1c-0.3,0.1-0.5,0.4-0.4,0.7v5.1H45.5c-0.4,0-0.8,0.4-0.8,0.8l0,11.5
	c0,0.1,0.1,0.4,0.2,0.5s0.4,0.2,0.5,0.2H61v5.1c0,0.3,0.1,0.6,0.4,0.7s0.6,0.1,0.8-0.1L74,41.8C74.3,41.6,74.2,41.1,74,40.8z"/>
<path class="st1" d="M55.7,25.5c0-1.1-0.9-1.8-1.9-2.3l-3.9-2.5c-0.5-0.4-1.2-0.2-1.6,0.3c-0.4,0.5-0.2,1.2,0.3,1.6l4.1,2.7l0,0
	L27.6,43.1L2.9,25.3l4.6-2.8c0.5-0.3,0.7-1.1,0.4-1.6c-0.3-0.5-1.1-0.7-1.6-0.4l-4.3,2.7C1,23.7,0,24.3,0,25.5v33.3
	c0,1.3,1.1,2.3,2.3,2.3h51.1c1.3,0,2.3-1.1,2.3-2.3v-8.5h0c0-0.6-0.5-1.1-1.1-1.1c-0.6,0-1.1,0.5-1.1,1.1h0v0c0,0,0,0,0,0s0,0,0,0
	v7.6l-20.6-17l20.6-14.6v6.4h0c0,0,0,0,0,0c0,0.6,0.5,1.1,1.1,1.1c0.6,0,1.1-0.5,1.1-1.1c0,0,0,0,0,0h0V25.5z M2.3,26.3l20.4,14.6
	l-20.4,17V26.3z M52.6,58.8H3l20.5-17.2l3.8,2.7c0.1,0.1,0.2,0.1,0.3,0.1c0,0,0.1,0,0.1,0c0.1,0,0.1,0,0.1,0c0.1,0,0.2-0.1,0.2-0.1
	l3.8-2.7L52.6,58.8z"/>
</svg>
