<?xml version="1.0" encoding="utf-8"?>
<!-- Generator: Adobe Illustrator 21.1.0, SVG Export Plug-In . SVG Version: 6.00 Build 0)  -->
<svg version="1.1" id="Online" xmlns="http://www.w3.org/2000/svg" xmlns:xlink="http://www.w3.org/1999/xlink" x="0px" y="0px"
	 viewBox="0 0 74.2 70.7" style="enable-background:new 0 0 74.2 70.7;" xml:space="preserve">
<style type="text/css">
	.st0{fill:none;}
	.st1{fill:#798F9C;}
	.st2{fill:#E33031;}
</style>
<polygon class="st0" points="37.5,47.5 14,31.7 13.1,31.7 13.1,59.8 61.9,59.8 61.9,31.7 60.9,31.7 "/>
<path class="st1" d="M63.8,27.8h-5.5v-0.2L37.5,42.4L16.6,27.8h-5.5c0,0,0,0,0,0c-1.1,0-2,0.9-2,2v32c0,1.1,0.9,2,2,2h52.7
	c1.1,0,2-0.9,2-2v-32C65.8,28.7,64.9,27.8,63.8,27.8z M61.9,59.8H13.1V31.7h1l23.4,15.8l23.4-15.8h1V59.8z"/>
<path class="st2" d="M58.3,27.6V15.4l-8.8-8.7H16.6v21.1l20.9,14.6L58.3,27.6z M25.5,16.4h10.9c0.4,0,0.8,0.4,0.8,0.8
	c0,0.4-0.4,0.8-0.8,0.8H25.5c-0.4,0-0.8-0.4-0.8-0.8C24.7,16.8,25.1,16.4,25.5,16.4z M25.5,22.8h23.9c0.4,0,0.8,0.4,0.8,0.8
	c0,0.4-0.4,0.8-0.8,0.8H25.5c-0.4,0-0.8-0.4-0.8-0.8C24.7,23.1,25.1,22.8,25.5,22.8z M24.7,30.1c0-0.4,0.4-0.8,0.8-0.8h23.9
	c0.4,0,0.8,0.4,0.8,0.8c0,0.4-0.4,0.8-0.8,0.8H25.5C25.1,30.9,24.7,30.5,24.7,30.1z"/>
</svg>
