<?xml version="1.0" encoding="utf-8"?>
<!-- Generator: Adobe Illustrator 22.1.0, SVG Export Plug-In . SVG Version: 6.00 Build 0)  -->
<svg version="1.1" id="Online" xmlns="http://www.w3.org/2000/svg" xmlns:xlink="http://www.w3.org/1999/xlink" x="0px" y="0px"
	 viewBox="0 0 74.2 70.7" style="enable-background:new 0 0 74.2 70.7;" xml:space="preserve">
<style type="text/css">
	.st0{fill:#798F9C;}
	.st1{fill:#E33031;}
</style>
<g>
	<path class="st0" d="M46.8,37.3c-6.7,0-12.2,5.5-12.2,12.2s5.5,12.2,12.2,12.2S59,56.3,59,49.5S53.5,37.3,46.8,37.3z M46.8,60.2
		c-5.9,0-10.7-4.8-10.7-10.7s4.8-10.7,10.7-10.7s10.7,4.8,10.7,10.7S52.7,60.2,46.8,60.2z"/>
	<path class="st0" d="M66.5,52.1l-2.1-0.4c0.1-0.7,0.2-1.5,0.2-2.2c0-0.8-0.1-1.7-0.2-2.5l2.1-0.4c0.4-0.1,0.7-0.5,0.6-0.9
		c-0.1-0.4-0.5-0.7-0.9-0.6l-2.1,0.4c-0.4-1.5-0.9-3-1.6-4.4l1.9-1.1c0.4-0.2,0.5-0.7,0.3-1c-0.2-0.4-0.7-0.5-1-0.3l-1.9,1.1
		c-0.8-1.3-1.9-2.5-3-3.6l1.4-1.7c0.3-0.3,0.2-0.8-0.1-1.1c-0.3-0.3-0.8-0.2-1.1,0.1l-1.4,1.7c-1.2-0.9-2.6-1.7-4-2.3l0.8-2.1
		c0.1-0.4-0.1-0.8-0.4-1c-0.4-0.1-0.8,0.1-1,0.4l-0.8,2.1c-1.5-0.5-3-0.7-4.6-0.8v-2.2c0-0.4-0.3-0.8-0.8-0.8S46,29.1,46,29.5v2.2
		c-1.6,0.1-3.1,0.3-4.6,0.8l-0.8-2.1c-0.1-0.4-0.6-0.6-1-0.4c-0.4,0.1-0.6,0.6-0.4,1l0.8,2.1c-1.5,0.6-2.8,1.4-4,2.3l-1.4-1.7
		c-0.3-0.3-0.7-0.4-1.1-0.1c-0.3,0.3-0.4,0.7-0.1,1.1l1.4,1.7c-1.2,1-2.2,2.2-3,3.6l-1.9-1.1c-0.4-0.2-0.8-0.1-1,0.3
		c-0.2,0.4-0.1,0.8,0.3,1l1.9,1.1c-0.7,1.4-1.3,2.8-1.6,4.4l-2.1-0.4c-0.4-0.1-0.8,0.2-0.9,0.6c-0.1,0.4,0.2,0.8,0.6,0.9l2.1,0.4
		c-0.1,0.8-0.2,1.6-0.2,2.5c0,0.8,0.1,1.5,0.2,2.2l-2.1,0.4c-0.4,0.1-0.7,0.5-0.6,0.9c0.1,0.4,0.4,0.6,0.7,0.6c0,0,0.1,0,0.1,0
		l2.1-0.4c0.3,1.6,0.9,3,1.6,4.4l-1.8,1c-0.4,0.2-0.5,0.7-0.3,1c0.1,0.2,0.4,0.4,0.7,0.4c0.1,0,0.3,0,0.4-0.1l1.8-1
		c0.8,1.3,1.9,2.6,3,3.6l-1.3,1.6c-0.3,0.3-0.2,0.8,0.1,1.1c0.1,0.1,0.3,0.2,0.5,0.2c0.2,0,0.4-0.1,0.6-0.3l1.3-1.6
		c1.2,1,2.6,1.8,4.1,2.4l-0.7,1.9c-0.1,0.4,0.1,0.8,0.4,1c0.1,0,0.2,0,0.3,0c0.3,0,0.6-0.2,0.7-0.5l0.7-1.9c1.5,0.5,3,0.7,4.7,0.8v2
		c0,0.4,0.3,0.8,0.8,0.8s0.8-0.3,0.8-0.8v-2c1.6-0.1,3.2-0.3,4.7-0.8l0.7,1.9c0.1,0.3,0.4,0.5,0.7,0.5c0.1,0,0.2,0,0.3,0
		c0.4-0.1,0.6-0.6,0.4-1l-0.7-1.9c1.5-0.6,2.8-1.4,4.1-2.4l1.3,1.6c0.1,0.2,0.4,0.3,0.6,0.3c0.2,0,0.3-0.1,0.5-0.2
		c0.3-0.3,0.4-0.7,0.1-1.1l-1.3-1.6c1.2-1.1,2.2-2.3,3-3.6l1.8,1c0.1,0.1,0.2,0.1,0.4,0.1c0.3,0,0.5-0.1,0.7-0.4
		c0.2-0.4,0.1-0.8-0.3-1l-1.8-1c0.7-1.4,1.3-2.9,1.6-4.4l2.1,0.4c0,0,0.1,0,0.1,0c0.4,0,0.7-0.3,0.7-0.6
		C67.2,52.6,66.9,52.2,66.5,52.1z M46.8,65.8c-9,0-16.3-7.3-16.3-16.3c0-9,7.3-16.3,16.3-16.3c9,0,16.3,7.3,16.3,16.3
		C63.1,58.5,55.8,65.8,46.8,65.8z"/>
</g>
<g>
	<path class="st0" d="M18.6,25c-3.7,0-6.6,3-6.6,6.6s3,6.6,6.6,6.6s6.6-3,6.6-6.6S22.2,25,18.6,25z M18.6,36.8
		c-2.8,0-5.1-2.3-5.1-5.1s2.3-5.1,5.1-5.1s5.1,2.3,5.1,5.1S21.4,36.8,18.6,36.8z"/>
	<path class="st0" d="M31.4,35l-1.9-0.6c0.2-0.9,0.4-1.8,0.4-2.7s-0.1-1.9-0.4-2.7l1.9-0.6c0.4-0.1,0.6-0.6,0.5-0.9
		c-0.1-0.4-0.5-0.6-0.9-0.5L29,27.5c-0.7-1.7-1.8-3.3-3.2-4.4l1.2-1.6c0.2-0.3,0.2-0.8-0.2-1c-0.3-0.2-0.8-0.2-1,0.2l-1.2,1.6
		c-1.5-1-3.3-1.6-5.2-1.7v-2c0-0.4-0.3-0.8-0.8-0.8s-0.8,0.3-0.8,0.8v2c-1.9,0.1-3.7,0.7-5.2,1.7l-1.2-1.6c-0.2-0.3-0.7-0.4-1-0.2
		c-0.3,0.2-0.4,0.7-0.2,1l1.2,1.6c-1.4,1.2-2.5,2.7-3.2,4.4l-1.9-0.6c-0.4-0.1-0.8,0.1-0.9,0.5c-0.1,0.4,0.1,0.8,0.5,0.9l1.9,0.6
		c-0.2,0.9-0.4,1.8-0.4,2.7c0,0.9,0.1,1.9,0.4,2.7L5.8,35c-0.4,0.1-0.6,0.6-0.5,0.9c0.1,0.3,0.4,0.5,0.7,0.5c0.1,0,0.2,0,0.2,0
		l1.9-0.6c0.7,1.7,1.8,3.3,3.2,4.4l-1.2,1.6c-0.2,0.3-0.2,0.8,0.2,1c0.1,0.1,0.3,0.1,0.4,0.1c0.2,0,0.5-0.1,0.6-0.3l1.2-1.6
		c1.5,1,3.3,1.6,5.2,1.7v2c0,0.4,0.3,0.8,0.8,0.8s0.8-0.3,0.8-0.8v-2c1.9-0.1,3.7-0.7,5.2-1.7l1.2,1.6c0.1,0.2,0.4,0.3,0.6,0.3
		c0.2,0,0.3,0,0.4-0.1c0.3-0.2,0.4-0.7,0.2-1l-1.2-1.6c1.4-1.2,2.5-2.7,3.2-4.4l1.9,0.6c0.1,0,0.2,0,0.2,0c0.3,0,0.6-0.2,0.7-0.5
		C32,35.6,31.8,35.2,31.4,35z M18.6,41.4c-5.4,0-9.7-4.4-9.7-9.7c0-5.4,4.4-9.7,9.7-9.7s9.7,4.4,9.7,9.7
		C28.3,37,23.9,41.4,18.6,41.4z"/>
</g>
<g>
	<path class="st1" d="M43.1,8.8c-3.7,0-6.6,3-6.6,6.6s3,6.6,6.6,6.6s6.6-3,6.6-6.6S46.7,8.8,43.1,8.8z M43.1,20.6
		c-2.8,0-5.1-2.3-5.1-5.1s2.3-5.1,5.1-5.1s5.1,2.3,5.1,5.1S45.9,20.6,43.1,20.6z"/>
	<path class="st1" d="M55.9,18.8l-1.9-0.6c0.2-0.9,0.4-1.8,0.4-2.7c0-0.9-0.1-1.9-0.4-2.7l1.9-0.6c0.4-0.1,0.6-0.6,0.5-0.9
		c-0.1-0.4-0.5-0.6-0.9-0.5l-1.9,0.6c-0.7-1.7-1.8-3.3-3.2-4.4l1.2-1.6c0.2-0.3,0.2-0.8-0.2-1c-0.3-0.2-0.8-0.2-1,0.2L49,6
		c-1.5-1-3.3-1.6-5.2-1.7v-2c0-0.4-0.3-0.8-0.8-0.8s-0.8,0.3-0.8,0.8v2C40.4,4.4,38.6,5,37.1,6l-1.2-1.6c-0.2-0.3-0.7-0.4-1-0.2
		c-0.3,0.2-0.4,0.7-0.2,1l1.2,1.6c-1.4,1.2-2.5,2.7-3.2,4.4l-1.9-0.6c-0.4-0.1-0.8,0.1-0.9,0.5c-0.1,0.4,0.1,0.8,0.5,0.9l1.9,0.6
		c-0.2,0.9-0.4,1.8-0.4,2.7c0,0.9,0.1,1.9,0.4,2.7l-1.9,0.6c-0.4,0.1-0.6,0.6-0.5,0.9c0.1,0.3,0.4,0.5,0.7,0.5c0.1,0,0.2,0,0.2,0
		l1.9-0.6c0.7,1.7,1.8,3.3,3.2,4.4l-1.2,1.6c-0.2,0.3-0.2,0.8,0.2,1c0.1,0.1,0.3,0.1,0.4,0.1c0.2,0,0.5-0.1,0.6-0.3l1.2-1.6
		c1.5,1,3.3,1.6,5.2,1.7v2c0,0.4,0.3,0.8,0.8,0.8s0.8-0.3,0.8-0.8v-2c1.9-0.1,3.7-0.7,5.2-1.7l1.2,1.6c0.1,0.2,0.4,0.3,0.6,0.3
		c0.2,0,0.3,0,0.4-0.1c0.3-0.2,0.4-0.7,0.2-1l-1.2-1.6c1.4-1.2,2.5-2.7,3.2-4.4l1.9,0.6c0.1,0,0.2,0,0.2,0c0.3,0,0.6-0.2,0.7-0.5
		C56.5,19.4,56.3,18.9,55.9,18.8z M43.1,25.2c-5.4,0-9.7-4.4-9.7-9.7c0-5.4,4.4-9.7,9.7-9.7s9.7,4.4,9.7,9.7
		C52.8,20.8,48.4,25.2,43.1,25.2z"/>
</g>
</svg>
