<?xml version="1.0" encoding="utf-8"?>
<!-- Generator: Adobe Illustrator 21.1.0, SVG Export Plug-In . SVG Version: 6.00 Build 0)  -->
<svg version="1.1" id="Online" xmlns="http://www.w3.org/2000/svg" xmlns:xlink="http://www.w3.org/1999/xlink" x="0px" y="0px"
	 viewBox="0 0 74.2 70.7" style="enable-background:new 0 0 74.2 70.7;" xml:space="preserve">
<style type="text/css">
	.st0{fill:#798F9C;}
	.st1{fill:#E33031;}
</style>
<g>
	<path class="st0" d="M28.6,46.3c-0.2,0-0.3-0.1-0.5-0.2L8.7,30.7c-0.2-0.1-0.3-0.4-0.3-0.6c0-0.2,0.1-0.5,0.4-0.6L46.3,6.5
		c0.3-0.2,0.6-0.1,0.8,0.1l19.4,15.5c0.2,0.1,0.3,0.4,0.3,0.6c0,0.2-0.1,0.5-0.4,0.6L29,46.2C28.9,46.3,28.7,46.3,28.6,46.3z
		 M10.4,30.2l18.2,14.5l36.2-22.1L46.7,8L10.4,30.2z"/>
	<path class="st0" d="M28.6,52.2c-0.2,0-0.3-0.1-0.5-0.2L8.7,36.6c-0.2-0.1-0.3-0.4-0.3-0.6c0-0.2,0.1-0.5,0.4-0.6l3.9-2.4
		c0.3-0.2,0.8-0.1,1,0.2c0.2,0.3,0.1,0.8-0.2,1l-3,1.8l18.2,14.5l37.1-22.7c0.3-0.2,0.8-0.1,1,0.2c0.2,0.3,0.1,0.8-0.2,1L29,52.1
		C28.9,52.2,28.7,52.2,28.6,52.2z"/>
	<path class="st0" d="M28.6,58.1c-0.2,0-0.3-0.1-0.5-0.2L8.7,42.5c-0.2-0.1-0.3-0.4-0.3-0.6c0-0.2,0.1-0.5,0.4-0.6l3.9-2.4
		c0.3-0.2,0.8-0.1,1,0.2c0.2,0.3,0.1,0.8-0.2,1l-3,1.8l18.2,14.5l37.1-22.7c0.3-0.2,0.8-0.1,1,0.2c0.2,0.3,0.1,0.8-0.2,1L29,58
		C28.9,58.1,28.7,58.1,28.6,58.1z"/>
	<path class="st0" d="M28.6,64.1c-0.2,0-0.3-0.1-0.5-0.2L8.7,48.4c-0.2-0.1-0.3-0.4-0.3-0.6c0-0.2,0.1-0.5,0.4-0.6l3.9-2.4
		c0.3-0.2,0.8-0.1,1,0.2c0.2,0.3,0.1,0.8-0.2,1l-3,1.8l18.2,14.5l37.1-22.7c0.3-0.2,0.8-0.1,1,0.2c0.2,0.3,0.1,0.8-0.2,1L29,63.9
		C28.9,64,28.7,64.1,28.6,64.1z"/>
	<path class="st0" d="M39.2,34.4c-3.1,0-6.3-1-8.6-2.8c-3-2.4-3.9-5.7-2.3-8.5c0.1-0.2,0.3-0.3,0.5-0.4c0.2,0,0.4,0,0.6,0.1l12.6,10
		c0.2,0.2,0.3,0.5,0.3,0.8c-0.1,0.3-0.3,0.5-0.6,0.5C40.9,34.3,40,34.4,39.2,34.4z M29.2,24.6c-0.7,1.9,0.2,4.1,2.3,5.8l0,0
		c2.1,1.7,5.2,2.6,8.1,2.5L29.2,24.6z"/>
	<path class="st0" d="M47.2,30.8c-0.2,0-0.3-0.1-0.5-0.2L34.1,20.5c-0.2-0.2-0.3-0.5-0.3-0.8c0.1-0.3,0.3-0.5,0.6-0.5
		c3.9-0.8,8.3,0.2,11.3,2.6c0,0,0,0,0,0c3.1,2.5,4,5.9,2.2,8.7c-0.1,0.2-0.3,0.3-0.5,0.3C47.3,30.8,47.3,30.8,47.2,30.8z M36.4,20.4
		L47,28.9c0.8-2-0.1-4.2-2.2-6v0C42.6,21.2,39.4,20.2,36.4,20.4z"/>
	<polygon class="st1" points="25.1,20.3 29,23.4 41.5,33.4 44.5,35.8 50.2,32.4 47.2,30 34.5,19.9 30.8,16.9 	"/>
	<path class="st1" d="M44.5,36.6c-0.2,0-0.3-0.1-0.5-0.2L24.6,20.9c-0.2-0.2-0.3-0.4-0.3-0.6c0-0.2,0.1-0.5,0.4-0.6l5.7-3.5
		c0.3-0.2,0.6-0.1,0.8,0.1l19.4,15.5c0.2,0.2,0.3,0.4,0.3,0.6c0,0.2-0.1,0.5-0.4,0.6l-5.7,3.5C44.8,36.6,44.7,36.6,44.5,36.6z
		 M26.4,20.4L44.6,35l4.3-2.6L30.7,17.8L26.4,20.4z"/>
	<polygon class="st1" points="44.5,35.8 44.5,53.6 50.2,50.1 50.2,32.4 	"/>
	<path class="st1" d="M44.5,54.3c-0.1,0-0.2,0-0.4-0.1c-0.2-0.1-0.4-0.4-0.4-0.6V35.8c0-0.3,0.1-0.5,0.4-0.6l5.7-3.5
		c0.2-0.1,0.5-0.1,0.7,0c0.2,0.1,0.4,0.4,0.4,0.6v17.7c0,0.3-0.1,0.5-0.4,0.6l-5.7,3.5C44.8,54.3,44.7,54.3,44.5,54.3z M45.3,36.3
		v16l4.2-2.6v-16L45.3,36.3z"/>
</g>
</svg>
