<?xml version="1.0" encoding="utf-8"?>
<!-- Generator: Adobe Illustrator 22.1.0, SVG Export Plug-In . SVG Version: 6.00 Build 0)  -->
<svg version="1.1" id="Online" xmlns="http://www.w3.org/2000/svg" xmlns:xlink="http://www.w3.org/1999/xlink" x="0px" y="0px"
	 viewBox="0 0 74.2 70.7" style="enable-background:new 0 0 74.2 70.7;" xml:space="preserve">
<style type="text/css">
	.st0{fill:#798F9C;}
	.st1{fill:#E33031;}
	.st2{fill:none;stroke:#798F9C;stroke-width:1.5;stroke-linecap:round;stroke-miterlimit:10;}
</style>
<path class="st0" d="M72.2,31.8L49,8.6l-6.1,6.1V8h-9v14.5H15.1L1.7,35.8c-0.3,0.3-0.3,0.8,0,1.1c0.1,0.1,0.3,0.2,0.5,0.2
	s0.4-0.1,0.5-0.2L15.7,24h18l-7.8,7.8c-0.3,0.3-0.3,0.8,0,1.1s0.8,0.3,1.1,0L49,10.8l22.1,22.1c0.1,0.1,0.3,0.2,0.5,0.2
	s0.4-0.1,0.5-0.2C72.5,32.6,72.5,32.1,72.2,31.8z M41.4,9.5v6.7c0,0,0,0,0,0l-6,6V9.5H41.4z"/>
<rect x="46.2" y="50.6" class="st1" width="5.6" height="10.8"/>
<g>
	<path class="st0" d="M32.3,29.4V35H6.9v28h25.3h1.5h32V29.4H32.3z M32.3,61.4H8.4v-25h23.8V61.4z M64.3,61.4H33.8V35v-4h30.5V61.4z
		"/>
	<path class="st0" d="M28.5,40.2H10.9v10.2h17.7V40.2z M27,48.9H12.4v-7.2H27V48.9z"/>
	<path class="st0" d="M46.7,33.7h-9.8v10.2h9.8V33.7z M45.2,42.4h-6.8v-7.2h6.8V42.4z"/>
	<path class="st0" d="M61.3,33.7h-9.8v10.2h9.8V33.7z M59.8,42.4H53v-7.2h6.8V42.4z"/>
</g>
<path class="st2" d="M28.9,30"/>
</svg>
