<?xml version="1.0" encoding="utf-8"?>
<!-- Generator: Adobe Illustrator 21.1.0, SVG Export Plug-In . SVG Version: 6.00 Build 0)  -->
<svg version="1.1" id="Online" xmlns="http://www.w3.org/2000/svg" xmlns:xlink="http://www.w3.org/1999/xlink" x="0px" y="0px"
	 viewBox="0 0 74.2 70.7" style="enable-background:new 0 0 74.2 70.7;" xml:space="preserve">
<style type="text/css">
	.st0{fill:#798F9C;}
	.st1{fill:#E33031;}
</style>
<g>
	<path class="st0" d="M25.1,46C25.1,46,25.1,46,25.1,46C25,46,25,46,25,46l0,0c-0.6-0.1-2.1-1.1-2.7-1.6c-0.9-0.8-1.4-1.7-1.4-2.5
		V41c0-0.4,0.3-0.6,0.6-0.6c0.4,0,0.6,0.3,0.6,0.6v0.9c0,1.1,1.9,2.3,2.9,2.8c1-0.5,2.9-1.7,2.9-2.8V41c0-0.4,0.3-0.6,0.6-0.6
		c0.4,0,0.6,0.3,0.6,0.6v0.9c0,0.9-0.5,1.7-1.4,2.5C27.2,44.9,25.8,45.9,25.1,46L25.1,46C25.1,46,25.1,46,25.1,46z"/>
	<path class="st0" d="M43.8,65.5c-0.3,0-0.6-0.2-0.6-0.6l-1.8-14.8c-1-6.6-4.5-7.9-11.6-9.1c-0.4-0.1-0.6-0.4-0.5-0.7
		c0.1-0.4,0.4-0.6,0.7-0.5c6.8,1.2,11.4,2.5,12.6,10.2l1.8,14.8C44.5,65.1,44.3,65.5,43.8,65.5C43.9,65.5,43.9,65.5,43.8,65.5z"/>
	<path class="st0" d="M5.7,65.5C5.7,65.5,5.7,65.5,5.7,65.5c-0.4,0-0.7-0.4-0.6-0.7L6.9,50c1.7-8.5,5.9-9.1,12.9-10.3
		c0.4-0.1,0.7,0.2,0.7,0.5c0.1,0.4-0.2,0.7-0.5,0.7c-6.9,1.1-10.4,1.7-11.9,9.2L6.4,64.9C6.3,65.3,6,65.5,5.7,65.5z"/>
	<g>
		<path class="st0" d="M25.1,42.2L25.1,42.2c-5.5,0-12.1-5.8-12.1-12.5l-0.3-9.2c0-0.1,0-0.2,0.1-0.3l1.7-3.7
			c0.1-0.1,0.2-0.3,0.3-0.3l0.3-0.1c0.1-0.1,0.3-0.1,0.4,0c0.3,0.1,0.6,0.1,0.8,0.1c1,0,2.4-0.8,3.5-2c0.1-0.1,0.3-0.2,0.5-0.2
			c0.2,0,0.4,0.1,0.5,0.3c1.4,1.8,4.1,2.1,4.1,2.1l0.3,0c0.4,0,0.7,0.1,1.1,0.1c0.1,0,0.1,0,0.2,0l0.2,0c0.2,0,0.4,0,0.6,0
			c0.8,0,1.6-0.1,2.4-0.2l4.5-1.2c0.3-0.1,0.6,0.1,0.8,0.3l2.4,5.2c0,0.1,0.1,0.2,0.1,0.3l-0.3,9C37.1,36.4,30.5,42.2,25.1,42.2
			C25.1,42.2,25.1,42.2,25.1,42.2z M14,20.6l0.3,9.1c0,5.9,6,11.2,10.7,11.3l0.1,0.6l0-0.6c4.7,0,10.7-5.3,10.7-11.2l0.3-8.8
			L34,16.3l-4,1.1c-0.9,0.2-1.8,0.2-2.7,0.2c-0.2,0-0.4,0-0.5,0l-0.2,0c-0.1,0-0.2,0-0.3,0c-0.4,0-0.7-0.1-1.1-0.1l-0.3,0
			c0,0,0,0,0,0c0,0-2.7-0.2-4.6-2c-1.1,1-2.5,1.9-4,1.9c-0.3,0-0.6,0-0.8-0.1L14,20.6z"/>
		<path class="st0" d="M36.9,21.6c-0.2,0-0.5-0.1-0.6-0.4l-2.4-5c-2.3,1-4.5,1.5-6.7,1.5c-0.8,0-1.5-0.1-2.1-0.1l-0.3,0l0,0
			c0,0-2.8-0.2-4.6-2.1c-1.1-1.1-1.6-2.6-1.5-4.4c0.2-3.2,2.4-5.4,5.8-5.4c0.3,0,0.7,0,1,0c5.4,0,10.9,0.6,12.4,8.3
			c0,0.1,0,0.1,0,0.2c0,0.4-0.2,4.3-0.3,6.9c0,0.3-0.2,0.6-0.5,0.6C37,21.6,37,21.6,36.9,21.6z M34.9,15.3l1.4,3
			c0.1-2.4,0.1-3.6,0.2-4.2l0,0c-1.2-6.1-4.8-7.2-11.1-7.2c-0.3,0-0.6,0-1,0c-2.6,0-4.4,1.6-4.5,4.2c-0.2,4.7,4.7,5.1,4.9,5.1l0.4,0
			c0.6,0.1,1.2,0.1,2,0.1c2.2,0,4.4-0.5,6.7-1.6c0.3-0.1,0.7,0,0.8,0.3C34.9,15.1,34.9,15.2,34.9,15.3z"/>
		<path class="st0" d="M13.2,21.4c0,0-0.1,0-0.1,0c-0.3,0-0.5-0.3-0.5-0.6c-0.1-0.6-0.5-5.8-0.5-6.3l0-0.3c0-1.8,0-4.5,3.7-6.1
			c2-0.9,3.5-1,4.7-0.4c0.2,0.1,0.3,0.2,0.3,0.4c0,0.2,0,0.4-0.1,0.5c-0.4,0.6-0.6,1.5-0.6,2.8c0,1,0.3,2,0.8,2.7
			c0.2,0.2,0.2,0.6,0,0.8c-1.1,1.2-2.8,2.5-4.5,2.5c-0.3,0-0.6,0-0.9-0.1L13.8,21C13.7,21.2,13.5,21.4,13.2,21.4z M18.7,8.5
			c-0.7,0-1.5,0.2-2.5,0.7c-2.9,1.3-2.9,3.2-2.9,4.9l0,0.4c0,0.2,0.1,2,0.3,3.8l0.9-1.9c0.1-0.3,0.5-0.4,0.8-0.4
			c0.3,0.1,0.7,0.2,1,0.2c0.9,0,2.2-0.6,3.2-1.7c-0.5-0.9-0.8-1.9-0.8-3c0-0.9,0.1-1.9,0.4-2.8C19.1,8.5,18.9,8.5,18.7,8.5z"/>
	</g>
</g>
<g>
	<path class="st1" d="M36,65.5H13.6c-0.4,0-0.6-0.3-0.6-0.6v-2.5c0-0.4,0.3-0.6,0.6-0.6c0.4,0,0.6,0.3,0.6,0.6v1.9h21.1v-1.9
		c0-0.4,0.3-0.6,0.6-0.6c0.4,0,0.6,0.3,0.6,0.6v2.5C36.6,65.2,36.3,65.5,36,65.5z"/>
	<path class="st1" d="M36,62.9c0,0-0.1,0-0.1,0c-0.4-0.1-0.6-0.4-0.5-0.7l2-12.6c0,0,0-0.4-0.1-0.6c-0.2-0.2-0.5-0.3-0.8-0.3
		c-1.5-0.1-22.3,0-23.2,0c-0.3,0-0.6,0.1-0.7,0.2c-0.2,0.2-0.2,0.5-0.2,0.7l2,12.5c0.1,0.4-0.2,0.7-0.5,0.7
		c-0.4,0.1-0.7-0.2-0.7-0.5l-2-12.6c0-0.1-0.1-1,0.5-1.7c0.3-0.3,0.8-0.7,1.7-0.7c1,0,21.7-0.1,23.3,0c0.8,0,1.4,0.3,1.8,0.8
		c0.6,0.7,0.4,1.5,0.4,1.6l-2,12.5C36.6,62.7,36.3,62.9,36,62.9z"/>
</g>
<path class="st1" d="M49,65.5H0.6c-0.4,0-0.6-0.3-0.6-0.6c0-0.4,0.3-0.6,0.6-0.6H49c0.4,0,0.6,0.3,0.6,0.6
	C49.6,65.2,49.3,65.5,49,65.5z"/>
<g>
	<path class="st0" d="M13.2,29.1C13.2,29.1,13.2,29.1,13.2,29.1l-3-0.3c-0.1,0-0.1,0-0.2-0.1c-2-0.9-3.3-2.9-3.3-5.1
		c0-2.2,1.3-4.2,3.3-5.1c0.1,0,0.1,0,0.2-0.1l2.5-0.3c0.4,0,0.7,0.2,0.7,0.6c0,0.4-0.2,0.7-0.6,0.7l-2.4,0.3
		c-1.5,0.7-2.5,2.2-2.5,3.9c0,1.6,1,3.2,2.5,3.9l2.9,0.3c0.4,0,0.6,0.4,0.6,0.7C13.8,28.9,13.5,29.1,13.2,29.1z"/>
	<path class="st0" d="M23.5,36.1h-2.9c-1.1,0-1.9-0.9-1.9-1.9c0-1.1,0.9-1.9,1.9-1.9h2.9c1.1,0,1.9,0.9,1.9,1.9
		C25.4,35.2,24.6,36.1,23.5,36.1z M20.6,33.5c-0.3,0-0.6,0.3-0.6,0.6c0,0.3,0.3,0.6,0.6,0.6h2.9c0.3,0,0.6-0.3,0.6-0.6
		c0-0.3-0.3-0.6-0.6-0.6H20.6z"/>
	<path class="st0" d="M19.3,34.8C19.3,34.8,19.3,34.8,19.3,34.8l-0.9,0c-3.5,0-6-0.1-7.1-0.8c-1.9-1.3-1.2-5.1-1.1-5.5
		c0.1-0.4,0.4-0.6,0.8-0.5c0.4,0.1,0.6,0.4,0.5,0.8c-0.3,1.3-0.3,3.6,0.5,4.2c0.8,0.6,4.1,0.6,6.3,0.6l0.9,0c0.4,0,0.6,0.3,0.6,0.7
		C19.9,34.5,19.7,34.8,19.3,34.8z"/>
</g>
<g>
	<path class="st0" d="M36.8,29.1c-0.3,0-0.6-0.2-0.6-0.6c0-0.4,0.2-0.7,0.6-0.7l2.8-0.3c1.5-0.7,2.4-2.2,2.4-3.9
		c0-1.7-0.9-3.2-2.4-3.9l-2.2-0.3c-0.4,0-0.6-0.4-0.6-0.7c0-0.4,0.4-0.6,0.7-0.6l2.3,0.3c0.1,0,0.1,0,0.2,0.1c2,0.9,3.2,2.9,3.2,5.1
		c0,2.2-1.3,4.2-3.2,5.1c-0.1,0-0.1,0-0.2,0.1L36.8,29.1C36.9,29.1,36.8,29.1,36.8,29.1z"/>
</g>
<path class="st0" d="M9.6,20.2c-0.4,0-0.6-0.3-0.6-0.6v-4.8c0-8.3,6.9-14.6,16.1-14.6s16.1,6.3,16.1,14.6v4.6c0,0.4-0.3,0.6-0.6,0.6
	c-0.4,0-0.6-0.3-0.6-0.6v-4.6c0-7.6-6.4-13.3-14.8-13.3S10.2,7.2,10.2,14.8v4.8C10.2,19.9,9.9,20.2,9.6,20.2z"/>
<g>
	<path class="st1" d="M52.3,29.9c-0.1,0-0.2,0-0.2,0c-0.2-0.1-0.4-0.3-0.4-0.6V24h-1.6c-1.2,0-3.6-0.7-3.6-3.6V8
		c0-2.8,2.3-3.6,3.6-3.6h20.6l0,0c0.1,0,0.9,0,1.8,0.4c0.8,0.4,1.8,1.3,1.8,3.2v12.5c0,2.8-2.3,3.6-3.6,3.6H58.5l-5.7,5.7
		C52.6,29.9,52.5,29.9,52.3,29.9z M52.3,22.8c0.4,0,0.6,0.3,0.6,0.6v4.3l4.8-4.8c0.1-0.1,0.3-0.2,0.5-0.2h12.5
		c0.2,0,2.3-0.1,2.3-2.3V8c0-1-0.4-1.6-1.1-2c-0.6-0.3-1.2-0.3-1.2-0.3H50.1c-0.2,0-2.3,0.1-2.3,2.3v12.5c0,2.2,2.1,2.3,2.3,2.3
		H52.3z"/>
	<g>
		<circle class="st1" cx="66.6" cy="15.6" r="1.2"/>
		<circle class="st1" cx="60.4" cy="15.6" r="1.2"/>
		<circle class="st1" cx="54.2" cy="15.6" r="1.2"/>
	</g>
</g>
</svg>
