<svg xmlns="http://www.w3.org/2000/svg" viewBox="0 0 471.95257 223.58401"><defs><style>.cls-1,.cls-5{fill:#838271;}.cls-2{fill:#c01f3f;}.cls-3{fill:#ba0c2f;}.cls-4{fill:#fff;}.cls-5{fill-rule:evenodd;}</style></defs><title>190325_CL_Legacy-Point_RBG_EN</title><g id="CL_NEW_EN" data-name="CL NEW EN"><path class="cls-1" d="M182.59264,175.21245a16.3309,16.3309,0,0,0,.44337,3.88694,8.94586,8.94586,0,0,0,1.41353,3.16042,6.86338,6.86338,0,0,0,2.5215,2.12511,8.16134,8.16134,0,0,0,3.71491.78316,7.919,7.919,0,0,0,2.80462-.46691,9.57346,9.57346,0,0,0,2.11015-1.07055,9.12883,9.12883,0,0,0,1.85051-1.53854,16.25762,16.25762,0,0,1,1.19452,1.5973,3.618,3.618,0,0,1,.72864,1.98725,1.62327,1.62327,0,0,1-.1613.60047,3.84718,3.84718,0,0,1-1.04815,1.22226,9.34176,9.34176,0,0,1-3.18712,1.65181,16.11634,16.11634,0,0,1-5.05044.69232,18.59949,18.59949,0,0,1-4.21388-.53848,10.7578,10.7578,0,0,1-4.278-2.12509,12.32278,12.32278,0,0,1-3.341-4.42434,17.56466,17.56466,0,0,1-1.35261-7.49611,15.72533,15.72533,0,0,1,1.41672-7.11677,12.73432,12.73432,0,0,1,3.48416-4.40407,12.59967,12.59967,0,0,1,4.39976-2.24582,15.75239,15.75239,0,0,1,4.10383-.64214,15.50936,15.50936,0,0,1,3.92114.45837,11.93329,11.93329,0,0,1,2.983,1.17847,6.35288,6.35288,0,0,1,1.76186,1.405,2.32824,2.32824,0,0,1,.5887,1.47013,7.02432,7.02432,0,0,1-1.6016,3.51406,11.50551,11.50551,0,0,0-2.80994-2.18919,7.95191,7.95191,0,0,0-4.12307-1.09409,8.86771,8.86771,0,0,0-3.76085.72653,6.83846,6.83846,0,0,0-2.57491,2.0407,8.53182,8.53182,0,0,0-1.47551,3.07707,14.79962,14.79962,0,0,0-.46261,3.77474"/><path class="cls-1" d="M227.707,188.32282a5.58419,5.58419,0,0,1-.89428-2.5322,35.85435,35.85435,0,0,1-.2671-5.0013v-9.65217a17.90759,17.90759,0,0,0-.50856-4.49272,7.19693,7.19693,0,0,0-1.76824-3.2523,7.79934,7.79934,0,0,0-3.29612-1.94989,16.99021,16.99021,0,0,0-5.09424-.65065,22.991,22.991,0,0,0-3.6615.3002,19.661,19.661,0,0,0-3.39227.84087,9.96986,9.96986,0,0,0-2.4905,1.233,1.89047,1.89047,0,0,0-.9605,1.47228,5.28355,5.28355,0,0,0,.37607,1.57594,7.96377,7.96377,0,0,0,.99578,1.93812,16.68139,16.68139,0,0,1,3.73415-1.97764,13.36768,13.36768,0,0,1,4.72993-.76392q3.37353,0,4.56432,1.28744a5.34364,5.34364,0,0,1,1.18917,3.75231v.921a11.21642,11.21642,0,0,0-1.218-.05876h-1.218a37.51379,37.51379,0,0,0-4.72777.46477,17.09319,17.09319,0,0,0-4.84425,1.51183,10.96942,10.96942,0,0,0-3.79932,3.02363,7.6528,7.6528,0,0,0-1.53746,4.94148,8.81413,8.81413,0,0,0,.83976,4.10171,7.33325,7.33325,0,0,0,2.12939,2.5578,7.61534,7.61534,0,0,0,2.87941,1.30775,14.38415,14.38415,0,0,0,3.14972.35687,11.59057,11.59057,0,0,0,5.21713-1.0054,12.91821,12.91821,0,0,0,3.40294-2.43921,2.9127,2.9127,0,0,0,1.45947,2.3858,6.05593,6.05593,0,0,0,2.91789.66989,9.35341,9.35341,0,0,0,1.01071-.05233,7.12087,7.12087,0,0,0,.82376-.13144.43292.43292,0,0,0,.3451-.42309.42843.42843,0,0,0-.08654-.25961m-6.67017-7.33158a2.3202,2.3202,0,0,1-.578,1.41568,6.029,6.029,0,0,1-1.56632,1.359,10.26737,10.26737,0,0,1-2.28215,1.04811,8.66819,8.66819,0,0,1-2.72235.42524q-2.694,0-3.68394-1.30348a4.82711,4.82711,0,0,1-.98936-3.0012,4.358,4.358,0,0,1,.93488-2.91682,6.3,6.3,0,0,1,2.41889-1.72765,12.55,12.55,0,0,1,3.29932-.84938,28.89415,28.89415,0,0,1,3.57389-.22651h1.59517Z"/><path class="cls-1" d="M257.56555,188.99454h-5.714V173.28441q0-1.62188-.11432-3.02367a6.57854,6.57854,0,0,0-.61113-2.39861,3.44856,3.44856,0,0,0-1.60372-1.5492,7.04747,7.04747,0,0,0-3.092-.55238,8.61235,8.61235,0,0,0-4.794,1.23723,3.861,3.861,0,0,0-2.00115,3.27473v18.722h-5.7289V161.365c.08334-.00962.18376-.02032.30023-.02994.10043-.01066.21582-.01816.34937-.02347s.29169-.0075.47438-.0075a5.427,5.427,0,0,1,2.74372.70089,3.13945,3.13945,0,0,1,1.48725,2.40824,12.26264,12.26264,0,0,1,3.63906-2.5172,12.46517,12.46517,0,0,1,5.44472-1.10475,9.17791,9.17791,0,0,1,6.06866,1.77144,8.16367,8.16367,0,0,1,2.74263,4.42861,13.24685,13.24685,0,0,1,.35045,2.62728q.05772,1.44717.05879,2.80462Z"/><path class="cls-1" d="M287.28522,188.32282a5.58419,5.58419,0,0,1-.89428-2.5322,35.85407,35.85407,0,0,1-.26711-5.0013v-9.65217a17.90762,17.90762,0,0,0-.50855-4.49272,7.20723,7.20723,0,0,0-1.76824-3.2523,7.79272,7.79272,0,0,0-3.29613-1.94989,16.99014,16.99014,0,0,0-5.09423-.65065,22.99089,22.99089,0,0,0-3.6615.3002,19.59872,19.59872,0,0,0-3.3912.84087,9.94143,9.94143,0,0,0-2.49157,1.233,1.89046,1.89046,0,0,0-.96051,1.47228,5.28364,5.28364,0,0,0,.37608,1.57594,7.929,7.929,0,0,0,.99686,1.93812,16.67355,16.67355,0,0,1,3.73307-1.97764,13.36339,13.36339,0,0,1,4.72993-.76392q3.37353,0,4.56432,1.28744a5.34364,5.34364,0,0,1,1.18917,3.75231v.921a11.21642,11.21642,0,0,0-1.218-.05876h-1.218a37.49467,37.49467,0,0,0-4.72777.46477,17.09319,17.09319,0,0,0-4.84425,1.51183,10.96942,10.96942,0,0,0-3.79932,3.02363,7.65874,7.65874,0,0,0-1.53747,4.94148,8.814,8.814,0,0,0,.83977,4.10171,7.33334,7.33334,0,0,0,2.12938,2.5578,7.60821,7.60821,0,0,0,2.87942,1.30775,14.38415,14.38415,0,0,0,3.14972.35687,11.59057,11.59057,0,0,0,5.21713-1.0054,12.91821,12.91821,0,0,0,3.40294-2.43921,2.91512,2.91512,0,0,0,1.45946,2.3858,6.059,6.059,0,0,0,2.9179.66989,9.36743,9.36743,0,0,0,1.01071-.05233,7.12087,7.12087,0,0,0,.82376-.13144.43293.43293,0,0,0,.3451-.42309.4285.4285,0,0,0-.08654-.25961m-6.67017-7.33158a2.32016,2.32016,0,0,1-.578,1.41568,6.04667,6.04667,0,0,1-1.56631,1.359,10.26737,10.26737,0,0,1-2.28215,1.04811,8.66821,8.66821,0,0,1-2.72236.42524q-2.694,0-3.68393-1.30348a4.82711,4.82711,0,0,1-.98936-3.0012,4.358,4.358,0,0,1,.93488-2.91682,6.2999,6.2999,0,0,1,2.41889-1.72765,12.55,12.55,0,0,1,3.29932-.84938,28.894,28.894,0,0,1,3.57389-.22651h1.59517Z"/><path class="cls-1" d="M317.89425,188.32282A5.57121,5.57121,0,0,1,317,185.79066a35.85463,35.85463,0,0,1-.26711-5.00131V152.33821a7.07819,7.07819,0,0,0-.343-2.41573,3.629,3.629,0,0,0-.93487-1.46159,3.03405,3.03405,0,0,0-1.34727-.71694,6.44105,6.44105,0,0,0-1.483-.17842q-.37826,0-.859.01924a6.67215,6.67215,0,0,0-.7201.05664v15.96122a10.895,10.895,0,0,0-2.79181-1.75758,11.22392,11.22392,0,0,0-4.80473-.8932,10.926,10.926,0,0,0-4.27051.8665,9.89633,9.89633,0,0,0-3.61875,2.63047,13.09116,13.09116,0,0,0-2.48942,4.53974,20.76351,20.76351,0,0,0-.93276,6.59221,20.46942,20.46942,0,0,0,.95411,6.7343,11.52094,11.52094,0,0,0,2.56422,4.34421,9.31768,9.31768,0,0,0,3.66577,2.33239,13.16445,13.16445,0,0,0,4.26305.69981,9.52041,9.52041,0,0,0,5.03867-1.2084,9.63471,9.63471,0,0,0,2.79931-2.34948,2.91744,2.91744,0,0,0,1.45947,2.3858,6.06325,6.06325,0,0,0,2.91894.66992,9.37175,9.37175,0,0,0,1.01071-.05236,7.06513,7.06513,0,0,0,.82271-.1314.43338.43338,0,0,0,.25961-.68274m-6.84859-6.84115a2.46139,2.46139,0,0,1-.43594,1.3473,3.87306,3.87306,0,0,1-1.25,1.17955,8.12824,8.12824,0,0,1-1.93066.843,8.34368,8.34368,0,0,1-2.42.33656,6.556,6.556,0,0,1-3.29074-.75861,5.812,5.812,0,0,1-2.14863-2.13362,9.51866,9.51866,0,0,1-1.14107-3.22879,23.31557,23.31557,0,0,1-.32694-4.04293q0-4.71818,1.795-7.13177a5.77451,5.77451,0,0,1,4.89449-2.41462,8.18993,8.18993,0,0,1,2.33878.30877,8.7092,8.7092,0,0,1,1.82166.75858,6.3709,6.3709,0,0,1,1.30456.95411c.31839.3109.57908.57161.78958.78635Z"/><path class="cls-1" d="M346.66861,188.32282a5.58419,5.58419,0,0,1-.89428-2.5322,35.85407,35.85407,0,0,1-.26711-5.0013v-9.65217a17.90762,17.90762,0,0,0-.50855-4.49272,7.19693,7.19693,0,0,0-1.76824-3.2523,7.79275,7.79275,0,0,0-3.29612-1.94989,16.98546,16.98546,0,0,0-5.09424-.65065,22.99089,22.99089,0,0,0-3.6615.3002,19.59872,19.59872,0,0,0-3.3912.84087,9.97868,9.97868,0,0,0-2.49157,1.233,1.89321,1.89321,0,0,0-.9605,1.47228,5.28355,5.28355,0,0,0,.37607,1.57594,8.00047,8.00047,0,0,0,.99578,1.93812,16.72717,16.72717,0,0,1,3.73415-1.97764,13.36768,13.36768,0,0,1,4.72993-.76392q3.37514,0,4.56432,1.28744a5.34364,5.34364,0,0,1,1.18917,3.75231v.921a11.20214,11.20214,0,0,0-1.218-.05876h-1.218a37.51379,37.51379,0,0,0-4.72777.46477,17.07533,17.07533,0,0,0-4.84317,1.51183,10.9538,10.9538,0,0,0-3.8004,3.02363,7.65874,7.65874,0,0,0-1.53747,4.94148,8.81413,8.81413,0,0,0,.83977,4.10171,7.32432,7.32432,0,0,0,2.13046,2.5578,7.596,7.596,0,0,0,2.87834,1.30775,14.38193,14.38193,0,0,0,3.14865.35687,11.59236,11.59236,0,0,0,5.2182-1.0054,12.91821,12.91821,0,0,0,3.40294-2.43921,2.9127,2.9127,0,0,0,1.45947,2.3858,6.05891,6.05891,0,0,0,2.91789.66989,9.36743,9.36743,0,0,0,1.01071-.05233,7.12087,7.12087,0,0,0,.82376-.13144.43293.43293,0,0,0,.3451-.42309.42843.42843,0,0,0-.08654-.25961m-6.67017-7.33158a2.3202,2.3202,0,0,1-.578,1.41568,6.01731,6.01731,0,0,1-1.5674,1.359,10.2357,10.2357,0,0,1-2.28107,1.04811,8.66146,8.66146,0,0,1-2.72128.42524q-2.69565,0-3.685-1.30348a4.82711,4.82711,0,0,1-.98936-3.0012,4.358,4.358,0,0,1,.93488-2.91682,6.29577,6.29577,0,0,1,2.42-1.72765,12.53084,12.53084,0,0,1,3.29824-.84938,28.894,28.894,0,0,1,3.57389-.22651h1.59517Z"/><path class="cls-2" d="M449.77717,163.19584c-5.61993,0-9.07419,5.59966-9.07419,11.21744a11.31615,11.31615,0,0,0,.21689,2.17745c8.53672-1.64111,12.70466-6.19155,12.70466-9.80068,0-2.27576-1.437-3.59421-3.84736-3.59421"/><path class="cls-3" d="M373.85481,174.16786a95.90985,95.90985,0,0,1,2.30354-14.43016c2.90289-12.585,7.8102-22.1709,14.74-22.1709,4.81862,0,6.60933,3.34738,6.64885,7.30588.10473,10.43318-8.37115,23.1902-18.4603,31.20767-.13245,5.01412,1.47659,7.3262,4.418,7.3262,5.28553,0,10.55391-5.38592,15.09368-16.23048.61971-1.47868,1.20948-3.17962,1.8601-4.81859.9082-2.28322,5.65417-.96053,4.9746,1.30988-1.45624,4.85494-3.78756,11.27831-3.78756,15.5232,0,2.83986,1.42853,4.02049,3.53434,3.98948,2.92755-.04271,5.32616-2.14113,7.03881-4.18929,0,0,1.20518-6.03553,1.55674-7.70335,4.9489-23.50863,10.66392-33.72706,18.15791-33.72706,4.47671,0,6.75031,2.75017,6.75031,7.19588,0,8.15314-5.61674,17.52-16.41748,30.45763a34.47575,34.47575,0,0,0,11.80722,2.05887c.27884,0,.92952-.0032,1.202-.00747a21.00016,21.00016,0,0,1-.19877-2.80889c0-9.14147,6.54092-15.661,14.61288-15.661,5.28019,0,9.384,2.46914,9.384,7.89569,0,6.79306-7.20334,12.18114-16.28712,14.05408,1.41568,1.67956,4.19147,2.88369,8.07841,2.88369,8.71514,0,15.43344-4.28117,19.88876-8.447V112.8979H360.06676v68.63251a58.60568,58.60568,0,0,0,13.788-7.36255m32.5582-25.27472a3.56981,3.56981,0,0,1,3.5931,3.76089,3.97549,3.97549,0,0,1-3.92861,3.75977,3.568,3.568,0,0,1-3.592-3.75977,3.97467,3.97467,0,0,1,3.92756-3.76089"/><path class="cls-2" d="M431.87463,141.96506c-2.66148,0-8.03994,7.70765-12.71431,29.84654,7.91167-10.00369,14.32758-21.32048,14.32758-27.20322,0-1.55458-.45088-2.64332-1.61327-2.64332"/><path class="cls-3" d="M450.87018,188.32269c-7.59337,0-11.87451-2.94776-14.161-6.683-.74576.03844-1.624.05768-2.4232.05768a33.99157,33.99157,0,0,1-10.20985-1.40283,37.82024,37.82024,0,0,1,3.38474,15.3693c-.02458,9.95028-3.60594,16.488-10.44064,16.488-4.86883,0-7.64248-3.55357-7.73866-10.884-.07154-5.34322.63894-9.77506,1.69563-15.77854a10.53715,10.53715,0,0,1-6.75462,2.38472c-5.02371.01924-7.81978-3.17538-8.01959-7.58049-3.90937,5.26949-8.60937,7.80593-13.51452,7.80593-5.34749,0-8.20023-3.435-8.76542-8.5645a69.8265,69.8265,0,0,1-13.85639,6.88386V223.584H470.7536V181.207a31.61943,31.61943,0,0,1-19.88342,7.11569"/><path class="cls-2" d="M390.91339,141.97008c-2.88053,0-7.962,8.60725-11.12556,27.52485,9.01322-8.79852,12.68861-20.18046,12.68861-24.70311,0-2.09841-.55553-2.82174-1.56305-2.82174"/><path class="cls-2" d="M417.44636,180.14323c-1.17426,5.44794-2.78114,15.04132-2.78114,21.13137,0,3.53864.76923,5.78659,2.82386,5.78659,3.56531,0,4.62839-6.27486,4.62839-10.9193a36.83055,36.83055,0,0,0-3.95528-16.74119Z"/><path class="cls-4" d="M406.07789,156.41423a3.97538,3.97538,0,0,0,3.92854-3.75978,3.56976,3.56976,0,0,0-3.59309-3.76085,3.97637,3.97637,0,0,0-3.92861,3.76085,3.5695,3.5695,0,0,0,3.59316,3.75978"/><path class="cls-4" d="M450.86471,183.62876c-3.88694,0-6.66274-1.2041-8.07842-2.88366,9.08378-1.873,16.28712-7.26105,16.28712-14.05411,0-5.42652-4.10279-7.89566-9.3829-7.89566-8.072,0-14.614,6.51846-14.614,15.661a21.00167,21.00167,0,0,0,.19876,2.8089c-.27141.00534-.92313.0075-1.20093.0075a34.47127,34.47127,0,0,1-11.80715-2.05887c10.80067-12.93759,16.41637-22.30449,16.41637-30.45767,0-4.44567-2.27361-7.19584-6.75032-7.19584-7.49288,0-13.20789,10.21843-18.15791,33.727-.35156,1.66781-1.55673,7.70338-1.55673,7.70338-1.71265,2.04709-4.11133,4.14654-7.03881,4.18929-2.10588.031-3.53434-1.14962-3.53434-3.98952,0-4.24485,2.33131-10.66822,3.78866-15.52316.67951-2.27041-4.06751-3.59313-4.97571-1.30991-.65062,1.639-1.24039,3.33991-1.85905,4.81862-4.53971,10.84452-9.80815,16.23048-15.09473,16.23048-2.94137,0-4.5504-2.31208-4.418-7.3262,10.09026-8.01855,18.56608-20.77449,18.4603-31.2077-.03952-3.95847-1.82912-7.30592-6.64884-7.30592-6.92978,0-11.83708,9.58595-14.74,22.17094a96.17584,96.17584,0,0,0-2.30353,14.43019,58.545,58.545,0,0,1-13.788,7.36145v4.88914a69.76907,69.76907,0,0,0,13.85639-6.88387c.56525,5.12951,3.41793,8.56558,8.76542,8.56558,4.90515,0,9.60515-2.53752,13.51452-7.807.1998,4.40511,2.99588,7.59973,8.01959,7.58157a10.53545,10.53545,0,0,0,6.75462-2.3858c-1.05669,6.00348-1.76717,10.43533-1.69563,15.77851.09618,7.32942,2.86983,10.88408,7.73866,10.88408,6.8347,0,10.416-6.53665,10.44064-16.488a37.82409,37.82409,0,0,0-3.38474-15.3693,33.99125,33.99125,0,0,0,10.20985,1.40283c.79917,0,1.67744-.01923,2.4232-.05663,2.28645,3.73414,6.56766,6.68194,14.161,6.68194a31.61933,31.61933,0,0,0,19.88342-7.11573V175.1818c-4.45533,4.16579-11.17362,8.447-19.88876,8.447m-59.95158-41.659c1.00856,0,1.56312.72437,1.56312,2.8217,0,4.5237-3.67539,15.90567-12.68757,24.70311,3.1625-18.9176,8.24392-27.52481,11.12445-27.52481m40.96137-.00431c1.16239,0,1.61327,1.08767,1.61327,2.64329,0,5.8817-6.41591,17.19849-14.32758,27.20218,4.67437-22.13889,10.05283-29.84547,12.71431-29.84547m-14.38536,65.09606c-2.0556,0-2.82386-2.248-2.82386-5.78766,0-6.089,1.60695-15.68238,2.78115-21.13029l.71478-.74253a36.81188,36.81188,0,0,1,3.95639,16.74011c0,4.64551-1.06419,10.92037-4.62846,10.92037m23.21377-32.64793c0-5.61779,3.45524-11.21741,9.07413-11.21741,2.41035,0,3.84742,1.31737,3.84742,3.59313,0,3.61021-4.16793,8.16064-12.70472,9.80176a11.32243,11.32243,0,0,1-.21683-2.17748"/></g><g id="Divider_Horizontal" data-name="Divider Horizontal"><polygon class="cls-1" points="414.251 91.521 400.268 78.415 0.001 78.415 0.001 77.606 400.59 77.606 414.257 90.415 428.101 77.606 470.964 77.606 470.964 78.415 428.417 78.415 414.251 91.521"/></g><g id="CL"><path class="cls-1" d="M416.92826,25.68478a3.75577,3.75577,0,0,0-3.17915-1.44431c-2.93979,0-5.00738,2.7661-5.00738,6.21718,0,3.85167,2.14512,5.76521,4.72754,5.76521a4.0503,4.0503,0,0,0,3.57892-1.69268v1.39943h2.81449V20.09053h-2.93442Zm0,7.42086a3.10438,3.10438,0,0,1-2.40545,1.39139c-1.60641.001-2.76232-1.43285-2.76232-4.25877,0-3.1437,1.49426-4.18151,2.85006-4.18151a2.931,2.931,0,0,1,2.31771,1.46415Z"/><path class="cls-1" d="M366.72864,34.02267c-3.41023,0-5.375-2.577-5.375-6.01375,0-4.18029,2.47968-6.27043,5.37681-6.27043a4.67737,4.67737,0,0,1,4.13041,2.356l1.27123-.9536S371.10637,19.8,366.15373,19.8a8.069,8.069,0,0,0-8.12654,8.34191c0,5.41715,3.76648,8.10049,7.83574,8.10049,4.67987,0,6.2692-3.24692,6.2692-3.24692l-.95359-.91728A5.27605,5.27605,0,0,1,366.72864,34.02267Z"/><polygon class="cls-1" points="440.955 20.108 437.827 20.108 437.827 35.926 447.942 35.926 447.942 33.757 440.955 33.757 440.955 20.108"/><path class="cls-1" d="M458.08854,24.014c0-2.01213.975-2.53647,1.8248-2.53647a2.16814,2.16814,0,0,1,1.03891.3214l.58407-1.02478a3.87614,3.87614,0,0,0-2.84374-.98235,3.3519,3.3519,0,0,0-3.2752,2.25308,6.87548,6.87548,0,0,0-.23938,2.5149h-1.71022v1.75155H455.178V35.926h2.90712V26.31135h2.56634V24.5598h-2.56634S458.08854,24.19561,458.08854,24.014Z"/><path class="cls-1" d="M391.54405,24.23183a4.74736,4.74736,0,0,0-3.65363,1.794V24.54786h-2.91274V35.926h2.91274V27.42815a3.20214,3.20214,0,0,1,2.42848-1.37956,1.75464,1.75464,0,0,1,1.77178,1.31254,3.92321,3.92321,0,0,1,.113,1.14V35.926h2.93151V28.19368a3.99181,3.99181,0,0,0-.89936-2.9333A3.68992,3.68992,0,0,0,391.54405,24.23183Z"/><path class="cls-1" d="M377.97048,24.22487a5.61034,5.61034,0,0,0-4.69083,2.48272l.83159.79517a4.47909,4.47909,0,0,1,3.24789-1.46478,2.446,2.446,0,0,1,2.66409,2.71941c0,.1921.00584.36176.00584.36176a7.872,7.872,0,0,0-2.64677-.48168c-2.607,0-4.73,1.445-4.73,4.02671,0,2.18606,1.68708,3.5782,3.9626,3.5782a4.4449,4.4449,0,0,0,3.53652-1.57424V35.926h2.75073v-6.525C382.90218,25.49879,380.82081,24.22487,377.97048,24.22487Zm2.05858,9.42288a3.75073,3.75073,0,0,1-2.29856.80076A1.86458,1.86458,0,0,1,375.714,32.4682a2.15187,2.15187,0,0,1,2.43153-2.102,4.97162,4.97162,0,0,1,1.88355.41413Z"/><path class="cls-1" d="M402.107,24.22487a5.63011,5.63011,0,0,0-4.69924,2.48272l.83854.79517a4.47152,4.47152,0,0,1,3.24422-1.46478,2.44574,2.44574,0,0,1,2.666,2.71941c0,.1921.00536.36176.00536.36176a7.8872,7.8872,0,0,0-2.65019-.48168c-2.60144,0-4.727,1.445-4.727,4.02671,0,2.18606,1.68391,3.5782,3.96188,3.5782a4.45,4.45,0,0,0,3.53868-1.57424V35.926h2.75014v-6.525C407.0354,25.49879,404.95415,24.22487,402.107,24.22487Zm2.05493,9.42288a3.75349,3.75349,0,0,1-2.29821.80076A1.86049,1.86049,0,0,1,399.851,32.4682a2.14944,2.14944,0,0,1,2.42958-2.102,4.96605,4.96605,0,0,1,1.88136.41413Z"/><path class="cls-1" d="M426.92642,24.22487a5.62244,5.62244,0,0,0-4.69829,2.48272l.83758.79517a4.47173,4.47173,0,0,1,3.24447-1.46478,2.44415,2.44415,0,0,1,2.66337,2.71941c0,.1921.00778.36176.00778.36176a7.86638,7.86638,0,0,0-2.64529-.48168c-2.60876,0-4.73194,1.445-4.73194,4.02671,0,2.18606,1.68539,3.5782,3.9631,3.5782a4.45189,4.45189,0,0,0,3.53649-1.57424V35.926h2.74869v-6.525C431.85238,25.49879,429.775,24.22487,426.92642,24.22487Zm2.05491,9.42288a3.75222,3.75222,0,0,1-2.29673.80076,1.86358,1.86358,0,0,1-2.01493-1.98031,2.15058,2.15058,0,0,1,2.43178-2.102,4.97086,4.97086,0,0,1,1.87988.41413Z"/><path class="cls-1" d="M471.73535,28.29046a4.8415,4.8415,0,0,0-5.17607-4.06265,5.82325,5.82325,0,0,0-5.90684,5.97072c0,3.49408,2.051,6.04652,6.03653,6.04652a5.44,5.44,0,0,0,5.16387-2.81619l-.76883-.7035a4.72138,4.72138,0,0,1-3.90557,1.66758c-2.32549,0-3.54138-1.80482-3.60231-3.85706h8.37031A8.934,8.934,0,0,0,471.73535,28.29046Zm-8.0944.55811c.29692-1.90622,1.34559-2.85363,2.80083-2.85363a2.41553,2.41553,0,0,1,2.55123,2.52771c.00536.14967.0078.32592.0078.32592Z"/><polygon class="cls-1" points="449.145 35.926 452.058 35.926 452.058 24.56 451.09 25.995 452.058 24.56 449.145 24.56 449.145 35.926"/><path class="cls-1" d="M449.00008,21.37334a1.5914,1.5914,0,1,1,1.59276,1.55776A1.57444,1.57444,0,0,1,449.00008,21.37334Z"/><path class="cls-1" d="M331.36626,25.90538a.82026.82026,0,1,1-.82222.821A.8217.8217,0,0,1,331.36626,25.90538Zm15.83909,3.33173c-.04461.15065-.0846.32518-.12421.52532A13.59081,13.59081,0,0,1,334.128,40.33393l-.37919.01145-.00182-.10628.37881-.01a12.80652,12.80652,0,0,0,3.74187-.9487,12.98593,12.98593,0,0,0,7.31336-8.14315v.0022s.09458-.30665.162-.56163a1.23765,1.23765,0,0,0-.96175.76152c-.05679.10434-.12943.21085-.18624.33688a11.47963,11.47963,0,0,1-11.17542,6.43337l-.37916-.01121.004-.10456.37881.0134a10.62649,10.62649,0,0,0,9.88005-6.98771h-.00085s.11225-.30078.18966-.55039a1.24,1.24,0,0,0-1.00162.704c-.02439.04435-.05559.08384-.0824.12992a9.40926,9.40926,0,0,1-4.455,3.89948,9.13436,9.13436,0,0,1-5.4192.58649l-.37539-.061.0178-.10286.37357.06095a8.39173,8.39173,0,0,0,4.09143-.62453,8.49687,8.49687,0,0,0,4.996-6.18815s.04546-.31591.07082-.57516c0,0-.54641.09323-.83074.90083a6.92266,6.92266,0,0,1-6.90177,4.54275,3.22185,3.22185,0,0,1-2.79756-3.19474,3.16679,3.16679,0,0,1,3.1933-3.19574.41052.41052,0,0,1,.17905.04972l.03217-.07057a4.89681,4.89681,0,0,0-7.1882-.82439,6.965,6.965,0,0,1,13.36222-2.46029,7.71278,7.71278,0,0,1,.36736,1.05292,1.13729,1.13729,0,0,0,.49421.64183c-.03205-.2406-.072-.478-.11944-.71679l.00184.00122a8.05036,8.05036,0,0,0-.39626-1.13019,8.50763,8.50763,0,0,0-11.1654-4.468,8.38253,8.38253,0,0,0-3.26509,2.52391l-.20755.316-.088-.057.2094-.31519a9.18892,9.18892,0,0,1,16.16708,1.29158,1.1327,1.1327,0,0,0,.61135.529q-.11662-.34317-.259-.6778a10.7627,10.7627,0,0,0-14.1331-5.652,10.6065,10.6065,0,0,0-3.38588,2.34694l-.25265.27934-.07873-.06994.2541-.27959a11.35753,11.35753,0,0,1,19.22861,2.68186,4.83694,4.83694,0,0,0,.26279.61283,1.49718,1.49718,0,0,0,.592.55419c-.07-.23207-.14675-.46059-.23219-.689l.00182.001c-.0824-.21753-.16479-.43255-.25583-.64475A12.9087,12.9087,0,0,0,324.34687,17.399l-.27459.26084-.07179-.07483.27362-.26279a13.57108,13.57108,0,0,1,22.08525,4.14909c.1448.32237.26863.65438.37881.98115a10.95762,10.95762,0,0,1,.63976,2.54915,1.538,1.538,0,0,0,.47022.718c-.019-.242-.04143-.4818-.07766-.7236h.00185a13.04789,13.04789,0,0,0-1.0628-3.67448,15.31767,15.31767,0,1,0,1.14835,7.55189l-.002.00364s.03-.31955.04181-.5804C347.89775,28.29667,347.44655,28.41614,347.20535,29.23711Z"/></g><g id="Divider_2-2" data-name="Divider 2"><polygon class="cls-1" points="293.69 56.312 292.886 56.312 292.886 0 293.69 0 293.288 0.759 293.69 0 293.69 56.312"/></g><g id="LL_Alt" data-name="LL Alt"><path class="cls-5" d="M235.74891,45.312l1.65444-8.2803c-.275-.32639-.46467-.57077-.9229-1.04186-.67531-.46145-.99366-.79589-1.72039-1.222-.66564-.3955-1.4776-.88749-2.14324-1.283l-2.5162-1.26215a16.79059,16.79059,0,0,0-4.28326,1.74288V28.66132l-2.05-1.87149-5.03408-4.1257h-.86662l-5.03574,4.1257-2.05,1.87149v5.30421a16.82653,16.82653,0,0,0-4.28163-1.74288l-2.51787,1.26215c-.66564.39553-1.47755.88752-2.1432,1.283-.72673.42608-1.04669.76052-1.72038,1.222-.45824.47109-.648.71547-.9229,1.04186l1.65444,8.2803a9.83861,9.83861,0,0,1,5.01484,1.46955L202.573,49.49392c3.5131,1.95831,5.9007,4.80258,10.17752,6.15474l4.1466-4.49225-.01933,6.50365a13.99713,13.99713,0,0,0,2.84264,0l-.01766-6.50365,4.1466,4.49225c4.2752-1.35216,6.66118-4.19643,10.1759-6.15474l-3.2896-2.71242a9.83235,9.83235,0,0,1,5.01322-1.46955"/><path class="cls-5" d="M249.909,28.50889A1.95755,1.95755,0,0,0,251.9124,26.504a1.98624,1.98624,0,0,0-2.00336-2.11754,2.01409,2.01409,0,0,0-2.11915,2.11754,1.98879,1.98879,0,0,0,2.11915,2.00492m19.23764,6.63871c0-.22669.05628-.57077.05628-.91485,0-3.14811-1.88923-5.3235-5.26724-5.3235-2.80565,0-5.38142,2.11751-5.38142,5.838,0,3.952,2.7478,5.957,6.5262,5.957a7.135,7.135,0,0,0,3.32173-.74442l.17046-2.005a6.778,6.778,0,0,1-3.32016.80232c-2.177,0-3.60637-1.26053-3.60637-4.12248,0-2.46157,1.029-3.77838,2.51787-3.77838a1.77487,1.77487,0,0,1,1.94707,1.65927c0,.57239-.45824.91647-1.37471.91647-.80067,0-1.71714,0-2.632-.05789l.85858,1.8892c.68654-.05628,1.48883-.11578,2.40369-.11578ZM251.22585,11.847c1.71877,0,2.6899,1.37466,2.6899,3.95043,0,2.57734-.97113,3.95043-2.6899,3.95043-1.71719,0-2.69151-1.37309-2.69151-3.95043,0-2.57577.97432-3.95043,2.69151-3.95043m0-2.05964c-3.89415,0-5.78337,2.804-5.78337,6.01007,0,3.2076,1.88922,6.01163,5.78337,6.01163,3.89254,0,5.78171-2.804,5.78171-6.01163,0-3.206-1.88917-6.01007-5.78171-6.01007m1.25892,21.75387h1.14478v5.26885a12.53072,12.53072,0,0,1-.40034,3.60635h3.55a12.52358,12.52358,0,0,1-.40195-3.60635V31.54126h2.005a.7543.7543,0,0,0,.86019-.74442l.17041-1.31519a11.746,11.746,0,0,1-1.66086.11415H256.3773V28.451c0-1.31679.574-2.40529,2.005-2.40529a3.797,3.797,0,0,1,1.71715.45824V24.50061a5.96818,5.96818,0,0,0-2.28952-.45823c-2.51949,0-4.18035,1.43094-4.18035,4.69482v.80232Zm-13.00412-5.43768a12.16344,12.16344,0,0,1,.574,4.35079v5.6113a12.15626,12.15626,0,0,1-.574,4.35079h7.50695c.402,0,.74444-.11415.80229-.63026l.17208-1.83133a9.39922,9.39922,0,0,1-3.034.45824c-1.09331,0-1.78147-.2878-1.78147-1.603V30.45437a12.2656,12.2656,0,0,1,.5708-4.35079Zm12.4896,14.31288a12.52354,12.52354,0,0,1-.402-3.60635V33.37418a12.52354,12.52354,0,0,1,.402-3.60635h-3.55009a12.52913,12.52913,0,0,1,.40038,3.60635v3.43593a12.52913,12.52913,0,0,1-.40038,3.60635ZM216.18007,9.78739c-3.89258,0-5.78175,2.804-5.78175,6.01007,0,3.2076,1.88917,6.01163,5.78175,6.01163,3.89415,0,5.78171-2.804,5.78171-6.01163,0-3.206-1.88756-6.01007-5.78171-6.01007m0,2.05964c1.71877,0,2.69147,1.37466,2.69147,3.95043,0,2.57734-.9727,3.95043-2.69147,3.95043-1.71719,0-2.69151-1.37309-2.69151-3.95043,0-2.57577.97432-3.95043,2.69151-3.95043m20.6123,4.12246c0-2.91983,1.14478-4.06461,2.7478-4.06461,1.48722,0,2.23166,1.03065,2.23166,2.91983v4.40866a8.66022,8.66022,0,0,1-2.00336.40034c-1.48883,0-2.9761-.85857-2.9761-3.66422m8.02146,5.15306a15.239,15.239,0,0,1-.29425-3.09186V9.90152a15.25089,15.25089,0,0,1,.29425-3.09185h-3.32821a15.78318,15.78318,0,0,1,.28621,3.09185V10.818a6.37458,6.37458,0,0,0-3.034-.8602c-2.51949,0-5.03893,1.66092-5.03893,5.89751,0,3.95043,2.51944,5.72548,4.92313,5.72548a7.05151,7.05151,0,0,0,2.11916-.45824l.91642-1.37466h.11418v1.37466ZM257.5237,10.47394a15.77084,15.77084,0,0,1,.2862,3.09186v4.46489a15.77084,15.77084,0,0,1-.2862,3.09186H260.786a15.46478,15.46478,0,0,1-.22831-2.97768V15.79746c0-2.40374.68817-3.49219,2.29119-3.49219s2.28951,1.08845,2.28951,3.49219v2.34741a15.3221,15.3221,0,0,1-.22993,2.97768h3.26389a15.77113,15.77113,0,0,1-.28616-3.09186V14.19444c0-2.00335-.68655-4.407-3.89258-4.407a3.51007,3.51007,0,0,0-3.43592,1.94708l-.11413-.05952.05785-1.201Zm-34.9895,0a15.76045,15.76045,0,0,1,.28777,3.09186v4.46489a15.76045,15.76045,0,0,1-.28777,3.09186h3.26388a15.3363,15.3363,0,0,1-.22831-2.97768V15.79746c0-2.40374.68655-3.49219,2.28952-3.49219,1.60463,0,2.28956,1.08845,2.28956,3.49219v2.34741a15.3363,15.3363,0,0,1-.22831,2.97768h3.26388a15.77161,15.77161,0,0,1-.2862-3.09186V14.19444c0-2.00335-.68655-4.407-3.89415-4.407a3.50915,3.50915,0,0,0-3.4343,1.94708l-.11418-.05952.05628-1.201ZM202.1534,6.80967a12.22274,12.22274,0,0,1,.57237,4.35081v5.6113a12.22224,12.22224,0,0,1-.57237,4.35077h7.55675c.68817,0,.97438-.28616.97438-.80229a10.66136,10.66136,0,0,0-.11418-1.48722,4.46272,4.46272,0,0,1-2.06126.34243h-1.0885c-1.14473,0-1.603-.17041-1.603-2.28951V11.16048A12.22154,12.22154,0,0,1,206.39,6.80967Z"/></g><g id="Divider_1-2" data-name="Divider 1"><polygon class="cls-1" points="177.51 56.312 176.706 56.312 176.706 0 177.51 0 177.108 0.717 177.51 0 177.51 56.312"/></g><g id="GWL"><polygon class="cls-1" points="123.352 19.16 119.641 19.16 119.641 28.823 129.304 28.823 129.304 26.583 123.352 26.583 123.352 19.16"/><path class="cls-1" d="M99.72459,24.57126c-.80207,0-1.15965-.30764-1.15965-.54034,0-.179.17909-.79836,1.23436-.79836a1.04534,1.04534,0,0,1,1.13514,1.03106h3.658c0-2.36928-3.7621-2.68077-5.04989-2.68077-1.08126,0-4.81826.31149-4.81826,2.55174-.10363,1.829,1.52178,1.829,3.11754,2.08659.36169.10408,2.01147.10408,2.42307.18265a.5788.5788,0,0,1,.56544.48646c0,.49072-.3614.77348-1.2348.723-.72368,0-1.263-.2323-1.263-.723H94.62068c0,2.50216,4.019,2.42318,4.97488,2.42318,1.10577-.05,5.25378-.10326,5.25378-2.42318C104.84934,24.34219,101.013,24.57126,99.72459,24.57126Z"/><polygon class="cls-1" points="130.542 28.823 133.995 28.823 133.995 21.944 133.394 22.533 133.995 21.944 130.542 21.944 130.542 28.823"/><path class="cls-1" d="M110.57183,19.65h-2.08619a2.39182,2.39182,0,0,1-2.19,2.24435h-.77373V23.5406H106.911v3.404c0,1.64953,2.18982,2.1364,3.53193,2.1364.54136,0,2.36964-.30786,3.22176-.43707V26.99462c-1.75415.25736-3.22176.49028-3.22176-.72v-2.734h3.22176V21.89434h-3.09288Z"/><path class="cls-1" d="M147.16311,26.09241h7.47253c-.05358-2.73082-2.01191-4.74226-5.7724-4.74226-3.11842,0-5.84858,1.70336-5.84858,3.94409,0,2.269,2.36906,3.84019,5.89849,3.84019,3.71058,0,5.05312-1.57118,5.61856-2.42253h-3.96863C150.073,27.61331,147.21332,27.87151,147.16311,26.09241Zm3.63249-1.64974h-3.63249C147.39563,22.56367,150.51229,22.69222,150.7956,24.44267Z"/><path class="cls-1" d="M139.97243,21.84044c0-1.33822,1.46673-1.15965,3.22146-.7977V19.39241a10.158,10.158,0,0,0-3.22146-.41157c-1.64993,0-3.42889.54056-3.42889,2.8596v.10392h-1.259V23.5406h1.20955v5.28259h3.47836V23.5406h2.60142V21.94436h-2.60142Z"/><path class="cls-1" d="M132.29249,18.77372a1.644,1.644,0,0,0-1.82916,1.41679c0,.7232.852,1.21352,1.82916,1.21352.98012,0,1.77807-.49032,1.77807-1.21352A1.61483,1.61483,0,0,0,132.29249,18.77372Z"/><polygon class="cls-1" points="78.465 19.16 77.381 22.51 76.712 24.571 75.061 19.16 73.233 19.16 71.404 19.16 69.833 24.625 67.95 19.16 63.802 19.16 67.332 28.823 71.122 28.823 73.233 23.104 75.373 28.823 79.21 28.823 82.689 19.16 78.465 19.16"/><path class="cls-1" d="M19.53006,21.89434H16.309l-.07486,6.92885h3.60738V25.9636c0-2.11173,2.31944-1.7,3.34991-1.7V21.71144a5.0585,5.0585,0,0,0-3.34991,1.03128A1.79039,1.79039,0,0,0,19.53006,21.89434Z"/><path class="cls-1" d="M29.34771,21.58285h-.0756c-3.17082,0-5.85166,1.59988-5.85166,3.84042s2.31959,3.84015,5.85166,3.84015c3.78662,0,5.17907-1.59965,5.66921-2.50172H30.97224c-.49028.98082-3.27079,1.15965-3.45369-.61545,2.50161,0,4.56343,0,7.473-.05384C34.99152,26.09241,34.99152,21.58285,29.34771,21.58285Zm-1.77529,2.93839c.35759-1.64993,3.35021-1.7249,3.70794,0Z"/><path class="cls-1" d="M7.34408,20.99228c2.00781,0,2.62668,1.20966,2.677,1.75044h4.58808c-.30826-2.85941-4.09795-4.06929-7.319-4.06929C4.38053,18.67343,0,20.31932,0,24.13459c0,3.65777,3.4,5.25786,7.34408,5.25786a30.19017,30.19017,0,0,0,7.26511-1.056V23.7733H8.2169v2.08663a15.61991,15.61991,0,0,0,2.24428,0l.05006.723a12.0527,12.0527,0,0,1-3.221.41171,2.94594,2.94594,0,0,1-3.1673-2.9637A2.97974,2.97974,0,0,1,7.34408,20.99228Z"/><path class="cls-1" d="M87.79286,21.45427c-3.11843,0-5.773,1.72846-5.773,3.969s2.2939,3.84015,5.82289,3.84015c3.79029,0,5.128-1.59965,5.66935-2.50172H89.49269c-.491.98082-3.27226,1.15965-3.40026-.61545h7.47312C93.56555,23.46526,91.63305,21.45427,87.79286,21.45427Zm-1.65052,3.067c.25674-1.90736,3.29942-1.77852,3.66125,0Z"/><polygon class="cls-1" points="58.133 25.964 63.004 25.964 63.004 23.902 61.869 24.933 63.004 23.902 58.133 23.902 58.133 25.964"/><path class="cls-1" d="M53.391,19.65H51.37952a2.39637,2.39637,0,0,1-2.24032,2.24435h-.798V23.5406h1.392v3.404c0,1.64953,2.19055,2.1364,3.5284,2.1364a12.9249,12.9249,0,0,0,3.221-.43707V26.99462c-1.69984.25736-3.0917.49028-3.0917-.66936l-.12933-2.78466h3.221V21.89434H53.391Z"/><path class="cls-1" d="M46.81976,26.32526l-.07838-1.5213a2.40256,2.40256,0,0,0-1.33873-2.473c-2.91365-1.46724-6.39171-.79813-8.76164.17905l1.03105,1.57477c2.98837-1.52112,5.84785-.85223,5.49027.12859-.36111.71916-2.19041.66915-3.71131.71916-1.95775,0-3.42844.66974-3.42844,2.37335,0,1.77511,2.68054,2.00758,3.55717,2.00758a12.0893,12.0893,0,0,0,4.381-.773,5.41143,5.41143,0,0,0,4.50926.28275V27.381a4.38794,4.38794,0,0,1-.87707.10389C46.87,27.4849,46.74138,26.9446,46.81976,26.32526ZM41.77,27.79236c-.56926.18224-1.59987.258-1.7289-.35788-.1-1.34207,2.01176-.90162,3.12121-1.39213A1.83515,1.83515,0,0,1,41.77,27.79236Z"/><polygon class="cls-5" points="83.856 39.907 83.856 42.689 87.07 42.689 87.07 41.725 87.714 41.725 87.714 42.689 91.006 42.689 91.006 39.907 89.348 39.907 89.348 42.183 88.219 42.183 88.219 39.959 86.561 39.959 86.561 42.183 85.437 42.183 85.437 39.907 83.856 39.907 83.856 39.907"/><path class="cls-5" d="M90.9982,38.83922V37.176H74.34859v1.65992h1.47623a2.822,2.822,0,0,1-2.56964,2.30519c-1.48951,0-2.69713-1.48289-2.69713-3.31317,0-1.82964,1.20762-3.31344,2.69713-3.31344a2.7753,2.7753,0,0,1,2.51544,2.116l1.47954-.60834a4.35541,4.35541,0,0,0-3.995-3.1647c-2.36651,0-4.286,2.22529-4.286,4.97046,0,2.74467,1.91952,4.97,4.286,4.97a4.497,4.497,0,0,0,4.19616-3.94989Z"/><path class="cls-1" d="M17.72094,35.38518h.79443L20.739,40.54692H19.68911l-.48118-1.18078H16.97l-.46651,1.18078H15.47533Zm1.16639,3.19358-.79472-2.0997-.80911,2.0997Z"/><path class="cls-1" d="M24.51,36.46438a1.11758,1.11758,0,0,0-.41189-.31707,1.2277,1.2277,0,0,0-.53579-.12741,1.3342,1.3342,0,0,0-.32088.03993.9883.9883,0,0,0-.29153.12389.67808.67808,0,0,0-.2149.219.59992.59992,0,0,0-.084.32411.58088.58088,0,0,0,.07281.29887.66008.66008,0,0,0,.20051.21138,1.387,1.387,0,0,0,.31.15325c.12125.04345.25513.08749.40074.13094q.24793.081.51406.1826a2.0018,2.0018,0,0,1,.48852.26951,1.3412,1.3412,0,0,1,.36434.42276,1.28883,1.28883,0,0,1,.14238.63413,1.6192,1.6192,0,0,1-.15325.72574,1.48929,1.48929,0,0,1-.40807.51376,1.743,1.743,0,0,1-.598.3065,2.53185,2.53185,0,0,1-.72162.10158,2.709,2.709,0,0,1-.98409-.18554,1.89931,1.89931,0,0,1-.78738-.55076l.65615-.61182a1.315,1.315,0,0,0,.50672.41512,1.35153,1.35153,0,0,0,.95121.11332.87773.87773,0,0,0,.30268-.135.75175.75175,0,0,0,.21872-.23722.68626.68626,0,0,0,.08367-.35347.57609.57609,0,0,0-.09483-.33879.8424.8424,0,0,0-.25512-.23311,1.82637,1.82637,0,0,0-.379-.17145q-.21887-.07309-.45916-.15325a4.56779,4.56779,0,0,1-.4668-.175,1.55646,1.55646,0,0,1-.41923-.26951,1.305,1.305,0,0,1-.30239-.41219,1.40564,1.40564,0,0,1-.11655-.6083,1.33652,1.33652,0,0,1,.16381-.67817,1.45168,1.45168,0,0,1,.4301-.47032,1.92712,1.92712,0,0,1,.60507-.27714,2.65454,2.65454,0,0,1,.689-.091,2.45865,2.45865,0,0,1,.79825.13857,1.94481,1.94481,0,0,1,.70342.41571Z"/><path class="cls-1" d="M29.12686,36.46438a1.11758,1.11758,0,0,0-.41189-.31707,1.2277,1.2277,0,0,0-.53579-.12741,1.3342,1.3342,0,0,0-.32088.03993.9883.9883,0,0,0-.29153.12389.67808.67808,0,0,0-.2149.219.59992.59992,0,0,0-.084.32411.581.581,0,0,0,.07281.29887.66008.66008,0,0,0,.20051.21138,1.387,1.387,0,0,0,.31.15325c.12125.04345.25513.08749.40074.13094q.24794.081.51406.1826a2.0018,2.0018,0,0,1,.48852.26951,1.3412,1.3412,0,0,1,.36434.42276,1.28883,1.28883,0,0,1,.14238.63413,1.6192,1.6192,0,0,1-.15325.72574,1.48929,1.48929,0,0,1-.40807.51376,1.743,1.743,0,0,1-.598.3065,2.5318,2.5318,0,0,1-.72162.10158,2.709,2.709,0,0,1-.98409-.18554,1.89931,1.89931,0,0,1-.78738-.55076l.65615-.61182a1.315,1.315,0,0,0,.50672.41512,1.35153,1.35153,0,0,0,.95121.11332.87773.87773,0,0,0,.30268-.135.7516.7516,0,0,0,.21871-.23722.68616.68616,0,0,0,.08368-.35347.57609.57609,0,0,0-.09483-.33879.8424.8424,0,0,0-.25512-.23311,1.82637,1.82637,0,0,0-.379-.17145q-.21886-.07309-.45916-.15325a4.56779,4.56779,0,0,1-.4668-.175,1.55646,1.55646,0,0,1-.41923-.26951,1.305,1.305,0,0,1-.30239-.41219,1.40564,1.40564,0,0,1-.11655-.6083,1.33652,1.33652,0,0,1,.16381-.67817,1.45168,1.45168,0,0,1,.4301-.47032,1.92712,1.92712,0,0,1,.60507-.27714,2.65454,2.65454,0,0,1,.689-.091,2.45865,2.45865,0,0,1,.79825.13857,1.94481,1.94481,0,0,1,.70342.41571Z"/><path class="cls-1" d="M35.23688,38.65156a2.123,2.123,0,0,1-.1603.842,1.88786,1.88786,0,0,1-.43743.63766,1.91942,1.91942,0,0,1-.65616.40456,2.459,2.459,0,0,1-1.64757,0,1.95764,1.95764,0,0,1-.65968-.40456,1.81944,1.81944,0,0,1-.43744-.63766,2.16492,2.16492,0,0,1-.15677-.842V35.38518h.91862v3.23a1.76366,1.76366,0,0,0,.05812.448,1.10466,1.10466,0,0,0,.19318.39751.99571.99571,0,0,0,.35729.28419,1.44189,1.44189,0,0,0,1.10093,0,.99571.99571,0,0,0,.35729-.28419,1.10448,1.10448,0,0,0,.19317-.39751,1.76323,1.76323,0,0,0,.05813-.448v-3.23h.91862Z"/><path class="cls-1" d="M36.84571,35.38518h1.79348a3.2297,3.2297,0,0,1,.70695.07692,1.83027,1.83027,0,0,1,.60889.2513,1.31745,1.31745,0,0,1,.42628.45916,1.39145,1.39145,0,0,1,.16058.69285,1.3181,1.3181,0,0,1-.31706.9148,1.59307,1.59307,0,0,1-.864.47737l1.37777,2.28934h-1.108l-1.19576-2.18718h-.67054v2.18718h-.91861Zm1.6693,2.22358A2.69083,2.69083,0,0,0,38.9087,37.58a1.12189,1.12189,0,0,0,.35377-.1098.69053.69053,0,0,0,.25864-.22958.66142.66142,0,0,0,.10217-.38224.58964.58964,0,0,0-.09483-.34643.71278.71278,0,0,0-.24044-.21549,1.00809,1.00809,0,0,0-.33175-.10921,2.3349,2.3349,0,0,0-.36081-.02877h-.83113v1.45029Z"/><path class="cls-1" d="M43.81,35.38518h.79443l2.22359,5.16174H45.77821L45.297,39.36614h-2.238l-.4665,1.18078H41.56444Zm1.1664,3.19358-.79472-2.0997-.80911,2.0997Z"/><path class="cls-1" d="M47.87644,35.38518h1.21748l2.39856,3.86412h.01438V35.38518h.91862v5.16174h-1.1664l-2.44964-3.988h-.01439v3.988h-.91861Z"/><path class="cls-1" d="M57.76191,36.59591a1.17691,1.17691,0,0,0-.53227-.40515,1.78838,1.78838,0,0,0-1.37043.01821,1.71923,1.71923,0,0,0-.56515.401,1.78546,1.78546,0,0,0-.36433.59773,2.1174,2.1174,0,0,0-.12771.74394,2.30363,2.30363,0,0,0,.12389.7727,1.74107,1.74107,0,0,0,.35377.60126,1.58924,1.58924,0,0,0,.55046.39046,1.8046,1.8046,0,0,0,.72163.138,1.59665,1.59665,0,0,0,.7363-.16382,1.43484,1.43484,0,0,0,.51758-.43391l.7363.51788a2.36066,2.36066,0,0,1-.83847.667,2.66141,2.66141,0,0,1-1.15905.23662,2.9922,2.9922,0,0,1-1.1118-.20022,2.51355,2.51355,0,0,1-1.43972-1.42152,2.89024,2.89024,0,0,1-.204-1.10445,2.80343,2.80343,0,0,1,.2149-1.11914,2.48633,2.48633,0,0,1,.59069-.849,2.61144,2.61144,0,0,1,.88573-.53961,3.15875,3.15875,0,0,1,1.108-.18965,2.97962,2.97962,0,0,1,.51758.04756,2.63392,2.63392,0,0,1,.51759.14562,2.4908,2.4908,0,0,1,.4665.24426,1.50463,1.50463,0,0,1,.372.34995Z"/><path class="cls-1" d="M59.6194,35.38518h3.419v.80206H60.538v1.31231h2.3692v.77271H60.538v1.45792h2.63167v.81674H59.6194Z"/><path class="cls-1" d="M100.80093,36.59591a1.17761,1.17761,0,0,0-.532-.40515,1.78987,1.78987,0,0,0-1.371.01821,1.72091,1.72091,0,0,0-.56485.401,1.79087,1.79087,0,0,0-.36463.59773,2.11733,2.11733,0,0,0-.12742.74394,2.29612,2.29612,0,0,0,.1239.7727,1.7497,1.7497,0,0,0,.35347.60126,1.59041,1.59041,0,0,0,.55076.39046,1.80554,1.80554,0,0,0,.72162.138,1.5958,1.5958,0,0,0,.7363-.16382,1.4383,1.4383,0,0,0,.51788-.43391l.7363.51788a2.371,2.371,0,0,1-.83847.667,2.66142,2.66142,0,0,1-1.15906.23662,2.99039,2.99039,0,0,1-1.11208-.20022,2.51133,2.51133,0,0,1-1.43973-1.42152,2.8903,2.8903,0,0,1-.20433-1.10445,2.79336,2.79336,0,0,1,.21549-1.11914,2.489,2.489,0,0,1,.5901-.849,2.60989,2.60989,0,0,1,.886-.53961,3.15865,3.15865,0,0,1,1.108-.18965,2.99068,2.99068,0,0,1,.51788.04756,2.62525,2.62525,0,0,1,.51729.14562,2.52046,2.52046,0,0,1,.46679.24426,1.50843,1.50843,0,0,1,.37168.34995Z"/><path class="cls-1" d="M102.45556,37.95167a2.8863,2.8863,0,0,1,.20785-1.11914,2.455,2.455,0,0,1,.576-.849,2.54394,2.54394,0,0,1,.87487-.53961,3.12958,3.12958,0,0,1,1.10445-.18965,3.18526,3.18526,0,0,1,1.11561.18965,2.57488,2.57488,0,0,1,.88192.53961,2.43166,2.43166,0,0,1,.57953.849,2.88631,2.88631,0,0,1,.20786,1.11914,2.84717,2.84717,0,0,1-.20786,1.10445,2.55017,2.55017,0,0,1-.57953.86019,2.63408,2.63408,0,0,1-.88192.56133,3.02234,3.02234,0,0,1-1.11561.20022,2.96981,2.96981,0,0,1-1.10445-.20022,2.60321,2.60321,0,0,1-.87487-.56133,2.57586,2.57586,0,0,1-.576-.86019A2.84717,2.84717,0,0,1,102.45556,37.95167Zm.99876,0a2.18408,2.18408,0,0,0,.128.76155,1.76413,1.76413,0,0,0,.364.60184,1.66923,1.66923,0,0,0,.56133.39692,1.76563,1.76563,0,0,0,.7181.14209,1.79342,1.79342,0,0,0,.72221-.14209,1.66033,1.66033,0,0,0,.56485-.39692,1.77475,1.77475,0,0,0,.36463-.60184,2.19781,2.19781,0,0,0,.12741-.76155,2.13081,2.13081,0,0,0-.12741-.74394,1.82153,1.82153,0,0,0-.36111-.59773,1.68254,1.68254,0,0,0-.56133-.401,1.77933,1.77933,0,0,0-.72925-.14562,1.754,1.754,0,0,0-.72515.14562,1.69228,1.69228,0,0,0-.5578.401,1.81018,1.81018,0,0,0-.36052.59773A2.11747,2.11747,0,0,0,103.45432,37.95167Z"/><path class="cls-1" d="M109.56375,35.38518H111l1.34166,3.66742h.02173l1.327-3.66742h1.44324v5.16174h-.91127v-4.1483h-.01468l-1.56714,4.1483h-.64177l-1.54541-4.1483h-.01468v4.1483h-.87487Z"/><path class="cls-1" d="M117.07238,35.38518H118.757a3.6701,3.6701,0,0,1,.80148.08044,1.66876,1.66876,0,0,1,.61241.26246,1.225,1.225,0,0,1,.394.4668,1.55326,1.55326,0,0,1,.13857.68521,1.48189,1.48189,0,0,1-.16089.72163,1.30354,1.30354,0,0,1-.43332.47031,1.90327,1.90327,0,0,1-.63825.25894,3.59,3.59,0,0,1-.7727.07986h-.70695v2.13609h-.91891Zm1.56009,2.25294a2.72979,2.72979,0,0,0,.43039-.03288,1.17147,1.17147,0,0,0,.36463-.11685.66.66,0,0,0,.25483-.22958.68062.68062,0,0,0,.09512-.37872.61248.61248,0,0,0-.34642-.59068,1.07963,1.07963,0,0,0-.357-.10569,3.26442,3.26442,0,0,0-.41219-.02525h-.67054v1.47965Z"/><path class="cls-1" d="M123.3926,35.38518h.79443l2.22359,5.16174h-1.04985l-.48089-1.18078h-2.23826l-.46679,1.18078h-1.02754Zm1.16611,3.19358-.79443-2.0997-.80911,2.0997Z"/><path class="cls-1" d="M127.65716,35.38518h1.21778l2.39856,3.86412h.01468V35.38518h.91832v5.16174h-1.16669l-2.44906-3.988h-.01468v3.988h-.91891Z"/><path class="cls-1" d="M135.40712,38.30866l-1.93939-2.92348h1.12265l1.29763,2.1725,1.31231-2.1725h1.06453l-1.9394,2.92348v2.23826h-.91833Z"/><path class="cls-1" d="M68.28562,10.88493H66.94836v-.67758h3.45105v.67758H69.06215v3.68562h-.77653Z"/><path class="cls-1" d="M71.42812,10.20735h.77652V11.97h2.0401V10.20735h.77652v4.3632h-.77652V12.63527h-2.0401v1.93528h-.77652Z"/><path class="cls-1" d="M76.51911,10.20735H79.41v.67758H77.29563v1.10974H79.299v.65293h-2.0034v1.23245h2.22476v.6905H76.51911Z"/></g></svg>