<svg xmlns="http://www.w3.org/2000/svg" viewBox="0 0 439.24614 223.5841"><defs><style>.cls-1,.cls-5{fill:#838271;}.cls-2{fill:#ba0c2f;}.cls-3{fill:#c01f3f;}.cls-4{fill:#fff;}.cls-5{fill-rule:evenodd;}</style></defs><title>190325_CL_Legacy-Point_RBG_FR</title><g id="CL_NEW_FR" data-name="CL NEW FR"><path class="cls-1" d="M149.83027,175.21283a16.32528,16.32528,0,0,0,.44346,3.88708,8.94106,8.94106,0,0,0,1.4135,3.16,6.86518,6.86518,0,0,0,2.52215,2.12533,8.15306,8.15306,0,0,0,3.71393.783,7.9318,7.9318,0,0,0,2.80461-.46678,9.54138,9.54138,0,0,0,2.11067-1.07094,9.18378,9.18378,0,0,0,1.85045-1.53766,16.17471,16.17471,0,0,1,1.19413,1.59628,3.619,3.619,0,0,1,.72817,1.98733,1.59361,1.59361,0,0,1-.16091.60078,3.8478,3.8478,0,0,1-1.04787,1.22262,9.35,9.35,0,0,1-3.18735,1.65178,16.14135,16.14135,0,0,1-5.05046.69179,18.55613,18.55613,0,0,1-4.21314-.53847,10.74426,10.74426,0,0,1-4.27832-2.12512,12.3116,12.3116,0,0,1-3.34041-4.42421,17.5479,17.5479,0,0,1-1.35309-7.49575,15.7218,15.7218,0,0,1,1.41709-7.1168,12.72756,12.72756,0,0,1,3.48384-4.40428,12.59433,12.59433,0,0,1,4.39905-2.2459,15.74217,15.74217,0,0,1,4.10385-.64167,15.50094,15.50094,0,0,1,3.92156.45817,11.93427,11.93427,0,0,1,2.98319,1.17845,6.368,6.368,0,0,1,1.76139,1.40484,2.33175,2.33175,0,0,1,.58946,1.46992,7.0194,7.0194,0,0,1-1.60259,3.51387,11.50651,11.50651,0,0,0-2.809-2.18892,7.96068,7.96068,0,0,0-4.12383-1.09451,8.86541,8.86541,0,0,0-3.76071.72709,6.83684,6.83684,0,0,0-2.57463,2.04139,8.51879,8.51879,0,0,0-1.4754,3.0761A14.78646,14.78646,0,0,0,149.83027,175.21283Z"/><path class="cls-1" d="M194.94434,188.32313a5.58293,5.58293,0,0,1-.8942-2.532,35.901,35.901,0,0,1-.26677-5.00142v-9.65207a17.89074,17.89074,0,0,0-.50941-4.493,7.189,7.189,0,0,0-1.7679-3.25151,7.79032,7.79032,0,0,0-3.29609-1.95094,17.00593,17.00593,0,0,0-5.09407-.65028,22.97126,22.97126,0,0,0-3.66165.30049,19.57914,19.57914,0,0,0-3.39156.84142,9.9598,9.9598,0,0,0-2.49115,1.23205,1.89107,1.89107,0,0,0-.96046,1.47238,5.29051,5.29051,0,0,0,.37634,1.576,7.92458,7.92458,0,0,0,.99622,1.93767,16.69174,16.69174,0,0,1,3.73386-1.97682,13.34422,13.34422,0,0,1,4.72957-.76435q3.374,0,4.56442,1.28745a5.3438,5.3438,0,0,1,1.18947,3.75266v.92049a11.31779,11.31779,0,0,0-1.21817-.05816h-1.21821a37.163,37.163,0,0,0-4.72778.465,17.03746,17.03746,0,0,0-4.84379,1.51153,10.96419,10.96419,0,0,0-3.79965,3.02291,7.656,7.656,0,0,0-1.53731,4.94136h-.00016a8.81174,8.81174,0,0,0,.83978,4.10256,7.31513,7.31513,0,0,0,2.12953,2.55669,7.5888,7.5888,0,0,0,2.87927,1.30809,14.33964,14.33964,0,0,0,3.14927.35681,11.60447,11.60447,0,0,0,5.21736-1.00453,12.95016,12.95016,0,0,0,3.40272-2.43944,2.91453,2.91453,0,0,0,1.45926,2.38538,6.06387,6.06387,0,0,0,2.91863.67,9.46729,9.46729,0,0,0,1.01052-.05247,7.06258,7.06258,0,0,0,.82338-.13124.43243.43243,0,0,0,.25873-.68271Zm-6.67032-7.33182a2.32375,2.32375,0,0,1-.57736,1.416,6.06275,6.06275,0,0,1-1.56707,1.35923,10.30483,10.30483,0,0,1-2.28193,1.04778,8.664,8.664,0,0,1-2.7218.42476q-2.69473,0-3.684-1.30267a4.82582,4.82582,0,0,1-.98977-3.00169,4.35991,4.35991,0,0,1,.93479-2.91668,6.29958,6.29958,0,0,1,2.41941-1.72736,12.51358,12.51358,0,0,1,3.29911-.84952,28.92734,28.92734,0,0,1,3.57408-.22655H188.274Z"/><path class="cls-1" d="M224.80245,188.99472h-5.7138V173.285q0-1.62186-.11448-3.02465a6.55671,6.55671,0,0,0-.61093-2.39763,3.444,3.444,0,0,0-1.60346-1.5493,7.0449,7.0449,0,0,0-3.09244-.55323,8.6076,8.6076,0,0,0-4.79424,1.23846,3.86007,3.86007,0,0,0-2.0007,3.27395v18.72217H201.144V161.36524q.12461-.01506.29962-.03049c.09992-.01.21619-.01762.34963-.02285q.19954-.00753.47447-.00764a5.42706,5.42706,0,0,1,2.74347.701,3.1409,3.1409,0,0,1,1.48745,2.40778,12.28691,12.28691,0,0,1,3.63906-2.51657,12.45464,12.45464,0,0,1,5.444-1.10486,9.17821,9.17821,0,0,1,6.06934,1.77134,8.16624,8.16624,0,0,1,2.743,4.42851,13.24227,13.24227,0,0,1,.3501,2.62757q.05757,1.44744.05841,2.80466Z"/><path class="cls-1" d="M254.52205,188.32313a5.583,5.583,0,0,1-.8942-2.532,35.901,35.901,0,0,1-.26677-5.00142v-9.65207a17.89028,17.89028,0,0,0-.50941-4.493,7.18943,7.18943,0,0,0-1.7679-3.25151,7.79045,7.79045,0,0,0-3.29614-1.95094,17.00558,17.00558,0,0,0-5.094-.65028,22.97126,22.97126,0,0,0-3.66165.30049,19.58088,19.58088,0,0,0-3.39161.84142,9.95972,9.95972,0,0,0-2.49114,1.23205,1.8911,1.8911,0,0,0-.96041,1.47238,5.29042,5.29042,0,0,0,.37633,1.576,7.92583,7.92583,0,0,0,.99617,1.93767,16.69336,16.69336,0,0,1,3.73391-1.97682,13.34393,13.34393,0,0,1,4.72952-.76435q3.37409,0,4.56447,1.28745a5.3438,5.3438,0,0,1,1.18946,3.75266v.92049a11.31831,11.31831,0,0,0-1.21821-.05816h-1.21816a37.163,37.163,0,0,0-4.72778.465,17.03746,17.03746,0,0,0-4.84379,1.51153,10.96505,10.96505,0,0,0-3.79971,3.02291,7.65639,7.65639,0,0,0-1.53725,4.94136h-.00016a8.81174,8.81174,0,0,0,.83978,4.10256,7.3147,7.3147,0,0,0,2.12953,2.55669,7.58845,7.58845,0,0,0,2.87927,1.30809,14.33971,14.33971,0,0,0,3.14927.35681,11.60444,11.60444,0,0,0,5.21736-1.00453,12.95115,12.95115,0,0,0,3.40272-2.43944,2.91451,2.91451,0,0,0,1.45927,2.38538,6.0638,6.0638,0,0,0,2.91862.67,9.46715,9.46715,0,0,0,1.01052-.05247,7.06258,7.06258,0,0,0,.82338-.13124.43243.43243,0,0,0,.25873-.68271Zm-6.67037-7.33182a2.3236,2.3236,0,0,1-.57731,1.416,6.06275,6.06275,0,0,1-1.56707,1.35923,10.30462,10.30462,0,0,1-2.28193,1.04778,8.66392,8.66392,0,0,1-2.7218.42476q-2.69474,0-3.68405-1.30267a4.82582,4.82582,0,0,1-.98977-3.00169,4.35991,4.35991,0,0,1,.93479-2.91668,6.29966,6.29966,0,0,1,2.41941-1.72736,12.51308,12.51308,0,0,1,3.29911-.84952,28.92734,28.92734,0,0,1,3.57408-.22655h1.59454Z"/><path class="cls-1" d="M285.13037,188.32313a5.58293,5.58293,0,0,1-.8942-2.532,35.901,35.901,0,0,1-.26677-5.00142V152.33885a7.09549,7.09549,0,0,0-.34236-2.41628,3.62969,3.62969,0,0,0-.93576-1.46178,3.02236,3.02236,0,0,0-1.34652-.716,6.40293,6.40293,0,0,0-1.4835-.179q-.37818,0-.85823.0189a6.78589,6.78589,0,0,0-.721.05683v15.96072a10.92212,10.92212,0,0,0-2.79164-1.75765,11.23479,11.23479,0,0,0-4.80428-.89328,10.918,10.918,0,0,0-4.27008.86735,9.89583,9.89583,0,0,0-3.61953,2.631,13.067,13.067,0,0,0-2.48854,4.53921,20.75571,20.75571,0,0,0-.93315,6.59191,20.48248,20.48248,0,0,0,.9539,6.73442,11.51578,11.51578,0,0,0,2.56372,4.34387,9.3152,9.3152,0,0,0,3.66662,2.33229,13.14566,13.14566,0,0,0,4.26275.69968,9.52583,9.52583,0,0,0,5.03877-1.208,9.651,9.651,0,0,0,2.79928-2.3489,2.9145,2.9145,0,0,0,1.45926,2.38538,6.06389,6.06389,0,0,0,2.91863.67,9.4666,9.4666,0,0,0,1.01052-.05247,7.06258,7.06258,0,0,0,.82338-.13124.43244.43244,0,0,0,.25873-.68271ZM278.282,181.482a2.47056,2.47056,0,0,1-.435,1.34766,3.89644,3.89644,0,0,1-1.25081,1.17931,8.12241,8.12241,0,0,1-1.93065.84229,8.33081,8.33081,0,0,1-2.42008.33693,6.56655,6.56655,0,0,1-3.29019-.758,5.8043,5.8043,0,0,1-2.14807-2.13393,9.50982,9.50982,0,0,1-1.14212-3.22885,23.35942,23.35942,0,0,1-.32626-4.04312q0-4.71706,1.79464-7.13166a5.7736,5.7736,0,0,1,4.89453-2.41465,8.184,8.184,0,0,1,2.33844.3089,8.76352,8.76352,0,0,1,1.82186.758,6.41033,6.41033,0,0,1,1.30518.95461c.3174.31074.57874.57152.78853.78669Z"/><path class="cls-1" d="M313.90519,188.32313a5.583,5.583,0,0,1-.8942-2.532,35.89342,35.89342,0,0,1-.26676-5.00142v-9.65207a17.89025,17.89025,0,0,0-.50942-4.493,7.18991,7.18991,0,0,0-1.7679-3.25151,7.79082,7.79082,0,0,0-3.29614-1.95094,17.00558,17.00558,0,0,0-5.094-.65028,22.97088,22.97088,0,0,0-3.66165.30049,19.58,19.58,0,0,0-3.39161.84142,9.9598,9.9598,0,0,0-2.49115,1.23205,1.8912,1.8912,0,0,0-.96046,1.47238,5.291,5.291,0,0,0,.37639,1.576,7.92409,7.92409,0,0,0,.99617,1.93767,16.69282,16.69282,0,0,1,3.73386-1.97682,13.34422,13.34422,0,0,1,4.72957-.76435q3.37409,0,4.56447,1.28745a5.3438,5.3438,0,0,1,1.18946,3.75266v.92049a11.31831,11.31831,0,0,0-1.21821-.05816h-1.21816a37.163,37.163,0,0,0-4.72778.465,17.0373,17.0373,0,0,0-4.84378,1.51153,10.96441,10.96441,0,0,0-3.79971,3.02291,7.656,7.656,0,0,0-1.53726,4.94136h-.00021a8.81171,8.81171,0,0,0,.83983,4.10256,7.3146,7.3146,0,0,0,2.12953,2.55669,7.58856,7.58856,0,0,0,2.87923,1.30809,14.34023,14.34023,0,0,0,3.14926.35681,11.60453,11.60453,0,0,0,5.21741-1.00453,12.94989,12.94989,0,0,0,3.40267-2.43944,2.91467,2.91467,0,0,0,1.45932,2.38538,6.0638,6.0638,0,0,0,2.91862.67,9.46729,9.46729,0,0,0,1.01052-.05247,7.06434,7.06434,0,0,0,.82338-.13124.43249.43249,0,0,0,.25873-.68271Zm-6.67037-7.33182a2.32375,2.32375,0,0,1-.57736,1.416,6.06108,6.06108,0,0,1-1.56707,1.35923,10.30272,10.30272,0,0,1-2.28193,1.04778,8.66366,8.66366,0,0,1-2.72175.42476q-2.69473,0-3.6841-1.30267a4.82608,4.82608,0,0,1-.98972-3.00169,4.36015,4.36015,0,0,1,.93474-2.91668,6.29992,6.29992,0,0,1,2.41942-1.72736,12.51378,12.51378,0,0,1,3.29915-.84952,28.92673,28.92673,0,0,1,3.57408-.22655h1.59454Z"/><path class="cls-2" d="M343.60291,158.97335c8.08592,0,10.34761,5.31754,10.40408,12.572.02377,3.05243-.05442,7.43267-.16316,10.33387-.04151,1.12229.64116,1.1146,1.2715.66545,4.49165-3.2475,8.09161-8.21613,10.81018-12.8634a9.1115,9.1115,0,0,1-1.29927-4.74c0-3.34123,1.75852-5.5571,4.27273-5.5571,2.23432,0,4.03158,1.708,4.03158,4.96309a11.23036,11.23036,0,0,1-.85167,4.13371,6.81261,6.81261,0,0,0,1.81219.21686c5.15278-.01609,8.195-2.278,9.65514-7.08175.01471-.04822.11156-.38622.20241-.68533.792-2.60783,6.11915-1.3516,5.51555,1.201-.8074,3.406-1.91216,7.729-2.7,11.48044a25.27658,25.27658,0,0,0-.66252,4.80254c0,3.66566,1.76908,5.36571,5.33219,5.36571a19.61525,19.61525,0,0,0,7.99553-2.08571,14.44427,14.44427,0,0,1-2.12712-7.97764c0-9.50465,7.10363-15.81565,14.70791-15.81565,5.88276,0,9.8032,2.98207,9.8032,8.81732,0,6.40242-6.00641,11.58934-13.53562,15.545a12.43257,12.43257,0,0,0,6.32546,1.41078,35.38761,35.38761,0,0,0,23.5863-9.62409V112.8981h-110.686v51.78578C332.14261,161.76761,337.93389,158.97335,343.60291,158.97335Zm45.71235-12.34615a3.83552,3.83552,0,0,1,3.86063,4.04055,4.2715,4.2715,0,0,1-4.22108,4.0405,3.83462,3.83462,0,0,1-3.86-4.0405A4.27042,4.27042,0,0,1,389.31526,146.6272Z"/><path class="cls-3" d="M411.51215,162.7006c-3.78976,0-8.37375,3.91613-8.421,11.0976a9.09014,9.09014,0,0,0,1.42683,5.31c5.82956-3.34272,11.18468-7.29036,11.18468-12.24643A3.86422,3.86422,0,0,0,411.51215,162.7006Z"/><path class="cls-2" d="M414.37318,188.40932c-3.91669,0-8.6272-.76374-11.883-3.24689a25.93722,25.93722,0,0,1-11.9238,3.34c-5.88,0-10.483-2.85329-10.483-9.44311a31.99871,31.99871,0,0,1,1.2918-7.66521,14.79675,14.79675,0,0,1-7.59424,1.89109,10.50838,10.50838,0,0,1-3.73489-.70885c-4.29256,7.147-10.4959,12.87125-14.68131,15.39714a6.23319,6.23319,0,0,1-2.87482.82364c-3.20815,0-4.54345-1.80618-4.50758-4.53623.04458-3.394.16957-10.00468.16957-12.91736,0-6.02727-2.11954-7.66424-5.57289-7.66424-4.2383,0-10.74,3.2495-15.27559,6.2821V223.5841h110.686V180.17182A37.627,37.627,0,0,1,414.37318,188.40932Z"/><path class="cls-4" d="M388.95481,154.7082a4.27146,4.27146,0,0,0,4.22108-4.0405,3.83555,3.83555,0,0,0-3.86063-4.04055,4.27045,4.27045,0,0,0-4.22042,4.04055A3.83459,3.83459,0,0,0,388.95481,154.7082Z"/><path class="cls-4" d="M414.40317,183.67462a12.432,12.432,0,0,1-6.32546-1.41083c7.52921-3.95565,13.53562-9.14251,13.53562-15.545,0-5.83526-3.92044-8.81727-9.8032-8.81727-7.60428,0-14.70791,6.31095-14.70791,15.81565a14.44457,14.44457,0,0,0,2.12712,7.97769,19.61675,19.61675,0,0,1-7.99553,2.08566c-3.56311,0-5.33219-1.70005-5.33219-5.36576a25.27766,25.27766,0,0,1,.66252-4.80254c.78787-3.75144,1.89263-8.07444,2.7-11.48044.6036-2.55265-4.72358-3.80883-5.51555-1.20105-.09085.29916-.1877.63716-.20241.68538-1.46013,4.80372-4.50236,7.06561-9.65514,7.08175a6.81241,6.81241,0,0,1-1.81219-.21691,11.2302,11.2302,0,0,0,.85167-4.13376c0-3.255-1.79726-4.96294-4.03158-4.96294-2.51421,0-4.27273,2.21572-4.27273,5.55705a9.11163,9.11163,0,0,0,1.29927,4.74c-2.71857,4.64722-6.31853,9.6159-10.81018,12.8634-.63034.4491-1.313.45679-1.2715-.6655.10874-2.90115.18693-7.28145.16316-10.33377-.05647-7.25459-2.31816-12.57208-10.40408-12.57208-5.669,0-11.4603,2.79426-16.29943,5.71047v5.27763c4.53556-3.0326,11.03729-6.28215,15.27559-6.28215,3.45335,0,5.57289,1.637,5.57289,7.66424,0,2.91273-.125,9.52335-.16957,12.91741-.03587,2.73005,1.29943,4.53623,4.50758,4.53623a6.232,6.232,0,0,0,2.87482-.82369c4.18541-2.52584,10.38875-8.25015,14.68131-15.39709a10.50593,10.50593,0,0,0,3.73489.7088,14.79575,14.79575,0,0,0,7.59424-1.891,31.99835,31.99835,0,0,0-1.2918,7.66516c0,6.58987,4.603,9.44306,10.483,9.44306a25.93721,25.93721,0,0,0,11.9238-3.33995c3.25576,2.4831,7.96627,3.24684,11.883,3.24684a37.62724,37.62724,0,0,0,23.61629-8.23745v-6.12135A35.38794,35.38794,0,0,1,414.40317,183.67462Zm-11.312-9.87637c.0472-7.18152,4.63119-11.0976,8.421-11.0976a3.86416,3.86416,0,0,1,4.19056,4.16108c0,4.95612-5.35512,8.90371-11.18468,12.24653A9.09035,9.09035,0,0,1,403.0912,173.79825Z"/></g><g id="Divider_Horizontal_FR" data-name="Divider Horizontal FR"><polygon class="cls-1" points="381.487 91.521 367.504 78.415 0 78.415 0 77.606 367.826 77.606 381.493 90.415 395.337 77.606 438.2 77.606 438.2 78.415 395.653 78.415 381.487 91.521"/></g><g id="CL_FR" data-name="CL FR"><path class="cls-1" d="M384.1937,25.68463a3.74753,3.74753,0,0,0-3.1777-1.44587c-2.94452,0-5.01246,2.7668-5.01246,6.21926,0,3.8553,2.14566,5.769,4.73134,5.769a4.05228,4.05228,0,0,0,3.58007-1.69349v1.39991h2.81445V20.08515h-2.9357Zm0,7.42262a3.08819,3.08819,0,0,1-2.40431,1.3916c-1.60646.00242-2.76459-1.43365-2.76459-4.26082,0-3.14386,1.49695-4.18295,2.84867-4.18295a2.92879,2.92879,0,0,1,2.32023,1.46626Z"/><path class="cls-1" d="M333.97011,34.0261c-3.412,0-5.37741-2.57784-5.37741-6.01576,0-4.18345,2.4814-6.27573,5.37886-6.27573a4.68591,4.68591,0,0,1,4.13359,2.3586l1.2723-.95454s-1.02873-3.34405-5.98277-3.34405a8.07373,8.07373,0,0,0-8.13149,8.34735c0,5.41871,3.77095,8.10266,7.84307,8.10266,4.677,0,6.27119-3.24519,6.27119-3.24519l-.95369-.91906A5.27582,5.27582,0,0,1,333.97011,34.0261Z"/><path class="cls-1" d="M358.79884,24.22948a4.76418,4.76418,0,0,0-3.66,1.79564V24.54579h-2.91261v11.384h2.91261V27.428a3.21554,3.21554,0,0,1,2.43339-1.38058,1.74612,1.74612,0,0,1,1.77023,1.314,3.92813,3.92813,0,0,1,.11269,1.14129V35.9298h2.93706V28.194a4.00907,4.00907,0,0,0-.8976-2.93438A3.703,3.703,0,0,0,358.79884,24.22948Z"/><path class="cls-1" d="M345.2199,24.22324a5.62825,5.62825,0,0,0-4.70006,2.48376l.83548.79492a4.489,4.489,0,0,1,3.24993-1.46591,2.44787,2.44787,0,0,1,2.66525,2.72279c0,.19276.00966.36044.00966.36044a7.93632,7.93632,0,0,0-2.65045-.48424c-2.60866,0-4.73528,1.44709-4.73528,4.03079,0,2.18627,1.68736,3.57884,3.96809,3.57884a4.44469,4.44469,0,0,0,3.53594-1.57369V35.9298h2.7525V29.39936C350.151,25.49787,348.07188,24.22324,345.2199,24.22324Zm2.06026,9.42715a3.77034,3.77034,0,0,1-2.30017.80175,1.8649,1.8649,0,0,1-2.01834-1.98239,2.15082,2.15082,0,0,1,2.43144-2.10241,4.99949,4.99949,0,0,1,1.88707.41358Z"/><path class="cls-1" d="M369.36312,24.22324a5.61861,5.61861,0,0,0-4.69531,2.48376l.83415.79492a4.48883,4.48883,0,0,1,3.24811-1.46591,2.448,2.448,0,0,1,2.66535,2.72279c0,.19276.00733.36044.00733.36044a7.90061,7.90061,0,0,0-2.6497-.48424c-2.60476,0-4.72955,1.44709-4.72955,4.03079,0,2.18627,1.68481,3.57884,3.962,3.57884a4.44671,4.44671,0,0,0,3.53994-1.57369V35.9298h2.74995V29.39936C374.2954,25.49787,372.2167,24.22324,369.36312,24.22324Zm2.05963,9.42715a3.75463,3.75463,0,0,1-2.29527.80175,1.86312,1.86312,0,0,1-2.01664-1.98239,2.1483,2.1483,0,0,1,2.42974-2.10241,4.987,4.987,0,0,1,1.88217.41358Z"/><path class="cls-1" d="M394.1971,24.22324a5.62574,5.62574,0,0,0-4.69861,2.48376l.8355.79492a4.48922,4.48922,0,0,1,3.24858-1.46591,2.44971,2.44971,0,0,1,2.66635,2.72279c0,.19276.00636.36044.00636.36044a7.91321,7.91321,0,0,0-2.6502-.48424c-2.60866,0-4.73137,1.44709-4.73137,4.03079,0,2.18627,1.68615,3.57884,3.96333,3.57884a4.44388,4.44388,0,0,0,3.53849-1.57369V35.9298h2.75386V29.39936C399.12939,25.49787,397.0497,24.22324,394.1971,24.22324Zm2.05818,9.42715a3.76166,3.76166,0,0,1-2.29823.80175,1.86355,1.86355,0,0,1-2.01368-1.98239,2.14849,2.14849,0,0,1,2.42827-2.10241,4.96488,4.96488,0,0,1,1.88364.41358Z"/><path class="cls-1" d="M439.03059,28.29058a4.84378,4.84378,0,0,0-5.17966-4.06488,5.82738,5.82738,0,0,0-5.90906,5.97468c0,3.49474,2.0518,6.046,6.03959,6.046a5.44508,5.44508,0,0,0,5.16645-2.81521l-.769-.70421a4.72662,4.72662,0,0,1-3.90759,1.66927c-2.32266,0-3.54337-1.80616-3.604-3.86091h8.37251A8.93839,8.93839,0,0,0,439.03059,28.29058Zm-8.09925.55818c.29969-1.90858,1.34735-2.85345,2.79884-2.85345a2.41716,2.41716,0,0,1,2.55584,2.5264c.00636.15154.00733.327.00733.327Z"/><path class="cls-1" d="M401.90522,28.60714h6.38622l-2.39723.954,2.39723-.954v1.90808h-6.38622Z"/><path class="cls-1" d="M410.50411,20.10139l4.879,11.17576,4.815-11.17576h2.73136l-7.54632,16.14617h-.78171l-7.56783-16.14617Z"/><polygon class="cls-1" points="423.431 35.923 426.344 35.923 426.344 24.552 424.887 27.032 426.344 24.552 423.431 24.552 423.431 35.923"/><path class="cls-1" d="M423.28923,21.36466a1.59117,1.59117,0,1,1,1.58883,1.55682A1.57609,1.57609,0,0,1,423.28923,21.36466Z"/><path class="cls-1" d="M298.60814,25.90547a.82.82,0,1,1-.82218.82057A.82138.82138,0,0,1,298.60814,25.90547Zm15.83693,3.33109c-.04437.15083-.08385.32535-.1237.52554a13.59131,13.59131,0,0,1-12.95206,10.57051l-.37887.01124-.002-.10633.37889-.01a12.79386,12.79386,0,0,0,3.74139-.94818,12.98342,12.98342,0,0,0,7.31249-8.1425v.002s.09462-.30628.16182-.56146a1.23808,1.23808,0,0,0-.96137.76143c-.05672.10437-.12968.21118-.1865.33706a11.47949,11.47949,0,0,1-11.174,6.43267l-.37876-.01127.00366-.10437.37888.013a10.62149,10.62149,0,0,0,9.87925-6.98679H310.143s.11206-.30089.18968-.55a1.23911,1.23911,0,0,0-1.00134.70373c-.02455.044-.05562.08408-.08225.13a9.41155,9.41155,0,0,1-4.45478,3.89906,9.12948,9.12948,0,0,1-5.419.58591l-.37521-.06087.018-.10265.37338.06085a8.38881,8.38881,0,0,0,4.09092-.62429,8.49518,8.49518,0,0,0,4.99559-6.18759s.0456-.31594.07113-.57506c0,0-.54631.093-.83061.901a6.92428,6.92428,0,0,1-6.90146,4.54167,3.22083,3.22083,0,0,1-2.79712-3.19382,3.16667,3.16667,0,0,1,3.19335-3.19555.41113.41113,0,0,1,.17879.04974l.03229-.07064a4.8959,4.8959,0,0,0-7.18736-.82463,6.9639,6.9639,0,0,1,13.36-2.4599,7.59563,7.59563,0,0,1,.36775,1.05316,1.13914,1.13914,0,0,0,.49437.6414c-.03213-.24039-.07186-.47763-.11952-.71632l.00221.001a8.13637,8.13637,0,0,0-.397-1.13,8.50627,8.50627,0,0,0-11.16412-4.46772,8.37873,8.37873,0,0,0-3.26448,2.52357l-.20753.31607-.08813-.0572.20925-.31486a9.18813,9.18813,0,0,1,16.16594,1.29163,1.13073,1.13073,0,0,0,.61062.52859q-.11606-.34264-.25814-.67795a10.76213,10.76213,0,0,0-14.13233-5.651,10.58927,10.58927,0,0,0-3.38511,2.34684l-.253.27866-.07857-.06929.2537-.28a11.35692,11.35692,0,0,1,19.2272,2.68174,4.85375,4.85375,0,0,0,.26227.6133,1.50328,1.50328,0,0,0,.59192.554c-.06991-.23271-.1469-.461-.23211-.68909l.002.00075c-.08213-.21732-.165-.43218-.25567-.64446A12.90738,12.90738,0,0,0,291.58955,17.4l-.275.26069-.07186-.07469.27375-.26324A13.57033,13.57033,0,0,1,313.59957,21.472c.145.32229.26888.65437.379.98117a10.91186,10.91186,0,0,1,.63908,2.54865,1.53913,1.53913,0,0,0,.4708.718c-.01869-.242-.04167-.482-.07784-.72353h.002a13.02954,13.02954,0,0,0-1.0627-3.67416,15.31659,15.31659,0,1,0,1.148,7.55109l-.002.00378s.03044-.31972.0418-.58091C315.13769,28.29609,314.68682,28.41585,314.44507,29.23656Z"/></g><g id="Divider_2" data-name="Divider 2"><polygon class="cls-1" points="260.961 56.313 260.156 56.313 260.156 0 260.961 0 260.513 0.648 260.961 0 260.961 56.313"/></g><g id="LL_Alt_FR" data-name="LL Alt FR"><path class="cls-5" d="M202.99125,45.31237l1.65444-8.2803c-.275-.32639-.46467-.57077-.92291-1.04186-.6753-.46145-.99365-.79589-1.72038-1.222-.66564-.39551-1.4776-.8875-2.14325-1.283l-2.5162-1.26215A16.79124,16.79124,0,0,0,193.0597,33.966V28.66174l-2.05-1.87149-5.03407-4.12569H185.109l-5.03574,4.12569-2.05,1.87149V33.966a16.82741,16.82741,0,0,0-4.28163-1.74288l-2.51787,1.26215c-.66565.39553-1.47756.88752-2.1432,1.283-.72673.42607-1.0467.76051-1.72039,1.222-.45823.47109-.648.71547-.9229,1.04186l1.65444,8.2803a9.83855,9.83855,0,0,1,5.01484,1.46955l-3.29121,2.71243c3.51309,1.95831,5.90069,4.80257,10.17752,6.15473l4.14659-4.49225-.01933,6.50366a13.99723,13.99723,0,0,0,2.84265,0l-.01767-6.50366,4.1466,4.49225c4.27521-1.35216,6.66119-4.19642,10.1759-6.15473L197.978,46.78192a9.83229,9.83229,0,0,1,5.01322-1.46955"/><path class="cls-5" d="M217.15138,28.50932a1.95756,1.95756,0,0,0,2.00336-2.00493,1.98624,1.98624,0,0,0-2.00336-2.11753,2.01408,2.01408,0,0,0-2.11915,2.11753,1.98879,1.98879,0,0,0,2.11915,2.00493M236.389,35.148c0-.22669.05628-.57078.05628-.91486,0-3.14811-1.88922-5.32349-5.26724-5.32349-2.80564,0-5.38141,2.11751-5.38141,5.838,0,3.952,2.74779,5.957,6.5262,5.957a7.135,7.135,0,0,0,3.32173-.74442l.17046-2.005a6.778,6.778,0,0,1-3.32017.80232c-2.177,0-3.60637-1.26053-3.60637-4.12248,0-2.46157,1.029-3.77838,2.51787-3.77838a1.77488,1.77488,0,0,1,1.94708,1.65928c0,.57239-.45824.91647-1.37471.91647-.80068,0-1.71715,0-2.632-.0579l.85857,1.8892c.68655-.05628,1.48884-.11577,2.40369-.11577ZM218.46819,11.84745c1.71877,0,2.6899,1.37466,2.6899,3.95043,0,2.57734-.97113,3.95043-2.6899,3.95043-1.7172,0-2.69152-1.37309-2.69152-3.95043,0-2.57577.97432-3.95043,2.69152-3.95043m0-2.05963c-3.89415,0-5.78337,2.804-5.78337,6.01006,0,3.20761,1.88922,6.01164,5.78337,6.01164,3.89253,0,5.78171-2.804,5.78171-6.01164,0-3.206-1.88918-6.01006-5.78171-6.01006m1.25891,21.75386h1.14478v5.26886a12.53116,12.53116,0,0,1-.40033,3.60635h3.55a12.52358,12.52358,0,0,1-.402-3.60635V31.54168h2.005a.7543.7543,0,0,0,.86019-.74442l.17041-1.31519a11.74612,11.74612,0,0,1-1.66087.11415h-1.37471V28.45144c0-1.31678.574-2.40529,2.005-2.40529a3.797,3.797,0,0,1,1.71714.45824V24.501a5.96792,5.96792,0,0,0-2.28951-.45824c-2.51949,0-4.18036,1.43094-4.18036,4.69482v.80232ZM206.723,26.104a12.1632,12.1632,0,0,1,.574,4.3508v5.61129a12.156,12.156,0,0,1-.574,4.3508h7.50695c.402,0,.74445-.11416.8023-.63027l.17208-1.83133a9.39922,9.39922,0,0,1-3.034.45824c-1.09331,0-1.78147-.2878-1.78147-1.603V30.4548a12.26575,12.26575,0,0,1,.57079-4.3508Zm12.48961,14.31289a12.52358,12.52358,0,0,1-.402-3.60635V33.3746a12.52354,12.52354,0,0,1,.402-3.60635h-3.5501a12.52873,12.52873,0,0,1,.40039,3.60635v3.43594a12.52877,12.52877,0,0,1-.40039,3.60635ZM183.42241,9.78782c-3.89258,0-5.78176,2.804-5.78176,6.01006,0,3.20761,1.88918,6.01164,5.78176,6.01164,3.89415,0,5.78171-2.804,5.78171-6.01164,0-3.206-1.88756-6.01006-5.78171-6.01006m0,2.05963c1.71877,0,2.69147,1.37466,2.69147,3.95043,0,2.57734-.9727,3.95043-2.69147,3.95043-1.7172,0-2.69152-1.37309-2.69152-3.95043,0-2.57577.97432-3.95043,2.69152-3.95043m20.61229,4.12246c0-2.91983,1.14478-4.06461,2.7478-4.06461,1.48722,0,2.23167,1.03065,2.23167,2.91983V19.2338a8.66074,8.66074,0,0,1-2.00336.40033c-1.48884,0-2.97611-.85857-2.97611-3.66422m8.02147,5.15306a15.23817,15.23817,0,0,1-.29425-3.09185V9.902a15.25028,15.25028,0,0,1,.29425-3.09186H208.728a15.78329,15.78329,0,0,1,.28621,3.09186v.91647a6.3746,6.3746,0,0,0-3.034-.86019c-2.51949,0-5.03893,1.66091-5.03893,5.8975,0,3.95043,2.51944,5.72548,4.92313,5.72548a7.05138,7.05138,0,0,0,2.11915-.45824L208.9,19.74831h.11418V21.123ZM224.766,10.47436a15.77085,15.77085,0,0,1,.28621,3.09186v4.4649A15.77066,15.77066,0,0,1,224.766,21.123h3.26227A15.46472,15.46472,0,0,1,227.8,18.14529V15.79788c0-2.40374.68816-3.49219,2.29118-3.49219s2.28952,1.08845,2.28952,3.49219v2.34741a15.322,15.322,0,0,1-.22993,2.97768h3.26388a15.771,15.771,0,0,1-.28616-3.09185V14.19486c0-2.00335-.68654-4.407-3.89258-4.407A3.51006,3.51006,0,0,0,227.8,11.73489l-.11413-.05952.05785-1.201Zm-34.9895,0a15.75969,15.75969,0,0,1,.28778,3.09186v4.4649a15.7595,15.7595,0,0,1-.28778,3.09185h3.26389a15.33623,15.33623,0,0,1-.22831-2.97768V15.79788c0-2.40374.68654-3.49219,2.28951-3.49219,1.60464,0,2.28956,1.08845,2.28956,3.49219v2.34741a15.33708,15.33708,0,0,1-.2283,2.97768h3.26388a15.77066,15.77066,0,0,1-.28621-3.09185V14.19486c0-2.00335-.68654-4.407-3.89415-4.407a3.50913,3.50913,0,0,0-3.43429,1.94707l-.11418-.05952.05628-1.201ZM169.39574,6.81009a12.22289,12.22289,0,0,1,.57236,4.35082v5.6113a12.22225,12.22225,0,0,1-.57236,4.35076h7.55675c.68816,0,.97437-.28616.97437-.80229a10.66149,10.66149,0,0,0-.11418-1.48722,4.46251,4.46251,0,0,1-2.06125.34244h-1.0885c-1.14473,0-1.603-.17041-1.603-2.28952V11.16091a12.22161,12.22161,0,0,1,.57237-4.35082Z"/></g><g id="Divider_1" data-name="Divider 1"><polygon class="cls-1" points="144.78 56.313 143.976 56.313 143.976 0 144.78 0 144.33 0.835 144.78 0 144.78 56.313"/></g><g id="GWL_FR" data-name="GWL FR"><path class="cls-1" d="M106.10325,23.67c-.85448,0-1.23543-.32774-1.23543-.57564,0-.19075.19079-.85053,1.315-.85053a1.11364,1.11364,0,0,1,1.20931,1.09843h3.89708c0-2.5241-4.008-2.85595-5.3799-2.85595-1.15193,0-5.13314.33185-5.13314,2.71849-.1104,1.94854,1.62123,1.94854,3.32128,2.223.38533.11088,2.14292.11088,2.58142.19458a.61663.61663,0,0,1,.60239.51826c0,.52279-.385.824-1.3155.77027-.771,0-1.34552-.24748-1.34552-.77027H100.6658c0,2.66567,4.28162,2.58154,5.3,2.58154,1.178-.05333,5.59712-.11,5.59712-2.58154C111.56291,23.426,107.47583,23.67,106.10325,23.67Z"/><path class="cls-1" d="M117.65936,18.42711h-2.22252a2.54814,2.54814,0,0,1-2.33308,2.391h-.8243V22.572h1.47986v3.62645c0,1.75732,2.33292,2.276,3.76274,2.276.57674,0,2.5245-.328,3.4323-.46564V26.25172c-1.86878.27418-3.4323.52232-3.4323-.76706V22.572h3.4323V20.81814h-3.295Z"/><polygon class="cls-1" points="83.455 17.905 82.299 21.474 81.587 23.67 79.828 17.905 77.88 17.905 75.932 17.905 74.258 23.727 72.252 17.905 67.833 17.905 71.593 28.2 75.631 28.2 77.88 22.107 80.16 28.2 84.248 28.2 87.954 17.905 83.455 17.905"/><path class="cls-1" d="M20.80635,20.81814H17.37483l-.07976,7.38165H21.1382V25.15332c0-2.24973,2.471-1.81108,3.56882-1.81108v-2.719A5.38907,5.38907,0,0,0,21.1382,21.722,1.90743,1.90743,0,0,0,20.80635,20.81814Z"/><path class="cls-1" d="M31.26559,20.48629h-.08054c-3.378,0-6.23407,1.70442-6.23407,4.09138s2.47117,4.09111,6.23407,4.09111c4.03407,0,5.51752-1.70419,6.03969-2.6652H32.99629c-.52233,1.04491-3.48454,1.23543-3.67939-.65568,2.66508,0,4.86164,0,7.96132-.05735C37.27822,25.29055,37.27822,20.48629,31.26559,20.48629Zm-1.8913,3.13041c.381-1.75775,3.56914-1.83763,3.95024,0Z"/><path class="cls-1" d="M7.824,19.85712c2.139,0,2.79833,1.28872,2.852,1.86483h4.88792c-.32841-3.04627-4.36576-4.33522-7.79728-4.33522C4.6668,17.38673,0,19.14018,0,23.20478c0,3.8968,3.62215,5.60146,7.824,5.60146a32.16383,32.16383,0,0,0,7.73989-1.125V22.81988h-6.81v2.223a16.6418,16.6418,0,0,0,2.39094,0l.05333.77023a12.84023,12.84023,0,0,1-3.43152.43862,3.13846,3.13846,0,0,1-3.37429-3.15738A3.17447,3.17447,0,0,1,7.824,19.85712Z"/><path class="cls-1" d="M93.39178,20.3493c-3.32221,0-6.15025,1.84141-6.15025,4.22837s2.4438,4.09111,6.20342,4.09111c4.038,0,5.4631-1.70419,6.03984-2.6652H95.2027c-.5231,1.04491-3.4861,1.23543-3.62247-.65568h7.96148C99.54171,22.49171,97.48293,20.3493,93.39178,20.3493ZM91.6334,23.6167c.27352-2.032,3.515-1.89475,3.90052,0Z"/><polygon class="cls-1" points="61.794 25.153 66.983 25.153 66.983 22.957 65.472 23.617 66.983 22.957 61.794 22.957 61.794 25.153"/><path class="cls-1" d="M56.74175,18.42711H54.59883a2.553,2.553,0,0,1-2.38673,2.391H51.362V22.572h1.483v3.62645c0,1.75732,2.33371,2.276,3.759,2.276a13.76875,13.76875,0,0,0,3.43153-.46564V26.25172c-1.81092.27418-3.29375.52232-3.29375-.71311L56.604,22.572H60.0355V20.81814H56.74175Z"/><path class="cls-1" d="M49.74109,25.53861l-.08351-1.62072a2.55955,2.55955,0,0,0-1.42622-2.63459c-3.10405-1.56313-6.8094-.8503-9.33422.19075l1.09844,1.67768c3.18366-1.62052,6.23-.90792,5.84906.137-.38471.76616-2.33356.71287-3.95385.76616-2.08568,0-3.65249.7135-3.65249,2.52845,0,1.89111,2.85572,2.13878,3.78964,2.13878a12.87932,12.87932,0,0,0,4.66727-.82356,5.76511,5.76511,0,0,0,4.80394.30124V26.66336a4.67469,4.67469,0,0,1-.93439.11068C49.79457,26.774,49.65758,26.19843,49.74109,25.53861Zm-5.37975,1.563c-.60646.19415-1.70442.27489-1.84189-.38126-.10649-1.42977,2.14324-.96055,3.32519-1.4831A1.95506,1.95506,0,0,1,44.36134,27.10158Z"/><path class="cls-1" d="M4.115,37.55457a.94822.94822,0,0,0-.42943-.32153A1.45861,1.45861,0,0,0,2.58,37.24743a1.38257,1.38257,0,0,0-.456.31871,1.41316,1.41316,0,0,0-.294.47509,1.66278,1.66278,0,0,0-.1029.59113,1.80322,1.80322,0,0,0,.10009.614,1.37986,1.37986,0,0,0,.28524.47822,1.27859,1.27859,0,0,0,.44413.31,1.47094,1.47094,0,0,0,.58206.11009,1.30106,1.30106,0,0,0,.594-.13042,1.15474,1.15474,0,0,0,.41754-.34467l.59426.41129a1.89758,1.89758,0,0,1-.67652.53014,2.171,2.171,0,0,1-.93517.18828,2.446,2.446,0,0,1-.8967-.1592,2.064,2.064,0,0,1-.70279-.44631A2.02422,2.02422,0,0,1,1.0743,39.51a2.26738,2.26738,0,0,1-.16483-.87763,2.19744,2.19744,0,0,1,.17359-.88951,1.97682,1.97682,0,0,1,.47634-.67495,2.11971,2.11971,0,0,1,.71467-.4288,2.582,2.582,0,0,1,.89389-.15075,2.45881,2.45881,0,0,1,.41755.03753,2.15667,2.15667,0,0,1,.41754.116,2.04118,2.04118,0,0,1,.37657.19423,1.20169,1.20169,0,0,1,.29994.27805Z"/><path class="cls-1" d="M5.46339,38.63236a2.26712,2.26712,0,0,1,.16764-.88951,1.95286,1.95286,0,0,1,.46477-.67495,2.061,2.061,0,0,1,.7056-.4288,2.55836,2.55836,0,0,1,.89108-.15075,2.59945,2.59945,0,0,1,.89983.15075,2.08756,2.08756,0,0,1,.71154.4288,1.92637,1.92637,0,0,1,.46759.67495,2.26158,2.26158,0,0,1,.16764.88951,2.22839,2.22839,0,0,1-.16764.87763,2.01488,2.01488,0,0,1-.46759.68371,2.12728,2.12728,0,0,1-.71154.44631,2.46882,2.46882,0,0,1-.89983.1592A2.43,2.43,0,0,1,6.8014,40.64a2.10083,2.10083,0,0,1-.7056-.44631A2.04379,2.04379,0,0,1,5.631,39.51,2.23392,2.23392,0,0,1,5.46339,38.63236Zm.806,0a1.71236,1.71236,0,0,0,.1029.60552,1.40229,1.40229,0,0,0,.294.47791,1.34656,1.34656,0,0,0,.45288.31589,1.44433,1.44433,0,0,0,.57925.11291,1.46831,1.46831,0,0,0,.58237-.11291,1.34264,1.34264,0,0,0,.4557-.31589,1.40709,1.40709,0,0,0,.294-.47791,1.71935,1.71935,0,0,0,.1029-.60552,1.66256,1.66256,0,0,0-.1029-.59113,1.43659,1.43659,0,0,0-.29118-.47509,1.34765,1.34765,0,0,0-.45289-.31871,1.45086,1.45086,0,0,0-.588-.116,1.43,1.43,0,0,0-.58519.116,1.355,1.355,0,0,0-.45007.31871,1.43586,1.43586,0,0,0-.29087.47509A1.65573,1.65573,0,0,0,6.26939,38.63236Z"/><path class="cls-1" d="M10.93527,36.5925h1.15849l1.08217,2.91467h.01783l1.07029-2.91467h1.16443v4.10256h-.735V37.39818h-.01189l-1.26451,3.29688h-.51763l-1.24669-3.29688h-.01189v3.29688h-.7056Z"/><path class="cls-1" d="M17.0164,36.5925h1.35834a3.00235,3.00235,0,0,1,.64712.0638,1.36076,1.36076,0,0,1,.49386.20862.97429.97429,0,0,1,.31777.37094,1.219,1.219,0,0,1,.11166.54453,1.16109,1.16109,0,0,1-.12949.57361,1.03411,1.03411,0,0,1-.34967.37376,1.54638,1.54638,0,0,1-.51482.2058,2.93487,2.93487,0,0,1-.62334.0638h-.57049v1.6977H17.0164ZM18.275,38.38309a2.24074,2.24074,0,0,0,.34686-.026.971.971,0,0,0,.294-.09289.53463.53463,0,0,0,.20611-.18235.54061.54061,0,0,0,.07632-.3015.51472.51472,0,0,0-.07632-.29244.52739.52739,0,0,0-.203-.17671.87737.87737,0,0,0-.28837-.08414,2.67957,2.67957,0,0,0-.33216-.02033h-.54109v1.17632Z"/><path class="cls-1" d="M21.94467,36.5925h.64117l1.79372,4.10256h-.847l-.38814-.93861h-1.8056l-.37626.93861h-.82915Zm.94111,2.5381-.64117-1.66892-.65274,1.66892Z"/><path class="cls-1" d="M28.64914,40.48082a3.26923,3.26923,0,0,1-.69685.23457,4.0672,4.0672,0,0,1-.87324.08382,2.56859,2.56859,0,0,1-.9236-.1592,2.11678,2.11678,0,0,1-.71749-.44631,2.0237,2.0237,0,0,1-.46759-.68371,2.2341,2.2341,0,0,1-.16764-.87763,2.19744,2.19744,0,0,1,.17359-.88951,1.97682,1.97682,0,0,1,.47634-.67495,2.11971,2.11971,0,0,1,.71467-.4288,2.582,2.582,0,0,1,.89389-.15075,2.80471,2.80471,0,0,1,.91453.142,1.87279,1.87279,0,0,1,.66745.37376l-.51138.54453a1.26832,1.26832,0,0,0-.44413-.29557,1.56648,1.56648,0,0,0-.62053-.12167,1.48853,1.48853,0,0,0-.59707.116,1.34066,1.34066,0,0,0-.4557.31871,1.43678,1.43678,0,0,0-.29119.47509,1.66278,1.66278,0,0,0-.1029.59113,1.71957,1.71957,0,0,0,.1029.60552,1.4074,1.4074,0,0,0,.294.47791,1.32339,1.32339,0,0,0,.46478.31589,1.61137,1.61137,0,0,0,.62053.11291,2.17309,2.17309,0,0,0,.82914-.14481V38.9567h-.87637V38.354h1.59386Z"/><path class="cls-1" d="M30.10225,36.5925h.98209l1.93509,3.07106H33.031V36.5925h.74095v4.10256h-.9408l-1.97607-3.16958H30.8432v3.16958h-.74095Z"/><path class="cls-1" d="M35.24227,36.5925h.74094l-.23118.12187.23118-.12187v4.10256h-.74094Z"/><path class="cls-1" d="M37.57144,36.5925h2.75829v.63742H38.31239V38.273H40.2237v.61428H38.31239v1.1588h2.12306v.649h-2.864Z"/><path class="cls-1" d="M70.26684,36.5925h1.43248a3.13389,3.13389,0,0,1,.79317.10446,2.04391,2.04391,0,0,1,.71937.34467,1.80394,1.80394,0,0,1,.51919.63179,2.1183,2.1183,0,0,1,.19955.97051,2.00251,2.00251,0,0,1-.19955.92705,1.89521,1.89521,0,0,1-.51919.63742,2.16031,2.16031,0,0,1-.71937.36781,2.76271,2.76271,0,0,1-.79317.11885H70.26684Zm1.318,3.46514a2.41442,2.41442,0,0,0,.55986-.06662,1.45283,1.45283,0,0,0,.5048-.22582,1.20534,1.20534,0,0,0,.36844-.43193,1.47771,1.47771,0,0,0,.14262-.68934,1.57466,1.57466,0,0,0-.14262-.71873,1.168,1.168,0,0,0-.36844-.43444,1.36136,1.36136,0,0,0-.5048-.21424,2.749,2.749,0,0,0-.55986-.05818h-.59926v2.8393Z"/><path class="cls-1" d="M74.867,36.5925h.66182l-.48479,1.52974H74.4673Z"/><path class="cls-1" d="M76.74425,36.5925h.6224l1.74086,4.10256h-.822l-.37657-.93861H76.15625l-.36469.93861H74.9865Zm.91328,2.5381-.62178-1.66892-.63367,1.66892Z"/><path class="cls-1" d="M81.79481,37.4501A.88144.88144,0,0,0,81.472,37.198a.952.952,0,0,0-.41973-.10133,1.014,1.014,0,0,0-.25084.0319.75606.75606,0,0,0-.22832.09852.53583.53583,0,0,0-.16827.1739.48415.48415,0,0,0-.06568.25772.4653.4653,0,0,0,.05692.2377.52756.52756,0,0,0,.157.168,1.058,1.058,0,0,0,.24271.12166q.14262.05208.314.10447c.12886.04253.26335.0907.40222.14481a1.5463,1.5463,0,0,1,.3822.21424,1.05362,1.05362,0,0,1,.28524.33623,1.03377,1.03377,0,0,1,.11135.50418,1.30938,1.30938,0,0,1-.11948.57643,1.1881,1.1881,0,0,1-.31965.40847,1.36014,1.36014,0,0,1-.4679.24334,1.94516,1.94516,0,0,1-.56548.081,2.09081,2.09081,0,0,1-.77-.14762,1.48875,1.48875,0,0,1-.61678-.43757l.51356-.48666a1.035,1.035,0,0,0,.39659.33028,1.1068,1.1068,0,0,0,.48854.12167,1.08644,1.08644,0,0,0,.25647-.0319.6802.6802,0,0,0,.23708-.107.60176.60176,0,0,0,.17077-.1886.55047.55047,0,0,0,.06568-.28086.46352.46352,0,0,0-.07381-.26961.6656.6656,0,0,0-.20017-.18516,1.41985,1.41985,0,0,0-.2965-.13636l-.35969-.12167a3.48487,3.48487,0,0,1-.36531-.13887,1.20461,1.20461,0,0,1-.32778-.21456,1.02334,1.02334,0,0,1-.23707-.32746,1.13658,1.13658,0,0,1-.09133-.48385,1.07267,1.07267,0,0,1,.12823-.5389,1.14008,1.14008,0,0,1,.33716-.37344,1.483,1.483,0,0,1,.47353-.22019,2.03124,2.03124,0,0,1,.53921-.07256,1.88921,1.88921,0,0,1,.62491.11009,1.52775,1.52775,0,0,1,.5511.33028Z"/><path class="cls-1" d="M85.15205,37.4501a.88144.88144,0,0,0-.32278-.25209.952.952,0,0,0-.41973-.10133,1.014,1.014,0,0,0-.25084.0319.75606.75606,0,0,0-.22832.09852.53583.53583,0,0,0-.16827.1739.48415.48415,0,0,0-.06568.25772.4653.4653,0,0,0,.05692.2377.52756.52756,0,0,0,.157.168,1.058,1.058,0,0,0,.24271.12166q.14262.05208.314.10447c.12886.04253.26335.0907.40221.14481a1.54619,1.54619,0,0,1,.38221.21424,1.05362,1.05362,0,0,1,.28524.33623,1.03377,1.03377,0,0,1,.11135.50418,1.30938,1.30938,0,0,1-.11948.57643,1.1881,1.1881,0,0,1-.31965.40847,1.36014,1.36014,0,0,1-.4679.24334,1.94516,1.94516,0,0,1-.56548.081,2.09081,2.09081,0,0,1-.77-.14762,1.48875,1.48875,0,0,1-.61678-.43757l.51356-.48666a1.035,1.035,0,0,0,.39659.33028,1.1068,1.1068,0,0,0,.48854.12167,1.08644,1.08644,0,0,0,.25647-.0319.6802.6802,0,0,0,.23708-.107.60176.60176,0,0,0,.17077-.1886.55047.55047,0,0,0,.06568-.28086.46352.46352,0,0,0-.07381-.26961.6656.6656,0,0,0-.20017-.18516,1.41985,1.41985,0,0,0-.2965-.13636l-.35969-.12167a3.48487,3.48487,0,0,1-.36531-.13887,1.20461,1.20461,0,0,1-.32778-.21456,1.02334,1.02334,0,0,1-.23707-.32746,1.13658,1.13658,0,0,1-.09133-.48385,1.07267,1.07267,0,0,1,.12823-.5389,1.14008,1.14008,0,0,1,.33716-.37344,1.483,1.483,0,0,1,.47353-.22019,2.03124,2.03124,0,0,1,.53921-.07256,1.88921,1.88921,0,0,1,.62491.11009,1.52775,1.52775,0,0,1,.5511.33028Z"/><path class="cls-1" d="M89.67716,39.18846a1.7078,1.7078,0,0,1-.12573.66932,1.46665,1.46665,0,0,1-.85636.82852,1.89831,1.89831,0,0,1-1.28985,0,1.531,1.531,0,0,1-.51606-.32152,1.44537,1.44537,0,0,1-.3428-.507,1.7422,1.7422,0,0,1-.1226-.66932v-2.596h.71936v2.56719a1.409,1.409,0,0,0,.04567.35624.87919.87919,0,0,0,.15075.31589.78838.78838,0,0,0,.27961.22582,1.11166,1.11166,0,0,0,.862,0,.77746.77746,0,0,0,.27961-.22582.88039.88039,0,0,0,.15138-.31589,1.409,1.409,0,0,0,.04567-.35624V36.5925h.71936Z"/><path class="cls-1" d="M90.67614,36.5925h1.4037a2.49014,2.49014,0,0,1,.55359.061,1.41661,1.41661,0,0,1,.47666.19985,1.04181,1.04181,0,0,1,.334.365,1.11805,1.11805,0,0,1,.12574.55047,1.05952,1.05952,0,0,1-.24834.72719,1.24491,1.24491,0,0,1-.6762.3797l1.07842,1.81936h-.86762l-.9358-1.73836h-.52544v1.73836h-.71874Zm1.30674,1.76744a2.08963,2.08963,0,0,0,.30839-.02314.87649.87649,0,0,0,.27648-.08695.54031.54031,0,0,0,.20268-.18266.53447.53447,0,0,0,.08006-.304.47343.47343,0,0,0-.07444-.27523.552.552,0,0,0-.18828-.17109.77967.77967,0,0,0-.2596-.08694,1.81237,1.81237,0,0,0-.28274-.02315h-.65055v1.15317Z"/><path class="cls-1" d="M95.75547,36.5925h.62241l1.74086,4.10256h-.822l-.37657-.93861H95.16747l-.36469.93861h-.80506Zm.91328,2.5381L96.047,37.46168l-.63366,1.66892Z"/><path class="cls-1" d="M98.678,36.5925h.95268l1.87786,3.07106h.01188V36.5925h.71874v4.10256h-.91328l-1.91726-3.16958h-.01188v3.16958H98.678Z"/><path class="cls-1" d="M106.0749,37.55457a.92073.92073,0,0,0-.4166-.32153,1.37645,1.37645,0,0,0-1.07279.01439,1.33277,1.33277,0,0,0-.44225.31871,1.42409,1.42409,0,0,0-.28587.47509,1.71176,1.71176,0,0,0-.09946.59113,1.84262,1.84262,0,0,0,.097.614,1.39117,1.39117,0,0,0,.27648.47822,1.24218,1.24218,0,0,0,.431.31,1.3936,1.3936,0,0,0,.56549.11009,1.23325,1.23325,0,0,0,.57611-.13042,1.12847,1.12847,0,0,0,.40535-.34467l.57612.41129a1.84761,1.84761,0,0,1-.65619.53014,2.05458,2.05458,0,0,1-.90765.18828,2.311,2.311,0,0,1-.87012-.1592,1.998,1.998,0,0,1-.68183-.44631,2.01911,2.01911,0,0,1-.44538-.68371,2.332,2.332,0,0,1-.16014-.87763,2.25054,2.25054,0,0,1,.1689-.88951,1.96821,1.96821,0,0,1,.46227-.67495,2.04153,2.04153,0,0,1,.69309-.4288,2.44051,2.44051,0,0,1,.86762-.15075,2.31658,2.31658,0,0,1,.40534.03753,2.05153,2.05153,0,0,1,.40535.116,1.984,1.984,0,0,1,.36531.19423,1.189,1.189,0,0,1,.29087.27805Z"/><path class="cls-1" d="M107.26905,36.5925h2.67666v.63742h-1.95792V38.273h1.85533v.61428h-1.85533v1.1588h2.06051v.649h-2.77925Z"/><path class="cls-1" d="M111.96055,39.565h-1.36992v-.59081h1.36992l-.685.29541.685-.29541Z"/><path class="cls-1" d="M112.00622,36.5925h.80443l1.11283,3.158h.02314l1.12409-3.158h.77628l-1.62075,4.10256h-.62178Z"/><path class="cls-1" d="M116.40122,36.5925H117.12l-.35937.48884.35937-.48884v4.10256h-.71874Z"/><path class="cls-1" d="M118.14771,36.5925h2.67666v.63742h-1.95792V38.273h1.85533v.61428h-1.85533v1.1588H120.927v.649h-2.77925Z"/><path class="cls-1" d="M56.13322,10.17151h.64555v3.05386h1.54257v.57424H56.13322Z"/><path class="cls-1" d="M60.3759,10.17151h.5586l1.5629,3.6281h-.73782l-.3381-.83009H59.84827l-.3281.83009h-.72249Zm.82008,2.24442-.5586-1.47564-.56893,1.47564Z"/><polygon class="cls-5" points="59.361 39.679 59.361 42.648 62.791 42.648 62.791 41.62 63.478 41.62 63.478 42.648 66.992 42.648 66.992 39.679 65.221 39.679 65.221 42.108 64.017 42.108 64.017 39.734 62.247 39.734 62.247 42.108 61.048 42.108 61.048 39.679 59.361 39.679 59.361 39.679"/><path class="cls-5" d="M66.98283,38.53956V36.76462H49.545V38.536h1.57539a3.01152,3.01152,0,0,1-2.74224,2.46c-1.58955,0-2.87828-1.58249-2.87828-3.5357,0-1.95254,1.28873-3.536,2.87828-3.536a2.96169,2.96169,0,0,1,2.68439,2.25815l1.57892-.6492A4.64794,4.64794,0,0,0,48.37819,32.156c-2.52546,0-4.5739,2.37476-4.5739,5.30431,0,2.929,2.04844,5.30382,4.5739,5.30382a4.79907,4.79907,0,0,0,4.478-4.21518Z"/></g></svg>