<?xml version="1.0" encoding="utf-8"?>
<!-- Generator: Adobe Illustrator 19.1.0, SVG Export Plug-In . SVG Version: 6.00 Build 0)  -->
<svg version="1.1" xmlns="http://www.w3.org/2000/svg" xmlns:xlink="http://www.w3.org/1999/xlink" x="0px" y="0px"
	 viewBox="0 0 254.7 48.5" enable-background="new 0 0 254.7 48.5" xml:space="preserve">
<g id="Layer_1">
</g>
<g id="Layer_4">
	<g display="none">
		<g display="inline">
			<g>
				<path fill="#276092" d="M157.7,21.6c0,0-1.5-2.3-5-2.3c-4.7,0-7.9,4.4-7.9,9.9c0,6.1,3.4,9.1,7.5,9.1c4.1,0,5.7-2.7,5.7-2.7v2.2
					h4.5V12.7h-4.6V21.6z M157.7,33.4c0,0-1.4,2.2-3.8,2.2c-2.5,0-4.4-2.3-4.4-6.7c0-5,2.4-6.6,4.5-6.6c2.4,0,3.7,2.3,3.7,2.3V33.4z
					"/>
				<path fill="#276092" d="M78.2,34.8c-5.4,0-8.5-4.1-8.5-9.5c0-6.6,3.9-9.9,8.5-9.9c4.7,0,6.5,3.7,6.5,3.7l2-1.5
					c0,0-1.6-5.3-9.5-5.3c-7.2,0-12.9,5.6-12.9,13.2c0,8.6,6,12.8,12.4,12.8c7.4,0,9.9-5.1,9.9-5.1l-1.5-1.5
					C85.3,31.7,83.2,34.8,78.2,34.8z"/>
				<polygon fill="#276092" points="195.8,12.8 190.9,12.8 190.9,37.8 206.9,37.8 206.9,34.4 195.8,34.4 				"/>
				<path fill="#276092" d="M223,19c0-3.2,1.5-4,2.9-4c0.9,0,1.6,0.5,1.6,0.5l0.9-1.6c-0.7-0.6-1.9-1.6-4.5-1.6
					c-2.4,0-4.4,1.3-5.2,3.6c-0.4,1.1-0.4,2.1-0.4,4h-2.7v2.8h2.7v15.2h4.6V22.6h4.1v-2.8H223C223,19.8,223,19.2,223,19z"/>
				<path fill="#276092" d="M117.5,19.3c-3.7,0-5.8,2.8-5.8,2.8v-2.3h-4.6v18h4.6V24.4c0.3-0.5,1.8-2.2,3.8-2.2
					c1.7,0,2.5,1.1,2.8,2.1c0.2,0.6,0.2,1.2,0.2,1.8v11.8h4.6V25.6c0-1.5-0.1-3.3-1.4-4.6C120.9,20,119.4,19.3,117.5,19.3z"/>
				<path fill="#276092" d="M96,19.3c-5.1,0-7.4,3.9-7.4,3.9l1.3,1.3c0,0,2-2.4,5.1-2.3c2.4,0,4.2,1.2,4.2,4.3c0,0.3,0,0.6,0,0.6
					c-1.2-0.4-2.5-0.8-4.2-0.8c-4.1,0-7.5,2.3-7.5,6.4c0,3.5,2.7,5.7,6.3,5.7c3.2,0,5-1.7,5.6-2.5v2h4.4c0,0,0-4.4,0-10.3
					C103.8,21.3,100.5,19.3,96,19.3z M99.3,34.2c-0.8,0.6-2,1.3-3.6,1.3c-2.3,0-3.2-1.6-3.2-3.1c0-2.3,1.8-3.3,3.9-3.3
					c1.2,0,2.1,0.3,3,0.7V34.2z"/>
				<path fill="#276092" d="M134.3,19.3c-5.1,0-7.4,3.9-7.4,3.9l1.3,1.3c0,0,2-2.4,5.1-2.3c2.4,0,4.2,1.2,4.2,4.3c0,0.3,0,0.6,0,0.6
					c-1.2-0.4-2.5-0.8-4.2-0.8c-4.1,0-7.5,2.3-7.5,6.4c0,3.5,2.7,5.7,6.3,5.7c3.2,0,5-1.7,5.6-2.5v2h4.4c0,0,0-4.4,0-10.3
					C142.1,21.3,138.8,19.3,134.3,19.3z M137.5,34.2c-0.8,0.6-2,1.3-3.6,1.3c-2.3,0-3.2-1.6-3.2-3.1c0-2.3,1.8-3.3,3.8-3.3
					c1.2,0,2.1,0.3,3,0.7V34.2z"/>
				<path fill="#276092" d="M173.6,19.3c-5.1,0-7.4,3.9-7.4,3.9l1.3,1.3c0,0,2-2.4,5.1-2.3c2.4,0,4.2,1.2,4.2,4.3c0,0.3,0,0.6,0,0.6
					c-1.2-0.4-2.5-0.8-4.2-0.8c-4.1,0-7.5,2.3-7.5,6.4c0,3.5,2.7,5.7,6.3,5.7c3.2,0,5-1.7,5.6-2.5v2h4.4c0,0,0-4.4,0-10.3
					C181.4,21.3,178.1,19.3,173.6,19.3z M176.8,34.2c-0.8,0.6-2,1.3-3.6,1.3c-2.3,0-3.2-1.6-3.2-3.1c0-2.3,1.8-3.3,3.9-3.3
					c1.2,0,2.1,0.3,3,0.7V34.2z"/>
				<path fill="#276092" d="M244.6,25.7c-0.7-3.2-2.9-6.4-8.2-6.4c-5.7,0-9.4,4.5-9.4,9.5c0,5.5,3.2,9.6,9.6,9.6
					c6.2,0,8.2-4.5,8.2-4.5l-1.2-1.1c0,0-1.8,2.6-6.2,2.6c-3.7,0-5.6-2.9-5.7-6.1h13.3C244.9,29.3,245,27.7,244.6,25.7z M231.8,26.6
					c0.5-3,2.1-4.5,4.4-4.5c3.3,0,4,2.5,4,4c0,0.2,0,0.5,0,0.5H231.8z"/>
				<g>
					<rect x="208.8" y="19.8" fill="#276092" width="4.6" height="18"/>
					<path fill="#276092" d="M208.6,14.8c0-1.4,1.1-2.5,2.5-2.5c1.4,0,2.5,1.1,2.5,2.5c0,1.4-1.1,2.5-2.5,2.5
						C209.7,17.2,208.6,16.1,208.6,14.8z"/>
				</g>
				<g>
					<path fill="#276092" d="M245.2,13.4h3.5V14h-1.4v3.7h-0.8V14h-1.4V13.4z"/>
					<path fill="#276092" d="M249.2,13.4h1.1l1.2,3.4h0l1.2-3.4h1.1v4.3H253v-3.3h0l-1.2,3.3h-0.6l-1.2-3.3h0v3.3h-0.7V13.4z"/>
				</g>
			</g>
		</g>
		<path display="inline" fill="#E2231A" d="M22.2,22c0.7,0,1.3,0.6,1.3,1.3c0,0.7-0.6,1.3-1.3,1.3c-0.7,0-1.3-0.6-1.3-1.3
			C20.9,22.5,21.5,22,22.2,22z M47.3,27.2c-0.1,0.2-0.1,0.5-0.2,0.8c-1.1,5.9-5.6,12.1-12.4,15c-2.7,1.1-5.4,1.8-8.1,1.8l-0.6,0
			l0-0.2l0.6,0c2-0.2,4-0.7,5.9-1.5c5.8-2.5,9.9-7.3,11.6-12.9v0c0,0,0.1-0.5,0.3-0.9c0,0-0.9,0-1.5,1.2c-0.1,0.2-0.2,0.3-0.3,0.5
			c-1.8,3.8-5,7-9.2,8.8c-2.8,1.2-5.7,1.7-8.5,1.4l-0.6,0l0-0.2l0.6,0c2.1,0,4.3-0.4,6.4-1.3c4.5-1.9,7.7-5.5,9.3-9.7h0
			c0,0,0.2-0.5,0.3-0.9c0,0-0.9,0-1.6,1.1c0,0.1-0.1,0.1-0.1,0.2c-1.5,2.7-4,4.9-7.1,6.2c-2.8,1.2-5.8,1.5-8.6,0.9l-0.6-0.1l0-0.2
			l0.6,0.1c2.1,0.2,4.4-0.1,6.5-1c4.3-1.8,7.1-5.6,7.9-9.8c0,0,0.1-0.5,0.1-0.9c0,0-0.9,0.1-1.3,1.4c-1,2.7-3.1,5.1-6,6.3
			c-1.6,0.7-3.3,1-4.9,0.9c-2.5-0.3-4.4-2.5-4.4-5.1c0-2.8,2.3-5.2,5.1-5.1c0,0,0.2,0,0.3,0.1l0.1-0.1c-1.4-1.9-3.7-3.2-6.3-3.2
			c-1.9,0-3.7,0.7-5.1,1.9c0.2-4.1,2.6-8,6.7-9.7c5.6-2.4,12.1,0.2,14.5,5.8c0.3,0.9,0.5,1.3,0.6,1.7c0.1,0.6,0.8,1,0.8,1
			c-0.1-0.4-0.1-0.8-0.2-1.1l0,0c-0.2-0.7-0.4-1.1-0.6-1.8c-2.9-6.8-10.9-10-17.7-7.1c-2.1,0.9-3.8,2.3-5.2,4l-0.3,0.5l-0.1-0.1
			l0.3-0.5c1.5-2.4,3.8-4.4,6.6-5.6c7.4-3.2,15.9,0.3,19,7.6c0.3,0.6,1,0.8,1,0.8c-0.1-0.4-0.3-0.7-0.4-1.1
			c-3.7-8.7-13.7-12.7-22.4-9c-2.1,0.9-3.9,2.2-5.4,3.7L12,12.6l-0.1-0.1l0.4-0.4c1.8-2.2,4.1-4,6.9-5.2c9.1-3.9,19.6,0.3,23.5,9.4
			c0.1,0.4,0.3,0.7,0.4,1c0.3,0.6,0.9,0.9,0.9,0.9c-0.1-0.4-0.2-0.7-0.4-1.1l0,0c-0.1-0.3-0.3-0.7-0.4-1C38.8,5.6,26.7,0.7,16.2,5.2
			c-1.9,0.8-3.6,2-5.2,3.3l-0.4,0.4l-0.1-0.1l0.4-0.4c1.9-1.9,4.2-3.5,6.9-4.7C28.7-1,41.3,4.1,45.9,14.9c0.2,0.5,0.4,1,0.6,1.6
			c1,3.2,0.9,3.4,1,4c0.1,0.6,0.7,1.1,0.7,1.1c0-0.4-0.1-0.8-0.1-1.1h0c-0.3-2.1-0.8-3.7-1.7-5.8C41.2,2.4,27-3.3,14.7,2
			C2.4,7.2-3.3,21.5,2,33.8c5.3,12.3,19.5,18,31.8,12.7c8.6-3.7,13.8-11.7,14.5-19.8l0,0c0,0,0-0.5,0.1-0.9
			C48.4,25.7,47.7,25.9,47.3,27.2z"/>
	</g>
	<g>
		<g>
			<path fill="#095585" d="M157.9,21.6c0,0-1.5-2.3-5-2.3c-4.7,0-7.9,4.4-7.9,9.9c0,6.1,3.4,9.1,7.5,9.1c4.1,0,5.7-2.7,5.7-2.7v2.2
				h4.5V12.7h-4.7V21.6z M157.9,33.4c0,0-1.4,2.2-3.8,2.2c-2.5,0-4.4-2.3-4.4-6.8c0-5,2.4-6.6,4.5-6.6c2.4,0,3.7,2.3,3.7,2.3V33.4z"
				/>
			<path fill="#095585" d="M78.3,34.8c-5.4,0-8.5-4.1-8.5-9.5c0-6.6,3.9-10,8.5-10c4.7,0,6.6,3.7,6.6,3.7l2-1.5c0,0-1.6-5.3-9.5-5.3
				c-7.2,0-12.9,5.6-12.9,13.2c0,8.6,6,12.8,12.4,12.8c7.4,0,9.9-5.1,9.9-5.1l-1.5-1.5C85.3,31.8,83.3,34.8,78.3,34.8z"/>
			<path fill="#095585" d="M117.6,19.3c-3.8,0-5.8,2.8-5.8,2.8v-2.3h-4.6v18.1h4.6V24.4c0.3-0.5,1.8-2.2,3.9-2.2
				c1.7,0,2.5,1.1,2.8,2.1c0.2,0.6,0.2,1.2,0.2,1.8v11.8h4.7V25.6c0-1.5-0.1-3.3-1.4-4.7C121,20,119.5,19.3,117.6,19.3z"/>
			<path fill="#095585" d="M96.1,19.3c-5.1,0-7.5,3.9-7.5,3.9l1.3,1.3c0,0,2-2.4,5.2-2.3c2.4,0,4.2,1.2,4.2,4.3c0,0.3,0,0.6,0,0.6
				c-1.2-0.4-2.5-0.8-4.2-0.8c-4.1,0-7.5,2.3-7.5,6.4c0,3.5,2.7,5.7,6.3,5.7c3.2,0,5-1.7,5.6-2.5v2h4.4c0,0,0-4.4,0-10.4
				C103.9,21.3,100.6,19.3,96.1,19.3z M99.4,34.2c-0.8,0.6-2,1.3-3.6,1.3c-2.3,0-3.2-1.6-3.2-3.1c0-2.3,1.8-3.3,3.9-3.3
				c1.2,0,2.1,0.3,3,0.7V34.2z"/>
			<path fill="#095585" d="M134.4,19.3c-5.1,0-7.4,3.9-7.4,3.9l1.3,1.3c0,0,2-2.4,5.2-2.3c2.4,0,4.2,1.2,4.2,4.3c0,0.3,0,0.6,0,0.6
				c-1.2-0.4-2.5-0.8-4.2-0.8c-4.1,0-7.5,2.3-7.5,6.4c0,3.5,2.7,5.7,6.3,5.7c3.2,0,5-1.7,5.6-2.5v2h4.4c0,0,0-4.4,0-10.4
				C142.2,21.3,138.9,19.3,134.4,19.3z M137.7,34.2c-0.8,0.6-2,1.3-3.6,1.3c-2.3,0-3.2-1.6-3.2-3.1c0-2.3,1.8-3.3,3.9-3.3
				c1.2,0,2.1,0.3,3,0.7V34.2z"/>
			<path fill="#095585" d="M173.8,19.3c-5.1,0-7.5,3.9-7.5,3.9l1.3,1.3c0,0,2-2.4,5.2-2.3c2.4,0,4.2,1.2,4.2,4.3c0,0.3,0,0.6,0,0.6
				c-1.2-0.4-2.5-0.8-4.2-0.8c-4.1,0-7.5,2.3-7.5,6.4c0,3.5,2.7,5.7,6.3,5.7c3.2,0,5-1.7,5.6-2.5v2h4.4c0,0,0-4.4,0-10.4
				C181.6,21.3,178.3,19.3,173.8,19.3z M177,34.2c-0.8,0.6-2,1.3-3.6,1.3c-2.3,0-3.2-1.6-3.2-3.1c0-2.3,1.8-3.3,3.9-3.3
				c1.2,0,2.1,0.3,3,0.7V34.2z"/>
			<path fill="#095585" d="M244.9,25.7c-0.7-3.2-2.9-6.4-8.2-6.4c-5.7,0-9.4,4.5-9.4,9.5c0,5.5,3.3,9.6,9.6,9.6
				c6.2,0,8.2-4.5,8.2-4.5l-1.2-1.1c0,0-1.8,2.6-6.2,2.6c-3.7,0-5.6-2.9-5.7-6.1h13.3C245.2,29.3,245.3,27.7,244.9,25.7z M232,26.6
				c0.5-3,2.1-4.5,4.4-4.5c3.3,0,4,2.5,4.1,4c0,0.2,0,0.5,0,0.5H232z"/>
			<path fill="#095585" d="M186,26.2h10.1v3H186V26.2z"/>
			<path fill="#095585" d="M199.6,12.8l7.7,17.7l7.6-17.7h4.3l-12,25.6h-1.2l-12-25.6H199.6z"/>
			<rect x="220.1" y="19.8" fill="#095585" width="4.6" height="18"/>
			<path fill="#095585" d="M219.9,14.8c0-1.4,1.1-2.5,2.5-2.5c1.4,0,2.5,1.1,2.5,2.5s-1.1,2.5-2.5,2.5
				C221,17.2,219.9,16.1,219.9,14.8z"/>
			<path fill="#095585" d="M245.6,13.5h1.1l1.2,3.4h0l1.2-3.4h1.1v4.3h-0.7v-3.3h0l-1.2,3.3h-0.6l-1.2-3.3h0v3.3h-0.7V13.5z"/>
			<path fill="#095585" d="M253.9,14.8c-0.1-0.5-0.5-0.9-1.1-0.9c-0.9,0-1.3,0.8-1.3,1.6c0,0.8,0.4,1.6,1.3,1.6c0.7,0,1-0.5,1.1-1.1
				h0.7c-0.1,1-0.8,1.7-1.8,1.7c-1.3,0-2.1-1-2.1-2.3c0-1.2,0.8-2.3,2.1-2.3c1,0,1.7,0.5,1.8,1.5H253.9z"/>
			<path fill="#095585" d="M245.6,13.5h1.1l1.2,3.4h0l1.2-3.4h1.1v4.3h-0.7v-3.3h0l-1.2,3.3h-0.6l-1.2-3.3h0v3.3h-0.7V13.5z"/>
			<path fill="#095585" d="M253.9,14.8c-0.1-0.5-0.5-0.9-1.1-0.9c-0.9,0-1.3,0.8-1.3,1.6c0,0.8,0.4,1.6,1.3,1.6c0.7,0,1-0.5,1.1-1.1
				h0.7c-0.1,1-0.8,1.7-1.8,1.7c-1.3,0-2.1-1-2.1-2.3c0-1.2,0.8-2.3,2.1-2.3c1,0,1.7,0.5,1.8,1.5H253.9z"/>
		</g>
		<path fill="#E62034" d="M22.2,22c0.7,0,1.3,0.6,1.3,1.3c0,0.7-0.6,1.3-1.3,1.3c-0.7,0-1.3-0.6-1.3-1.3C20.9,22.5,21.5,22,22.2,22z
			 M47.3,27.2c-0.1,0.2-0.1,0.5-0.2,0.8C46,34,41.5,40.2,34.7,43c-2.7,1.1-5.4,1.8-8.2,1.8l-0.6,0l0-0.2l0.6,0c2-0.2,4-0.7,5.9-1.5
			c5.8-2.5,9.9-7.3,11.6-12.9v0c0,0,0.2-0.5,0.3-0.9c0,0-0.9,0-1.5,1.2c-0.1,0.2-0.2,0.3-0.3,0.5c-1.8,3.8-5,7-9.2,8.8
			c-2.8,1.2-5.7,1.7-8.5,1.4l-0.6,0l0-0.2l0.6,0c2.1,0,4.3-0.4,6.4-1.3c4.5-1.9,7.7-5.5,9.3-9.8h0c0,0,0.2-0.5,0.3-0.9
			c0,0-0.9,0-1.6,1.1c0,0.1-0.1,0.1-0.1,0.2c-1.5,2.7-4,4.9-7.1,6.2c-2.8,1.2-5.8,1.5-8.6,0.9l-0.6-0.1l0-0.2l0.6,0.1
			c2.1,0.2,4.4-0.1,6.5-1c4.3-1.8,7.1-5.6,7.9-9.8c0,0,0.1-0.5,0.1-0.9c0,0-0.9,0.1-1.3,1.4c-1,2.7-3.1,5.1-6,6.3
			c-1.6,0.7-3.3,1-4.9,0.9c-2.5-0.3-4.4-2.5-4.4-5.1c0-2.8,2.3-5.2,5.1-5.1c0,0,0.2,0,0.3,0.1l0.1-0.1c-1.4-1.9-3.7-3.2-6.3-3.2
			c-2,0-3.7,0.7-5.1,1.9c0.2-4.1,2.6-8,6.7-9.7c5.6-2.4,12.1,0.2,14.5,5.8c0.3,0.9,0.5,1.3,0.6,1.7c0.1,0.6,0.8,1,0.8,1
			c-0.1-0.4-0.1-0.8-0.2-1.1l0,0c-0.2-0.7-0.4-1.1-0.6-1.8c-2.9-6.8-10.9-10-17.7-7.1c-2.1,0.9-3.8,2.3-5.2,4l-0.3,0.5l-0.1-0.1
			l0.3-0.5c1.5-2.4,3.8-4.4,6.6-5.6c7.4-3.2,15.9,0.3,19,7.6c0.3,0.6,1,0.8,1,0.8c-0.1-0.4-0.3-0.7-0.4-1.1
			c-3.7-8.7-13.7-12.7-22.4-9c-2.1,0.9-3.9,2.2-5.4,3.7L12,12.6l-0.1-0.1l0.4-0.4c1.8-2.2,4.2-4,6.9-5.2c9.1-3.9,19.6,0.3,23.6,9.5
			c0.1,0.4,0.3,0.7,0.4,1c0.3,0.6,0.9,0.9,0.9,0.9c-0.1-0.4-0.2-0.7-0.4-1.1l0,0c-0.1-0.3-0.3-0.7-0.4-1C38.8,5.6,26.7,0.7,16.2,5.2
			c-1.9,0.8-3.6,2-5.2,3.3l-0.4,0.4l-0.1-0.1l0.4-0.4c1.9-1.9,4.2-3.5,6.9-4.7C28.7-1,41.3,4.1,46,14.9c0.2,0.5,0.4,1,0.6,1.6
			c1,3.2,0.9,3.4,1,4c0.1,0.6,0.7,1.1,0.7,1.1c0-0.4-0.1-0.8-0.1-1.1h0c-0.3-2.1-0.8-3.7-1.7-5.8C41.2,2.4,27-3.3,14.7,2
			C2.4,7.2-3.3,21.5,2,33.8c5.3,12.3,19.5,18,31.8,12.7c8.6-3.7,13.8-11.7,14.6-19.9l0,0c0,0,0-0.5,0.1-0.9
			C48.4,25.8,47.7,25.9,47.3,27.2z"/>
	</g>
</g>
<g id="Layer_2" display="none">
</g>
</svg>
